<?xml version="1.0" encoding="UTF-8" standalone="no"?><!DOCTYPE svg PUBLIC "-//W3C//DTD SVG 1.1//EN" "http://www.w3.org/Graphics/SVG/1.1/DTD/svg11.dtd"><svg width="100%" height="100%" viewBox="0 0 512 235" version="1.1" xmlns="http://www.w3.org/2000/svg" xmlns:xlink="http://www.w3.org/1999/xlink" xml:space="preserve" xmlns:serif="http://www.serif.com/" style="fill-rule:evenodd;clip-rule:evenodd;stroke-linejoin:round;stroke-miterlimit:2;"><g><path d="M459.726,17.301c0,-5.219 -4.237,-9.456 -9.456,-9.456l-386.661,0c-5.218,0 -9.455,4.237 -9.455,9.456l0,170.205c0,5.22 4.237,9.457 9.455,9.457l386.661,0c5.219,0 9.456,-4.237 9.456,-9.457l0,-170.205Z" style="fill:#e1e6e9;"/><path d="M127.334,120.023l12.7,14l31.7,-31c3.1,-3.1 8.2,-3.1 11.3,0l18.399,18l0,-80.3c0,-4.4 -3.599,-8 -8,-8l-111.899,0c-4.4,0 -8,3.6 -8,8l0,120.7l42.5,-41.4c3.1,-3.1 8.2,-3.1 11.3,0Z" style="fill:#bae5ff;fill-rule:nonzero;"/><path d="M183.134,103.023c-3.101,-3.1 -8.201,-3.1 -11.301,0l-31.3,30.7l-0.7,0l-12.4,-13.7c-3.1,-3.1 -8.2,-3.1 -11.299,0l-42.601,41.4l0,7.3c0,4.4 3.601,8 8,8l113,0l0,-0.1c3.9,-0.5 7,-3.9 7,-7.9l0,-47.6l-18.399,-18.1Z" style="fill:#5a5b67;fill-rule:nonzero;"/><path d="M115.034,125.623l-11.301,11.3c-1.599,1.6 -1.599,4.1 0,5.7c1.601,1.6 4.101,1.6 5.7,0l11.3,-11.3c1.601,-1.6 1.601,-4.1 0,-5.7c-1.599,-1.6 -4.2,-1.6 -5.7,0l0.001,0Z" style="fill:#d1d3d4;fill-rule:nonzero;"/><path d="M165.034,114.623l-11.301,11.3c-1.599,1.6 -1.599,4.1 0,5.7c1.601,1.6 4.101,1.6 5.7,0l11.301,-11.3c1.6,-1.6 1.6,-4.1 0,-5.7c-1.6,-1.6 -4.2,-1.6 -5.7,0Z" style="fill:#d1d3d4;fill-rule:nonzero;"/><path d="M113.534,80.723c-8.801,0 -16.001,-7.2 -16.001,-16c0.001,-8.8 7.2,-16 16.001,-16c8.8,0 15.999,7.2 15.999,16c0,8.8 -7.2,16 -16,16l0.001,0Z" style="fill:#377fc1;fill-rule:nonzero;"/><path d="M185.534,76.723c0,-6.6 -5.4,-12 -12,-12c-5.3,0 -9.801,3.4 -11.4,8.2c-1.701,-2 -4.3,-3.2 -7.1,-3.2c-5.2,0 -9.5,4.3 -9.5,9.5c0,5.1 4,9.2 9,9.5l20,0l0,-0.1c6.2,-0.5 11,-5.6 11,-11.9Z" style="fill:#fff;fill-rule:nonzero;"/><path d="M155.634,135.723c-3.901,-2.7 -10.5,-2.1 -15,-1.2l-0.101,0.1l0.5,0.5l36.5,41.6l16,0c0.3,0 0.601,0 0.9,-0.1c-1.1,-1.2 -34.299,-38 -38.799,-40.9Z" style="fill:#36373f;fill-rule:nonzero;"/><path d="M22.481,102.404c-0.025,-0.963 0.33,-1.935 1.065,-2.669l15.876,-15.877c1.421,-1.421 3.728,-1.421 5.149,0c1.421,1.421 1.421,3.728 0,5.149l-13.397,13.397l13.397,13.397c1.421,1.421 1.421,3.728 0,5.149c-1.421,1.421 -3.728,1.421 -5.149,0l-15.876,-15.876c-0.735,-0.735 -1.09,-1.706 -1.065,-2.67Z" style="fill:#377fc1;"/><path d="M489.519,102.404c0.025,-0.963 -0.33,-1.935 -1.065,-2.669l-15.876,-15.877c-1.421,-1.421 -3.728,-1.421 -5.149,0c-1.421,1.421 -1.421,3.728 0,5.149l13.397,13.397l-13.397,13.397c-1.421,1.421 -1.421,3.728 0,5.149c1.421,1.421 3.728,1.421 5.149,0l15.876,-15.876c0.735,-0.735 1.09,-1.706 1.065,-2.67Z" style="fill:#377fc1;"/><ellipse cx="198.139" cy="218.447" rx="8.506" ry="8.709" style="fill:#cad0d7;"/><ellipse cx="227.039" cy="218.447" rx="8.506" ry="8.709" style="fill:#cad0d7;"/><ellipse cx="256.938" cy="218.447" rx="8.506" ry="8.709" style="fill:#377fc1;"/><ellipse cx="284.838" cy="218.447" rx="8.506" ry="8.709" style="fill:#cad0d7;"/><ellipse cx="313.738" cy="218.447" rx="8.506" ry="8.709" style="fill:#cad0d7;"/><path d="M266.17,62.406l-40,0c-4.4,0 -8,-3.6 -8,-8c0,-4.4 3.6,-8 8,-8l40,0c4.4,0 8,3.6 8,8c0,4.4 -3.6,8 -8,8Z" style="fill:#377fc1;fill-rule:nonzero;"/><path d="M437.483,96.348l-212.219,0c-4.169,0 -7.579,-3.6 -7.579,-8c0,-4.4 3.41,-8 7.579,-8l212.219,0c4.169,0 7.58,3.6 7.58,8c0,4.4 -3.411,8 -7.58,8Zm-212.219,32l128.847,0c4.169,0 7.58,-3.6 7.58,-8c0,-4.4 -3.411,-8 -7.58,-8l-128.847,0c-4.169,0 -7.579,3.6 -7.579,8c0,4.4 3.41,8 7.579,8Zm174.323,24c0,-4.4 -3.411,-8 -7.579,-8l-166.744,0c-4.169,0 -7.579,3.6 -7.579,8c0,4.4 3.41,8 7.579,8l166.744,0c4.168,0 7.579,-3.6 7.579,-8Z" style="fill:#cad0d7;fill-rule:nonzero;"/></g></svg>