<?xml version="1.0" encoding="UTF-8" standalone="no"?>
<!DOCTYPE svg PUBLIC "-//W3C//DTD SVG 1.1//EN" "http://www.w3.org/Graphics/SVG/1.1/DTD/svg11.dtd">
<svg width="100%" height="100%" viewBox="0 0 512 480" version="1.1" xmlns="http://www.w3.org/2000/svg" xmlns:xlink="http://www.w3.org/1999/xlink" xml:space="preserve" xmlns:serif="http://www.serif.com/" style="fill-rule:evenodd;clip-rule:evenodd;stroke-linejoin:round;stroke-miterlimit:2;">
    <g>
        <path d="M496,0L16,0C7.2,0 0,7.2 0,16L0,464C0,472.8 7.2,480 16,480L496,480C504.8,480 512,472.8 512,464L512,16C512,7.2 504.8,0 496,0ZM496,456C496,460.4 492.4,464 488,464L24,464C19.6,464 16,460.4 16,456L16,72C16,67.6 19.6,64 24,64L488,64C492.4,64 496,67.6 496,72L496,456Z" style="fill:rgb(202,208,215);fill-rule:nonzero;"/>
        <path d="M490,40L118,40C114.7,40 112,37.3 112,34L112,30C112,26.7 114.7,24 118,24L490,24C493.3,24 496,26.7 496,30L496,34C496,37.3 493.3,40 490,40Z" style="fill:rgb(225,230,233);fill-rule:nonzero;"/>
        <path d="M24,40C19.6,40 16,36.4 16,32C16,27.6 19.6,24 24,24C28.4,24 32,27.6 32,32C32,36.4 28.4,40 24,40Z" style="fill:rgb(225,230,233);"/>
        <path d="M64,32C64,27.6 60.4,24 56,24C51.6,24 48,27.6 48,32C48,36.4 51.6,40 56,40C60.4,40 64,36.4 64,32Z" style="fill:rgb(225,230,233);"/>
        <path d="M96,32C96,27.6 92.4,24 88,24C83.6,24 80,27.6 80,32C80,36.4 83.6,40 88,40C92.4,40 96,36.4 96,32Z" style="fill:rgb(225,230,233);"/>
    </g>
    <g transform="matrix(1,0,0,1,-17.598,1.21365)">
        <g transform="matrix(0.881303,0,0,0.881303,26.0728,30.7951)">
            <path d="M262.979,194.553C262.979,185.977 256.016,179.014 247.44,179.014L47.316,179.014C38.74,179.014 31.777,185.977 31.777,194.553L31.777,343.703C31.777,352.279 38.74,359.241 47.316,359.241L247.44,359.241C256.016,359.241 262.979,352.279 262.979,343.703L262.979,194.553Z" style="fill:rgb(225,230,233);"/>
        </g>
        <g transform="matrix(0.881303,0,0,0.881303,29.8164,31.3299)">
            <path d="M243.192,178.407C251.768,178.408 258.731,185.37 258.731,193.946L258.731,208.748L27.53,208.748L27.53,193.946C27.53,185.37 34.492,178.408 43.068,178.407L243.192,178.407Z" style="fill:rgb(255,184,17);"/>
        </g>
        <g transform="matrix(0.881303,0,0,0.461633,20.122,105.514)">
            <rect x="68.794" y="160.202" width="20.632" height="42.478" style="fill:rgb(202,208,215);"/>
        </g>
        <g transform="matrix(0.881303,0,0,0.461633,154.08,105.514)">
            <rect x="68.794" y="160.202" width="20.632" height="42.478" style="fill:rgb(202,208,215);"/>
        </g>
    </g>
    <g transform="matrix(1,0,0,1,-17.598,1.21365)">
        <g transform="matrix(0.881303,0,0,0.881303,37.0696,15.6284)">
            <g transform="matrix(1,0,0,1,0,29.1277)">
                <rect x="96.101" y="223.919" width="17.598" height="17.598" style="fill:rgb(202,208,215);"/>
            </g>
            <g transform="matrix(1,0,0,1,30,29.1277)">
                <rect x="96.101" y="223.919" width="17.598" height="17.598" style="fill:rgb(202,208,215);"/>
            </g>
            <g transform="matrix(1,0,0,1,60,29.1277)">
                <rect x="96.101" y="223.919" width="17.598" height="17.598" style="fill:rgb(202,208,215);"/>
            </g>
            <g transform="matrix(1,0,0,1,90,29.1277)">
                <rect x="96.101" y="223.919" width="17.598" height="17.598" style="fill:rgb(202,208,215);"/>
            </g>
            <g transform="matrix(1,0,0,1,120,29.1277)">
                <rect x="96.101" y="223.919" width="17.598" height="17.598" style="fill:rgb(255,184,17);"/>
            </g>
        </g>
        <g transform="matrix(0.881303,0,0,0.881303,37.0696,68.5066)">
            <g transform="matrix(1,0,0,1,0,29.1277)">
                <rect x="96.101" y="223.919" width="17.598" height="17.598" style="fill:rgb(202,208,215);"/>
            </g>
            <g transform="matrix(1,0,0,1,-30,29.1277)">
                <rect x="96.101" y="223.919" width="17.598" height="17.598" style="fill:rgb(255,184,17);"/>
            </g>
            <g transform="matrix(1,0,0,1,-60,29.1277)">
                <rect x="96.101" y="223.919" width="17.598" height="17.598" style="fill:rgb(202,208,215);"/>
            </g>
            <g transform="matrix(1,0,0,1,30,29.1277)">
                <rect x="96.101" y="223.919" width="17.598" height="17.598" style="fill:rgb(202,208,215);"/>
            </g>
            <g transform="matrix(1,0,0,1,60,29.1277)">
                <rect x="96.101" y="223.919" width="17.598" height="17.598" style="fill:rgb(202,208,215);"/>
            </g>
            <g transform="matrix(1,0,0,1,90,29.1277)">
                <rect x="96.101" y="223.919" width="17.598" height="17.598" style="fill:rgb(202,208,215);"/>
            </g>
            <g transform="matrix(1,0,0,1,120,29.1277)">
                <rect x="96.101" y="223.919" width="17.598" height="17.598" style="fill:rgb(202,208,215);"/>
            </g>
        </g>
        <g transform="matrix(0.881303,0,0,0.881303,37.0696,42.0675)">
            <g transform="matrix(1,0,0,1,0,29.1277)">
                <rect x="96.101" y="223.919" width="17.598" height="17.598" style="fill:rgb(202,208,215);"/>
            </g>
            <g transform="matrix(1,0,0,1,-30,29.1277)">
                <rect x="96.101" y="223.919" width="17.598" height="17.598" style="fill:rgb(202,208,215);"/>
            </g>
            <g transform="matrix(1,0,0,1,-60,29.1277)">
                <rect x="96.101" y="223.919" width="17.598" height="17.598" style="fill:rgb(202,208,215);"/>
            </g>
            <g transform="matrix(1,0,0,1,30,29.1277)">
                <rect x="96.101" y="223.919" width="17.598" height="17.598" style="fill:rgb(255,184,17);"/>
            </g>
            <g transform="matrix(1,0,0,1,60,29.1277)">
                <rect x="96.101" y="223.919" width="17.598" height="17.598" style="fill:rgb(255,184,17);"/>
            </g>
            <g transform="matrix(1,0,0,1,90,29.1277)">
                <rect x="96.101" y="223.919" width="17.598" height="17.598" style="fill:rgb(202,208,215);"/>
            </g>
            <g transform="matrix(1,0,0,1,120,29.1277)">
                <rect x="96.101" y="223.919" width="17.598" height="17.598" style="fill:rgb(202,208,215);"/>
            </g>
        </g>
        <g transform="matrix(0.881303,0,0,0.881303,37.0696,94.9457)">
            <g transform="matrix(1,0,0,1,0,29.1277)">
                <rect x="96.101" y="223.919" width="17.598" height="17.598" style="fill:rgb(255,184,17);"/>
            </g>
            <g transform="matrix(1,0,0,1,-30,29.1277)">
                <rect x="96.101" y="223.919" width="17.598" height="17.598" style="fill:rgb(202,208,215);"/>
            </g>
            <g transform="matrix(1,0,0,1,-60,29.1277)">
                <rect x="96.101" y="223.919" width="17.598" height="17.598" style="fill:rgb(202,208,215);"/>
            </g>
        </g>
    </g>
    <g transform="matrix(1,0,0,1,38.7156,70.6953)">
        <path d="M264,136L224,136C219.6,136 216,132.4 216,128C216,123.6 219.6,120 224,120L264,120C268.4,120 272,123.6 272,128C272,132.4 268.4,136 264,136Z" style="fill:rgb(255,184,17);fill-rule:nonzero;"/>
    </g>
    <path d="M414.028,337.637L261.809,337.637C257.641,337.637 254.23,334.037 254.23,329.637C254.23,325.237 257.641,321.637 261.809,321.637L414.028,321.637C418.197,321.637 421.608,325.237 421.608,329.637C421.608,334.037 418.197,337.637 414.028,337.637ZM458.553,288.637C462.721,288.637 466.132,292.237 466.132,296.637C466.132,301.037 462.721,304.637 458.553,304.637L261.809,304.637C257.641,304.637 254.23,301.037 254.23,296.637C254.23,292.237 257.641,288.637 261.809,288.637L458.553,288.637ZM390.657,256.637C394.825,256.637 398.236,260.237 398.236,264.637C398.236,269.037 394.825,272.637 390.657,272.637L261.809,272.637C257.641,272.637 254.23,269.037 254.23,264.637C254.23,260.237 257.641,256.637 261.809,256.637L390.657,256.637ZM474.029,240.637L261.809,240.637C257.641,240.637 254.23,237.037 254.23,232.637C254.23,228.237 257.641,224.637 261.809,224.637L474.029,224.637C478.197,224.637 481.608,228.237 481.608,232.637C481.608,237.037 478.197,240.637 474.029,240.637Z" style="fill:rgb(225,230,233);fill-rule:nonzero;"/>
</svg>
