<?xml version="1.0" encoding="UTF-8" standalone="no"?><!DOCTYPE svg PUBLIC "-//W3C//DTD SVG 1.1//EN" "http://www.w3.org/Graphics/SVG/1.1/DTD/svg11.dtd"><svg width="100%" height="100%" viewBox="0 0 656 369" version="1.1" xmlns="http://www.w3.org/2000/svg" xmlns:xlink="http://www.w3.org/1999/xlink" xml:space="preserve" xmlns:serif="http://www.serif.com/" style="fill-rule:evenodd;clip-rule:evenodd;stroke-linejoin:round;stroke-miterlimit:2;"><g><path d="M480.223,359.63l-297.176,0c-3.892,0 -7.047,-3.155 -7.047,-7.047l0,-287.815c0,-3.891 3.155,-7.047 7.047,-7.047l297.176,0c3.892,0 7.047,3.156 7.047,7.047l0,287.815c0,3.892 -3.155,7.047 -7.047,7.047Z" style="fill:#cfd0d0;fill-rule:nonzero;"/><path d="M480.223,358.45l-297.176,0c-3.892,0 -7.047,-3.155 -7.047,-7.047l0,-287.815c0,-3.892 3.155,-7.047 7.047,-7.047l297.176,0c3.892,0 7.047,3.155 7.047,7.047l0,287.815c0,3.892 -3.155,7.047 -7.047,7.047Z" style="fill:#fff;fill-rule:nonzero;"/><path d="M480.223,357.068l-297.176,0c-3.892,0 -7.047,-3.155 -7.047,-7.047l0,-287.815c0,-3.892 3.155,-7.047 7.047,-7.047l297.176,0c3.892,0 7.047,3.155 7.047,7.047l0,287.815c0,3.892 -3.155,7.047 -7.047,7.047Z" style="fill:#cfd0d0;fill-rule:nonzero;"/><path d="M480.223,355.887l-297.176,0c-3.892,0 -7.047,-3.155 -7.047,-7.047l0,-287.814c0,-3.892 3.155,-7.047 7.047,-7.047l297.176,0c3.892,0 7.047,3.155 7.047,7.047l0,287.814c0,3.892 -3.155,7.047 -7.047,7.047Z" style="fill:#fff;fill-rule:nonzero;"/><path d="M480.223,354.309l-297.176,0c-3.892,0 -7.047,-3.155 -7.047,-7.047l0,-287.815c0,-3.892 3.155,-7.047 7.047,-7.047l297.176,0c3.892,0 7.047,3.155 7.047,7.047l0,287.815c0,3.892 -3.155,7.047 -7.047,7.047Z" style="fill:#cfd0d0;fill-rule:nonzero;"/><path d="M480.223,353.325l-297.176,0c-3.892,0 -7.047,-3.155 -7.047,-7.047l0,-287.815c0,-3.892 3.155,-7.047 7.047,-7.047l297.176,0c3.892,0 7.047,3.155 7.047,7.047l0,287.815c0,3.892 -3.155,7.047 -7.047,7.047Z" style="fill:#ddd;fill-rule:nonzero;"/><path d="M213.33,183.414l236.61,0c2.65,0 4.8,-2.149 4.8,-4.8l0,-25.039c0,-2.65 -2.15,-4.799 -4.8,-4.799l-236.61,0c-2.65,0 -4.8,2.149 -4.8,4.799l0,25.039c0,2.651 2.15,4.8 4.8,4.8Z" style="fill:#f4f5f6;fill-rule:nonzero;"/><g><path d="M215.162,111.911l7.735,0l0,2.893l-4.79,0l0,2.829l4.79,0l0,2.851l-4.79,0l0,7.015l-2.945,0l0,-15.588Z" style="fill:#7e7e77;fill-rule:nonzero;"/><path d="M230.633,115.673c1.088,0 2.11,0.272 3.067,0.816c0.958,0.544 1.705,1.282 2.242,2.215c0.537,0.932 0.805,1.939 0.805,3.02c0,1.088 -0.27,2.105 -0.811,3.052c-0.54,0.946 -1.277,1.686 -2.209,2.22c-0.933,0.533 -1.96,0.8 -3.084,0.8c-1.653,0 -3.064,-0.588 -4.233,-1.765c-1.169,-1.176 -1.754,-2.605 -1.754,-4.286c0,-1.801 0.661,-3.303 1.982,-4.504c1.158,-1.045 2.49,-1.568 3.995,-1.568Zm0.047,2.723c-0.898,0 -1.647,0.313 -2.245,0.938c-0.598,0.625 -0.896,1.426 -0.896,2.4c0,1.004 0.295,1.816 0.886,2.438c0.591,0.621 1.339,0.932 2.245,0.932c0.906,0 1.659,-0.314 2.261,-0.943c0.601,-0.629 0.902,-1.438 0.902,-2.427c0,-0.989 -0.295,-1.792 -0.886,-2.41c-0.591,-0.618 -1.347,-0.928 -2.267,-0.928Z" style="fill:#7e7e77;fill-rule:nonzero;"/><path d="M238.432,115.97l2.48,0l0,1.452c0.268,-0.573 0.625,-1.007 1.07,-1.304c0.445,-0.297 0.932,-0.445 1.462,-0.445c0.375,0 0.767,0.099 1.176,0.297l-0.9,2.49c-0.339,-0.17 -0.618,-0.254 -0.837,-0.254c-0.446,0 -0.822,0.275 -1.129,0.826c-0.307,0.551 -0.461,1.632 -0.461,3.243l0.011,0.561l0,4.663l-2.872,0l0,-11.529Z" style="fill:#7e7e77;fill-rule:nonzero;"/><path d="M246.03,115.97l2.893,0l0,1.324c0.494,-0.544 1.044,-0.95 1.649,-1.218c0.604,-0.269 1.263,-0.403 1.977,-0.403c0.721,0 1.372,0.177 1.951,0.53c0.58,0.353 1.047,0.869 1.4,1.547c0.46,-0.678 1.024,-1.194 1.692,-1.547c0.668,-0.353 1.398,-0.53 2.189,-0.53c0.82,0 1.541,0.191 2.164,0.572c0.622,0.382 1.069,0.88 1.341,1.494c0.272,0.615 0.408,1.615 0.408,2.999l0,6.761l-2.914,0l0,-5.849c0,-1.307 -0.162,-2.192 -0.487,-2.655c-0.325,-0.463 -0.813,-0.694 -1.462,-0.694c-0.495,0 -0.938,0.141 -1.33,0.424c-0.392,0.283 -0.684,0.673 -0.875,1.171c-0.19,0.498 -0.286,1.298 -0.286,2.4l0,5.203l-2.914,0l0,-5.584c0,-1.032 -0.076,-1.779 -0.228,-2.242c-0.152,-0.462 -0.381,-0.807 -0.685,-1.033c-0.305,-0.226 -0.673,-0.339 -1.105,-0.339c-0.481,0 -0.919,0.143 -1.312,0.429c-0.393,0.286 -0.687,0.687 -0.881,1.203c-0.195,0.516 -0.292,1.328 -0.292,2.437l0,5.129l-2.893,0l0,-11.529Z" style="fill:#7e7e77;fill-rule:nonzero;"/><path d="M266.439,115.97l2.925,0l0,5.552c0,1.081 0.074,1.832 0.223,2.252c0.148,0.421 0.387,0.747 0.717,0.98c0.329,0.234 0.734,0.35 1.216,0.35c0.482,0 0.891,-0.115 1.227,-0.344c0.336,-0.23 0.586,-0.567 0.749,-1.012c0.12,-0.332 0.18,-1.042 0.18,-2.13l0,-5.648l2.893,0l0,4.885c0,2.013 -0.159,3.391 -0.476,4.133c-0.389,0.904 -0.961,1.598 -1.717,2.082c-0.756,0.484 -1.717,0.726 -2.882,0.726c-1.265,0 -2.288,-0.283 -3.068,-0.848c-0.781,-0.565 -1.33,-1.353 -1.648,-2.363c-0.226,-0.699 -0.339,-1.971 -0.339,-3.815l0,-4.8Z" style="fill:#7e7e77;fill-rule:nonzero;"/><rect x="279.155" y="111.519" width="2.893" height="15.98" style="fill:#7e7e77;fill-rule:nonzero;"/><path d="M293.185,115.97l2.893,0l0,11.529l-2.893,0l0,-1.219c-0.565,0.537 -1.131,0.924 -1.699,1.161c-0.568,0.236 -1.184,0.355 -1.847,0.355c-1.489,0 -2.776,-0.578 -3.863,-1.733c-1.087,-1.155 -1.63,-2.591 -1.63,-4.307c0,-1.781 0.526,-3.239 1.577,-4.377c1.051,-1.137 2.329,-1.706 3.832,-1.706c0.691,0 1.34,0.131 1.947,0.392c0.607,0.262 1.168,0.654 1.683,1.176l0,-1.271Zm-3.041,2.373c-0.894,0 -1.637,0.317 -2.229,0.949c-0.591,0.632 -0.887,1.443 -0.887,2.432c0,0.996 0.301,1.815 0.903,2.458c0.602,0.643 1.343,0.965 2.223,0.965c0.909,0 1.662,-0.317 2.26,-0.949c0.599,-0.632 0.898,-1.46 0.898,-2.485c0,-1.003 -0.299,-1.815 -0.898,-2.437c-0.598,-0.622 -1.355,-0.933 -2.27,-0.933Zm0.773,-8.636l3.423,0l-3.878,4.154l-2.077,0l2.532,-4.154Z" style="fill:#7e7e77;fill-rule:nonzero;"/><path d="M298.324,115.97l2.48,0l0,1.452c0.268,-0.573 0.625,-1.007 1.07,-1.304c0.445,-0.297 0.933,-0.445 1.463,-0.445c0.374,0 0.766,0.099 1.176,0.297l-0.901,2.49c-0.339,-0.17 -0.618,-0.254 -0.837,-0.254c-0.445,0 -0.821,0.275 -1.129,0.826c-0.307,0.551 -0.461,1.632 -0.461,3.243l0.011,0.561l0,4.663l-2.872,0l0,-11.529Z" style="fill:#7e7e77;fill-rule:nonzero;"/><path d="M307.072,111.223c0.507,-0.001 0.942,0.183 1.305,0.551c0.363,0.367 0.544,0.812 0.544,1.335c0,0.515 -0.18,0.955 -0.539,1.319c-0.359,0.364 -0.789,0.546 -1.289,0.546c-0.514,0 -0.953,-0.186 -1.315,-0.557c-0.363,-0.37 -0.545,-0.821 -0.545,-1.351c0,-0.508 0.18,-0.943 0.539,-1.303c0.359,-0.36 0.793,-0.541 1.3,-0.541Zm-1.447,4.748l2.893,0l0,11.529l-2.893,0l0,-11.529Z" style="fill:#7e7e77;fill-rule:nonzero;"/><path d="M316.561,115.673c1.088,0 2.111,0.272 3.068,0.816c0.957,0.544 1.704,1.282 2.241,2.215c0.537,0.932 0.806,1.939 0.806,3.02c0,1.088 -0.271,2.105 -0.811,3.052c-0.541,0.946 -1.277,1.686 -2.21,2.22c-0.932,0.533 -1.96,0.8 -3.083,0.8c-1.653,0 -3.064,-0.588 -4.234,-1.765c-1.169,-1.176 -1.753,-2.605 -1.753,-4.286c0,-1.801 0.66,-3.303 1.981,-4.504c1.159,-1.045 2.49,-1.568 3.995,-1.568Zm0.048,2.723c-0.899,0 -1.647,0.313 -2.245,0.938c-0.598,0.625 -0.897,1.426 -0.897,2.4c0,1.004 0.295,1.816 0.886,2.438c0.591,0.621 1.34,0.932 2.245,0.932c0.906,0 1.66,-0.314 2.261,-0.943c0.602,-0.629 0.902,-1.438 0.902,-2.427c0,-0.989 -0.295,-1.792 -0.886,-2.41c-0.591,-0.618 -1.346,-0.928 -2.266,-0.928Z" style="fill:#7e7e77;fill-rule:nonzero;"/><path d="M339.62,111.519l2.892,0l0,15.98l-2.892,0l0,-1.219c-0.565,0.537 -1.131,0.924 -1.699,1.161c-0.568,0.236 -1.184,0.355 -1.847,0.355c-1.489,0 -2.777,-0.578 -3.863,-1.733c-1.087,-1.155 -1.63,-2.591 -1.63,-4.307c0,-1.781 0.525,-3.239 1.577,-4.377c1.051,-1.137 2.328,-1.706 3.831,-1.706c0.692,0 1.341,0.131 1.948,0.392c0.606,0.262 1.167,0.654 1.683,1.176l0,-5.722Zm-3.041,6.824c-0.895,0 -1.638,0.317 -2.229,0.949c-0.591,0.632 -0.887,1.443 -0.887,2.432c0,0.996 0.301,1.815 0.903,2.458c0.602,0.643 1.343,0.965 2.223,0.965c0.908,0 1.662,-0.317 2.26,-0.949c0.599,-0.632 0.898,-1.46 0.898,-2.485c0,-1.003 -0.299,-1.815 -0.898,-2.437c-0.598,-0.622 -1.355,-0.933 -2.27,-0.933Z" style="fill:#7e7e77;fill-rule:nonzero;"/><path d="M356.988,122.572l-9.294,0c0.134,0.819 0.493,1.471 1.076,1.955c0.583,0.484 1.326,0.726 2.23,0.726c1.081,0 2.01,-0.378 2.787,-1.134l2.438,1.144c-0.608,0.862 -1.336,1.5 -2.183,1.913c-0.848,0.413 -1.855,0.62 -3.02,0.62c-1.809,0 -3.282,-0.571 -4.419,-1.712c-1.138,-1.141 -1.706,-2.569 -1.706,-4.286c0,-1.759 0.567,-3.22 1.701,-4.382c1.133,-1.162 2.555,-1.743 4.265,-1.743c1.815,0 3.292,0.581 4.429,1.743c1.137,1.162 1.706,2.697 1.706,4.605l-0.01,0.551Zm-2.893,-2.279c-0.191,-0.643 -0.568,-1.165 -1.131,-1.568c-0.562,-0.403 -1.215,-0.604 -1.958,-0.604c-0.807,0 -1.515,0.226 -2.123,0.678c-0.382,0.283 -0.736,0.781 -1.062,1.494l6.274,0Z" style="fill:#7e7e77;fill-rule:nonzero;"/><path d="M380.046,114.651l-2.075,1.978c-1.412,-1.492 -3,-2.238 -4.765,-2.238c-1.489,0 -2.743,0.509 -3.763,1.527c-1.02,1.019 -1.53,2.274 -1.53,3.766c0,1.039 0.226,1.962 0.677,2.768c0.452,0.807 1.091,1.439 1.917,1.899c0.826,0.46 1.743,0.69 2.752,0.69c0.862,0 1.648,-0.161 2.361,-0.483c0.713,-0.322 1.497,-0.907 2.351,-1.755l2.011,2.098c-1.151,1.124 -2.239,1.904 -3.263,2.338c-1.025,0.435 -2.194,0.652 -3.508,0.652c-2.423,0 -4.406,-0.768 -5.95,-2.305c-1.544,-1.536 -2.315,-3.505 -2.315,-5.907c0,-1.555 0.351,-2.936 1.054,-4.144c0.703,-1.208 1.71,-2.179 3.02,-2.914c1.311,-0.734 2.722,-1.102 4.233,-1.102c1.286,0 2.524,0.272 3.715,0.815c1.19,0.543 2.216,1.315 3.078,2.317Z" style="fill:#7e7e77;fill-rule:nonzero;"/><path d="M387.739,115.673c1.088,0 2.111,0.272 3.068,0.816c0.957,0.544 1.704,1.282 2.241,2.215c0.537,0.932 0.805,1.939 0.805,3.02c0,1.088 -0.27,2.105 -0.81,3.052c-0.541,0.946 -1.277,1.686 -2.21,2.22c-0.932,0.533 -1.96,0.8 -3.083,0.8c-1.653,0 -3.064,-0.588 -4.234,-1.765c-1.169,-1.176 -1.753,-2.605 -1.753,-4.286c0,-1.801 0.66,-3.303 1.981,-4.504c1.159,-1.045 2.49,-1.568 3.995,-1.568Zm0.048,2.723c-0.899,0 -1.647,0.313 -2.245,0.938c-0.598,0.625 -0.897,1.426 -0.897,2.4c0,1.004 0.295,1.816 0.886,2.438c0.591,0.621 1.339,0.932 2.245,0.932c0.906,0 1.66,-0.314 2.261,-0.943c0.602,-0.629 0.902,-1.438 0.902,-2.427c0,-0.989 -0.295,-1.792 -0.886,-2.41c-0.591,-0.618 -1.346,-0.928 -2.266,-0.928Z" style="fill:#7e7e77;fill-rule:nonzero;"/><path d="M396.216,115.97l2.893,0l0,1.181c0.656,-0.553 1.251,-0.937 1.783,-1.154c0.533,-0.216 1.078,-0.324 1.635,-0.324c1.143,0 2.113,0.399 2.91,1.198c0.67,0.678 1.005,1.681 1.005,3.009l0,7.619l-2.861,0l0,-5.049c0,-1.376 -0.062,-2.29 -0.185,-2.741c-0.123,-0.452 -0.338,-0.796 -0.645,-1.032c-0.306,-0.237 -0.685,-0.355 -1.136,-0.355c-0.585,0 -1.087,0.196 -1.507,0.588c-0.419,0.391 -0.71,0.933 -0.872,1.624c-0.084,0.36 -0.127,1.14 -0.127,2.34l0,4.625l-2.893,0l0,-11.529Z" style="fill:#7e7e77;fill-rule:nonzero;"/><path d="M409.589,111.721l2.893,0l0,4.249l1.717,0l0,2.49l-1.717,0l0,9.039l-2.893,0l0,-9.039l-1.483,0l0,-2.49l1.483,0l0,-4.249Z" style="fill:#7e7e77;fill-rule:nonzero;"/><path d="M424.255,115.97l2.893,0l0,11.529l-2.893,0l0,-1.219c-0.564,0.537 -1.13,0.924 -1.699,1.161c-0.568,0.236 -1.183,0.355 -1.846,0.355c-1.489,0 -2.777,-0.578 -3.864,-1.733c-1.086,-1.155 -1.63,-2.591 -1.63,-4.307c0,-1.781 0.526,-3.239 1.577,-4.377c1.052,-1.137 2.329,-1.706 3.832,-1.706c0.691,0 1.34,0.131 1.947,0.392c0.607,0.262 1.168,0.654 1.683,1.176l0,-1.271Zm-3.041,2.373c-0.894,0 -1.637,0.317 -2.228,0.949c-0.592,0.632 -0.887,1.443 -0.887,2.432c0,0.996 0.301,1.815 0.903,2.458c0.602,0.643 1.343,0.965 2.223,0.965c0.908,0 1.661,-0.317 2.26,-0.949c0.598,-0.632 0.897,-1.46 0.897,-2.485c0,-1.003 -0.299,-1.815 -0.897,-2.437c-0.599,-0.622 -1.356,-0.933 -2.271,-0.933Z" style="fill:#7e7e77;fill-rule:nonzero;"/><path d="M430.423,111.721l2.892,0l0,4.249l1.717,0l0,2.49l-1.717,0l0,9.039l-2.892,0l0,-9.039l-1.484,0l0,-2.49l1.484,0l0,-4.249Z" style="fill:#7e7e77;fill-rule:nonzero;"/><path d="M441.994,115.673c1.088,0 2.111,0.272 3.068,0.816c0.957,0.544 1.704,1.282 2.241,2.215c0.537,0.932 0.805,1.939 0.805,3.02c0,1.088 -0.27,2.105 -0.81,3.052c-0.541,0.946 -1.277,1.686 -2.21,2.22c-0.932,0.533 -1.96,0.8 -3.083,0.8c-1.653,0 -3.064,-0.588 -4.234,-1.765c-1.169,-1.176 -1.753,-2.605 -1.753,-4.286c0,-1.801 0.66,-3.303 1.981,-4.504c1.159,-1.045 2.49,-1.568 3.995,-1.568Zm0.048,2.723c-0.899,0 -1.647,0.313 -2.245,0.938c-0.598,0.625 -0.897,1.426 -0.897,2.4c0,1.004 0.295,1.816 0.886,2.438c0.591,0.621 1.339,0.932 2.245,0.932c0.906,0 1.66,-0.314 2.261,-0.943c0.602,-0.629 0.902,-1.438 0.902,-2.427c0,-0.989 -0.295,-1.792 -0.886,-2.41c-0.591,-0.618 -1.346,-0.928 -2.266,-0.928Z" style="fill:#7e7e77;fill-rule:nonzero;"/></g><path d="M213.33,232.351l236.61,0c2.65,0 4.8,-2.149 4.8,-4.8l0,-25.038c0,-2.651 -2.15,-4.8 -4.8,-4.8l-236.61,0c-2.65,0 -4.8,2.149 -4.8,4.8l0,25.038c0,2.651 2.15,4.8 4.8,4.8Z" style="fill:#f4f5f6;fill-rule:nonzero;"/><path d="M213.33,282.351l236.61,0c2.65,0 4.8,-2.149 4.8,-4.8l0,-25.038c0,-2.651 -2.15,-4.8 -4.8,-4.8l-236.61,0c-2.65,0 -4.8,2.149 -4.8,4.8l0,25.038c0,2.651 2.15,4.8 4.8,4.8Z" style="fill:#f4f5f6;fill-rule:nonzero;"/><path d="M213.33,338.072l236.61,0c2.65,0 4.8,-2.148 4.8,-4.8l0,-25.038c0,-2.651 -2.15,-4.799 -4.8,-4.799l-236.61,0c-2.65,0 -4.8,2.148 -4.8,4.799l0,25.038c0,2.652 2.15,4.8 4.8,4.8Z" style="fill:#377fc1;fill-rule:nonzero;"/><path d="M375.758,50.334c0,24.299 -19.7,43.999 -44,43.999c-24.299,0 -44,-19.7 -44,-43.999c0,-24.301 19.701,-43.999 44,-43.999c24.3,0 44,19.698 44,43.999Z" style="fill:#377fc1;fill-rule:nonzero;"/><path d="M313.939,71.431c-0.767,0 -1.385,-0.648 -1.328,-1.414c0.724,-9.943 9.02,-17.785 19.147,-17.785c10.128,0 18.423,7.842 19.148,17.785c0.056,0.766 -0.561,1.414 -1.329,1.414l-35.638,0Z" style="fill:#fff;fill-rule:nonzero;"/><path d="M341.498,38.976c0,5.379 -4.362,9.739 -9.74,9.739c-5.379,0 -9.74,-4.36 -9.74,-9.739c0,-5.379 4.361,-9.74 9.74,-9.74c5.378,0 9.74,4.361 9.74,9.74Z" style="fill:#fff;fill-rule:nonzero;"/><path d="M432.264,170.767c-0.176,0 -0.316,-0.148 -0.303,-0.321c0.166,-2.263 2.052,-4.046 4.357,-4.046c2.303,0 4.19,1.783 4.355,4.046c0.013,0.173 -0.126,0.321 -0.303,0.321l-8.106,0Z" style="fill:#7e7e77;fill-rule:nonzero;"/><path d="M438.534,163.383c0,1.224 -0.992,2.216 -2.216,2.216c-1.225,0 -2.218,-0.992 -2.218,-2.216c0,-1.223 0.993,-2.215 2.218,-2.215c1.224,0 2.216,0.992 2.216,2.215Z" style="fill:#7e7e77;fill-rule:nonzero;"/><g><path d="M301.54,326.628l0,-12.709l9.423,0l0,2.15l-6.857,0l0,2.818l6.38,0l0,2.141l-6.38,0l0,3.459l7.1,0l0,2.141l-9.666,0Z" style="fill:#fff;fill-rule:nonzero;"/><path d="M321.739,326.628l-2.436,0l0,-4.699c0,-0.994 -0.052,-1.637 -0.156,-1.928c-0.104,-0.292 -0.273,-0.519 -0.507,-0.681c-0.234,-0.162 -0.516,-0.243 -0.846,-0.243c-0.422,0 -0.8,0.116 -1.135,0.347c-0.336,0.231 -0.565,0.538 -0.69,0.919c-0.124,0.381 -0.186,1.087 -0.186,2.115l0,4.17l-2.436,0l0,-9.207l2.263,0l0,1.353c0.803,-1.04 1.814,-1.561 3.034,-1.561c0.537,0 1.029,0.097 1.474,0.291c0.445,0.193 0.781,0.441 1.01,0.741c0.228,0.301 0.387,0.642 0.476,1.023c0.09,0.381 0.135,0.928 0.135,1.639l0,5.721Z" style="fill:#fff;fill-rule:nonzero;"/><path d="M326.741,326.628l-3.71,-9.207l2.557,0l1.734,4.699l0.503,1.569c0.133,-0.398 0.216,-0.661 0.251,-0.789c0.081,-0.26 0.168,-0.52 0.26,-0.78l1.751,-4.699l2.506,0l-3.659,9.207l-2.193,0Z" style="fill:#fff;fill-rule:nonzero;"/><path d="M334.084,316.173l0,-2.254l2.436,0l0,2.254l-2.436,0Zm0,10.455l0,-9.207l2.436,0l0,9.207l-2.436,0Z" style="fill:#fff;fill-rule:nonzero;"/><path d="M340.837,320.23l-2.21,-0.398c0.248,-0.891 0.676,-1.549 1.283,-1.977c0.606,-0.428 1.508,-0.642 2.704,-0.642c1.087,0 1.896,0.129 2.428,0.386c0.531,0.257 0.906,0.584 1.122,0.98c0.217,0.396 0.326,1.122 0.326,2.18l-0.026,2.844c0,0.809 0.039,1.406 0.117,1.79c0.078,0.384 0.224,0.796 0.437,1.235l-2.41,0c-0.063,-0.162 -0.141,-0.401 -0.234,-0.719c-0.04,-0.145 -0.069,-0.24 -0.086,-0.286c-0.417,0.404 -0.862,0.708 -1.336,0.91c-0.473,0.202 -0.979,0.303 -1.517,0.303c-0.947,0 -1.694,-0.257 -2.241,-0.771c-0.546,-0.515 -0.819,-1.165 -0.819,-1.951c0,-0.52 0.124,-0.984 0.373,-1.391c0.248,-0.408 0.597,-0.72 1.045,-0.937c0.447,-0.216 1.093,-0.406 1.937,-0.567c1.139,-0.214 1.928,-0.414 2.367,-0.599l0,-0.242c0,-0.468 -0.116,-0.802 -0.347,-1.002c-0.231,-0.199 -0.667,-0.299 -1.309,-0.299c-0.433,0 -0.772,0.086 -1.014,0.256c-0.243,0.171 -0.44,0.47 -0.59,0.897Zm3.26,1.977c-0.312,0.104 -0.806,0.228 -1.483,0.373c-0.676,0.144 -1.118,0.286 -1.326,0.424c-0.318,0.226 -0.477,0.512 -0.477,0.859c0,0.341 0.127,0.635 0.382,0.884c0.254,0.249 0.578,0.373 0.971,0.373c0.439,0 0.858,-0.145 1.257,-0.434c0.294,-0.219 0.488,-0.488 0.58,-0.806c0.064,-0.208 0.096,-0.604 0.096,-1.188l0,-0.485Z" style="fill:#fff;fill-rule:nonzero;"/><path d="M351.223,326.628l-2.436,0l0,-9.207l2.263,0l0,1.31c0.387,-0.619 0.735,-1.026 1.044,-1.223c0.309,-0.196 0.661,-0.295 1.054,-0.295c0.554,0 1.089,0.154 1.603,0.46l-0.754,2.124c-0.41,-0.266 -0.792,-0.399 -1.144,-0.399c-0.341,0 -0.63,0.094 -0.867,0.282c-0.237,0.188 -0.424,0.527 -0.559,1.018c-0.136,0.492 -0.204,1.52 -0.204,3.087l0,2.843Z" style="fill:#fff;fill-rule:nonzero;"/></g><g><path d="M221.972,170.597l0,-9.684l1.902,0l3.964,6.467l0,-6.467l1.816,0l0,9.684l-1.962,0l-3.904,-6.315l0,6.315l-1.816,0Z" style="fill:#7e7e77;fill-rule:nonzero;"/><path d="M231.279,166.991c0,-0.617 0.152,-1.214 0.456,-1.791c0.304,-0.576 0.734,-1.017 1.291,-1.321c0.557,-0.304 1.179,-0.456 1.866,-0.456c1.062,0 1.931,0.345 2.61,1.034c0.678,0.689 1.017,1.56 1.017,2.613c0,1.061 -0.343,1.941 -1.027,2.639c-0.685,0.698 -1.547,1.047 -2.586,1.047c-0.643,0 -1.257,-0.146 -1.84,-0.436c-0.584,-0.291 -1.027,-0.717 -1.331,-1.278c-0.304,-0.562 -0.456,-1.246 -0.456,-2.051Zm1.903,0.099c0,0.695 0.165,1.228 0.495,1.598c0.33,0.37 0.738,0.555 1.222,0.555c0.484,0 0.891,-0.185 1.219,-0.555c0.328,-0.37 0.492,-0.907 0.492,-1.612c0,-0.687 -0.164,-1.215 -0.492,-1.585c-0.328,-0.37 -0.735,-0.555 -1.219,-0.555c-0.484,0 -0.892,0.185 -1.222,0.555c-0.33,0.37 -0.495,0.903 -0.495,1.599Z" style="fill:#7e7e77;fill-rule:nonzero;"/><path d="M239.833,163.582l1.711,0l0,0.958c0.612,-0.744 1.341,-1.117 2.187,-1.117c0.449,0 0.839,0.093 1.169,0.278c0.33,0.185 0.601,0.465 0.812,0.839c0.309,-0.374 0.641,-0.654 0.998,-0.839c0.357,-0.185 0.737,-0.278 1.143,-0.278c0.515,0 0.951,0.105 1.308,0.314c0.356,0.209 0.623,0.517 0.799,0.922c0.127,0.299 0.191,0.784 0.191,1.453l0,4.485l-1.856,0l0,-4.009c0,-0.696 -0.064,-1.145 -0.191,-1.348c-0.172,-0.264 -0.436,-0.396 -0.793,-0.396c-0.26,0 -0.504,0.079 -0.733,0.237c-0.229,0.159 -0.394,0.391 -0.496,0.697c-0.101,0.306 -0.152,0.79 -0.152,1.45l0,3.369l-1.856,0l0,-3.844c0,-0.683 -0.033,-1.123 -0.099,-1.321c-0.066,-0.199 -0.168,-0.346 -0.307,-0.443c-0.139,-0.097 -0.327,-0.145 -0.565,-0.145c-0.286,0 -0.544,0.077 -0.773,0.231c-0.229,0.154 -0.393,0.376 -0.492,0.667c-0.099,0.291 -0.148,0.773 -0.148,1.447l0,3.408l-1.857,0l0,-7.015Z" style="fill:#7e7e77;fill-rule:nonzero;"/><path d="M256.063,168.364l1.85,0.311c-0.238,0.678 -0.613,1.194 -1.126,1.549c-0.513,0.354 -1.155,0.532 -1.926,0.532c-1.22,0 -2.122,-0.399 -2.708,-1.196c-0.463,-0.638 -0.694,-1.444 -0.694,-2.418c0,-1.162 0.304,-2.073 0.912,-2.731c0.608,-0.658 1.376,-0.988 2.305,-0.988c1.044,0 1.867,0.345 2.471,1.034c0.603,0.689 0.891,1.745 0.865,3.168l-4.65,0c0.013,0.55 0.163,0.978 0.449,1.284c0.286,0.307 0.643,0.46 1.07,0.46c0.291,0 0.535,-0.08 0.733,-0.238c0.198,-0.159 0.348,-0.414 0.449,-0.767Zm0.106,-1.876c-0.013,-0.537 -0.152,-0.945 -0.416,-1.225c-0.264,-0.279 -0.586,-0.419 -0.965,-0.419c-0.405,0 -0.739,0.147 -1.004,0.442c-0.264,0.295 -0.394,0.696 -0.389,1.202l2.774,0Z" style="fill:#7e7e77;fill-rule:nonzero;"/></g><g><path d="M224.132,220.597l0,-8.045l-2.874,0l0,-1.639l7.696,0l0,1.639l-2.867,0l0,8.045l-1.955,0Z" style="fill:#7e7e77;fill-rule:nonzero;"/><path d="M233.261,218.364l1.849,0.311c-0.237,0.678 -0.613,1.194 -1.126,1.549c-0.513,0.354 -1.155,0.532 -1.925,0.532c-1.22,0 -2.123,-0.399 -2.709,-1.196c-0.462,-0.638 -0.693,-1.444 -0.693,-2.418c0,-1.162 0.304,-2.073 0.911,-2.731c0.608,-0.658 1.376,-0.988 2.306,-0.988c1.043,0 1.867,0.345 2.47,1.034c0.603,0.689 0.892,1.745 0.865,3.168l-4.65,0c0.013,0.55 0.163,0.978 0.449,1.284c0.287,0.307 0.643,0.46 1.07,0.46c0.291,0 0.535,-0.08 0.734,-0.238c0.198,-0.159 0.348,-0.414 0.449,-0.767Zm0.105,-1.876c-0.013,-0.537 -0.151,-0.945 -0.416,-1.225c-0.264,-0.279 -0.585,-0.419 -0.964,-0.419c-0.405,0 -0.74,0.147 -1.004,0.442c-0.264,0.295 -0.394,0.696 -0.39,1.202l2.774,0Z" style="fill:#7e7e77;fill-rule:nonzero;"/><rect x="236.722" y="210.913" width="1.856" height="9.684" style="fill:#7e7e77;fill-rule:nonzero;"/><path d="M244.543,218.364l1.85,0.311c-0.238,0.678 -0.613,1.194 -1.126,1.549c-0.514,0.354 -1.155,0.532 -1.926,0.532c-1.22,0 -2.123,-0.399 -2.708,-1.196c-0.463,-0.638 -0.694,-1.444 -0.694,-2.418c0,-1.162 0.304,-2.073 0.912,-2.731c0.607,-0.658 1.376,-0.988 2.305,-0.988c1.044,0 1.867,0.345 2.471,1.034c0.603,0.689 0.891,1.745 0.865,3.168l-4.651,0c0.014,0.55 0.163,0.978 0.45,1.284c0.286,0.307 0.643,0.46 1.07,0.46c0.29,0 0.535,-0.08 0.733,-0.238c0.198,-0.159 0.348,-0.414 0.449,-0.767Zm0.106,-1.876c-0.013,-0.537 -0.152,-0.945 -0.416,-1.225c-0.265,-0.279 -0.586,-0.419 -0.965,-0.419c-0.405,0 -0.74,0.147 -1.004,0.442c-0.264,0.295 -0.394,0.696 -0.389,1.202l2.774,0Z" style="fill:#7e7e77;fill-rule:nonzero;"/><path d="M247.192,213.582l1.031,0l0,-0.528c0,-0.591 0.062,-1.031 0.188,-1.322c0.125,-0.29 0.356,-0.527 0.693,-0.71c0.337,-0.182 0.763,-0.274 1.279,-0.274c0.528,0 1.045,0.079 1.552,0.238l-0.251,1.295c-0.295,-0.071 -0.579,-0.106 -0.852,-0.106c-0.269,0 -0.462,0.063 -0.578,0.188c-0.117,0.126 -0.175,0.367 -0.175,0.724l0,0.495l1.387,0l0,1.46l-1.387,0l0,5.555l-1.856,0l0,-5.555l-1.031,0l0,-1.46Z" style="fill:#7e7e77;fill-rule:nonzero;"/><path d="M252.08,216.991c0,-0.617 0.152,-1.214 0.456,-1.791c0.304,-0.576 0.734,-1.017 1.291,-1.321c0.557,-0.304 1.179,-0.456 1.866,-0.456c1.062,0 1.932,0.345 2.61,1.034c0.678,0.689 1.017,1.56 1.017,2.613c0,1.061 -0.342,1.941 -1.027,2.639c-0.685,0.698 -1.547,1.047 -2.586,1.047c-0.643,0 -1.256,-0.146 -1.84,-0.436c-0.583,-0.291 -1.027,-0.717 -1.331,-1.278c-0.304,-0.562 -0.456,-1.246 -0.456,-2.051Zm1.903,0.099c0,0.695 0.165,1.228 0.495,1.598c0.33,0.37 0.738,0.555 1.222,0.555c0.484,0 0.891,-0.185 1.219,-0.555c0.328,-0.37 0.492,-0.907 0.492,-1.612c0,-0.687 -0.164,-1.215 -0.492,-1.585c-0.328,-0.37 -0.735,-0.555 -1.219,-0.555c-0.484,0 -0.892,0.185 -1.222,0.555c-0.33,0.37 -0.495,0.903 -0.495,1.599Z" style="fill:#7e7e77;fill-rule:nonzero;"/><path d="M267.154,220.597l-1.856,0l0,-3.58c0,-0.758 -0.04,-1.247 -0.119,-1.47c-0.079,-0.222 -0.208,-0.395 -0.386,-0.518c-0.179,-0.124 -0.393,-0.185 -0.644,-0.185c-0.322,0 -0.61,0.088 -0.866,0.264c-0.255,0.176 -0.43,0.409 -0.525,0.7c-0.095,0.291 -0.142,0.828 -0.142,1.612l0,3.177l-1.856,0l0,-7.015l1.724,0l0,1.03c0.612,-0.792 1.383,-1.189 2.312,-1.189c0.41,0 0.784,0.074 1.123,0.222c0.339,0.147 0.596,0.336 0.77,0.565c0.173,0.229 0.295,0.488 0.363,0.779c0.068,0.291 0.102,0.707 0.102,1.248l0,4.36Z" style="fill:#7e7e77;fill-rule:nonzero;"/><path d="M273.099,218.364l1.85,0.311c-0.238,0.678 -0.613,1.194 -1.126,1.549c-0.513,0.354 -1.155,0.532 -1.926,0.532c-1.22,0 -2.123,-0.399 -2.708,-1.196c-0.463,-0.638 -0.694,-1.444 -0.694,-2.418c0,-1.162 0.304,-2.073 0.912,-2.731c0.607,-0.658 1.376,-0.988 2.305,-0.988c1.044,0 1.867,0.345 2.471,1.034c0.603,0.689 0.891,1.745 0.865,3.168l-4.65,0c0.013,0.55 0.163,0.978 0.449,1.284c0.286,0.307 0.643,0.46 1.07,0.46c0.291,0 0.535,-0.08 0.733,-0.238c0.198,-0.159 0.348,-0.414 0.449,-0.767Zm0.106,-1.876c-0.013,-0.537 -0.152,-0.945 -0.416,-1.225c-0.264,-0.279 -0.586,-0.419 -0.965,-0.419c-0.405,0 -0.739,0.147 -1.004,0.442c-0.264,0.295 -0.394,0.696 -0.389,1.202l2.774,0Z" style="fill:#7e7e77;fill-rule:nonzero;"/></g><g><path d="M221.952,270.597l0,-9.684l7.18,0l0,1.639l-5.225,0l0,2.146l4.862,0l0,1.632l-4.862,0l0,2.636l5.41,0l0,1.631l-7.365,0Z" style="fill:#7e7e77;fill-rule:nonzero;"/><path d="M230.823,263.582l1.711,0l0,0.958c0.612,-0.744 1.341,-1.117 2.187,-1.117c0.449,0 0.839,0.093 1.169,0.278c0.33,0.185 0.601,0.465 0.812,0.839c0.309,-0.374 0.641,-0.654 0.998,-0.839c0.356,-0.185 0.737,-0.278 1.143,-0.278c0.515,0 0.951,0.105 1.307,0.314c0.357,0.209 0.624,0.517 0.8,0.922c0.127,0.299 0.191,0.784 0.191,1.453l0,4.485l-1.856,0l0,-4.009c0,-0.696 -0.064,-1.145 -0.191,-1.348c-0.172,-0.264 -0.436,-0.396 -0.793,-0.396c-0.26,0 -0.504,0.079 -0.733,0.237c-0.229,0.159 -0.394,0.391 -0.496,0.697c-0.101,0.306 -0.152,0.79 -0.152,1.45l0,3.369l-1.856,0l0,-3.844c0,-0.683 -0.033,-1.123 -0.099,-1.321c-0.066,-0.199 -0.168,-0.346 -0.307,-0.443c-0.139,-0.097 -0.327,-0.145 -0.565,-0.145c-0.286,0 -0.544,0.077 -0.773,0.231c-0.229,0.154 -0.393,0.376 -0.492,0.667c-0.099,0.291 -0.148,0.773 -0.148,1.447l0,3.408l-1.857,0l0,-7.015Z" style="fill:#7e7e77;fill-rule:nonzero;"/><path d="M244.378,265.722l-1.684,-0.304c0.189,-0.678 0.515,-1.18 0.977,-1.506c0.463,-0.326 1.15,-0.489 2.061,-0.489c0.828,0 1.445,0.098 1.85,0.294c0.405,0.196 0.69,0.445 0.855,0.747c0.165,0.302 0.248,0.855 0.248,1.661l-0.02,2.167c0,0.616 0.03,1.071 0.089,1.364c0.06,0.293 0.171,0.606 0.334,0.941l-1.837,0c-0.048,-0.123 -0.107,-0.306 -0.178,-0.548c-0.031,-0.11 -0.053,-0.183 -0.066,-0.218c-0.317,0.308 -0.656,0.539 -1.017,0.694c-0.361,0.154 -0.747,0.231 -1.156,0.231c-0.722,0 -1.292,-0.196 -1.708,-0.588c-0.416,-0.392 -0.624,-0.888 -0.624,-1.486c0,-0.397 0.095,-0.75 0.284,-1.061c0.189,-0.31 0.455,-0.548 0.796,-0.713c0.341,-0.165 0.833,-0.309 1.476,-0.433c0.868,-0.163 1.469,-0.315 1.804,-0.456l0,-0.184c0,-0.357 -0.088,-0.611 -0.264,-0.763c-0.177,-0.152 -0.509,-0.228 -0.998,-0.228c-0.33,0 -0.588,0.065 -0.773,0.195c-0.185,0.129 -0.334,0.357 -0.449,0.683Zm2.484,1.506c-0.238,0.08 -0.615,0.174 -1.13,0.284c-0.515,0.11 -0.852,0.218 -1.01,0.324c-0.243,0.172 -0.364,0.39 -0.364,0.654c0,0.26 0.097,0.484 0.291,0.674c0.194,0.189 0.44,0.284 0.74,0.284c0.334,0 0.654,-0.11 0.958,-0.33c0.224,-0.168 0.372,-0.373 0.442,-0.615c0.049,-0.158 0.073,-0.46 0.073,-0.905l0,-0.37Z" style="fill:#7e7e77;fill-rule:nonzero;"/><path d="M250.515,262.631l0,-1.718l1.856,0l0,1.718l-1.856,0Zm0,7.966l0,-7.015l1.856,0l0,7.015l-1.856,0Z" style="fill:#7e7e77;fill-rule:nonzero;"/><rect x="254.273" y="260.913" width="1.856" height="9.684" style="fill:#7e7e77;fill-rule:nonzero;"/></g><g><path d="M435.174,265.185c0.23,0.067 0.512,0.11 0.726,0.209l0.003,0.001c0.306,-0.138 0.748,-0.199 1.053,-0.288c2.638,-0.771 5.276,-1.543 7.915,-2.314l0,-0.54c0,-0.899 -0.847,-1.629 -1.891,-1.629l-13.894,0c-1.044,0 -1.891,0.73 -1.891,1.629l0,0.642c0.942,0.27 1.883,0.54 2.825,0.811c1.718,0.493 3.436,0.987 5.154,1.479Z" style="fill:#7e7e77;fill-rule:nonzero;"/><path d="M436.679,266.202c-0.305,0.089 -0.579,0.208 -0.904,0.168c-0.408,-0.051 -0.848,-0.243 -1.237,-0.356c-2.449,-0.701 -4.896,-1.404 -7.343,-2.107l0,5.663c0,0.899 0.847,1.627 1.891,1.627l13.894,0c1.044,0 1.891,-0.728 1.891,-1.627l0,-5.763c-1.05,0.306 -2.1,0.613 -3.15,0.92c-1.681,0.493 -3.361,0.983 -5.042,1.475Z" style="fill:#7e7e77;fill-rule:nonzero;"/></g><path d="M440.102,217.212c0.052,-0.331 -0.089,-0.662 -0.346,-0.823l-2.4,-1.468c-0.27,-0.168 -0.605,-0.098 -0.805,0.168l-0.636,0.846c-0.214,0.284 -0.558,0.385 -0.865,0.257c-0.339,-0.141 -2.362,-1.833 -2.81,-2.495c-0.176,-0.261 -0.192,-0.623 -0.047,-0.91l0.496,-0.987c0.161,-0.321 0.106,-0.726 -0.132,-0.976l-2.081,-2.086c-0.176,-0.184 -0.434,-0.218 -0.643,-0.085c-0.52,0.328 -1.474,1.014 -2.008,1.874c-1.587,2.555 4.037,7.317 4.037,7.317c3.003,2.785 6.613,3.279 7.372,2.06c0.509,-0.817 0.758,-2 0.868,-2.692Z" style="fill:#7e7e77;fill-rule:nonzero;"/></g></svg>