<?xml version="1.0" encoding="UTF-8" standalone="no"?>
<!DOCTYPE svg PUBLIC "-//W3C//DTD SVG 1.1//EN" "http://www.w3.org/Graphics/SVG/1.1/DTD/svg11.dtd">
<svg width="100%" height="100%" viewBox="0 0 400 363" version="1.1" xmlns="http://www.w3.org/2000/svg" xmlns:xlink="http://www.w3.org/1999/xlink" xml:space="preserve" xmlns:serif="http://www.serif.com/" style="fill-rule:evenodd;clip-rule:evenodd;stroke-linejoin:round;stroke-miterlimit:2;">
    <g transform="matrix(1,0,0,1,-114.405,-3.28193)">
        <g id="Button" transform="matrix(1.16959,0,0,1.16959,50.871,55.5182)">
            <path id="Base" d="M296,225C296,222.24 293.76,220 291,220L145,220C142.24,220 140,222.24 140,225L140,260C140,262.76 142.24,265 145,265L291,265C293.76,265 296,262.76 296,260L296,225Z" style="fill:rgb(0,129,213);"/>
            <g id="Normal" transform="matrix(1,0,0,1,217.871,247.676)">
                <g transform="matrix(15,0,0,15,-27.9236,0)">
                    <path d="M0.079,0L0.079,-0.716L0.597,-0.716L0.597,-0.631L0.174,-0.631L0.174,-0.412L0.57,-0.412L0.57,-0.328L0.174,-0.328L0.174,-0.084L0.613,-0.084L0.613,0L0.079,0Z" style="fill:white;fill-rule:nonzero;"/>
                </g>
                <g transform="matrix(15,0,0,15,-17.9187,0)">
                    <path d="M0.076,0L0.076,-0.716L0.173,-0.716L0.549,-0.154L0.549,-0.716L0.64,-0.716L0.64,0L0.543,0L0.167,-0.563L0.167,0L0.076,0Z" style="fill:white;fill-rule:nonzero;"/>
                </g>
                <g transform="matrix(15,0,0,15,-7.08618,0)">
                    <path d="M0.282,0L0.004,-0.716L0.107,-0.716L0.293,-0.196C0.308,-0.154 0.32,-0.115 0.331,-0.079C0.342,-0.118 0.354,-0.157 0.369,-0.196L0.563,-0.716L0.659,-0.716L0.379,0L0.282,0Z" style="fill:white;fill-rule:nonzero;"/>
                </g>
                <g transform="matrix(15,0,0,15,2.9187,0)">
                    <rect x="0.093" y="-0.716" width="0.095" height="0.716" style="fill:white;fill-rule:nonzero;"/>
                </g>
                <g transform="matrix(15,0,0,15,7.08618,0)">
                    <path d="M-0.001,0L0.273,-0.716L0.375,-0.716L0.668,0L0.561,0L0.477,-0.217L0.178,-0.217L0.099,0L-0.001,0ZM0.205,-0.294L0.448,-0.294L0.373,-0.492C0.35,-0.552 0.333,-0.602 0.322,-0.641C0.313,-0.595 0.3,-0.549 0.284,-0.504L0.205,-0.294Z" style="fill:white;fill-rule:nonzero;"/>
                </g>
                <g transform="matrix(15,0,0,15,17.0911,0)">
                    <path d="M0.079,0L0.079,-0.716L0.396,-0.716C0.46,-0.716 0.508,-0.709 0.542,-0.697C0.575,-0.684 0.601,-0.661 0.621,-0.628C0.641,-0.596 0.651,-0.56 0.651,-0.521C0.651,-0.47 0.634,-0.427 0.602,-0.392C0.569,-0.357 0.518,-0.335 0.449,-0.326C0.474,-0.314 0.493,-0.302 0.506,-0.29C0.534,-0.265 0.56,-0.233 0.585,-0.195L0.709,0L0.59,0L0.496,-0.149C0.468,-0.192 0.445,-0.225 0.427,-0.248C0.409,-0.27 0.393,-0.286 0.379,-0.295C0.365,-0.305 0.351,-0.311 0.336,-0.314C0.325,-0.317 0.308,-0.318 0.283,-0.318L0.173,-0.318L0.173,0L0.079,0ZM0.173,-0.4L0.377,-0.4C0.42,-0.4 0.454,-0.404 0.479,-0.413C0.503,-0.422 0.521,-0.437 0.534,-0.456C0.547,-0.476 0.553,-0.497 0.553,-0.521C0.553,-0.554 0.541,-0.582 0.516,-0.604C0.492,-0.626 0.453,-0.637 0.4,-0.637L0.173,-0.637L0.173,-0.4Z" style="fill:white;fill-rule:nonzero;"/>
                </g>
            </g>
        </g>
        <g id="Input" transform="matrix(1.4376,0,0,1.4376,-75.1208,-1551.38)">
            <g id="Base1" serif:id="Base">
                <path d="M390,1220C390,1217.24 387.76,1215 385,1215L145,1215C142.24,1215 140,1217.24 140,1220L140,1255C140,1257.76 142.24,1260 145,1260L385,1260C387.76,1260 390,1257.76 390,1255L390,1220Z" style="fill:rgb(236,239,244);"/>
                <path d="M385.065,1215L385.129,1215L385.193,1215L385.257,1215.01L385.321,1215.01L385.384,1215.02L385.448,1215.02L385.511,1215.03L385.574,1215.03L385.636,1215.04L385.699,1215.05L385.761,1215.06L385.823,1215.07L385.885,1215.08L385.946,1215.09L386.007,1215.1L386.068,1215.12L386.129,1215.13L386.189,1215.14L386.249,1215.16L386.309,1215.17L386.368,1215.19L386.427,1215.21L386.486,1215.23L386.545,1215.24L386.603,1215.26L386.661,1215.28L386.718,1215.3L386.776,1215.33L386.833,1215.35L386.889,1215.37L386.945,1215.39L387.001,1215.42L387.057,1215.44L387.112,1215.47L387.167,1215.49L387.221,1215.52L387.275,1215.55L387.329,1215.58L387.382,1215.6L387.435,1215.63L387.488,1215.66L387.54,1215.69L387.592,1215.72L387.643,1215.76L387.694,1215.79L387.745,1215.82L387.795,1215.85L387.844,1215.89L387.894,1215.92L387.942,1215.96L387.991,1215.99L388.039,1216.03L388.086,1216.07L388.133,1216.1L388.18,1216.14L388.226,1216.18L388.271,1216.22L388.317,1216.26L388.361,1216.3L388.405,1216.34L388.449,1216.38L388.492,1216.42L388.535,1216.46L388.577,1216.51L388.619,1216.55L388.66,1216.6L388.7,1216.64L388.741,1216.68L388.78,1216.73L388.819,1216.77L388.858,1216.82L388.896,1216.87L388.933,1216.91L388.97,1216.96L389.006,1217.01L389.042,1217.06L389.077,1217.11L389.112,1217.16L389.146,1217.2L389.179,1217.26L389.212,1217.31L389.244,1217.36L389.276,1217.41L389.307,1217.46L389.337,1217.51L389.367,1217.57L389.396,1217.62L389.425,1217.67L389.453,1217.73L389.48,1217.78L389.507,1217.83L389.533,1217.89L389.558,1217.94L389.583,1218L389.607,1218.06L389.63,1218.11L389.653,1218.17L389.675,1218.22L389.696,1218.28L389.717,1218.34L389.737,1218.4L389.756,1218.45L389.775,1218.51L389.793,1218.57L389.81,1218.63L389.827,1218.69L389.842,1218.75L389.858,1218.81L389.872,1218.87L389.885,1218.93L389.898,1218.99L389.91,1219.05L389.922,1219.12L389.932,1219.18L389.942,1219.24L389.951,1219.3L389.96,1219.36L389.967,1219.43L389.974,1219.49L389.98,1219.55L389.985,1219.62L389.99,1219.68L389.993,1219.74L389.996,1219.81L389.998,1219.87L390,1219.93L390,1220L390,1255L390,1255.07L389.998,1255.13L389.996,1255.19L389.993,1255.26L389.99,1255.32L389.985,1255.38L389.98,1255.45L389.974,1255.51L389.967,1255.57L389.96,1255.64L389.951,1255.7L389.942,1255.76L389.932,1255.82L389.922,1255.88L389.91,1255.95L389.898,1256.01L389.885,1256.07L389.872,1256.13L389.858,1256.19L389.842,1256.25L389.827,1256.31L389.81,1256.37L389.793,1256.43L389.775,1256.49L389.756,1256.55L389.737,1256.6L389.717,1256.66L389.696,1256.72L389.675,1256.78L389.653,1256.83L389.63,1256.89L389.607,1256.94L389.583,1257L389.558,1257.06L389.533,1257.11L389.507,1257.17L389.48,1257.22L389.453,1257.28L389.425,1257.33L389.396,1257.38L389.367,1257.43L389.337,1257.49L389.307,1257.54L389.276,1257.59L389.244,1257.64L389.212,1257.69L389.179,1257.75L389.146,1257.8L389.112,1257.84L389.077,1257.89L389.042,1257.94L389.006,1257.99L388.97,1258.04L388.933,1258.09L388.896,1258.13L388.858,1258.18L388.819,1258.23L388.78,1258.27L388.741,1258.32L388.7,1258.36L388.66,1258.4L388.619,1258.45L388.577,1258.49L388.535,1258.54L388.492,1258.58L388.449,1258.62L388.405,1258.66L388.361,1258.7L388.317,1258.74L388.271,1258.78L388.226,1258.82L388.18,1258.86L388.133,1258.9L388.086,1258.93L388.039,1258.97L387.991,1259.01L387.942,1259.04L387.894,1259.08L387.844,1259.11L387.795,1259.15L387.745,1259.18L387.694,1259.21L387.643,1259.24L387.592,1259.28L387.54,1259.31L387.488,1259.34L387.435,1259.37L387.382,1259.4L387.329,1259.42L387.275,1259.45L387.221,1259.48L387.167,1259.51L387.112,1259.53L387.057,1259.56L387.001,1259.58L386.945,1259.61L386.889,1259.63L386.833,1259.65L386.776,1259.67L386.718,1259.7L386.661,1259.72L386.603,1259.74L386.545,1259.76L386.486,1259.78L386.427,1259.79L386.368,1259.81L386.309,1259.83L386.249,1259.84L386.189,1259.86L386.129,1259.87L386.068,1259.88L386.007,1259.9L385.946,1259.91L385.885,1259.92L385.823,1259.93L385.761,1259.94L385.699,1259.95L385.636,1259.96L385.574,1259.97L385.511,1259.97L385.448,1259.98L385.384,1259.99L385.321,1259.99L385.257,1259.99L385.193,1260L385.129,1260L385.065,1260L385,1260L145,1260L144.935,1260L144.871,1260L144.807,1260L144.743,1259.99L144.679,1259.99L144.616,1259.99L144.552,1259.98L144.489,1259.97L144.426,1259.97L144.364,1259.96L144.301,1259.95L144.239,1259.94L144.177,1259.93L144.115,1259.92L144.054,1259.91L143.993,1259.9L143.932,1259.88L143.871,1259.87L143.811,1259.86L143.751,1259.84L143.691,1259.83L143.632,1259.81L143.573,1259.79L143.514,1259.78L143.455,1259.76L143.397,1259.74L143.339,1259.72L143.282,1259.7L143.224,1259.67L143.167,1259.65L143.111,1259.63L143.055,1259.61L142.999,1259.58L142.943,1259.56L142.888,1259.53L142.833,1259.51L142.779,1259.48L142.725,1259.45L142.671,1259.42L142.618,1259.4L142.565,1259.37L142.512,1259.34L142.46,1259.31L142.408,1259.28L142.357,1259.24L142.306,1259.21L142.255,1259.18L142.205,1259.15L142.156,1259.11L142.106,1259.08L142.058,1259.04L142.009,1259.01L141.961,1258.97L141.914,1258.93L141.867,1258.9L141.82,1258.86L141.774,1258.82L141.729,1258.78L141.683,1258.74L141.639,1258.7L141.595,1258.66L141.551,1258.62L141.508,1258.58L141.465,1258.54L141.423,1258.49L141.381,1258.45L141.34,1258.4L141.3,1258.36L141.259,1258.32L141.22,1258.27L141.181,1258.23L141.142,1258.18L141.104,1258.13L141.067,1258.09L141.03,1258.04L140.994,1257.99L140.958,1257.94L140.923,1257.89L140.888,1257.84L140.854,1257.8L140.821,1257.75L140.788,1257.69L140.756,1257.64L140.724,1257.59L140.693,1257.54L140.663,1257.49L140.633,1257.43L140.604,1257.38L140.575,1257.33L140.547,1257.28L140.52,1257.22L140.493,1257.17L140.467,1257.11L140.442,1257.06L140.417,1257L140.393,1256.94L140.37,1256.89L140.347,1256.83L140.325,1256.78L140.304,1256.72L140.283,1256.66L140.263,1256.6L140.244,1256.55L140.225,1256.49L140.207,1256.43L140.19,1256.37L140.173,1256.31L140.158,1256.25L140.142,1256.19L140.128,1256.13L140.115,1256.07L140.102,1256.01L140.09,1255.95L140.078,1255.88L140.068,1255.82L140.058,1255.76L140.049,1255.7L140.04,1255.64L140.033,1255.57L140.026,1255.51L140.02,1255.45L140.015,1255.38L140.01,1255.32L140.007,1255.26L140.004,1255.19L140.002,1255.13L140,1255.07L140,1255L140,1220L140,1219.93L140.002,1219.87L140.004,1219.81L140.007,1219.74L140.01,1219.68L140.015,1219.62L140.02,1219.55L140.026,1219.49L140.033,1219.43L140.04,1219.36L140.049,1219.3L140.058,1219.24L140.068,1219.18L140.078,1219.12L140.09,1219.05L140.102,1218.99L140.115,1218.93L140.128,1218.87L140.142,1218.81L140.158,1218.75L140.173,1218.69L140.19,1218.63L140.207,1218.57L140.225,1218.51L140.244,1218.45L140.263,1218.4L140.283,1218.34L140.304,1218.28L140.325,1218.22L140.347,1218.17L140.37,1218.11L140.393,1218.06L140.417,1218L140.442,1217.94L140.467,1217.89L140.493,1217.83L140.52,1217.78L140.547,1217.73L140.575,1217.67L140.604,1217.62L140.633,1217.57L140.663,1217.51L140.693,1217.46L140.724,1217.41L140.756,1217.36L140.788,1217.31L140.821,1217.26L140.854,1217.2L140.888,1217.16L140.923,1217.11L140.958,1217.06L140.994,1217.01L141.03,1216.96L141.067,1216.91L141.104,1216.87L141.142,1216.82L141.181,1216.77L141.22,1216.73L141.259,1216.68L141.3,1216.64L141.34,1216.6L141.381,1216.55L141.423,1216.51L141.465,1216.46L141.508,1216.42L141.551,1216.38L141.595,1216.34L141.639,1216.3L141.683,1216.26L141.729,1216.22L141.774,1216.18L141.82,1216.14L141.867,1216.1L141.914,1216.07L141.961,1216.03L142.009,1215.99L142.058,1215.96L142.106,1215.92L142.156,1215.89L142.205,1215.85L142.255,1215.82L142.306,1215.79L142.357,1215.76L142.408,1215.72L142.46,1215.69L142.512,1215.66L142.565,1215.63L142.618,1215.6L142.671,1215.58L142.725,1215.55L142.779,1215.52L142.833,1215.49L142.888,1215.47L142.943,1215.44L142.999,1215.42L143.055,1215.39L143.111,1215.37L143.167,1215.35L143.224,1215.33L143.282,1215.3L143.339,1215.28L143.397,1215.26L143.455,1215.24L143.514,1215.23L143.573,1215.21L143.632,1215.19L143.691,1215.17L143.751,1215.16L143.811,1215.14L143.871,1215.13L143.932,1215.12L143.993,1215.1L144.054,1215.09L144.115,1215.08L144.177,1215.07L144.239,1215.06L144.301,1215.05L144.364,1215.04L144.426,1215.03L144.489,1215.03L144.552,1215.02L144.616,1215.02L144.679,1215.01L144.743,1215.01L144.807,1215L144.871,1215L144.935,1215L145,1215L385,1215L385.065,1215ZM145.002,1215.7L144.944,1215.7L144.889,1215.7L144.833,1215.7L144.778,1215.7L144.723,1215.7L144.668,1215.71L144.614,1215.71L144.559,1215.72L144.505,1215.72L144.451,1215.73L144.398,1215.74L144.344,1215.75L144.291,1215.75L144.238,1215.76L144.185,1215.77L144.132,1215.78L144.08,1215.79L144.028,1215.81L143.976,1215.82L143.924,1215.83L143.873,1215.85L143.822,1215.86L143.771,1215.87L143.721,1215.89L143.67,1215.9L143.62,1215.92L143.57,1215.94L143.521,1215.96L143.472,1215.98L143.423,1215.99L143.374,1216.01L143.326,1216.03L143.278,1216.05L143.23,1216.08L143.182,1216.1L143.135,1216.12L143.088,1216.14L143.042,1216.17L142.996,1216.19L142.95,1216.21L142.904,1216.24L142.859,1216.27L142.814,1216.29L142.769,1216.32L142.725,1216.35L142.681,1216.37L142.638,1216.4L142.595,1216.43L142.552,1216.46L142.51,1216.49L142.468,1216.52L142.426,1216.55L142.385,1216.58L142.344,1216.61L142.303,1216.65L142.263,1216.68L142.223,1216.71L142.184,1216.75L142.145,1216.78L142.107,1216.81L142.069,1216.85L142.031,1216.88L141.994,1216.92L141.957,1216.96L141.921,1216.99L141.885,1217.03L141.849,1217.07L141.814,1217.11L141.78,1217.14L141.746,1217.18L141.712,1217.22L141.679,1217.26L141.646,1217.3L141.614,1217.34L141.582,1217.38L141.551,1217.43L141.52,1217.47L141.49,1217.51L141.46,1217.55L141.431,1217.6L141.402,1217.64L141.374,1217.68L141.346,1217.73L141.319,1217.77L141.292,1217.81L141.266,1217.86L141.24,1217.9L141.215,1217.95L141.19,1218L141.166,1218.04L141.143,1218.09L141.12,1218.13L141.098,1218.18L141.076,1218.23L141.054,1218.28L141.034,1218.33L141.014,1218.37L140.994,1218.42L140.975,1218.47L140.957,1218.52L140.939,1218.57L140.922,1218.62L140.905,1218.67L140.889,1218.72L140.874,1218.77L140.859,1218.82L140.845,1218.87L140.831,1218.92L140.818,1218.98L140.806,1219.03L140.794,1219.08L140.783,1219.13L140.773,1219.18L140.763,1219.24L140.754,1219.29L140.745,1219.34L140.737,1219.4L140.73,1219.45L140.724,1219.51L140.718,1219.56L140.713,1219.61L140.708,1219.67L140.704,1219.72L140.701,1219.78L140.699,1219.83L140.697,1219.89L140.696,1219.94L140.696,1220L140.696,1255L140.696,1255.06L140.697,1255.11L140.699,1255.17L140.701,1255.22L140.704,1255.28L140.708,1255.33L140.713,1255.39L140.718,1255.44L140.724,1255.5L140.73,1255.55L140.737,1255.6L140.745,1255.66L140.754,1255.71L140.763,1255.76L140.773,1255.82L140.783,1255.87L140.794,1255.92L140.806,1255.97L140.818,1256.02L140.831,1256.08L140.845,1256.13L140.859,1256.18L140.874,1256.23L140.889,1256.28L140.905,1256.33L140.922,1256.38L140.939,1256.43L140.957,1256.48L140.975,1256.53L140.994,1256.58L141.014,1256.63L141.034,1256.67L141.054,1256.72L141.076,1256.77L141.098,1256.82L141.12,1256.87L141.143,1256.91L141.166,1256.96L141.19,1257L141.215,1257.05L141.24,1257.1L141.266,1257.14L141.292,1257.19L141.319,1257.23L141.346,1257.28L141.374,1257.32L141.402,1257.36L141.431,1257.4L141.46,1257.45L141.49,1257.49L141.52,1257.53L141.551,1257.57L141.582,1257.62L141.614,1257.66L141.646,1257.7L141.679,1257.74L141.712,1257.78L141.746,1257.82L141.78,1257.86L141.814,1257.89L141.849,1257.93L141.885,1257.97L141.921,1258.01L141.957,1258.04L141.994,1258.08L142.031,1258.12L142.069,1258.15L142.107,1258.19L142.145,1258.22L142.184,1258.25L142.223,1258.29L142.263,1258.32L142.303,1258.35L142.344,1258.39L142.385,1258.42L142.426,1258.45L142.468,1258.48L142.51,1258.51L142.552,1258.54L142.595,1258.57L142.638,1258.6L142.681,1258.63L142.725,1258.65L142.769,1258.68L142.814,1258.71L142.859,1258.73L142.904,1258.76L142.95,1258.79L142.996,1258.81L143.042,1258.83L143.088,1258.86L143.135,1258.88L143.182,1258.9L143.23,1258.92L143.278,1258.95L143.326,1258.97L143.374,1258.99L143.423,1259.01L143.472,1259.03L143.521,1259.04L143.57,1259.06L143.62,1259.08L143.67,1259.1L143.721,1259.11L143.771,1259.13L143.822,1259.14L143.873,1259.15L143.924,1259.17L143.976,1259.18L144.028,1259.19L144.08,1259.21L144.132,1259.22L144.185,1259.23L144.238,1259.24L144.291,1259.25L144.344,1259.26L144.398,1259.26L144.451,1259.27L144.505,1259.28L144.559,1259.28L144.614,1259.29L144.668,1259.29L144.723,1259.3L144.778,1259.3L144.833,1259.3L144.889,1259.3L144.944,1259.3L145.002,1259.3L384.998,1259.3L385.056,1259.3L385.111,1259.3L385.167,1259.3L385.222,1259.3L385.277,1259.3L385.332,1259.29L385.386,1259.29L385.441,1259.28L385.495,1259.28L385.549,1259.27L385.602,1259.26L385.656,1259.26L385.709,1259.25L385.762,1259.24L385.815,1259.23L385.868,1259.22L385.92,1259.21L385.972,1259.19L386.024,1259.18L386.076,1259.17L386.127,1259.15L386.178,1259.14L386.229,1259.13L386.279,1259.11L386.33,1259.1L386.38,1259.08L386.43,1259.06L386.479,1259.04L386.528,1259.03L386.577,1259.01L386.626,1258.99L386.674,1258.97L386.722,1258.95L386.77,1258.92L386.818,1258.9L386.865,1258.88L386.912,1258.86L386.958,1258.83L387.004,1258.81L387.05,1258.79L387.096,1258.76L387.141,1258.73L387.186,1258.71L387.231,1258.68L387.275,1258.65L387.319,1258.63L387.362,1258.6L387.405,1258.57L387.448,1258.54L387.49,1258.51L387.532,1258.48L387.574,1258.45L387.615,1258.42L387.656,1258.39L387.697,1258.35L387.737,1258.32L387.777,1258.29L387.816,1258.25L387.855,1258.22L387.893,1258.19L387.931,1258.15L387.969,1258.12L388.006,1258.08L388.043,1258.04L388.079,1258.01L388.115,1257.97L388.151,1257.93L388.186,1257.89L388.22,1257.86L388.254,1257.82L388.288,1257.78L388.321,1257.74L388.354,1257.7L388.386,1257.66L388.418,1257.62L388.449,1257.57L388.48,1257.53L388.51,1257.49L388.54,1257.45L388.569,1257.4L388.598,1257.36L388.626,1257.32L388.654,1257.28L388.681,1257.23L388.708,1257.19L388.734,1257.14L388.76,1257.1L388.785,1257.05L388.81,1257L388.834,1256.96L388.857,1256.91L388.88,1256.87L388.902,1256.82L388.924,1256.77L388.946,1256.72L388.966,1256.67L388.986,1256.63L389.006,1256.58L389.025,1256.53L389.043,1256.48L389.061,1256.43L389.078,1256.38L389.095,1256.33L389.111,1256.28L389.126,1256.23L389.141,1256.18L389.155,1256.13L389.169,1256.08L389.182,1256.02L389.194,1255.97L389.206,1255.92L389.217,1255.87L389.227,1255.82L389.237,1255.76L389.246,1255.71L389.255,1255.66L389.263,1255.6L389.27,1255.55L389.276,1255.5L389.282,1255.44L389.287,1255.39L389.292,1255.33L389.296,1255.28L389.299,1255.22L389.301,1255.17L389.303,1255.11L389.304,1255.06L389.304,1255L389.304,1220L389.304,1219.94L389.303,1219.89L389.301,1219.83L389.299,1219.78L389.296,1219.72L389.292,1219.67L389.287,1219.61L389.282,1219.56L389.276,1219.51L389.27,1219.45L389.263,1219.4L389.255,1219.34L389.246,1219.29L389.237,1219.24L389.227,1219.18L389.217,1219.13L389.206,1219.08L389.194,1219.03L389.182,1218.98L389.169,1218.92L389.155,1218.87L389.141,1218.82L389.126,1218.77L389.111,1218.72L389.095,1218.67L389.078,1218.62L389.061,1218.57L389.043,1218.52L389.025,1218.47L389.006,1218.42L388.986,1218.37L388.966,1218.33L388.946,1218.28L388.924,1218.23L388.902,1218.18L388.88,1218.13L388.857,1218.09L388.834,1218.04L388.81,1218L388.785,1217.95L388.76,1217.9L388.734,1217.86L388.708,1217.81L388.681,1217.77L388.654,1217.73L388.626,1217.68L388.598,1217.64L388.569,1217.6L388.54,1217.55L388.51,1217.51L388.48,1217.47L388.449,1217.43L388.418,1217.38L388.386,1217.34L388.354,1217.3L388.321,1217.26L388.288,1217.22L388.254,1217.18L388.22,1217.14L388.186,1217.11L388.151,1217.07L388.115,1217.03L388.079,1216.99L388.043,1216.96L388.006,1216.92L387.969,1216.88L387.931,1216.85L387.893,1216.81L387.855,1216.78L387.816,1216.75L387.777,1216.71L387.737,1216.68L387.697,1216.65L387.656,1216.61L387.615,1216.58L387.574,1216.55L387.533,1216.52L387.49,1216.49L387.448,1216.46L387.405,1216.43L387.362,1216.4L387.319,1216.37L387.275,1216.35L387.231,1216.32L387.186,1216.29L387.141,1216.27L387.096,1216.24L387.05,1216.21L387.004,1216.19L386.958,1216.17L386.912,1216.14L386.865,1216.12L386.818,1216.1L386.77,1216.08L386.722,1216.05L386.674,1216.03L386.626,1216.01L386.577,1215.99L386.528,1215.98L386.479,1215.96L386.43,1215.94L386.38,1215.92L386.33,1215.9L386.279,1215.89L386.229,1215.87L386.178,1215.86L386.127,1215.85L386.076,1215.83L386.024,1215.82L385.972,1215.81L385.92,1215.79L385.868,1215.78L385.815,1215.77L385.762,1215.76L385.709,1215.75L385.656,1215.75L385.602,1215.74L385.549,1215.73L385.495,1215.72L385.441,1215.72L385.386,1215.71L385.332,1215.71L385.277,1215.7L385.222,1215.7L385.167,1215.7L385.111,1215.7L385.056,1215.7L384.998,1215.7L145.002,1215.7Z" style="fill:rgb(132,147,167);"/>
            </g>
            <g id="Grade-UI-Kit" serif:id="Grade UI Kit" transform="matrix(1,0,0,1,154.871,1242.68)">
                <g transform="matrix(15,0,0,15,0,0)">
                    <path d="M0.045,-0.23L0.134,-0.238C0.139,-0.202 0.148,-0.173 0.164,-0.15C0.179,-0.127 0.203,-0.108 0.236,-0.094C0.268,-0.08 0.305,-0.073 0.346,-0.073C0.382,-0.073 0.414,-0.078 0.441,-0.089C0.469,-0.1 0.49,-0.114 0.503,-0.133C0.517,-0.152 0.523,-0.172 0.523,-0.194C0.523,-0.217 0.517,-0.236 0.504,-0.253C0.491,-0.27 0.469,-0.284 0.439,-0.295C0.42,-0.303 0.378,-0.315 0.312,-0.33C0.246,-0.346 0.2,-0.361 0.174,-0.375C0.14,-0.393 0.114,-0.415 0.097,-0.442C0.081,-0.468 0.072,-0.498 0.072,-0.531C0.072,-0.567 0.083,-0.601 0.103,-0.632C0.124,-0.663 0.153,-0.687 0.193,-0.704C0.232,-0.72 0.276,-0.728 0.324,-0.728C0.377,-0.728 0.424,-0.719 0.465,-0.702C0.505,-0.685 0.536,-0.66 0.558,-0.627C0.58,-0.594 0.592,-0.556 0.593,-0.514L0.502,-0.507C0.498,-0.553 0.481,-0.587 0.453,-0.61C0.425,-0.633 0.383,-0.645 0.328,-0.645C0.271,-0.645 0.229,-0.634 0.203,-0.613C0.177,-0.592 0.164,-0.567 0.164,-0.537C0.164,-0.511 0.173,-0.49 0.191,-0.474C0.21,-0.457 0.257,-0.44 0.334,-0.423C0.411,-0.405 0.464,-0.39 0.493,-0.377C0.534,-0.358 0.565,-0.333 0.585,-0.304C0.605,-0.274 0.615,-0.241 0.615,-0.202C0.615,-0.164 0.604,-0.128 0.582,-0.094C0.56,-0.061 0.529,-0.035 0.488,-0.016C0.447,0.003 0.401,0.012 0.35,0.012C0.285,0.012 0.231,0.003 0.187,-0.016C0.143,-0.035 0.109,-0.063 0.084,-0.101C0.059,-0.139 0.046,-0.182 0.045,-0.23Z" style="fill:rgb(132,147,168);fill-rule:nonzero;"/>
                </g>
                <g transform="matrix(15,0,0,15,10.0049,0)">
                    <path d="M0.421,-0.167L0.512,-0.156C0.497,-0.103 0.471,-0.062 0.432,-0.032C0.393,-0.003 0.344,0.012 0.284,0.012C0.208,0.012 0.148,-0.012 0.103,-0.058C0.059,-0.105 0.037,-0.171 0.037,-0.255C0.037,-0.342 0.059,-0.41 0.104,-0.458C0.149,-0.506 0.207,-0.53 0.279,-0.53C0.348,-0.53 0.405,-0.507 0.449,-0.459C0.493,-0.412 0.515,-0.346 0.515,-0.26C0.515,-0.255 0.514,-0.247 0.514,-0.237L0.127,-0.237C0.131,-0.18 0.147,-0.136 0.176,-0.106C0.205,-0.076 0.241,-0.061 0.284,-0.061C0.316,-0.061 0.344,-0.069 0.367,-0.086C0.389,-0.103 0.408,-0.13 0.421,-0.167ZM0.132,-0.309L0.422,-0.309C0.418,-0.353 0.407,-0.385 0.389,-0.407C0.361,-0.441 0.324,-0.458 0.28,-0.458C0.239,-0.458 0.205,-0.444 0.178,-0.417C0.15,-0.39 0.135,-0.354 0.132,-0.309Z" style="fill:rgb(132,147,168);fill-rule:nonzero;"/>
                </g>
                <g transform="matrix(15,0,0,15,18.3472,0)">
                    <path d="M0.066,0L0.066,-0.519L0.145,-0.519L0.145,-0.445C0.183,-0.502 0.238,-0.53 0.31,-0.53C0.341,-0.53 0.37,-0.525 0.396,-0.513C0.422,-0.502 0.442,-0.487 0.455,-0.469C0.468,-0.451 0.477,-0.429 0.482,-0.404C0.486,-0.388 0.487,-0.36 0.487,-0.319L0.487,0L0.399,0L0.399,-0.315C0.399,-0.351 0.396,-0.378 0.389,-0.396C0.382,-0.413 0.37,-0.428 0.353,-0.438C0.335,-0.449 0.315,-0.454 0.292,-0.454C0.254,-0.454 0.222,-0.442 0.195,-0.418C0.167,-0.395 0.154,-0.35 0.154,-0.283L0.154,0L0.066,0Z" style="fill:rgb(132,147,168);fill-rule:nonzero;"/>
                </g>
                <g transform="matrix(15,0,0,15,26.6895,0)">
                    <path d="M0.066,0L0.066,-0.716L0.154,-0.716L0.154,-0.459C0.195,-0.507 0.247,-0.53 0.309,-0.53C0.347,-0.53 0.381,-0.523 0.409,-0.508C0.438,-0.492 0.458,-0.472 0.47,-0.445C0.482,-0.418 0.488,-0.379 0.488,-0.329L0.488,0L0.4,0L0.4,-0.329C0.4,-0.373 0.391,-0.405 0.372,-0.425C0.353,-0.445 0.326,-0.455 0.291,-0.455C0.265,-0.455 0.24,-0.448 0.218,-0.434C0.195,-0.421 0.178,-0.403 0.168,-0.379C0.159,-0.356 0.154,-0.324 0.154,-0.284L0.154,0L0.066,0Z" style="fill:rgb(132,147,168);fill-rule:nonzero;"/>
                </g>
                <g transform="matrix(15,0,0,15,35.0317,0)">
                    <path d="M0.404,-0.064C0.372,-0.036 0.34,-0.017 0.31,-0.005C0.28,0.006 0.248,0.012 0.213,0.012C0.156,0.012 0.113,-0.002 0.082,-0.03C0.051,-0.058 0.036,-0.093 0.036,-0.137C0.036,-0.162 0.042,-0.185 0.053,-0.206C0.065,-0.227 0.08,-0.244 0.099,-0.257C0.118,-0.27 0.139,-0.279 0.162,-0.286C0.179,-0.29 0.205,-0.295 0.24,-0.299C0.311,-0.307 0.363,-0.317 0.397,-0.329C0.397,-0.341 0.397,-0.349 0.397,-0.352C0.397,-0.388 0.389,-0.413 0.373,-0.428C0.35,-0.448 0.317,-0.458 0.272,-0.458C0.231,-0.458 0.201,-0.45 0.181,-0.436C0.161,-0.421 0.147,-0.396 0.137,-0.359L0.051,-0.371C0.059,-0.407 0.072,-0.437 0.09,-0.46C0.108,-0.482 0.134,-0.5 0.167,-0.512C0.201,-0.524 0.241,-0.53 0.285,-0.53C0.329,-0.53 0.365,-0.525 0.393,-0.515C0.421,-0.504 0.441,-0.491 0.454,-0.475C0.467,-0.46 0.476,-0.44 0.481,-0.416C0.484,-0.401 0.486,-0.374 0.486,-0.334L0.486,-0.217C0.486,-0.136 0.488,-0.084 0.491,-0.062C0.495,-0.041 0.503,-0.02 0.514,0L0.422,0C0.413,-0.018 0.407,-0.04 0.404,-0.064ZM0.397,-0.26C0.365,-0.247 0.317,-0.236 0.253,-0.227C0.217,-0.222 0.192,-0.216 0.177,-0.209C0.162,-0.203 0.15,-0.193 0.142,-0.181C0.134,-0.168 0.13,-0.154 0.13,-0.139C0.13,-0.116 0.139,-0.096 0.156,-0.081C0.174,-0.065 0.2,-0.057 0.234,-0.057C0.268,-0.057 0.298,-0.065 0.325,-0.079C0.351,-0.094 0.37,-0.114 0.383,-0.14C0.392,-0.16 0.397,-0.189 0.397,-0.228L0.397,-0.26Z" style="fill:rgb(132,147,168);fill-rule:nonzero;"/>
                </g>
            </g>
        </g>
        <g id="Input1" serif:id="Input" transform="matrix(0.755885,0,0,1.25064,-413.659,-1671.01)">
            <g id="Base2" serif:id="Base" transform="matrix(0.959849,0,0,1,28.1056,0)">
                <path d="M1230,1480C1230,1477.24 1226.14,1475 1221.38,1475L708.619,1475C703.862,1475 700,1477.24 700,1480L700,1565C700,1567.76 703.862,1570 708.619,1570L1221.38,1570C1226.14,1570 1230,1567.76 1230,1565L1230,1480Z" style="fill:rgb(236,239,244);"/>
                <path d="M1221.49,1475L1221.6,1475L1221.71,1475L1221.82,1475.01L1221.93,1475.01L1222.04,1475.02L1222.15,1475.02L1222.26,1475.03L1222.37,1475.03L1222.48,1475.04L1222.59,1475.05L1222.69,1475.06L1222.8,1475.07L1222.91,1475.08L1223.01,1475.09L1223.12,1475.1L1223.22,1475.12L1223.33,1475.13L1223.43,1475.14L1223.53,1475.16L1223.64,1475.17L1223.74,1475.19L1223.84,1475.21L1223.94,1475.23L1224.04,1475.24L1224.14,1475.26L1224.24,1475.28L1224.34,1475.3L1224.44,1475.33L1224.54,1475.35L1224.64,1475.37L1224.74,1475.39L1224.83,1475.42L1224.93,1475.44L1225.02,1475.47L1225.12,1475.49L1225.21,1475.52L1225.3,1475.55L1225.4,1475.58L1225.49,1475.6L1225.58,1475.63L1225.67,1475.66L1225.76,1475.69L1225.85,1475.72L1225.94,1475.76L1226.03,1475.79L1226.11,1475.82L1226.2,1475.85L1226.28,1475.89L1226.37,1475.92L1226.45,1475.96L1226.54,1475.99L1226.62,1476.03L1226.7,1476.07L1226.78,1476.1L1226.86,1476.14L1226.94,1476.18L1227.02,1476.22L1227.1,1476.26L1227.17,1476.3L1227.25,1476.34L1227.33,1476.38L1227.4,1476.42L1227.47,1476.46L1227.55,1476.51L1227.62,1476.55L1227.69,1476.6L1227.76,1476.64L1227.83,1476.68L1227.9,1476.73L1227.96,1476.77L1228.03,1476.82L1228.1,1476.87L1228.16,1476.91L1228.22,1476.96L1228.29,1477.01L1228.35,1477.06L1228.41,1477.11L1228.47,1477.16L1228.53,1477.2L1228.59,1477.26L1228.64,1477.31L1228.7,1477.36L1228.75,1477.41L1228.81,1477.46L1228.86,1477.51L1228.91,1477.57L1228.96,1477.62L1229.01,1477.67L1229.06,1477.73L1229.1,1477.78L1229.15,1477.83L1229.19,1477.89L1229.24,1477.94L1229.28,1478L1229.32,1478.06L1229.36,1478.11L1229.4,1478.17L1229.44,1478.22L1229.48,1478.28L1229.51,1478.34L1229.55,1478.4L1229.58,1478.45L1229.61,1478.51L1229.64,1478.57L1229.67,1478.63L1229.7,1478.69L1229.73,1478.75L1229.75,1478.81L1229.78,1478.87L1229.8,1478.93L1229.83,1478.99L1229.85,1479.05L1229.87,1479.12L1229.88,1479.18L1229.9,1479.24L1229.92,1479.3L1229.93,1479.36L1229.94,1479.43L1229.95,1479.49L1229.97,1479.55L1229.98,1479.62L1229.98,1479.68L1229.99,1479.74L1229.99,1479.81L1230,1479.87L1230,1479.93L1230,1480L1230,1565L1230,1565.07L1230,1565.13L1229.99,1565.19L1229.99,1565.26L1229.98,1565.32L1229.98,1565.38L1229.97,1565.45L1229.95,1565.51L1229.94,1565.57L1229.93,1565.64L1229.92,1565.7L1229.9,1565.76L1229.88,1565.82L1229.87,1565.88L1229.85,1565.95L1229.83,1566.01L1229.8,1566.07L1229.78,1566.13L1229.75,1566.19L1229.73,1566.25L1229.7,1566.31L1229.67,1566.37L1229.64,1566.43L1229.61,1566.49L1229.58,1566.55L1229.55,1566.6L1229.51,1566.66L1229.48,1566.72L1229.44,1566.78L1229.4,1566.83L1229.36,1566.89L1229.32,1566.94L1229.28,1567L1229.24,1567.06L1229.19,1567.11L1229.15,1567.17L1229.1,1567.22L1229.06,1567.28L1229.01,1567.33L1228.96,1567.38L1228.91,1567.43L1228.86,1567.49L1228.81,1567.54L1228.75,1567.59L1228.7,1567.64L1228.64,1567.69L1228.59,1567.75L1228.53,1567.8L1228.47,1567.84L1228.41,1567.89L1228.35,1567.94L1228.29,1567.99L1228.22,1568.04L1228.16,1568.09L1228.1,1568.13L1228.03,1568.18L1227.96,1568.23L1227.9,1568.27L1227.83,1568.32L1227.76,1568.36L1227.69,1568.4L1227.62,1568.45L1227.55,1568.49L1227.47,1568.54L1227.4,1568.58L1227.33,1568.62L1227.25,1568.66L1227.17,1568.7L1227.1,1568.74L1227.02,1568.78L1226.94,1568.82L1226.86,1568.86L1226.78,1568.9L1226.7,1568.93L1226.62,1568.97L1226.54,1569.01L1226.45,1569.04L1226.37,1569.08L1226.28,1569.11L1226.2,1569.15L1226.11,1569.18L1226.03,1569.21L1225.94,1569.24L1225.85,1569.28L1225.76,1569.31L1225.67,1569.34L1225.58,1569.37L1225.49,1569.4L1225.4,1569.42L1225.3,1569.45L1225.21,1569.48L1225.12,1569.51L1225.02,1569.53L1224.93,1569.56L1224.83,1569.58L1224.74,1569.61L1224.64,1569.63L1224.54,1569.65L1224.44,1569.67L1224.34,1569.7L1224.24,1569.72L1224.14,1569.74L1224.04,1569.76L1223.94,1569.78L1223.84,1569.79L1223.74,1569.81L1223.64,1569.83L1223.53,1569.84L1223.43,1569.86L1223.33,1569.87L1223.22,1569.88L1223.12,1569.9L1223.01,1569.91L1222.91,1569.92L1222.8,1569.93L1222.69,1569.94L1222.59,1569.95L1222.48,1569.96L1222.37,1569.97L1222.26,1569.97L1222.15,1569.98L1222.04,1569.99L1221.93,1569.99L1221.82,1569.99L1221.71,1570L1221.6,1570L1221.49,1570L1221.38,1570L708.619,1570L708.507,1570L708.396,1570L708.286,1570L708.176,1569.99L708.066,1569.99L707.956,1569.99L707.847,1569.98L707.738,1569.97L707.63,1569.97L707.522,1569.96L707.414,1569.95L707.307,1569.94L707.2,1569.93L707.094,1569.92L706.988,1569.91L706.883,1569.9L706.778,1569.88L706.673,1569.87L706.569,1569.86L706.466,1569.84L706.363,1569.83L706.26,1569.81L706.158,1569.79L706.057,1569.78L705.956,1569.76L705.856,1569.74L705.756,1569.72L705.657,1569.7L705.558,1569.67L705.46,1569.65L705.362,1569.63L705.265,1569.61L705.169,1569.58L705.073,1569.56L704.978,1569.53L704.884,1569.51L704.79,1569.48L704.696,1569.45L704.604,1569.42L704.512,1569.4L704.421,1569.37L704.33,1569.34L704.24,1569.31L704.151,1569.28L704.063,1569.24L703.975,1569.21L703.888,1569.18L703.801,1569.15L703.716,1569.11L703.631,1569.08L703.547,1569.04L703.463,1569.01L703.381,1568.97L703.299,1568.93L703.218,1568.9L703.138,1568.86L703.058,1568.82L702.98,1568.78L702.902,1568.74L702.825,1568.7L702.749,1568.66L702.674,1568.62L702.599,1568.58L702.526,1568.54L702.453,1568.49L702.381,1568.45L702.31,1568.4L702.24,1568.36L702.171,1568.32L702.103,1568.27L702.035,1568.23L701.969,1568.18L701.904,1568.13L701.839,1568.09L701.776,1568.04L701.713,1567.99L701.652,1567.94L701.591,1567.89L701.531,1567.84L701.473,1567.8L701.415,1567.75L701.359,1567.69L701.303,1567.64L701.249,1567.59L701.195,1567.54L701.143,1567.49L701.091,1567.43L701.041,1567.38L700.992,1567.33L700.943,1567.28L700.896,1567.22L700.85,1567.17L700.806,1567.11L700.762,1567.06L700.719,1567L700.678,1566.94L700.637,1566.89L700.598,1566.83L700.56,1566.78L700.523,1566.72L700.488,1566.66L700.453,1566.6L700.42,1566.55L700.388,1566.49L700.357,1566.43L700.327,1566.37L700.299,1566.31L700.272,1566.25L700.246,1566.19L700.221,1566.13L700.197,1566.07L700.175,1566.01L700.154,1565.95L700.135,1565.88L700.116,1565.82L700.099,1565.76L700.084,1565.7L700.069,1565.64L700.056,1565.57L700.045,1565.51L700.034,1565.45L700.025,1565.38L700.018,1565.32L700.011,1565.26L700.006,1565.19L700.003,1565.13L700.001,1565.07L700,1565L700,1480L700.001,1479.93L700.003,1479.87L700.006,1479.81L700.011,1479.74L700.018,1479.68L700.025,1479.62L700.034,1479.55L700.045,1479.49L700.056,1479.43L700.069,1479.36L700.084,1479.3L700.099,1479.24L700.116,1479.18L700.135,1479.12L700.154,1479.05L700.175,1478.99L700.197,1478.93L700.221,1478.87L700.246,1478.81L700.272,1478.75L700.299,1478.69L700.327,1478.63L700.357,1478.57L700.388,1478.51L700.42,1478.45L700.453,1478.4L700.488,1478.34L700.523,1478.28L700.56,1478.22L700.598,1478.17L700.637,1478.11L700.678,1478.06L700.719,1478L700.762,1477.94L700.806,1477.89L700.85,1477.83L700.896,1477.78L700.943,1477.73L700.992,1477.67L701.041,1477.62L701.091,1477.57L701.143,1477.51L701.195,1477.46L701.249,1477.41L701.303,1477.36L701.359,1477.31L701.415,1477.26L701.473,1477.2L701.531,1477.16L701.591,1477.11L701.652,1477.06L701.713,1477.01L701.776,1476.96L701.839,1476.91L701.904,1476.87L701.969,1476.82L702.035,1476.77L702.103,1476.73L702.171,1476.68L702.24,1476.64L702.31,1476.6L702.381,1476.55L702.453,1476.51L702.526,1476.46L702.599,1476.42L702.674,1476.38L702.749,1476.34L702.825,1476.3L702.902,1476.26L702.98,1476.22L703.058,1476.18L703.138,1476.14L703.218,1476.1L703.299,1476.07L703.381,1476.03L703.463,1475.99L703.547,1475.96L703.631,1475.92L703.716,1475.89L703.801,1475.85L703.888,1475.82L703.975,1475.79L704.063,1475.76L704.151,1475.72L704.24,1475.69L704.33,1475.66L704.421,1475.63L704.512,1475.6L704.604,1475.58L704.696,1475.55L704.79,1475.52L704.884,1475.49L704.978,1475.47L705.073,1475.44L705.169,1475.42L705.265,1475.39L705.362,1475.37L705.46,1475.35L705.558,1475.33L705.657,1475.3L705.756,1475.28L705.856,1475.26L705.956,1475.24L706.057,1475.23L706.158,1475.21L706.26,1475.19L706.363,1475.17L706.466,1475.16L706.569,1475.14L706.673,1475.13L706.778,1475.12L706.883,1475.1L706.988,1475.09L707.094,1475.08L707.2,1475.07L707.307,1475.06L707.414,1475.05L707.522,1475.04L707.63,1475.03L707.738,1475.03L707.847,1475.02L707.956,1475.02L708.066,1475.01L708.176,1475.01L708.286,1475L708.396,1475L708.507,1475L708.619,1475L1221.38,1475L1221.49,1475ZM708.623,1475.8L708.525,1475.8L708.431,1475.8L708.338,1475.8L708.245,1475.81L708.153,1475.81L708.061,1475.81L707.969,1475.82L707.878,1475.82L707.786,1475.83L707.696,1475.83L707.605,1475.84L707.515,1475.85L707.426,1475.86L707.337,1475.87L707.248,1475.88L707.159,1475.88L707.071,1475.9L706.984,1475.91L706.896,1475.92L706.81,1475.93L706.723,1475.94L706.637,1475.96L706.552,1475.97L706.467,1475.99L706.382,1476L706.298,1476.02L706.214,1476.04L706.131,1476.05L706.048,1476.07L705.966,1476.09L705.884,1476.11L705.803,1476.13L705.722,1476.15L705.641,1476.17L705.561,1476.19L705.482,1476.21L705.403,1476.24L705.325,1476.26L705.247,1476.28L705.17,1476.31L705.094,1476.33L705.017,1476.36L704.942,1476.38L704.867,1476.41L704.793,1476.43L704.719,1476.46L704.646,1476.49L704.573,1476.52L704.501,1476.55L704.43,1476.58L704.359,1476.6L704.289,1476.63L704.22,1476.66L704.151,1476.7L704.083,1476.73L704.015,1476.76L703.948,1476.79L703.882,1476.82L703.817,1476.86L703.752,1476.89L703.688,1476.92L703.625,1476.96L703.562,1477L703.5,1477.03L703.439,1477.07L703.379,1477.1L703.319,1477.14L703.26,1477.18L703.202,1477.21L703.145,1477.25L703.088,1477.29L703.032,1477.33L702.977,1477.37L702.923,1477.41L702.869,1477.45L702.817,1477.49L702.765,1477.53L702.714,1477.57L702.664,1477.61L702.615,1477.65L702.566,1477.69L702.519,1477.74L702.472,1477.78L702.426,1477.82L702.381,1477.87L702.337,1477.91L702.294,1477.95L702.252,1478L702.211,1478.04L702.17,1478.09L702.131,1478.13L702.092,1478.18L702.054,1478.23L702.018,1478.27L701.982,1478.32L701.947,1478.37L701.913,1478.41L701.88,1478.46L701.848,1478.51L701.818,1478.56L701.788,1478.61L701.759,1478.65L701.731,1478.7L701.704,1478.75L701.678,1478.8L701.653,1478.85L701.629,1478.9L701.606,1478.95L701.585,1479L701.564,1479.05L701.544,1479.1L701.526,1479.15L701.508,1479.2L701.492,1479.26L701.476,1479.31L701.462,1479.36L701.449,1479.41L701.437,1479.46L701.426,1479.52L701.416,1479.57L701.407,1479.62L701.399,1479.68L701.393,1479.73L701.388,1479.78L701.384,1479.84L701.381,1479.89L701.379,1479.95L701.378,1480L701.378,1565L701.379,1565.05L701.381,1565.11L701.384,1565.16L701.388,1565.22L701.393,1565.27L701.399,1565.32L701.407,1565.38L701.416,1565.43L701.426,1565.48L701.437,1565.54L701.449,1565.59L701.462,1565.64L701.476,1565.69L701.492,1565.74L701.508,1565.8L701.526,1565.85L701.544,1565.9L701.564,1565.95L701.585,1566L701.606,1566.05L701.629,1566.1L701.653,1566.15L701.678,1566.2L701.704,1566.25L701.731,1566.3L701.759,1566.35L701.788,1566.39L701.817,1566.44L701.848,1566.49L701.88,1566.54L701.913,1566.59L701.947,1566.63L701.982,1566.68L702.018,1566.73L702.054,1566.77L702.092,1566.82L702.131,1566.87L702.17,1566.91L702.211,1566.96L702.252,1567L702.294,1567.05L702.337,1567.09L702.381,1567.13L702.426,1567.18L702.472,1567.22L702.519,1567.26L702.566,1567.31L702.615,1567.35L702.664,1567.39L702.714,1567.43L702.765,1567.47L702.817,1567.51L702.869,1567.55L702.923,1567.59L702.977,1567.63L703.032,1567.67L703.088,1567.71L703.145,1567.75L703.202,1567.79L703.26,1567.82L703.319,1567.86L703.379,1567.9L703.439,1567.93L703.5,1567.97L703.562,1568.01L703.625,1568.04L703.688,1568.08L703.752,1568.11L703.817,1568.14L703.882,1568.18L703.948,1568.21L704.015,1568.24L704.083,1568.27L704.151,1568.3L704.219,1568.34L704.289,1568.37L704.359,1568.4L704.43,1568.42L704.501,1568.45L704.573,1568.48L704.646,1568.51L704.719,1568.54L704.793,1568.57L704.867,1568.59L704.942,1568.62L705.017,1568.64L705.094,1568.67L705.17,1568.69L705.247,1568.72L705.325,1568.74L705.403,1568.76L705.482,1568.79L705.561,1568.81L705.641,1568.83L705.722,1568.85L705.803,1568.87L705.884,1568.89L705.966,1568.91L706.048,1568.93L706.131,1568.95L706.214,1568.96L706.298,1568.98L706.382,1569L706.467,1569.01L706.552,1569.03L706.637,1569.04L706.723,1569.06L706.81,1569.07L706.896,1569.08L706.984,1569.09L707.071,1569.1L707.159,1569.12L707.248,1569.13L707.336,1569.13L707.426,1569.14L707.516,1569.15L707.605,1569.16L707.696,1569.17L707.786,1569.17L707.877,1569.18L707.969,1569.18L708.061,1569.19L708.153,1569.19L708.246,1569.19L708.338,1569.2L708.431,1569.2L708.525,1569.2L708.623,1569.2L1221.38,1569.2L1221.48,1569.2L1221.57,1569.2L1221.66,1569.2L1221.75,1569.19L1221.85,1569.19L1221.94,1569.19L1222.03,1569.18L1222.12,1569.18L1222.21,1569.17L1222.3,1569.17L1222.39,1569.16L1222.48,1569.15L1222.57,1569.14L1222.66,1569.13L1222.75,1569.13L1222.84,1569.12L1222.93,1569.1L1223.02,1569.09L1223.1,1569.08L1223.19,1569.07L1223.28,1569.06L1223.36,1569.04L1223.45,1569.03L1223.53,1569.01L1223.62,1569L1223.7,1568.98L1223.79,1568.96L1223.87,1568.95L1223.95,1568.93L1224.03,1568.91L1224.12,1568.89L1224.2,1568.87L1224.28,1568.85L1224.36,1568.83L1224.44,1568.81L1224.52,1568.79L1224.6,1568.76L1224.67,1568.74L1224.75,1568.72L1224.83,1568.69L1224.91,1568.67L1224.98,1568.64L1225.06,1568.62L1225.13,1568.59L1225.21,1568.57L1225.28,1568.54L1225.35,1568.51L1225.43,1568.48L1225.5,1568.45L1225.57,1568.42L1225.64,1568.4L1225.71,1568.37L1225.78,1568.34L1225.85,1568.3L1225.92,1568.27L1225.99,1568.24L1226.05,1568.21L1226.12,1568.18L1226.18,1568.14L1226.25,1568.11L1226.31,1568.08L1226.38,1568.04L1226.44,1568.01L1226.5,1567.97L1226.56,1567.93L1226.62,1567.9L1226.68,1567.86L1226.74,1567.82L1226.8,1567.79L1226.86,1567.75L1226.91,1567.71L1226.97,1567.67L1227.02,1567.63L1227.08,1567.59L1227.13,1567.55L1227.18,1567.51L1227.24,1567.47L1227.29,1567.43L1227.34,1567.39L1227.38,1567.35L1227.43,1567.31L1227.48,1567.26L1227.53,1567.22L1227.57,1567.18L1227.62,1567.13L1227.66,1567.09L1227.71,1567.05L1227.75,1567L1227.79,1566.96L1227.83,1566.91L1227.87,1566.87L1227.91,1566.82L1227.95,1566.77L1227.98,1566.73L1228.02,1566.68L1228.05,1566.63L1228.09,1566.59L1228.12,1566.54L1228.15,1566.49L1228.18,1566.44L1228.21,1566.39L1228.24,1566.35L1228.27,1566.3L1228.3,1566.25L1228.32,1566.2L1228.35,1566.15L1228.37,1566.1L1228.39,1566.05L1228.41,1566L1228.44,1565.95L1228.46,1565.9L1228.47,1565.85L1228.49,1565.8L1228.51,1565.74L1228.52,1565.69L1228.54,1565.64L1228.55,1565.59L1228.56,1565.54L1228.57,1565.48L1228.58,1565.43L1228.59,1565.38L1228.6,1565.32L1228.61,1565.27L1228.61,1565.22L1228.62,1565.16L1228.62,1565.11L1228.62,1565.05L1228.62,1565L1228.62,1480L1228.62,1479.95L1228.62,1479.89L1228.62,1479.84L1228.61,1479.78L1228.61,1479.73L1228.6,1479.68L1228.59,1479.62L1228.58,1479.57L1228.57,1479.52L1228.56,1479.46L1228.55,1479.41L1228.54,1479.36L1228.52,1479.31L1228.51,1479.26L1228.49,1479.2L1228.47,1479.15L1228.46,1479.1L1228.44,1479.05L1228.41,1479L1228.39,1478.95L1228.37,1478.9L1228.35,1478.85L1228.32,1478.8L1228.3,1478.75L1228.27,1478.7L1228.24,1478.65L1228.21,1478.61L1228.18,1478.56L1228.15,1478.51L1228.12,1478.46L1228.09,1478.41L1228.05,1478.37L1228.02,1478.32L1227.98,1478.27L1227.95,1478.23L1227.91,1478.18L1227.87,1478.13L1227.83,1478.09L1227.79,1478.04L1227.75,1478L1227.71,1477.95L1227.66,1477.91L1227.62,1477.87L1227.57,1477.82L1227.53,1477.78L1227.48,1477.74L1227.43,1477.69L1227.38,1477.65L1227.34,1477.61L1227.29,1477.57L1227.24,1477.53L1227.18,1477.49L1227.13,1477.45L1227.08,1477.41L1227.02,1477.37L1226.97,1477.33L1226.91,1477.29L1226.86,1477.25L1226.8,1477.21L1226.74,1477.18L1226.68,1477.14L1226.62,1477.1L1226.56,1477.07L1226.5,1477.03L1226.44,1477L1226.38,1476.96L1226.31,1476.92L1226.25,1476.89L1226.18,1476.86L1226.12,1476.82L1226.05,1476.79L1225.99,1476.76L1225.92,1476.73L1225.85,1476.7L1225.78,1476.66L1225.71,1476.63L1225.64,1476.6L1225.57,1476.58L1225.5,1476.55L1225.43,1476.52L1225.35,1476.49L1225.28,1476.46L1225.21,1476.43L1225.13,1476.41L1225.06,1476.38L1224.98,1476.36L1224.91,1476.33L1224.83,1476.31L1224.75,1476.28L1224.67,1476.26L1224.6,1476.24L1224.52,1476.21L1224.44,1476.19L1224.36,1476.17L1224.28,1476.15L1224.2,1476.13L1224.12,1476.11L1224.03,1476.09L1223.95,1476.07L1223.87,1476.05L1223.79,1476.04L1223.7,1476.02L1223.62,1476L1223.53,1475.99L1223.45,1475.97L1223.36,1475.96L1223.28,1475.94L1223.19,1475.93L1223.1,1475.92L1223.02,1475.91L1222.93,1475.9L1222.84,1475.88L1222.75,1475.88L1222.66,1475.87L1222.57,1475.86L1222.49,1475.85L1222.39,1475.84L1222.3,1475.83L1222.21,1475.83L1222.12,1475.82L1222.03,1475.82L1221.94,1475.81L1221.85,1475.81L1221.76,1475.81L1221.66,1475.8L1221.57,1475.8L1221.48,1475.8L1221.38,1475.8L708.623,1475.8Z" style="fill:rgb(201,211,223);"/>
            </g>
            <g id="Grade-UI-Kit1" serif:id="Grade UI Kit" transform="matrix(2.02651,0,0,1.23422,723.527,1502.34)">
                <g transform="matrix(15,0,0,15,0,0)">
                    <path d="M0.045,-0.23L0.134,-0.238C0.139,-0.202 0.148,-0.173 0.164,-0.15C0.179,-0.127 0.203,-0.108 0.236,-0.094C0.268,-0.08 0.305,-0.073 0.346,-0.073C0.382,-0.073 0.414,-0.078 0.441,-0.089C0.469,-0.1 0.49,-0.114 0.503,-0.133C0.517,-0.152 0.523,-0.172 0.523,-0.194C0.523,-0.217 0.517,-0.236 0.504,-0.253C0.491,-0.27 0.469,-0.284 0.439,-0.295C0.42,-0.303 0.378,-0.315 0.312,-0.33C0.246,-0.346 0.2,-0.361 0.174,-0.375C0.14,-0.393 0.114,-0.415 0.097,-0.442C0.081,-0.468 0.072,-0.498 0.072,-0.531C0.072,-0.567 0.083,-0.601 0.103,-0.632C0.124,-0.663 0.153,-0.687 0.193,-0.704C0.232,-0.72 0.276,-0.728 0.324,-0.728C0.377,-0.728 0.424,-0.719 0.465,-0.702C0.505,-0.685 0.536,-0.66 0.558,-0.627C0.58,-0.594 0.592,-0.556 0.593,-0.514L0.502,-0.507C0.498,-0.553 0.481,-0.587 0.453,-0.61C0.425,-0.633 0.383,-0.645 0.328,-0.645C0.271,-0.645 0.229,-0.634 0.203,-0.613C0.177,-0.592 0.164,-0.567 0.164,-0.537C0.164,-0.511 0.173,-0.49 0.191,-0.474C0.21,-0.457 0.257,-0.44 0.334,-0.423C0.411,-0.405 0.464,-0.39 0.493,-0.377C0.534,-0.358 0.565,-0.333 0.585,-0.304C0.605,-0.274 0.615,-0.241 0.615,-0.202C0.615,-0.164 0.604,-0.128 0.582,-0.094C0.56,-0.061 0.529,-0.035 0.488,-0.016C0.447,0.003 0.401,0.012 0.35,0.012C0.285,0.012 0.231,0.003 0.187,-0.016C0.143,-0.035 0.109,-0.063 0.084,-0.101C0.059,-0.139 0.046,-0.182 0.045,-0.23Z" style="fill:rgb(132,147,168);fill-rule:nonzero;"/>
                </g>
                <g transform="matrix(15,0,0,15,10.0049,0)">
                    <path d="M0.406,0L0.406,-0.076C0.365,-0.018 0.311,0.012 0.241,0.012C0.211,0.012 0.182,0.006 0.156,-0.006C0.129,-0.018 0.109,-0.032 0.096,-0.05C0.084,-0.068 0.075,-0.09 0.069,-0.115C0.066,-0.132 0.064,-0.16 0.064,-0.197L0.064,-0.519L0.152,-0.519L0.152,-0.231C0.152,-0.185 0.154,-0.154 0.157,-0.138C0.163,-0.115 0.174,-0.097 0.192,-0.084C0.21,-0.071 0.232,-0.064 0.259,-0.064C0.285,-0.064 0.31,-0.071 0.333,-0.084C0.356,-0.098 0.372,-0.116 0.382,-0.139C0.392,-0.163 0.396,-0.196 0.396,-0.241L0.396,-0.519L0.484,-0.519L0.484,0L0.406,0Z" style="fill:rgb(132,147,168);fill-rule:nonzero;"/>
                </g>
                <g transform="matrix(15,0,0,15,18.3472,0)">
                    <path d="M0.404,-0.064C0.372,-0.036 0.34,-0.017 0.31,-0.005C0.28,0.006 0.248,0.012 0.213,0.012C0.156,0.012 0.113,-0.002 0.082,-0.03C0.051,-0.058 0.036,-0.093 0.036,-0.137C0.036,-0.162 0.042,-0.185 0.053,-0.206C0.065,-0.227 0.08,-0.244 0.099,-0.257C0.118,-0.27 0.139,-0.279 0.162,-0.286C0.179,-0.29 0.205,-0.295 0.24,-0.299C0.311,-0.307 0.363,-0.317 0.397,-0.329C0.397,-0.341 0.397,-0.349 0.397,-0.352C0.397,-0.388 0.389,-0.413 0.373,-0.428C0.35,-0.448 0.317,-0.458 0.272,-0.458C0.231,-0.458 0.201,-0.45 0.181,-0.436C0.161,-0.421 0.147,-0.396 0.137,-0.359L0.051,-0.371C0.059,-0.407 0.072,-0.437 0.09,-0.46C0.108,-0.482 0.134,-0.5 0.167,-0.512C0.201,-0.524 0.241,-0.53 0.285,-0.53C0.329,-0.53 0.365,-0.525 0.393,-0.515C0.421,-0.504 0.441,-0.491 0.454,-0.475C0.467,-0.46 0.476,-0.44 0.481,-0.416C0.484,-0.401 0.486,-0.374 0.486,-0.334L0.486,-0.217C0.486,-0.136 0.488,-0.084 0.491,-0.062C0.495,-0.041 0.503,-0.02 0.514,0L0.422,0C0.413,-0.018 0.407,-0.04 0.404,-0.064ZM0.397,-0.26C0.365,-0.247 0.317,-0.236 0.253,-0.227C0.217,-0.222 0.192,-0.216 0.177,-0.209C0.162,-0.203 0.15,-0.193 0.142,-0.181C0.134,-0.168 0.13,-0.154 0.13,-0.139C0.13,-0.116 0.139,-0.096 0.156,-0.081C0.174,-0.065 0.2,-0.057 0.234,-0.057C0.268,-0.057 0.298,-0.065 0.325,-0.079C0.351,-0.094 0.37,-0.114 0.383,-0.14C0.392,-0.16 0.397,-0.189 0.397,-0.228L0.397,-0.26Z" style="fill:rgb(132,147,168);fill-rule:nonzero;"/>
                </g>
                <g transform="matrix(15,0,0,15,30.8569,0)">
                    <path d="M0.066,0L0.066,-0.519L0.145,-0.519L0.145,-0.446C0.161,-0.471 0.182,-0.492 0.209,-0.507C0.236,-0.523 0.267,-0.53 0.302,-0.53C0.34,-0.53 0.372,-0.522 0.396,-0.506C0.421,-0.49 0.438,-0.468 0.448,-0.439C0.489,-0.5 0.543,-0.53 0.608,-0.53C0.66,-0.53 0.699,-0.516 0.727,-0.488C0.755,-0.459 0.769,-0.415 0.769,-0.356L0.769,0L0.681,0L0.681,-0.327C0.681,-0.362 0.678,-0.387 0.673,-0.403C0.667,-0.418 0.657,-0.431 0.642,-0.44C0.627,-0.449 0.609,-0.454 0.589,-0.454C0.552,-0.454 0.522,-0.442 0.498,-0.418C0.474,-0.393 0.462,-0.355 0.462,-0.301L0.462,0L0.374,0L0.374,-0.337C0.374,-0.376 0.367,-0.405 0.353,-0.425C0.338,-0.444 0.315,-0.454 0.282,-0.454C0.257,-0.454 0.235,-0.448 0.214,-0.435C0.193,-0.422 0.177,-0.403 0.168,-0.377C0.159,-0.352 0.154,-0.316 0.154,-0.269L0.154,0L0.066,0Z" style="fill:rgb(132,147,168);fill-rule:nonzero;"/>
                </g>
                <g transform="matrix(15,0,0,15,43.3521,0)">
                    <path d="M0.421,-0.167L0.512,-0.156C0.497,-0.103 0.471,-0.062 0.432,-0.032C0.393,-0.003 0.344,0.012 0.284,0.012C0.208,0.012 0.148,-0.012 0.103,-0.058C0.059,-0.105 0.037,-0.171 0.037,-0.255C0.037,-0.342 0.059,-0.41 0.104,-0.458C0.149,-0.506 0.207,-0.53 0.279,-0.53C0.348,-0.53 0.405,-0.507 0.449,-0.459C0.493,-0.412 0.515,-0.346 0.515,-0.26C0.515,-0.255 0.514,-0.247 0.514,-0.237L0.127,-0.237C0.131,-0.18 0.147,-0.136 0.176,-0.106C0.205,-0.076 0.241,-0.061 0.284,-0.061C0.316,-0.061 0.344,-0.069 0.367,-0.086C0.389,-0.103 0.408,-0.13 0.421,-0.167ZM0.132,-0.309L0.422,-0.309C0.418,-0.353 0.407,-0.385 0.389,-0.407C0.361,-0.441 0.324,-0.458 0.28,-0.458C0.239,-0.458 0.205,-0.444 0.178,-0.417C0.15,-0.39 0.135,-0.354 0.132,-0.309Z" style="fill:rgb(132,147,168);fill-rule:nonzero;"/>
                </g>
                <g transform="matrix(15,0,0,15,51.6943,0)">
                    <path d="M0.066,0L0.066,-0.519L0.145,-0.519L0.145,-0.445C0.183,-0.502 0.238,-0.53 0.31,-0.53C0.341,-0.53 0.37,-0.525 0.396,-0.513C0.422,-0.502 0.442,-0.487 0.455,-0.469C0.468,-0.451 0.477,-0.429 0.482,-0.404C0.486,-0.388 0.487,-0.36 0.487,-0.319L0.487,0L0.399,0L0.399,-0.315C0.399,-0.351 0.396,-0.378 0.389,-0.396C0.382,-0.413 0.37,-0.428 0.353,-0.438C0.335,-0.449 0.315,-0.454 0.292,-0.454C0.254,-0.454 0.222,-0.442 0.195,-0.418C0.167,-0.395 0.154,-0.35 0.154,-0.283L0.154,0L0.066,0Z" style="fill:rgb(132,147,168);fill-rule:nonzero;"/>
                </g>
                <g transform="matrix(15,0,0,15,60.0366,0)">
                    <path d="M0.031,-0.155L0.118,-0.168C0.123,-0.134 0.136,-0.107 0.158,-0.088C0.181,-0.07 0.212,-0.061 0.252,-0.061C0.292,-0.061 0.322,-0.069 0.342,-0.085C0.361,-0.102 0.371,-0.121 0.371,-0.143C0.371,-0.163 0.362,-0.179 0.345,-0.19C0.333,-0.198 0.303,-0.208 0.255,-0.22C0.191,-0.236 0.146,-0.25 0.121,-0.262C0.096,-0.274 0.078,-0.29 0.065,-0.311C0.052,-0.332 0.045,-0.355 0.045,-0.381C0.045,-0.404 0.051,-0.425 0.061,-0.445C0.072,-0.465 0.086,-0.481 0.104,-0.494C0.118,-0.504 0.137,-0.513 0.16,-0.52C0.184,-0.527 0.209,-0.53 0.236,-0.53C0.277,-0.53 0.313,-0.524 0.344,-0.513C0.374,-0.501 0.397,-0.485 0.412,-0.465C0.426,-0.445 0.436,-0.418 0.442,-0.385L0.356,-0.373C0.352,-0.4 0.341,-0.421 0.322,-0.436C0.303,-0.451 0.277,-0.458 0.243,-0.458C0.202,-0.458 0.174,-0.451 0.156,-0.438C0.139,-0.425 0.13,-0.409 0.13,-0.391C0.13,-0.38 0.134,-0.369 0.141,-0.36C0.148,-0.351 0.16,-0.343 0.175,-0.337C0.184,-0.334 0.209,-0.326 0.252,-0.314C0.315,-0.298 0.358,-0.284 0.383,-0.274C0.407,-0.263 0.426,-0.248 0.44,-0.228C0.454,-0.207 0.461,-0.182 0.461,-0.152C0.461,-0.123 0.453,-0.095 0.436,-0.07C0.419,-0.044 0.394,-0.024 0.362,-0.01C0.33,0.005 0.293,0.012 0.252,0.012C0.185,0.012 0.134,-0.002 0.098,-0.03C0.063,-0.058 0.041,-0.1 0.031,-0.155Z" style="fill:rgb(132,147,168);fill-rule:nonzero;"/>
                </g>
                <g transform="matrix(15,0,0,15,67.5366,0)">
                    <path d="M0.404,-0.064C0.372,-0.036 0.34,-0.017 0.31,-0.005C0.28,0.006 0.248,0.012 0.213,0.012C0.156,0.012 0.113,-0.002 0.082,-0.03C0.051,-0.058 0.036,-0.093 0.036,-0.137C0.036,-0.162 0.042,-0.185 0.053,-0.206C0.065,-0.227 0.08,-0.244 0.099,-0.257C0.118,-0.27 0.139,-0.279 0.162,-0.286C0.179,-0.29 0.205,-0.295 0.24,-0.299C0.311,-0.307 0.363,-0.317 0.397,-0.329C0.397,-0.341 0.397,-0.349 0.397,-0.352C0.397,-0.388 0.389,-0.413 0.373,-0.428C0.35,-0.448 0.317,-0.458 0.272,-0.458C0.231,-0.458 0.201,-0.45 0.181,-0.436C0.161,-0.421 0.147,-0.396 0.137,-0.359L0.051,-0.371C0.059,-0.407 0.072,-0.437 0.09,-0.46C0.108,-0.482 0.134,-0.5 0.167,-0.512C0.201,-0.524 0.241,-0.53 0.285,-0.53C0.329,-0.53 0.365,-0.525 0.393,-0.515C0.421,-0.504 0.441,-0.491 0.454,-0.475C0.467,-0.46 0.476,-0.44 0.481,-0.416C0.484,-0.401 0.486,-0.374 0.486,-0.334L0.486,-0.217C0.486,-0.136 0.488,-0.084 0.491,-0.062C0.495,-0.041 0.503,-0.02 0.514,0L0.422,0C0.413,-0.018 0.407,-0.04 0.404,-0.064ZM0.397,-0.26C0.365,-0.247 0.317,-0.236 0.253,-0.227C0.217,-0.222 0.192,-0.216 0.177,-0.209C0.162,-0.203 0.15,-0.193 0.142,-0.181C0.134,-0.168 0.13,-0.154 0.13,-0.139C0.13,-0.116 0.139,-0.096 0.156,-0.081C0.174,-0.065 0.2,-0.057 0.234,-0.057C0.268,-0.057 0.298,-0.065 0.325,-0.079C0.351,-0.094 0.37,-0.114 0.383,-0.14C0.392,-0.16 0.397,-0.189 0.397,-0.228L0.397,-0.26Z" style="fill:rgb(132,147,168);fill-rule:nonzero;"/>
                </g>
                <g transform="matrix(15,0,0,15,75.8789,0)">
                    <path d="M0.05,0.043L0.135,0.056C0.139,0.082 0.149,0.101 0.165,0.113C0.187,0.13 0.217,0.138 0.254,0.138C0.295,0.138 0.326,0.13 0.349,0.113C0.371,0.097 0.386,0.074 0.394,0.045C0.398,0.027 0.4,-0.011 0.4,-0.068C0.361,-0.023 0.314,0 0.256,0C0.185,0 0.13,-0.026 0.091,-0.077C0.052,-0.129 0.032,-0.19 0.032,-0.262C0.032,-0.312 0.041,-0.357 0.059,-0.399C0.077,-0.441 0.103,-0.473 0.137,-0.496C0.171,-0.519 0.211,-0.53 0.257,-0.53C0.318,-0.53 0.368,-0.506 0.408,-0.456L0.408,-0.519L0.489,-0.519L0.489,-0.07C0.489,0.01 0.481,0.068 0.465,0.101C0.448,0.135 0.422,0.162 0.386,0.181C0.351,0.201 0.307,0.21 0.255,0.21C0.193,0.21 0.143,0.197 0.105,0.169C0.067,0.141 0.049,0.099 0.05,0.043ZM0.123,-0.269C0.123,-0.201 0.136,-0.151 0.163,-0.12C0.19,-0.088 0.224,-0.073 0.265,-0.073C0.305,-0.073 0.339,-0.088 0.366,-0.119C0.394,-0.15 0.407,-0.199 0.407,-0.266C0.407,-0.329 0.393,-0.377 0.365,-0.409C0.337,-0.441 0.303,-0.458 0.263,-0.458C0.224,-0.458 0.191,-0.442 0.164,-0.41C0.136,-0.378 0.123,-0.331 0.123,-0.269Z" style="fill:rgb(132,147,168);fill-rule:nonzero;"/>
                </g>
                <g transform="matrix(15,0,0,15,84.2212,0)">
                    <path d="M0.421,-0.167L0.512,-0.156C0.497,-0.103 0.471,-0.062 0.432,-0.032C0.393,-0.003 0.344,0.012 0.284,0.012C0.208,0.012 0.148,-0.012 0.103,-0.058C0.059,-0.105 0.037,-0.171 0.037,-0.255C0.037,-0.342 0.059,-0.41 0.104,-0.458C0.149,-0.506 0.207,-0.53 0.279,-0.53C0.348,-0.53 0.405,-0.507 0.449,-0.459C0.493,-0.412 0.515,-0.346 0.515,-0.26C0.515,-0.255 0.514,-0.247 0.514,-0.237L0.127,-0.237C0.131,-0.18 0.147,-0.136 0.176,-0.106C0.205,-0.076 0.241,-0.061 0.284,-0.061C0.316,-0.061 0.344,-0.069 0.367,-0.086C0.389,-0.103 0.408,-0.13 0.421,-0.167ZM0.132,-0.309L0.422,-0.309C0.418,-0.353 0.407,-0.385 0.389,-0.407C0.361,-0.441 0.324,-0.458 0.28,-0.458C0.239,-0.458 0.205,-0.444 0.178,-0.417C0.15,-0.39 0.135,-0.354 0.132,-0.309Z" style="fill:rgb(132,147,168);fill-rule:nonzero;"/>
                </g>
                <g transform="matrix(15,0,0,15,92.5635,0)">
                    <path d="M0.066,0L0.066,-0.519L0.145,-0.519L0.145,-0.446C0.161,-0.471 0.182,-0.492 0.209,-0.507C0.236,-0.523 0.267,-0.53 0.302,-0.53C0.34,-0.53 0.372,-0.522 0.396,-0.506C0.421,-0.49 0.438,-0.468 0.448,-0.439C0.489,-0.5 0.543,-0.53 0.608,-0.53C0.66,-0.53 0.699,-0.516 0.727,-0.488C0.755,-0.459 0.769,-0.415 0.769,-0.356L0.769,0L0.681,0L0.681,-0.327C0.681,-0.362 0.678,-0.387 0.673,-0.403C0.667,-0.418 0.657,-0.431 0.642,-0.44C0.627,-0.449 0.609,-0.454 0.589,-0.454C0.552,-0.454 0.522,-0.442 0.498,-0.418C0.474,-0.393 0.462,-0.355 0.462,-0.301L0.462,0L0.374,0L0.374,-0.337C0.374,-0.376 0.367,-0.405 0.353,-0.425C0.338,-0.444 0.315,-0.454 0.282,-0.454C0.257,-0.454 0.235,-0.448 0.214,-0.435C0.193,-0.422 0.177,-0.403 0.168,-0.377C0.159,-0.352 0.154,-0.316 0.154,-0.269L0.154,0L0.066,0Z" style="fill:rgb(132,147,168);fill-rule:nonzero;"/>
                </g>
                <g transform="matrix(15,0,0,15,109.226,0)">
                    <path d="M0.404,-0.064C0.372,-0.036 0.34,-0.017 0.31,-0.005C0.28,0.006 0.248,0.012 0.213,0.012C0.156,0.012 0.113,-0.002 0.082,-0.03C0.051,-0.058 0.036,-0.093 0.036,-0.137C0.036,-0.162 0.042,-0.185 0.053,-0.206C0.065,-0.227 0.08,-0.244 0.099,-0.257C0.118,-0.27 0.139,-0.279 0.162,-0.286C0.179,-0.29 0.205,-0.295 0.24,-0.299C0.311,-0.307 0.363,-0.317 0.397,-0.329C0.397,-0.341 0.397,-0.349 0.397,-0.352C0.397,-0.388 0.389,-0.413 0.373,-0.428C0.35,-0.448 0.317,-0.458 0.272,-0.458C0.231,-0.458 0.201,-0.45 0.181,-0.436C0.161,-0.421 0.147,-0.396 0.137,-0.359L0.051,-0.371C0.059,-0.407 0.072,-0.437 0.09,-0.46C0.108,-0.482 0.134,-0.5 0.167,-0.512C0.201,-0.524 0.241,-0.53 0.285,-0.53C0.329,-0.53 0.365,-0.525 0.393,-0.515C0.421,-0.504 0.441,-0.491 0.454,-0.475C0.467,-0.46 0.476,-0.44 0.481,-0.416C0.484,-0.401 0.486,-0.374 0.486,-0.334L0.486,-0.217C0.486,-0.136 0.488,-0.084 0.491,-0.062C0.495,-0.041 0.503,-0.02 0.514,0L0.422,0C0.413,-0.018 0.407,-0.04 0.404,-0.064ZM0.397,-0.26C0.365,-0.247 0.317,-0.236 0.253,-0.227C0.217,-0.222 0.192,-0.216 0.177,-0.209C0.162,-0.203 0.15,-0.193 0.142,-0.181C0.134,-0.168 0.13,-0.154 0.13,-0.139C0.13,-0.116 0.139,-0.096 0.156,-0.081C0.174,-0.065 0.2,-0.057 0.234,-0.057C0.268,-0.057 0.298,-0.065 0.325,-0.079C0.351,-0.094 0.37,-0.114 0.383,-0.14C0.392,-0.16 0.397,-0.189 0.397,-0.228L0.397,-0.26Z" style="fill:rgb(132,147,168);fill-rule:nonzero;"/>
                </g>
                <g transform="matrix(15,0,0,15,117.568,0)">
                    <path d="M0.396,0.199L0.396,-0.055C0.383,-0.036 0.364,-0.02 0.339,-0.007C0.315,0.005 0.288,0.012 0.261,0.012C0.199,0.012 0.146,-0.013 0.102,-0.062C0.057,-0.111 0.035,-0.179 0.035,-0.264C0.035,-0.316 0.044,-0.363 0.062,-0.404C0.08,-0.446 0.107,-0.477 0.141,-0.498C0.175,-0.52 0.213,-0.53 0.254,-0.53C0.318,-0.53 0.368,-0.503 0.405,-0.449L0.405,-0.519L0.484,-0.519L0.484,0.199L0.396,0.199ZM0.125,-0.261C0.125,-0.194 0.139,-0.144 0.167,-0.111C0.195,-0.077 0.229,-0.061 0.268,-0.061C0.306,-0.061 0.338,-0.076 0.365,-0.108C0.392,-0.14 0.405,-0.188 0.405,-0.253C0.405,-0.322 0.391,-0.374 0.363,-0.409C0.334,-0.444 0.301,-0.461 0.262,-0.461C0.224,-0.461 0.192,-0.445 0.165,-0.412C0.139,-0.38 0.125,-0.329 0.125,-0.261Z" style="fill:rgb(132,147,168);fill-rule:nonzero;"/>
                </g>
                <g transform="matrix(15,0,0,15,125.911,0)">
                    <path d="M0.406,0L0.406,-0.076C0.365,-0.018 0.311,0.012 0.241,0.012C0.211,0.012 0.182,0.006 0.156,-0.006C0.129,-0.018 0.109,-0.032 0.096,-0.05C0.084,-0.068 0.075,-0.09 0.069,-0.115C0.066,-0.132 0.064,-0.16 0.064,-0.197L0.064,-0.519L0.152,-0.519L0.152,-0.231C0.152,-0.185 0.154,-0.154 0.157,-0.138C0.163,-0.115 0.174,-0.097 0.192,-0.084C0.21,-0.071 0.232,-0.064 0.259,-0.064C0.285,-0.064 0.31,-0.071 0.333,-0.084C0.356,-0.098 0.372,-0.116 0.382,-0.139C0.392,-0.163 0.396,-0.196 0.396,-0.241L0.396,-0.519L0.484,-0.519L0.484,0L0.406,0Z" style="fill:rgb(132,147,168);fill-rule:nonzero;"/>
                </g>
                <g transform="matrix(15,0,0,15,134.253,0)">
                    <path d="M0.066,-0.615L0.066,-0.716L0.154,-0.716L0.154,-0.615L0.066,-0.615ZM0.066,0L0.066,-0.519L0.154,-0.519L0.154,0L0.066,0Z" style="fill:rgb(132,147,168);fill-rule:nonzero;"/>
                </g>
            </g>
            <path id="Corner" d="M1223,1566L1223,1567L1222,1567L1222,1566L1223,1566ZM1225,1566L1225,1567L1224,1567L1224,1566L1225,1566ZM1221,1566L1221,1567L1220,1567L1220,1566L1221,1566ZM1223,1565L1224,1565L1224,1566L1223,1566L1223,1565ZM1225,1565L1226,1565L1226,1566L1225,1566L1225,1565ZM1221,1565L1222,1565L1222,1566L1221,1566L1221,1565ZM1225,1564L1225,1565L1224,1565L1224,1564L1225,1564ZM1227,1564L1227,1565L1226,1565L1226,1564L1227,1564ZM1223,1564L1223,1565L1222,1565L1222,1564L1223,1564ZM1225,1563L1226,1563L1226,1564L1225,1564L1225,1563ZM1223,1563L1224,1563L1224,1564L1223,1564L1223,1563ZM1226,1562L1227,1562L1227,1563L1226,1563L1226,1562ZM1225,1562L1225,1563L1224,1563L1224,1562L1225,1562ZM1225,1561L1226,1561L1226,1562L1225,1562L1225,1561ZM1227,1560L1227,1561L1226,1561L1226,1560L1227,1560Z" style="fill:rgb(201,211,223);"/>
        </g>
        <g id="Input2" serif:id="Input" transform="matrix(1.54357,0,0,1.54357,-101.695,-1872.15)">
            <g id="Base3" serif:id="Base">
                <path d="M390,1220C390,1217.24 387.76,1215 385,1215L145,1215C142.24,1215 140,1217.24 140,1220L140,1255C140,1257.76 142.24,1260 145,1260L385,1260C387.76,1260 390,1257.76 390,1255L390,1220Z" style="fill:rgb(236,239,244);"/>
                <path d="M385.065,1215L385.129,1215L385.193,1215L385.257,1215.01L385.321,1215.01L385.384,1215.02L385.448,1215.02L385.511,1215.03L385.574,1215.03L385.636,1215.04L385.699,1215.05L385.761,1215.06L385.823,1215.07L385.885,1215.08L385.946,1215.09L386.007,1215.1L386.068,1215.12L386.129,1215.13L386.189,1215.14L386.249,1215.16L386.309,1215.17L386.368,1215.19L386.427,1215.21L386.486,1215.23L386.545,1215.24L386.603,1215.26L386.661,1215.28L386.718,1215.3L386.776,1215.33L386.833,1215.35L386.889,1215.37L386.945,1215.39L387.001,1215.42L387.057,1215.44L387.112,1215.47L387.167,1215.49L387.221,1215.52L387.275,1215.55L387.329,1215.58L387.382,1215.6L387.435,1215.63L387.488,1215.66L387.54,1215.69L387.592,1215.72L387.643,1215.76L387.694,1215.79L387.745,1215.82L387.795,1215.85L387.844,1215.89L387.894,1215.92L387.942,1215.96L387.991,1215.99L388.039,1216.03L388.086,1216.07L388.133,1216.1L388.18,1216.14L388.226,1216.18L388.271,1216.22L388.317,1216.26L388.361,1216.3L388.405,1216.34L388.449,1216.38L388.492,1216.42L388.535,1216.46L388.577,1216.51L388.619,1216.55L388.66,1216.6L388.7,1216.64L388.741,1216.68L388.78,1216.73L388.819,1216.77L388.858,1216.82L388.896,1216.87L388.933,1216.91L388.97,1216.96L389.006,1217.01L389.042,1217.06L389.077,1217.11L389.112,1217.16L389.146,1217.2L389.179,1217.26L389.212,1217.31L389.244,1217.36L389.276,1217.41L389.307,1217.46L389.337,1217.51L389.367,1217.57L389.396,1217.62L389.425,1217.67L389.453,1217.73L389.48,1217.78L389.507,1217.83L389.533,1217.89L389.558,1217.94L389.583,1218L389.607,1218.06L389.63,1218.11L389.653,1218.17L389.675,1218.22L389.696,1218.28L389.717,1218.34L389.737,1218.4L389.756,1218.45L389.775,1218.51L389.793,1218.57L389.81,1218.63L389.827,1218.69L389.842,1218.75L389.858,1218.81L389.872,1218.87L389.885,1218.93L389.898,1218.99L389.91,1219.05L389.922,1219.12L389.932,1219.18L389.942,1219.24L389.951,1219.3L389.96,1219.36L389.967,1219.43L389.974,1219.49L389.98,1219.55L389.985,1219.62L389.99,1219.68L389.993,1219.74L389.996,1219.81L389.998,1219.87L390,1219.93L390,1220L390,1255L390,1255.07L389.998,1255.13L389.996,1255.19L389.993,1255.26L389.99,1255.32L389.985,1255.38L389.98,1255.45L389.974,1255.51L389.967,1255.57L389.96,1255.64L389.951,1255.7L389.942,1255.76L389.932,1255.82L389.922,1255.88L389.91,1255.95L389.898,1256.01L389.885,1256.07L389.872,1256.13L389.858,1256.19L389.842,1256.25L389.827,1256.31L389.81,1256.37L389.793,1256.43L389.775,1256.49L389.756,1256.55L389.737,1256.6L389.717,1256.66L389.696,1256.72L389.675,1256.78L389.653,1256.83L389.63,1256.89L389.607,1256.94L389.583,1257L389.558,1257.06L389.533,1257.11L389.507,1257.17L389.48,1257.22L389.453,1257.28L389.425,1257.33L389.396,1257.38L389.367,1257.43L389.337,1257.49L389.307,1257.54L389.276,1257.59L389.244,1257.64L389.212,1257.69L389.179,1257.75L389.146,1257.8L389.112,1257.84L389.077,1257.89L389.042,1257.94L389.006,1257.99L388.97,1258.04L388.933,1258.09L388.896,1258.13L388.858,1258.18L388.819,1258.23L388.78,1258.27L388.741,1258.32L388.7,1258.36L388.66,1258.4L388.619,1258.45L388.577,1258.49L388.535,1258.54L388.492,1258.58L388.449,1258.62L388.405,1258.66L388.361,1258.7L388.317,1258.74L388.271,1258.78L388.226,1258.82L388.18,1258.86L388.133,1258.9L388.086,1258.93L388.039,1258.97L387.991,1259.01L387.942,1259.04L387.894,1259.08L387.844,1259.11L387.795,1259.15L387.745,1259.18L387.694,1259.21L387.643,1259.24L387.592,1259.28L387.54,1259.31L387.488,1259.34L387.435,1259.37L387.382,1259.4L387.329,1259.42L387.275,1259.45L387.221,1259.48L387.167,1259.51L387.112,1259.53L387.057,1259.56L387.001,1259.58L386.945,1259.61L386.889,1259.63L386.833,1259.65L386.776,1259.67L386.718,1259.7L386.661,1259.72L386.603,1259.74L386.545,1259.76L386.486,1259.78L386.427,1259.79L386.368,1259.81L386.309,1259.83L386.249,1259.84L386.189,1259.86L386.129,1259.87L386.068,1259.88L386.007,1259.9L385.946,1259.91L385.885,1259.92L385.823,1259.93L385.761,1259.94L385.699,1259.95L385.636,1259.96L385.574,1259.97L385.511,1259.97L385.448,1259.98L385.384,1259.99L385.321,1259.99L385.257,1259.99L385.193,1260L385.129,1260L385.065,1260L385,1260L145,1260L144.935,1260L144.871,1260L144.807,1260L144.743,1259.99L144.679,1259.99L144.616,1259.99L144.552,1259.98L144.489,1259.97L144.426,1259.97L144.364,1259.96L144.301,1259.95L144.239,1259.94L144.177,1259.93L144.115,1259.92L144.054,1259.91L143.993,1259.9L143.932,1259.88L143.871,1259.87L143.811,1259.86L143.751,1259.84L143.691,1259.83L143.632,1259.81L143.573,1259.79L143.514,1259.78L143.455,1259.76L143.397,1259.74L143.339,1259.72L143.282,1259.7L143.224,1259.67L143.167,1259.65L143.111,1259.63L143.055,1259.61L142.999,1259.58L142.943,1259.56L142.888,1259.53L142.833,1259.51L142.779,1259.48L142.725,1259.45L142.671,1259.42L142.618,1259.4L142.565,1259.37L142.512,1259.34L142.46,1259.31L142.408,1259.28L142.357,1259.24L142.306,1259.21L142.255,1259.18L142.205,1259.15L142.156,1259.11L142.106,1259.08L142.058,1259.04L142.009,1259.01L141.961,1258.97L141.914,1258.93L141.867,1258.9L141.82,1258.86L141.774,1258.82L141.729,1258.78L141.683,1258.74L141.639,1258.7L141.595,1258.66L141.551,1258.62L141.508,1258.58L141.465,1258.54L141.423,1258.49L141.381,1258.45L141.34,1258.4L141.3,1258.36L141.259,1258.32L141.22,1258.27L141.181,1258.23L141.142,1258.18L141.104,1258.13L141.067,1258.09L141.03,1258.04L140.994,1257.99L140.958,1257.94L140.923,1257.89L140.888,1257.84L140.854,1257.8L140.821,1257.75L140.788,1257.69L140.756,1257.64L140.724,1257.59L140.693,1257.54L140.663,1257.49L140.633,1257.43L140.604,1257.38L140.575,1257.33L140.547,1257.28L140.52,1257.22L140.493,1257.17L140.467,1257.11L140.442,1257.06L140.417,1257L140.393,1256.94L140.37,1256.89L140.347,1256.83L140.325,1256.78L140.304,1256.72L140.283,1256.66L140.263,1256.6L140.244,1256.55L140.225,1256.49L140.207,1256.43L140.19,1256.37L140.173,1256.31L140.158,1256.25L140.142,1256.19L140.128,1256.13L140.115,1256.07L140.102,1256.01L140.09,1255.95L140.078,1255.88L140.068,1255.82L140.058,1255.76L140.049,1255.7L140.04,1255.64L140.033,1255.57L140.026,1255.51L140.02,1255.45L140.015,1255.38L140.01,1255.32L140.007,1255.26L140.004,1255.19L140.002,1255.13L140,1255.07L140,1255L140,1220L140,1219.93L140.002,1219.87L140.004,1219.81L140.007,1219.74L140.01,1219.68L140.015,1219.62L140.02,1219.55L140.026,1219.49L140.033,1219.43L140.04,1219.36L140.049,1219.3L140.058,1219.24L140.068,1219.18L140.078,1219.12L140.09,1219.05L140.102,1218.99L140.115,1218.93L140.128,1218.87L140.142,1218.81L140.158,1218.75L140.173,1218.69L140.19,1218.63L140.207,1218.57L140.225,1218.51L140.244,1218.45L140.263,1218.4L140.283,1218.34L140.304,1218.28L140.325,1218.22L140.347,1218.17L140.37,1218.11L140.393,1218.06L140.417,1218L140.442,1217.94L140.467,1217.89L140.493,1217.83L140.52,1217.78L140.547,1217.73L140.575,1217.67L140.604,1217.62L140.633,1217.57L140.663,1217.51L140.693,1217.46L140.724,1217.41L140.756,1217.36L140.788,1217.31L140.821,1217.26L140.854,1217.2L140.888,1217.16L140.923,1217.11L140.958,1217.06L140.994,1217.01L141.03,1216.96L141.067,1216.91L141.104,1216.87L141.142,1216.82L141.181,1216.77L141.22,1216.73L141.259,1216.68L141.3,1216.64L141.34,1216.6L141.381,1216.55L141.423,1216.51L141.465,1216.46L141.508,1216.42L141.551,1216.38L141.595,1216.34L141.639,1216.3L141.683,1216.26L141.729,1216.22L141.774,1216.18L141.82,1216.14L141.867,1216.1L141.914,1216.07L141.961,1216.03L142.009,1215.99L142.058,1215.96L142.106,1215.92L142.156,1215.89L142.205,1215.85L142.255,1215.82L142.306,1215.79L142.357,1215.76L142.408,1215.72L142.46,1215.69L142.512,1215.66L142.565,1215.63L142.618,1215.6L142.671,1215.58L142.725,1215.55L142.779,1215.52L142.833,1215.49L142.888,1215.47L142.943,1215.44L142.999,1215.42L143.055,1215.39L143.111,1215.37L143.167,1215.35L143.224,1215.33L143.282,1215.3L143.339,1215.28L143.397,1215.26L143.455,1215.24L143.514,1215.23L143.573,1215.21L143.632,1215.19L143.691,1215.17L143.751,1215.16L143.811,1215.14L143.871,1215.13L143.932,1215.12L143.993,1215.1L144.054,1215.09L144.115,1215.08L144.177,1215.07L144.239,1215.06L144.301,1215.05L144.364,1215.04L144.426,1215.03L144.489,1215.03L144.552,1215.02L144.616,1215.02L144.679,1215.01L144.743,1215.01L144.807,1215L144.871,1215L144.935,1215L145,1215L385,1215L385.065,1215ZM145.002,1215.65L144.944,1215.65L144.887,1215.65L144.831,1215.65L144.776,1215.65L144.72,1215.66L144.665,1215.66L144.61,1215.66L144.555,1215.67L144.5,1215.68L144.445,1215.68L144.391,1215.69L144.337,1215.7L144.283,1215.71L144.229,1215.72L144.176,1215.73L144.123,1215.74L144.07,1215.75L144.017,1215.76L143.965,1215.77L143.913,1215.79L143.861,1215.8L143.809,1215.81L143.758,1215.83L143.706,1215.84L143.656,1215.86L143.605,1215.88L143.555,1215.89L143.504,1215.91L143.455,1215.93L143.405,1215.95L143.356,1215.97L143.307,1215.99L143.258,1216.01L143.21,1216.03L143.162,1216.05L143.114,1216.08L143.067,1216.1L143.02,1216.12L142.973,1216.15L142.927,1216.17L142.881,1216.2L142.835,1216.22L142.79,1216.25L142.745,1216.28L142.7,1216.31L142.656,1216.33L142.612,1216.36L142.568,1216.39L142.525,1216.42L142.482,1216.45L142.439,1216.48L142.397,1216.51L142.356,1216.54L142.314,1216.58L142.273,1216.61L142.233,1216.64L142.193,1216.68L142.153,1216.71L142.113,1216.74L142.075,1216.78L142.036,1216.81L141.998,1216.85L141.96,1216.89L141.923,1216.92L141.887,1216.96L141.85,1217L141.814,1217.04L141.779,1217.08L141.744,1217.11L141.71,1217.15L141.676,1217.19L141.642,1217.23L141.609,1217.27L141.576,1217.31L141.544,1217.36L141.513,1217.4L141.482,1217.44L141.451,1217.48L141.421,1217.53L141.391,1217.57L141.362,1217.61L141.333,1217.66L141.305,1217.7L141.278,1217.75L141.251,1217.79L141.224,1217.84L141.198,1217.88L141.173,1217.93L141.148,1217.97L141.124,1218.02L141.1,1218.07L141.077,1218.11L141.054,1218.16L141.032,1218.21L141.011,1218.26L140.99,1218.31L140.969,1218.36L140.95,1218.4L140.93,1218.45L140.912,1218.5L140.894,1218.56L140.877,1218.61L140.86,1218.66L140.844,1218.71L140.828,1218.76L140.813,1218.81L140.799,1218.86L140.785,1218.91L140.772,1218.96L140.759,1219.02L140.748,1219.07L140.736,1219.12L140.726,1219.18L140.716,1219.23L140.707,1219.28L140.698,1219.34L140.69,1219.39L140.683,1219.44L140.676,1219.5L140.67,1219.56L140.665,1219.61L140.661,1219.66L140.657,1219.72L140.654,1219.78L140.651,1219.83L140.649,1219.89L140.648,1219.94L140.648,1220L140.648,1255L140.648,1255.06L140.649,1255.11L140.651,1255.17L140.654,1255.22L140.657,1255.28L140.661,1255.34L140.665,1255.39L140.67,1255.44L140.676,1255.5L140.683,1255.56L140.69,1255.61L140.698,1255.66L140.707,1255.72L140.716,1255.77L140.726,1255.82L140.736,1255.88L140.748,1255.93L140.759,1255.98L140.772,1256.04L140.785,1256.09L140.799,1256.14L140.813,1256.19L140.828,1256.24L140.844,1256.29L140.86,1256.34L140.877,1256.39L140.894,1256.44L140.912,1256.5L140.93,1256.55L140.95,1256.6L140.969,1256.64L140.99,1256.69L141.011,1256.74L141.032,1256.79L141.054,1256.84L141.077,1256.89L141.1,1256.93L141.124,1256.98L141.148,1257.03L141.173,1257.07L141.198,1257.12L141.224,1257.16L141.251,1257.21L141.278,1257.26L141.305,1257.3L141.333,1257.34L141.362,1257.39L141.391,1257.43L141.421,1257.48L141.451,1257.52L141.482,1257.56L141.513,1257.6L141.544,1257.64L141.576,1257.69L141.609,1257.73L141.642,1257.77L141.676,1257.81L141.71,1257.85L141.744,1257.89L141.779,1257.92L141.814,1257.96L141.85,1258L141.887,1258.04L141.923,1258.08L141.96,1258.11L141.998,1258.15L142.036,1258.19L142.075,1258.22L142.114,1258.26L142.153,1258.29L142.193,1258.32L142.233,1258.36L142.273,1258.39L142.314,1258.42L142.356,1258.46L142.397,1258.49L142.439,1258.52L142.482,1258.55L142.525,1258.58L142.568,1258.61L142.612,1258.64L142.656,1258.67L142.7,1258.69L142.745,1258.72L142.79,1258.75L142.835,1258.78L142.881,1258.8L142.927,1258.83L142.973,1258.85L143.02,1258.88L143.067,1258.9L143.114,1258.92L143.162,1258.95L143.21,1258.97L143.258,1258.99L143.307,1259.01L143.356,1259.03L143.405,1259.05L143.455,1259.07L143.504,1259.09L143.555,1259.11L143.605,1259.12L143.656,1259.14L143.706,1259.16L143.758,1259.17L143.809,1259.19L143.861,1259.2L143.913,1259.21L143.965,1259.23L144.017,1259.24L144.07,1259.25L144.123,1259.26L144.176,1259.27L144.229,1259.28L144.283,1259.29L144.337,1259.3L144.391,1259.31L144.445,1259.32L144.5,1259.32L144.555,1259.33L144.61,1259.34L144.665,1259.34L144.72,1259.34L144.776,1259.35L144.831,1259.35L144.887,1259.35L144.944,1259.35L145.002,1259.35L384.998,1259.35L385.056,1259.35L385.113,1259.35L385.169,1259.35L385.224,1259.35L385.28,1259.34L385.335,1259.34L385.39,1259.34L385.445,1259.33L385.5,1259.32L385.555,1259.32L385.609,1259.31L385.663,1259.3L385.717,1259.29L385.771,1259.28L385.824,1259.27L385.877,1259.26L385.93,1259.25L385.983,1259.24L386.035,1259.23L386.087,1259.21L386.139,1259.2L386.191,1259.19L386.242,1259.17L386.294,1259.16L386.344,1259.14L386.395,1259.12L386.445,1259.11L386.496,1259.09L386.545,1259.07L386.595,1259.05L386.644,1259.03L386.693,1259.01L386.742,1258.99L386.79,1258.97L386.838,1258.95L386.886,1258.92L386.933,1258.9L386.98,1258.88L387.027,1258.85L387.073,1258.83L387.119,1258.8L387.165,1258.78L387.21,1258.75L387.255,1258.72L387.3,1258.69L387.344,1258.67L387.388,1258.64L387.432,1258.61L387.475,1258.58L387.518,1258.55L387.561,1258.52L387.603,1258.49L387.644,1258.46L387.686,1258.42L387.727,1258.39L387.767,1258.36L387.807,1258.32L387.847,1258.29L387.886,1258.26L387.925,1258.22L387.964,1258.19L388.002,1258.15L388.04,1258.11L388.077,1258.08L388.114,1258.04L388.15,1258L388.186,1257.96L388.221,1257.92L388.256,1257.89L388.29,1257.85L388.324,1257.81L388.358,1257.77L388.391,1257.73L388.424,1257.69L388.456,1257.64L388.487,1257.6L388.518,1257.56L388.549,1257.52L388.579,1257.48L388.609,1257.43L388.638,1257.39L388.667,1257.34L388.695,1257.3L388.722,1257.26L388.749,1257.21L388.776,1257.16L388.802,1257.12L388.827,1257.07L388.852,1257.03L388.876,1256.98L388.9,1256.93L388.923,1256.88L388.946,1256.84L388.968,1256.79L388.989,1256.74L389.01,1256.69L389.031,1256.64L389.05,1256.6L389.07,1256.55L389.088,1256.5L389.106,1256.44L389.124,1256.39L389.14,1256.35L389.156,1256.29L389.172,1256.24L389.187,1256.19L389.201,1256.14L389.215,1256.09L389.228,1256.04L389.241,1255.98L389.252,1255.93L389.264,1255.88L389.274,1255.82L389.284,1255.77L389.293,1255.72L389.302,1255.66L389.31,1255.61L389.317,1255.56L389.324,1255.5L389.33,1255.44L389.335,1255.39L389.339,1255.34L389.343,1255.28L389.346,1255.22L389.349,1255.17L389.351,1255.11L389.352,1255.06L389.352,1255L389.352,1220L389.352,1219.94L389.351,1219.89L389.349,1219.83L389.346,1219.78L389.343,1219.72L389.339,1219.66L389.335,1219.61L389.33,1219.56L389.324,1219.5L389.317,1219.44L389.31,1219.39L389.302,1219.34L389.293,1219.28L389.284,1219.23L389.274,1219.18L389.264,1219.12L389.252,1219.07L389.241,1219.02L389.228,1218.96L389.215,1218.91L389.201,1218.86L389.187,1218.81L389.172,1218.76L389.156,1218.71L389.14,1218.65L389.124,1218.61L389.106,1218.56L389.088,1218.5L389.07,1218.45L389.05,1218.4L389.031,1218.36L389.01,1218.31L388.989,1218.26L388.968,1218.21L388.946,1218.16L388.923,1218.12L388.9,1218.07L388.876,1218.02L388.852,1217.97L388.827,1217.93L388.802,1217.88L388.776,1217.84L388.749,1217.79L388.722,1217.75L388.695,1217.7L388.667,1217.66L388.638,1217.61L388.609,1217.57L388.579,1217.53L388.549,1217.48L388.518,1217.44L388.487,1217.4L388.456,1217.36L388.424,1217.31L388.391,1217.27L388.358,1217.23L388.324,1217.19L388.29,1217.15L388.256,1217.11L388.221,1217.08L388.186,1217.04L388.15,1217L388.114,1216.96L388.077,1216.92L388.04,1216.89L388.002,1216.85L387.964,1216.81L387.925,1216.78L387.886,1216.74L387.847,1216.71L387.807,1216.68L387.767,1216.64L387.727,1216.61L387.686,1216.58L387.644,1216.54L387.603,1216.51L387.561,1216.48L387.518,1216.45L387.475,1216.42L387.432,1216.39L387.388,1216.36L387.344,1216.33L387.3,1216.31L387.255,1216.28L387.21,1216.25L387.165,1216.22L387.119,1216.2L387.073,1216.17L387.027,1216.15L386.98,1216.12L386.933,1216.1L386.885,1216.08L386.838,1216.05L386.79,1216.03L386.742,1216.01L386.693,1215.99L386.644,1215.97L386.595,1215.95L386.545,1215.93L386.496,1215.91L386.445,1215.89L386.395,1215.88L386.344,1215.86L386.294,1215.84L386.242,1215.83L386.191,1215.81L386.139,1215.8L386.087,1215.79L386.035,1215.77L385.983,1215.76L385.93,1215.75L385.877,1215.74L385.824,1215.73L385.771,1215.72L385.717,1215.71L385.663,1215.7L385.609,1215.69L385.555,1215.68L385.5,1215.68L385.445,1215.67L385.39,1215.66L385.335,1215.66L385.28,1215.66L385.224,1215.65L385.169,1215.65L385.113,1215.65L385.056,1215.65L384.998,1215.65L145.002,1215.65Z" style="fill:rgb(201,211,223);"/>
            </g>
            <g id="Grade-UI-Kit2" serif:id="Grade UI Kit" transform="matrix(1,0,0,1,154.871,1242.68)">
                <g transform="matrix(15,0,0,15,0,0)">
                    <path d="M0.076,0L0.076,-0.716L0.173,-0.716L0.549,-0.154L0.549,-0.716L0.64,-0.716L0.64,0L0.543,0L0.167,-0.563L0.167,0L0.076,0Z" style="fill:rgb(132,147,168);fill-rule:nonzero;"/>
                </g>
                <g transform="matrix(15,0,0,15,10.8325,0)">
                    <path d="M0.033,-0.259C0.033,-0.355 0.06,-0.426 0.113,-0.473C0.158,-0.511 0.212,-0.53 0.276,-0.53C0.348,-0.53 0.406,-0.507 0.451,-0.46C0.496,-0.413 0.519,-0.349 0.519,-0.267C0.519,-0.2 0.509,-0.147 0.489,-0.109C0.469,-0.071 0.44,-0.041 0.402,-0.02C0.363,0.001 0.322,0.012 0.276,0.012C0.204,0.012 0.145,-0.012 0.1,-0.058C0.056,-0.105 0.033,-0.172 0.033,-0.259ZM0.124,-0.259C0.124,-0.193 0.138,-0.143 0.167,-0.11C0.196,-0.077 0.232,-0.061 0.276,-0.061C0.32,-0.061 0.356,-0.077 0.385,-0.11C0.414,-0.144 0.429,-0.194 0.429,-0.262C0.429,-0.326 0.414,-0.375 0.385,-0.408C0.356,-0.441 0.32,-0.458 0.276,-0.458C0.232,-0.458 0.196,-0.441 0.167,-0.408C0.138,-0.375 0.124,-0.326 0.124,-0.259Z" style="fill:rgb(132,147,168);fill-rule:nonzero;"/>
                </g>
                <g transform="matrix(15,0,0,15,19.1748,0)">
                    <path d="M0.066,0L0.066,-0.519L0.145,-0.519L0.145,-0.446C0.161,-0.471 0.182,-0.492 0.209,-0.507C0.236,-0.523 0.267,-0.53 0.302,-0.53C0.34,-0.53 0.372,-0.522 0.396,-0.506C0.421,-0.49 0.438,-0.468 0.448,-0.439C0.489,-0.5 0.543,-0.53 0.608,-0.53C0.66,-0.53 0.699,-0.516 0.727,-0.488C0.755,-0.459 0.769,-0.415 0.769,-0.356L0.769,0L0.681,0L0.681,-0.327C0.681,-0.362 0.678,-0.387 0.673,-0.403C0.667,-0.418 0.657,-0.431 0.642,-0.44C0.627,-0.449 0.609,-0.454 0.589,-0.454C0.552,-0.454 0.522,-0.442 0.498,-0.418C0.474,-0.393 0.462,-0.355 0.462,-0.301L0.462,0L0.374,0L0.374,-0.337C0.374,-0.376 0.367,-0.405 0.353,-0.425C0.338,-0.444 0.315,-0.454 0.282,-0.454C0.257,-0.454 0.235,-0.448 0.214,-0.435C0.193,-0.422 0.177,-0.403 0.168,-0.377C0.159,-0.352 0.154,-0.316 0.154,-0.269L0.154,0L0.066,0Z" style="fill:rgb(132,147,168);fill-rule:nonzero;"/>
                </g>
                <g transform="matrix(15,0,0,15,31.6699,0)">
                    <path d="M0.421,-0.167L0.512,-0.156C0.497,-0.103 0.471,-0.062 0.432,-0.032C0.393,-0.003 0.344,0.012 0.284,0.012C0.208,0.012 0.148,-0.012 0.103,-0.058C0.059,-0.105 0.037,-0.171 0.037,-0.255C0.037,-0.342 0.059,-0.41 0.104,-0.458C0.149,-0.506 0.207,-0.53 0.279,-0.53C0.348,-0.53 0.405,-0.507 0.449,-0.459C0.493,-0.412 0.515,-0.346 0.515,-0.26C0.515,-0.255 0.514,-0.247 0.514,-0.237L0.127,-0.237C0.131,-0.18 0.147,-0.136 0.176,-0.106C0.205,-0.076 0.241,-0.061 0.284,-0.061C0.316,-0.061 0.344,-0.069 0.367,-0.086C0.389,-0.103 0.408,-0.13 0.421,-0.167ZM0.132,-0.309L0.422,-0.309C0.418,-0.353 0.407,-0.385 0.389,-0.407C0.361,-0.441 0.324,-0.458 0.28,-0.458C0.239,-0.458 0.205,-0.444 0.178,-0.417C0.15,-0.39 0.135,-0.354 0.132,-0.309Z" style="fill:rgb(132,147,168);fill-rule:nonzero;"/>
                </g>
            </g>
        </g>
        <g id="Input3" serif:id="Input" transform="matrix(1.54357,0,0,1.54357,-101.695,-1787.91)">
            <g id="Base4" serif:id="Base">
                <path d="M390,1220C390,1217.24 387.76,1215 385,1215L145,1215C142.24,1215 140,1217.24 140,1220L140,1255C140,1257.76 142.24,1260 145,1260L385,1260C387.76,1260 390,1257.76 390,1255L390,1220Z" style="fill:rgb(236,239,244);"/>
                <path d="M385.065,1215L385.129,1215L385.193,1215L385.257,1215.01L385.321,1215.01L385.384,1215.02L385.448,1215.02L385.511,1215.03L385.574,1215.03L385.636,1215.04L385.699,1215.05L385.761,1215.06L385.823,1215.07L385.885,1215.08L385.946,1215.09L386.007,1215.1L386.068,1215.12L386.129,1215.13L386.189,1215.14L386.249,1215.16L386.309,1215.17L386.368,1215.19L386.427,1215.21L386.486,1215.23L386.545,1215.24L386.603,1215.26L386.661,1215.28L386.718,1215.3L386.776,1215.33L386.833,1215.35L386.889,1215.37L386.945,1215.39L387.001,1215.42L387.057,1215.44L387.112,1215.47L387.167,1215.49L387.221,1215.52L387.275,1215.55L387.329,1215.58L387.382,1215.6L387.435,1215.63L387.488,1215.66L387.54,1215.69L387.592,1215.72L387.643,1215.76L387.694,1215.79L387.745,1215.82L387.795,1215.85L387.844,1215.89L387.894,1215.92L387.942,1215.96L387.991,1215.99L388.039,1216.03L388.086,1216.07L388.133,1216.1L388.18,1216.14L388.226,1216.18L388.271,1216.22L388.317,1216.26L388.361,1216.3L388.405,1216.34L388.449,1216.38L388.492,1216.42L388.535,1216.46L388.577,1216.51L388.619,1216.55L388.66,1216.6L388.7,1216.64L388.741,1216.68L388.78,1216.73L388.819,1216.77L388.858,1216.82L388.896,1216.87L388.933,1216.91L388.97,1216.96L389.006,1217.01L389.042,1217.06L389.077,1217.11L389.112,1217.16L389.146,1217.2L389.179,1217.26L389.212,1217.31L389.244,1217.36L389.276,1217.41L389.307,1217.46L389.337,1217.51L389.367,1217.57L389.396,1217.62L389.425,1217.67L389.453,1217.73L389.48,1217.78L389.507,1217.83L389.533,1217.89L389.558,1217.94L389.583,1218L389.607,1218.06L389.63,1218.11L389.653,1218.17L389.675,1218.22L389.696,1218.28L389.717,1218.34L389.737,1218.4L389.756,1218.45L389.775,1218.51L389.793,1218.57L389.81,1218.63L389.827,1218.69L389.842,1218.75L389.858,1218.81L389.872,1218.87L389.885,1218.93L389.898,1218.99L389.91,1219.05L389.922,1219.12L389.932,1219.18L389.942,1219.24L389.951,1219.3L389.96,1219.36L389.967,1219.43L389.974,1219.49L389.98,1219.55L389.985,1219.62L389.99,1219.68L389.993,1219.74L389.996,1219.81L389.998,1219.87L390,1219.93L390,1220L390,1255L390,1255.07L389.998,1255.13L389.996,1255.19L389.993,1255.26L389.99,1255.32L389.985,1255.38L389.98,1255.45L389.974,1255.51L389.967,1255.57L389.96,1255.64L389.951,1255.7L389.942,1255.76L389.932,1255.82L389.922,1255.88L389.91,1255.95L389.898,1256.01L389.885,1256.07L389.872,1256.13L389.858,1256.19L389.842,1256.25L389.827,1256.31L389.81,1256.37L389.793,1256.43L389.775,1256.49L389.756,1256.55L389.737,1256.6L389.717,1256.66L389.696,1256.72L389.675,1256.78L389.653,1256.83L389.63,1256.89L389.607,1256.94L389.583,1257L389.558,1257.06L389.533,1257.11L389.507,1257.17L389.48,1257.22L389.453,1257.28L389.425,1257.33L389.396,1257.38L389.367,1257.43L389.337,1257.49L389.307,1257.54L389.276,1257.59L389.244,1257.64L389.212,1257.69L389.179,1257.75L389.146,1257.8L389.112,1257.84L389.077,1257.89L389.042,1257.94L389.006,1257.99L388.97,1258.04L388.933,1258.09L388.896,1258.13L388.858,1258.18L388.819,1258.23L388.78,1258.27L388.741,1258.32L388.7,1258.36L388.66,1258.4L388.619,1258.45L388.577,1258.49L388.535,1258.54L388.492,1258.58L388.449,1258.62L388.405,1258.66L388.361,1258.7L388.317,1258.74L388.271,1258.78L388.226,1258.82L388.18,1258.86L388.133,1258.9L388.086,1258.93L388.039,1258.97L387.991,1259.01L387.942,1259.04L387.894,1259.08L387.844,1259.11L387.795,1259.15L387.745,1259.18L387.694,1259.21L387.643,1259.24L387.592,1259.28L387.54,1259.31L387.488,1259.34L387.435,1259.37L387.382,1259.4L387.329,1259.42L387.275,1259.45L387.221,1259.48L387.167,1259.51L387.112,1259.53L387.057,1259.56L387.001,1259.58L386.945,1259.61L386.889,1259.63L386.833,1259.65L386.776,1259.67L386.718,1259.7L386.661,1259.72L386.603,1259.74L386.545,1259.76L386.486,1259.78L386.427,1259.79L386.368,1259.81L386.309,1259.83L386.249,1259.84L386.189,1259.86L386.129,1259.87L386.068,1259.88L386.007,1259.9L385.946,1259.91L385.885,1259.92L385.823,1259.93L385.761,1259.94L385.699,1259.95L385.636,1259.96L385.574,1259.97L385.511,1259.97L385.448,1259.98L385.384,1259.99L385.321,1259.99L385.257,1259.99L385.193,1260L385.129,1260L385.065,1260L385,1260L145,1260L144.935,1260L144.871,1260L144.807,1260L144.743,1259.99L144.679,1259.99L144.616,1259.99L144.552,1259.98L144.489,1259.97L144.426,1259.97L144.364,1259.96L144.301,1259.95L144.239,1259.94L144.177,1259.93L144.115,1259.92L144.054,1259.91L143.993,1259.9L143.932,1259.88L143.871,1259.87L143.811,1259.86L143.751,1259.84L143.691,1259.83L143.632,1259.81L143.573,1259.79L143.514,1259.78L143.455,1259.76L143.397,1259.74L143.339,1259.72L143.282,1259.7L143.224,1259.67L143.167,1259.65L143.111,1259.63L143.055,1259.61L142.999,1259.58L142.943,1259.56L142.888,1259.53L142.833,1259.51L142.779,1259.48L142.725,1259.45L142.671,1259.42L142.618,1259.4L142.565,1259.37L142.512,1259.34L142.46,1259.31L142.408,1259.28L142.357,1259.24L142.306,1259.21L142.255,1259.18L142.205,1259.15L142.156,1259.11L142.106,1259.08L142.058,1259.04L142.009,1259.01L141.961,1258.97L141.914,1258.93L141.867,1258.9L141.82,1258.86L141.774,1258.82L141.729,1258.78L141.683,1258.74L141.639,1258.7L141.595,1258.66L141.551,1258.62L141.508,1258.58L141.465,1258.54L141.423,1258.49L141.381,1258.45L141.34,1258.4L141.3,1258.36L141.259,1258.32L141.22,1258.27L141.181,1258.23L141.142,1258.18L141.104,1258.13L141.067,1258.09L141.03,1258.04L140.994,1257.99L140.958,1257.94L140.923,1257.89L140.888,1257.84L140.854,1257.8L140.821,1257.75L140.788,1257.69L140.756,1257.64L140.724,1257.59L140.693,1257.54L140.663,1257.49L140.633,1257.43L140.604,1257.38L140.575,1257.33L140.547,1257.28L140.52,1257.22L140.493,1257.17L140.467,1257.11L140.442,1257.06L140.417,1257L140.393,1256.94L140.37,1256.89L140.347,1256.83L140.325,1256.78L140.304,1256.72L140.283,1256.66L140.263,1256.6L140.244,1256.55L140.225,1256.49L140.207,1256.43L140.19,1256.37L140.173,1256.31L140.158,1256.25L140.142,1256.19L140.128,1256.13L140.115,1256.07L140.102,1256.01L140.09,1255.95L140.078,1255.88L140.068,1255.82L140.058,1255.76L140.049,1255.7L140.04,1255.64L140.033,1255.57L140.026,1255.51L140.02,1255.45L140.015,1255.38L140.01,1255.32L140.007,1255.26L140.004,1255.19L140.002,1255.13L140,1255.07L140,1255L140,1220L140,1219.93L140.002,1219.87L140.004,1219.81L140.007,1219.74L140.01,1219.68L140.015,1219.62L140.02,1219.55L140.026,1219.49L140.033,1219.43L140.04,1219.36L140.049,1219.3L140.058,1219.24L140.068,1219.18L140.078,1219.12L140.09,1219.05L140.102,1218.99L140.115,1218.93L140.128,1218.87L140.142,1218.81L140.158,1218.75L140.173,1218.69L140.19,1218.63L140.207,1218.57L140.225,1218.51L140.244,1218.45L140.263,1218.4L140.283,1218.34L140.304,1218.28L140.325,1218.22L140.347,1218.17L140.37,1218.11L140.393,1218.06L140.417,1218L140.442,1217.94L140.467,1217.89L140.493,1217.83L140.52,1217.78L140.547,1217.73L140.575,1217.67L140.604,1217.62L140.633,1217.57L140.663,1217.51L140.693,1217.46L140.724,1217.41L140.756,1217.36L140.788,1217.31L140.821,1217.26L140.854,1217.2L140.888,1217.16L140.923,1217.11L140.958,1217.06L140.994,1217.01L141.03,1216.96L141.067,1216.91L141.104,1216.87L141.142,1216.82L141.181,1216.77L141.22,1216.73L141.259,1216.68L141.3,1216.64L141.34,1216.6L141.381,1216.55L141.423,1216.51L141.465,1216.46L141.508,1216.42L141.551,1216.38L141.595,1216.34L141.639,1216.3L141.683,1216.26L141.729,1216.22L141.774,1216.18L141.82,1216.14L141.867,1216.1L141.914,1216.07L141.961,1216.03L142.009,1215.99L142.058,1215.96L142.106,1215.92L142.156,1215.89L142.205,1215.85L142.255,1215.82L142.306,1215.79L142.357,1215.76L142.408,1215.72L142.46,1215.69L142.512,1215.66L142.565,1215.63L142.618,1215.6L142.671,1215.58L142.725,1215.55L142.779,1215.52L142.833,1215.49L142.888,1215.47L142.943,1215.44L142.999,1215.42L143.055,1215.39L143.111,1215.37L143.167,1215.35L143.224,1215.33L143.282,1215.3L143.339,1215.28L143.397,1215.26L143.455,1215.24L143.514,1215.23L143.573,1215.21L143.632,1215.19L143.691,1215.17L143.751,1215.16L143.811,1215.14L143.871,1215.13L143.932,1215.12L143.993,1215.1L144.054,1215.09L144.115,1215.08L144.177,1215.07L144.239,1215.06L144.301,1215.05L144.364,1215.04L144.426,1215.03L144.489,1215.03L144.552,1215.02L144.616,1215.02L144.679,1215.01L144.743,1215.01L144.807,1215L144.871,1215L144.935,1215L145,1215L385,1215L385.065,1215ZM145.002,1215.65L144.944,1215.65L144.887,1215.65L144.831,1215.65L144.776,1215.65L144.72,1215.66L144.665,1215.66L144.61,1215.66L144.555,1215.67L144.5,1215.68L144.445,1215.68L144.391,1215.69L144.337,1215.7L144.283,1215.71L144.229,1215.72L144.176,1215.73L144.123,1215.74L144.07,1215.75L144.017,1215.76L143.965,1215.77L143.913,1215.79L143.861,1215.8L143.809,1215.81L143.758,1215.83L143.706,1215.84L143.656,1215.86L143.605,1215.88L143.555,1215.89L143.504,1215.91L143.455,1215.93L143.405,1215.95L143.356,1215.97L143.307,1215.99L143.258,1216.01L143.21,1216.03L143.162,1216.05L143.114,1216.08L143.067,1216.1L143.02,1216.12L142.973,1216.15L142.927,1216.17L142.881,1216.2L142.835,1216.22L142.79,1216.25L142.745,1216.28L142.7,1216.31L142.656,1216.33L142.612,1216.36L142.568,1216.39L142.525,1216.42L142.482,1216.45L142.439,1216.48L142.397,1216.51L142.356,1216.54L142.314,1216.58L142.273,1216.61L142.233,1216.64L142.193,1216.68L142.153,1216.71L142.114,1216.74L142.075,1216.78L142.036,1216.81L141.998,1216.85L141.96,1216.89L141.923,1216.92L141.887,1216.96L141.85,1217L141.814,1217.04L141.779,1217.08L141.744,1217.11L141.71,1217.15L141.676,1217.19L141.642,1217.23L141.609,1217.27L141.576,1217.31L141.544,1217.36L141.513,1217.4L141.482,1217.44L141.451,1217.48L141.421,1217.53L141.391,1217.57L141.362,1217.61L141.333,1217.66L141.305,1217.7L141.278,1217.75L141.251,1217.79L141.224,1217.84L141.198,1217.88L141.173,1217.93L141.148,1217.97L141.124,1218.02L141.1,1218.07L141.077,1218.11L141.054,1218.16L141.032,1218.21L141.011,1218.26L140.99,1218.31L140.969,1218.36L140.95,1218.4L140.93,1218.45L140.912,1218.5L140.894,1218.56L140.877,1218.61L140.86,1218.66L140.844,1218.71L140.828,1218.76L140.813,1218.81L140.799,1218.86L140.785,1218.91L140.772,1218.96L140.759,1219.02L140.748,1219.07L140.736,1219.12L140.726,1219.18L140.716,1219.23L140.707,1219.28L140.698,1219.34L140.69,1219.39L140.683,1219.44L140.676,1219.5L140.67,1219.56L140.665,1219.61L140.661,1219.66L140.657,1219.72L140.654,1219.78L140.651,1219.83L140.649,1219.89L140.648,1219.94L140.648,1220L140.648,1255L140.648,1255.06L140.649,1255.11L140.651,1255.17L140.654,1255.22L140.657,1255.28L140.661,1255.34L140.665,1255.39L140.67,1255.44L140.676,1255.5L140.683,1255.56L140.69,1255.61L140.698,1255.66L140.707,1255.72L140.716,1255.77L140.726,1255.82L140.736,1255.88L140.748,1255.93L140.759,1255.98L140.772,1256.04L140.785,1256.09L140.799,1256.14L140.813,1256.19L140.828,1256.24L140.844,1256.29L140.86,1256.34L140.877,1256.39L140.894,1256.44L140.912,1256.5L140.93,1256.55L140.95,1256.6L140.969,1256.64L140.99,1256.69L141.011,1256.74L141.032,1256.79L141.054,1256.84L141.077,1256.89L141.1,1256.93L141.124,1256.98L141.148,1257.03L141.173,1257.07L141.198,1257.12L141.224,1257.16L141.251,1257.21L141.278,1257.26L141.305,1257.3L141.333,1257.34L141.362,1257.39L141.391,1257.43L141.421,1257.48L141.451,1257.52L141.482,1257.56L141.513,1257.6L141.544,1257.64L141.576,1257.69L141.609,1257.73L141.642,1257.77L141.676,1257.81L141.71,1257.85L141.744,1257.89L141.779,1257.92L141.814,1257.96L141.85,1258L141.887,1258.04L141.923,1258.08L141.96,1258.11L141.998,1258.15L142.036,1258.19L142.075,1258.22L142.114,1258.26L142.153,1258.29L142.193,1258.32L142.233,1258.36L142.273,1258.39L142.314,1258.42L142.356,1258.46L142.397,1258.49L142.439,1258.52L142.482,1258.55L142.525,1258.58L142.568,1258.61L142.612,1258.64L142.656,1258.67L142.7,1258.69L142.745,1258.72L142.79,1258.75L142.835,1258.78L142.881,1258.8L142.927,1258.83L142.973,1258.85L143.02,1258.88L143.067,1258.9L143.114,1258.92L143.162,1258.95L143.21,1258.97L143.258,1258.99L143.307,1259.01L143.356,1259.03L143.405,1259.05L143.455,1259.07L143.504,1259.09L143.555,1259.11L143.605,1259.12L143.656,1259.14L143.706,1259.16L143.758,1259.17L143.809,1259.19L143.861,1259.2L143.913,1259.21L143.965,1259.23L144.017,1259.24L144.07,1259.25L144.123,1259.26L144.176,1259.27L144.229,1259.28L144.283,1259.29L144.337,1259.3L144.391,1259.31L144.445,1259.32L144.5,1259.32L144.555,1259.33L144.61,1259.34L144.665,1259.34L144.72,1259.34L144.776,1259.35L144.831,1259.35L144.887,1259.35L144.944,1259.35L145.002,1259.35L384.998,1259.35L385.056,1259.35L385.113,1259.35L385.169,1259.35L385.224,1259.35L385.28,1259.34L385.335,1259.34L385.39,1259.34L385.445,1259.33L385.5,1259.32L385.555,1259.32L385.609,1259.31L385.663,1259.3L385.717,1259.29L385.771,1259.28L385.824,1259.27L385.877,1259.26L385.93,1259.25L385.983,1259.24L386.035,1259.23L386.087,1259.21L386.139,1259.2L386.191,1259.19L386.242,1259.17L386.294,1259.16L386.344,1259.14L386.395,1259.12L386.445,1259.11L386.496,1259.09L386.545,1259.07L386.595,1259.05L386.644,1259.03L386.693,1259.01L386.742,1258.99L386.79,1258.97L386.838,1258.95L386.885,1258.92L386.933,1258.9L386.98,1258.88L387.027,1258.85L387.073,1258.83L387.119,1258.8L387.165,1258.78L387.21,1258.75L387.255,1258.72L387.3,1258.69L387.344,1258.67L387.388,1258.64L387.432,1258.61L387.475,1258.58L387.518,1258.55L387.561,1258.52L387.603,1258.49L387.644,1258.46L387.686,1258.42L387.727,1258.39L387.767,1258.36L387.808,1258.32L387.847,1258.29L387.886,1258.26L387.925,1258.22L387.964,1258.19L388.002,1258.15L388.04,1258.11L388.077,1258.08L388.114,1258.04L388.15,1258L388.186,1257.96L388.221,1257.92L388.256,1257.89L388.29,1257.85L388.324,1257.81L388.358,1257.77L388.391,1257.73L388.424,1257.69L388.456,1257.64L388.487,1257.6L388.518,1257.56L388.549,1257.52L388.579,1257.48L388.609,1257.43L388.638,1257.39L388.667,1257.34L388.695,1257.3L388.722,1257.26L388.749,1257.21L388.776,1257.16L388.802,1257.12L388.827,1257.07L388.852,1257.03L388.876,1256.98L388.9,1256.93L388.923,1256.88L388.946,1256.84L388.968,1256.79L388.989,1256.74L389.01,1256.69L389.031,1256.64L389.05,1256.6L389.07,1256.55L389.088,1256.5L389.106,1256.44L389.124,1256.39L389.14,1256.35L389.156,1256.29L389.172,1256.24L389.187,1256.19L389.201,1256.14L389.215,1256.09L389.228,1256.04L389.241,1255.98L389.252,1255.93L389.264,1255.88L389.274,1255.82L389.284,1255.77L389.293,1255.72L389.302,1255.66L389.31,1255.61L389.317,1255.56L389.324,1255.5L389.33,1255.44L389.335,1255.39L389.339,1255.34L389.343,1255.28L389.346,1255.22L389.349,1255.17L389.351,1255.11L389.352,1255.06L389.352,1255L389.352,1220L389.352,1219.94L389.351,1219.89L389.349,1219.83L389.346,1219.78L389.343,1219.72L389.339,1219.66L389.335,1219.61L389.33,1219.56L389.324,1219.5L389.317,1219.44L389.31,1219.39L389.302,1219.34L389.293,1219.28L389.284,1219.23L389.274,1219.18L389.264,1219.12L389.252,1219.07L389.241,1219.02L389.228,1218.96L389.215,1218.91L389.201,1218.86L389.187,1218.81L389.172,1218.76L389.156,1218.71L389.14,1218.65L389.124,1218.61L389.106,1218.56L389.088,1218.5L389.07,1218.45L389.05,1218.4L389.031,1218.36L389.01,1218.31L388.989,1218.26L388.968,1218.21L388.946,1218.16L388.923,1218.12L388.9,1218.07L388.876,1218.02L388.852,1217.97L388.827,1217.93L388.802,1217.88L388.776,1217.84L388.749,1217.79L388.722,1217.75L388.695,1217.7L388.667,1217.66L388.638,1217.61L388.609,1217.57L388.579,1217.53L388.549,1217.48L388.518,1217.44L388.487,1217.4L388.456,1217.36L388.424,1217.31L388.391,1217.27L388.358,1217.23L388.324,1217.19L388.29,1217.15L388.256,1217.11L388.221,1217.08L388.186,1217.04L388.15,1217L388.114,1216.96L388.077,1216.92L388.04,1216.89L388.002,1216.85L387.964,1216.81L387.925,1216.78L387.886,1216.74L387.847,1216.71L387.807,1216.68L387.767,1216.64L387.727,1216.61L387.686,1216.58L387.644,1216.54L387.603,1216.51L387.561,1216.48L387.518,1216.45L387.475,1216.42L387.432,1216.39L387.388,1216.36L387.344,1216.33L387.3,1216.31L387.255,1216.28L387.21,1216.25L387.165,1216.22L387.119,1216.2L387.073,1216.17L387.027,1216.15L386.98,1216.12L386.933,1216.1L386.886,1216.08L386.838,1216.05L386.79,1216.03L386.742,1216.01L386.693,1215.99L386.644,1215.97L386.595,1215.95L386.545,1215.93L386.496,1215.91L386.445,1215.89L386.395,1215.88L386.344,1215.86L386.294,1215.84L386.242,1215.83L386.191,1215.81L386.139,1215.8L386.087,1215.79L386.035,1215.77L385.983,1215.76L385.93,1215.75L385.877,1215.74L385.824,1215.73L385.771,1215.72L385.717,1215.71L385.663,1215.7L385.609,1215.69L385.555,1215.68L385.5,1215.68L385.445,1215.67L385.39,1215.66L385.335,1215.66L385.28,1215.66L385.224,1215.65L385.169,1215.65L385.113,1215.65L385.056,1215.65L384.998,1215.65L145.002,1215.65Z" style="fill:rgb(201,211,223);"/>
            </g>
            <g id="Grade-UI-Kit3" serif:id="Grade UI Kit" transform="matrix(1,0,0,1,154.871,1242.68)">
                <g transform="matrix(15,0,0,15,0,0)">
                    <path d="M0.079,0L0.079,-0.716L0.597,-0.716L0.597,-0.631L0.174,-0.631L0.174,-0.412L0.57,-0.412L0.57,-0.328L0.174,-0.328L0.174,-0.084L0.613,-0.084L0.613,0L0.079,0Z" style="fill:rgb(132,147,168);fill-rule:nonzero;"/>
                </g>
                <g transform="matrix(15,0,0,15,10.0049,0)">
                    <path d="M0.066,0L0.066,-0.519L0.145,-0.519L0.145,-0.446C0.161,-0.471 0.182,-0.492 0.209,-0.507C0.236,-0.523 0.267,-0.53 0.302,-0.53C0.34,-0.53 0.372,-0.522 0.396,-0.506C0.421,-0.49 0.438,-0.468 0.448,-0.439C0.489,-0.5 0.543,-0.53 0.608,-0.53C0.66,-0.53 0.699,-0.516 0.727,-0.488C0.755,-0.459 0.769,-0.415 0.769,-0.356L0.769,0L0.681,0L0.681,-0.327C0.681,-0.362 0.678,-0.387 0.673,-0.403C0.667,-0.418 0.657,-0.431 0.642,-0.44C0.627,-0.449 0.609,-0.454 0.589,-0.454C0.552,-0.454 0.522,-0.442 0.498,-0.418C0.474,-0.393 0.462,-0.355 0.462,-0.301L0.462,0L0.374,0L0.374,-0.337C0.374,-0.376 0.367,-0.405 0.353,-0.425C0.338,-0.444 0.315,-0.454 0.282,-0.454C0.257,-0.454 0.235,-0.448 0.214,-0.435C0.193,-0.422 0.177,-0.403 0.168,-0.377C0.159,-0.352 0.154,-0.316 0.154,-0.269L0.154,0L0.066,0Z" style="fill:rgb(132,147,168);fill-rule:nonzero;"/>
                </g>
                <g transform="matrix(15,0,0,15,22.5,0)">
                    <path d="M0.404,-0.064C0.372,-0.036 0.34,-0.017 0.31,-0.005C0.28,0.006 0.248,0.012 0.213,0.012C0.156,0.012 0.113,-0.002 0.082,-0.03C0.051,-0.058 0.036,-0.093 0.036,-0.137C0.036,-0.162 0.042,-0.185 0.053,-0.206C0.065,-0.227 0.08,-0.244 0.099,-0.257C0.118,-0.27 0.139,-0.279 0.162,-0.286C0.179,-0.29 0.205,-0.295 0.24,-0.299C0.311,-0.307 0.363,-0.317 0.397,-0.329C0.397,-0.341 0.397,-0.349 0.397,-0.352C0.397,-0.388 0.389,-0.413 0.373,-0.428C0.35,-0.448 0.317,-0.458 0.272,-0.458C0.231,-0.458 0.201,-0.45 0.181,-0.436C0.161,-0.421 0.147,-0.396 0.137,-0.359L0.051,-0.371C0.059,-0.407 0.072,-0.437 0.09,-0.46C0.108,-0.482 0.134,-0.5 0.167,-0.512C0.201,-0.524 0.241,-0.53 0.285,-0.53C0.329,-0.53 0.365,-0.525 0.393,-0.515C0.421,-0.504 0.441,-0.491 0.454,-0.475C0.467,-0.46 0.476,-0.44 0.481,-0.416C0.484,-0.401 0.486,-0.374 0.486,-0.334L0.486,-0.217C0.486,-0.136 0.488,-0.084 0.491,-0.062C0.495,-0.041 0.503,-0.02 0.514,0L0.422,0C0.413,-0.018 0.407,-0.04 0.404,-0.064ZM0.397,-0.26C0.365,-0.247 0.317,-0.236 0.253,-0.227C0.217,-0.222 0.192,-0.216 0.177,-0.209C0.162,-0.203 0.15,-0.193 0.142,-0.181C0.134,-0.168 0.13,-0.154 0.13,-0.139C0.13,-0.116 0.139,-0.096 0.156,-0.081C0.174,-0.065 0.2,-0.057 0.234,-0.057C0.268,-0.057 0.298,-0.065 0.325,-0.079C0.351,-0.094 0.37,-0.114 0.383,-0.14C0.392,-0.16 0.397,-0.189 0.397,-0.228L0.397,-0.26Z" style="fill:rgb(132,147,168);fill-rule:nonzero;"/>
                </g>
                <g transform="matrix(15,0,0,15,30.8423,0)">
                    <path d="M0.066,-0.615L0.066,-0.716L0.154,-0.716L0.154,-0.615L0.066,-0.615ZM0.066,0L0.066,-0.519L0.154,-0.519L0.154,0L0.066,0Z" style="fill:rgb(132,147,168);fill-rule:nonzero;"/>
                </g>
                <g transform="matrix(15,0,0,15,34.1748,0)">
                    <rect x="0.064" y="-0.716" width="0.088" height="0.716" style="fill:rgb(132,147,168);fill-rule:nonzero;"/>
                </g>
            </g>
        </g>
    </g>
</svg>
