<?xml version="1.0" encoding="UTF-8" standalone="no"?><!DOCTYPE svg PUBLIC "-//W3C//DTD SVG 1.1//EN" "http://www.w3.org/Graphics/SVG/1.1/DTD/svg11.dtd"><svg width="100%" height="100%" viewBox="0 0 656 369" version="1.1" xmlns="http://www.w3.org/2000/svg" xmlns:xlink="http://www.w3.org/1999/xlink" xml:space="preserve" xmlns:serif="http://www.serif.com/" style="fill-rule:evenodd;clip-rule:evenodd;stroke-linejoin:round;stroke-miterlimit:2;"><g><path d="M505.997,367.518l-345.355,0c-4.522,0 -8.189,-3.823 -8.189,-8.54l0,-348.809c0,-4.716 3.667,-8.54 8.189,-8.54l345.355,0c4.523,0 8.189,3.824 8.189,8.54l0,348.809c0,4.717 -3.666,8.54 -8.189,8.54Z" style="fill:#ddd;fill-rule:nonzero;"/><g><rect x="176.113" y="88.061" width="72.361" height="63.514" style="fill:#377fc1;"/><rect x="257.899" y="93.373" width="189.497" height="21.178" style="fill:#bfbfbf;"/><rect x="257.899" y="122.72" width="164.48" height="21.178" style="fill:#bfbfbf;"/></g><g><rect x="176.113" y="178.988" width="72.361" height="63.514" style="fill:#377fc1;"/><rect x="257.899" y="184.3" width="189.497" height="21.178" style="fill:#bfbfbf;"/><rect x="257.899" y="213.647" width="164.48" height="21.178" style="fill:#bfbfbf;"/></g><g><rect x="176.113" y="268.472" width="72.361" height="63.514" style="fill:#377fc1;"/><rect x="257.899" y="273.784" width="189.497" height="21.178" style="fill:#bfbfbf;"/><rect x="257.899" y="303.131" width="164.48" height="21.178" style="fill:#bfbfbf;"/></g><g><path d="M175.642,44.753l10.272,-26.748l3.814,0l10.947,26.748l-4.032,0l-3.12,-8.101l-11.185,0l-2.937,8.101l-3.759,0Zm7.718,-10.984l9.068,0l-2.792,-7.407c-0.851,-2.251 -1.484,-4.1 -1.897,-5.547c-0.341,1.715 -0.821,3.418 -1.442,5.109l-2.937,7.845Z" style="fill:#7e7e77;fill-rule:nonzero;"/><path d="M203.047,44.753l0,-19.377l2.956,0l0,2.938c0.754,-1.375 1.45,-2.281 2.089,-2.719c0.638,-0.438 1.341,-0.657 2.107,-0.657c1.107,0 2.232,0.353 3.376,1.059l-1.132,3.047c-0.802,-0.475 -1.605,-0.712 -2.408,-0.712c-0.718,0 -1.362,0.216 -1.934,0.648c-0.572,0.432 -0.979,1.031 -1.223,1.797c-0.364,1.168 -0.547,2.445 -0.547,3.832l0,10.144l-3.284,0Z" style="fill:#7e7e77;fill-rule:nonzero;"/><path d="M222.697,41.816l0.475,2.901c-0.925,0.194 -1.752,0.292 -2.482,0.292c-1.192,0 -2.116,-0.189 -2.773,-0.566c-0.657,-0.377 -1.119,-0.873 -1.387,-1.487c-0.267,-0.614 -0.401,-1.907 -0.401,-3.877l0,-11.148l-2.408,0l0,-2.555l2.408,0l0,-4.798l3.266,-1.971l0,6.769l3.302,0l0,2.555l-3.302,0l0,11.33c0,0.937 0.058,1.539 0.173,1.807c0.116,0.267 0.304,0.48 0.566,0.638c0.261,0.158 0.635,0.237 1.122,0.237c0.365,0 0.845,-0.042 1.441,-0.127Z" style="fill:#7e7e77;fill-rule:nonzero;"/><path d="M225.927,21.782l0,-3.777l3.284,0l0,3.777l-3.284,0Zm0,22.971l0,-19.377l3.284,0l0,19.377l-3.284,0Z" style="fill:#7e7e77;fill-rule:nonzero;"/><path d="M233.608,46.359l3.193,0.474c0.134,0.985 0.505,1.703 1.113,2.153c0.815,0.608 1.928,0.912 3.339,0.912c1.521,0 2.694,-0.304 3.522,-0.912c0.827,-0.608 1.386,-1.459 1.678,-2.554c0.17,-0.669 0.25,-2.074 0.237,-4.215c-1.435,1.691 -3.223,2.536 -5.364,2.536c-2.664,0 -4.725,-0.961 -6.185,-2.883c-1.46,-1.921 -2.19,-4.227 -2.19,-6.915c0,-1.849 0.335,-3.555 1.004,-5.118c0.669,-1.563 1.639,-2.77 2.91,-3.621c1.271,-0.852 2.764,-1.278 4.479,-1.278c2.287,0 4.173,0.925 5.657,2.774l0,-2.336l3.028,0l0,16.75c0,3.016 -0.307,5.154 -0.921,6.413c-0.614,1.259 -1.587,2.253 -2.919,2.983c-1.332,0.73 -2.971,1.095 -4.918,1.095c-2.311,0 -4.178,-0.52 -5.601,-1.56c-1.423,-1.04 -2.11,-2.606 -2.062,-4.698Zm2.719,-11.641c0,2.542 0.505,4.397 1.514,5.565c1.01,1.168 2.275,1.752 3.795,1.752c1.509,0 2.774,-0.581 3.795,-1.743c1.022,-1.162 1.533,-2.983 1.533,-5.464c0,-2.372 -0.526,-4.16 -1.578,-5.365c-1.052,-1.204 -2.32,-1.806 -3.804,-1.806c-1.46,0 -2.701,0.593 -3.722,1.779c-1.022,1.186 -1.533,2.947 -1.533,5.282Z" style="fill:#7e7e77;fill-rule:nonzero;"/><path d="M253.77,35.065c0,-3.589 0.997,-6.246 2.992,-7.974c1.666,-1.435 3.698,-2.153 6.094,-2.153c2.664,0 4.841,0.873 6.532,2.619c1.691,1.745 2.536,4.157 2.536,7.234c0,2.494 -0.374,4.455 -1.122,5.884c-0.748,1.43 -1.837,2.539 -3.266,3.33c-1.429,0.791 -2.989,1.186 -4.68,1.186c-2.713,0 -4.905,-0.87 -6.578,-2.609c-1.672,-1.739 -2.508,-4.245 -2.508,-7.517Zm3.375,0c0,2.481 0.541,4.339 1.624,5.574c1.083,1.234 2.445,1.852 4.087,1.852c1.63,0 2.986,-0.621 4.069,-1.861c1.082,-1.241 1.624,-3.132 1.624,-5.675c0,-2.396 -0.545,-4.211 -1.633,-5.446c-1.089,-1.235 -2.442,-1.852 -4.06,-1.852c-1.642,0 -3.004,0.614 -4.087,1.843c-1.083,1.228 -1.624,3.083 -1.624,5.565Z" style="fill:#7e7e77;fill-rule:nonzero;"/><path d="M274.46,38.969l3.248,-0.511c0.182,1.302 0.69,2.299 1.523,2.993c0.834,0.693 1.998,1.04 3.494,1.04c1.509,0 2.628,-0.307 3.358,-0.922c0.729,-0.614 1.094,-1.335 1.094,-2.162c0,-0.742 -0.322,-1.326 -0.967,-1.751c-0.45,-0.292 -1.569,-0.663 -3.357,-1.113c-2.408,-0.609 -4.078,-1.135 -5.008,-1.579c-0.931,-0.444 -1.636,-1.058 -2.117,-1.842c-0.48,-0.785 -0.72,-1.652 -0.72,-2.6c0,-0.864 0.197,-1.664 0.593,-2.4c0.395,-0.736 0.933,-1.347 1.614,-1.833c0.511,-0.377 1.208,-0.697 2.089,-0.958c0.882,-0.262 1.828,-0.393 2.838,-0.393c1.52,0 2.855,0.219 4.004,0.657c1.15,0.438 1.998,1.031 2.546,1.779c0.547,0.748 0.924,1.749 1.131,3.002l-3.211,0.438c-0.146,-0.998 -0.569,-1.776 -1.268,-2.336c-0.7,-0.559 -1.688,-0.839 -2.965,-0.839c-1.509,0 -2.585,0.249 -3.23,0.748c-0.644,0.499 -0.967,1.082 -0.967,1.751c0,0.426 0.134,0.809 0.402,1.15c0.267,0.353 0.687,0.645 1.259,0.876c0.328,0.121 1.295,0.401 2.901,0.839c2.323,0.62 3.944,1.128 4.862,1.524c0.919,0.395 1.639,0.97 2.162,1.724c0.523,0.754 0.785,1.69 0.785,2.81c0,1.094 -0.319,2.125 -0.958,3.092c-0.639,0.967 -1.56,1.715 -2.764,2.244c-1.205,0.53 -2.567,0.794 -4.087,0.794c-2.518,0 -4.437,-0.523 -5.757,-1.569c-1.32,-1.046 -2.162,-2.597 -2.527,-4.653Z" style="fill:#7e7e77;fill-rule:nonzero;"/><path d="M305.259,44.753l0,-26.748l10.09,0c1.775,0 3.132,0.085 4.068,0.256c1.314,0.219 2.415,0.635 3.303,1.249c0.888,0.615 1.602,1.475 2.144,2.582c0.541,1.107 0.812,2.323 0.812,3.649c0,2.275 -0.724,4.2 -2.172,5.775c-1.447,1.575 -4.062,2.363 -7.845,2.363l-6.861,0l0,10.874l-3.539,0Zm3.539,-14.031l6.916,0c2.286,0 3.91,-0.425 4.871,-1.277c0.961,-0.851 1.441,-2.049 1.441,-3.594c0,-1.119 -0.282,-2.077 -0.848,-2.874c-0.566,-0.797 -1.311,-1.323 -2.235,-1.578c-0.596,-0.158 -1.697,-0.237 -3.302,-0.237l-6.843,0l0,9.56Z" style="fill:#7e7e77;fill-rule:nonzero;"/><path d="M328.54,35.065c0,-3.589 0.998,-6.246 2.992,-7.974c1.667,-1.435 3.698,-2.153 6.094,-2.153c2.664,0 4.842,0.873 6.532,2.619c1.691,1.745 2.537,4.157 2.537,7.234c0,2.494 -0.374,4.455 -1.123,5.884c-0.748,1.43 -1.836,2.539 -3.266,3.33c-1.429,0.791 -2.989,1.186 -4.68,1.186c-2.712,0 -4.905,-0.87 -6.577,-2.609c-1.673,-1.739 -2.509,-4.245 -2.509,-7.517Zm3.376,0c0,2.481 0.541,4.339 1.623,5.574c1.083,1.234 2.445,1.852 4.087,1.852c1.63,0 2.987,-0.621 4.069,-1.861c1.083,-1.241 1.624,-3.132 1.624,-5.675c0,-2.396 -0.544,-4.211 -1.633,-5.446c-1.089,-1.235 -2.442,-1.852 -4.06,-1.852c-1.642,0 -3.004,0.614 -4.087,1.843c-1.082,1.228 -1.623,3.083 -1.623,5.565Z" style="fill:#7e7e77;fill-rule:nonzero;"/><path d="M350.544,52.179l0,-26.803l2.993,0l0,2.518c0.705,-0.985 1.502,-1.724 2.39,-2.217c0.888,-0.492 1.964,-0.739 3.229,-0.739c1.655,0 3.114,0.426 4.379,1.278c1.265,0.851 2.22,2.052 2.865,3.603c0.644,1.551 0.967,3.251 0.967,5.1c0,1.982 -0.356,3.768 -1.068,5.355c-0.711,1.587 -1.745,2.804 -3.101,3.649c-1.357,0.845 -2.783,1.268 -4.279,1.268c-1.095,0 -2.077,-0.231 -2.947,-0.693c-0.869,-0.462 -1.584,-1.046 -2.143,-1.752l0,9.433l-3.285,0Zm2.974,-17.005c0,2.494 0.505,4.337 1.515,5.529c1.009,1.192 2.232,1.788 3.667,1.788c1.46,0 2.71,-0.618 3.75,-1.852c1.04,-1.235 1.56,-3.148 1.56,-5.738c0,-2.47 -0.508,-4.319 -1.524,-5.547c-1.016,-1.229 -2.229,-1.843 -3.64,-1.843c-1.399,0 -2.636,0.654 -3.713,1.961c-1.076,1.308 -1.615,3.209 -1.615,5.702Z" style="fill:#7e7e77;fill-rule:nonzero;"/><path d="M384.025,44.753l0,-2.846c-1.508,2.189 -3.558,3.284 -6.149,3.284c-1.143,0 -2.21,-0.219 -3.202,-0.657c-0.991,-0.438 -1.727,-0.988 -2.208,-1.651c-0.48,-0.663 -0.818,-1.475 -1.012,-2.436c-0.134,-0.644 -0.201,-1.666 -0.201,-3.065l0,-12.006l3.284,0l0,10.747c0,1.715 0.067,2.871 0.201,3.467c0.207,0.863 0.645,1.541 1.314,2.034c0.669,0.493 1.496,0.739 2.481,0.739c0.985,0 1.91,-0.252 2.773,-0.757c0.864,-0.505 1.475,-1.192 1.834,-2.062c0.359,-0.87 0.538,-2.132 0.538,-3.786l0,-10.382l3.285,0l0,19.377l-2.938,0Z" style="fill:#7e7e77;fill-rule:nonzero;"/><rect x="392.035" y="18.005" width="3.284" height="26.748" style="fill:#7e7e77;fill-rule:nonzero;"/><path d="M413.054,42.363c-1.217,1.034 -2.387,1.764 -3.512,2.189c-1.126,0.426 -2.333,0.639 -3.622,0.639c-2.129,0 -3.765,-0.52 -4.908,-1.56c-1.144,-1.04 -1.715,-2.369 -1.715,-3.987c0,-0.948 0.216,-1.815 0.647,-2.6c0.432,-0.784 0.998,-1.414 1.697,-1.888c0.7,-0.474 1.487,-0.833 2.363,-1.076c0.645,-0.171 1.618,-0.335 2.919,-0.493c2.652,-0.316 4.604,-0.693 5.857,-1.131c0.012,-0.45 0.018,-0.736 0.018,-0.858c0,-1.338 -0.31,-2.281 -0.93,-2.828c-0.839,-0.742 -2.086,-1.113 -3.741,-1.113c-1.544,0 -2.685,0.271 -3.421,0.812c-0.735,0.541 -1.28,1.499 -1.633,2.874l-3.211,-0.438c0.292,-1.375 0.773,-2.485 1.442,-3.33c0.669,-0.845 1.636,-1.496 2.901,-1.952c1.265,-0.456 2.73,-0.685 4.397,-0.685c1.654,0 2.998,0.195 4.032,0.584c1.034,0.39 1.794,0.879 2.281,1.469c0.486,0.59 0.827,1.335 1.022,2.235c0.109,0.56 0.164,1.569 0.164,3.029l0,4.379c0,3.053 0.07,4.984 0.21,5.793c0.14,0.809 0.416,1.584 0.83,2.326l-3.43,0c-0.341,-0.681 -0.56,-1.478 -0.657,-2.39Zm-0.274,-7.335c-1.192,0.487 -2.98,0.9 -5.364,1.241c-1.35,0.195 -2.305,0.414 -2.865,0.657c-0.559,0.243 -0.991,0.599 -1.295,1.067c-0.304,0.468 -0.456,0.988 -0.456,1.56c0,0.876 0.331,1.606 0.994,2.19c0.663,0.584 1.633,0.875 2.91,0.875c1.265,0 2.391,-0.276 3.376,-0.83c0.985,-0.553 1.709,-1.31 2.171,-2.271c0.353,-0.742 0.529,-1.837 0.529,-3.285l0,-1.204Z" style="fill:#7e7e77;fill-rule:nonzero;"/><path d="M421.155,44.753l0,-19.377l2.956,0l0,2.938c0.754,-1.375 1.45,-2.281 2.089,-2.719c0.638,-0.438 1.341,-0.657 2.107,-0.657c1.107,0 2.232,0.353 3.376,1.059l-1.132,3.047c-0.802,-0.475 -1.605,-0.712 -2.408,-0.712c-0.718,0 -1.362,0.216 -1.934,0.648c-0.572,0.432 -0.979,1.031 -1.223,1.797c-0.364,1.168 -0.547,2.445 -0.547,3.832l0,10.144l-3.284,0Z" style="fill:#7e7e77;fill-rule:nonzero;"/><path d="M446.899,38.513l3.394,0.42c-0.535,1.983 -1.526,3.521 -2.974,4.616c-1.447,1.095 -3.296,1.642 -5.547,1.642c-2.834,0 -5.081,-0.873 -6.741,-2.618c-1.661,-1.746 -2.491,-4.194 -2.491,-7.344c0,-3.26 0.839,-5.79 2.518,-7.59c1.679,-1.8 3.856,-2.701 6.532,-2.701c2.591,0 4.707,0.882 6.349,2.646c1.643,1.764 2.464,4.245 2.464,7.444c0,0.195 -0.007,0.487 -0.019,0.876l-14.45,0c0.121,2.129 0.724,3.759 1.806,4.89c1.083,1.131 2.433,1.697 4.051,1.697c1.204,0 2.232,-0.317 3.083,-0.949c0.852,-0.633 1.527,-1.642 2.025,-3.029Zm-10.783,-5.309l10.82,0c-0.146,-1.63 -0.56,-2.853 -1.241,-3.668c-1.046,-1.265 -2.402,-1.897 -4.069,-1.897c-1.508,0 -2.776,0.505 -3.804,1.514c-1.028,1.01 -1.596,2.36 -1.706,4.051Z" style="fill:#7e7e77;fill-rule:nonzero;"/><path d="M453.103,38.969l3.248,-0.511c0.182,1.302 0.69,2.299 1.523,2.993c0.833,0.693 1.998,1.04 3.494,1.04c1.508,0 2.628,-0.307 3.357,-0.922c0.73,-0.614 1.095,-1.335 1.095,-2.162c0,-0.742 -0.322,-1.326 -0.967,-1.751c-0.45,-0.292 -1.569,-0.663 -3.357,-1.113c-2.409,-0.609 -4.078,-1.135 -5.009,-1.579c-0.93,-0.444 -1.636,-1.058 -2.116,-1.842c-0.48,-0.785 -0.721,-1.652 -0.721,-2.6c0,-0.864 0.198,-1.664 0.593,-2.4c0.396,-0.736 0.934,-1.347 1.615,-1.833c0.511,-0.377 1.207,-0.697 2.089,-0.958c0.882,-0.262 1.828,-0.393 2.837,-0.393c1.521,0 2.856,0.219 4.005,0.657c1.15,0.438 1.998,1.031 2.545,1.779c0.548,0.748 0.925,1.749 1.132,3.002l-3.212,0.438c-0.145,-0.998 -0.568,-1.776 -1.268,-2.336c-0.699,-0.559 -1.687,-0.839 -2.964,-0.839c-1.509,0 -2.585,0.249 -3.23,0.748c-0.645,0.499 -0.967,1.082 -0.967,1.751c0,0.426 0.134,0.809 0.401,1.15c0.268,0.353 0.688,0.645 1.259,0.876c0.329,0.121 1.296,0.401 2.901,0.839c2.324,0.62 3.945,1.128 4.863,1.524c0.918,0.395 1.639,0.97 2.162,1.724c0.523,0.754 0.785,1.69 0.785,2.81c0,1.094 -0.32,2.125 -0.958,3.092c-0.639,0.967 -1.56,1.715 -2.765,2.244c-1.204,0.53 -2.566,0.794 -4.087,0.794c-2.517,0 -4.436,-0.523 -5.756,-1.569c-1.32,-1.046 -2.162,-2.597 -2.527,-4.653Z" style="fill:#7e7e77;fill-rule:nonzero;"/></g></g></svg>