<?xml version="1.0" encoding="UTF-8" standalone="no"?>
<!DOCTYPE svg PUBLIC "-//W3C//DTD SVG 1.1//EN" "http://www.w3.org/Graphics/SVG/1.1/DTD/svg11.dtd">
<svg width="100%" height="100%" viewBox="0 0 368 107" version="1.1" xmlns="http://www.w3.org/2000/svg" xmlns:xlink="http://www.w3.org/1999/xlink" xml:space="preserve" xmlns:serif="http://www.serif.com/" style="fill-rule:evenodd;clip-rule:evenodd;stroke-linejoin:round;stroke-miterlimit:1.41421;">
    <g id="Prancheta1" transform="matrix(0.432658,0,0,0.456667,50.4684,7.76072)">
        <rect x="-116.647" y="-16.994" width="848.499" height="232.739" style="fill:none;"/>
        <g transform="matrix(2.31129,0,0,2.18978,-181.534,4.9426)">
            <g transform="matrix(1,0,0,1,-0.993019,-2.48255)">
                <path d="M171.149,43.39C171.149,19.487 141.449,0 104.812,0C68.175,0 38.476,19.486 38.476,43.39C38.476,44.006 38.468,45.711 38.468,45.93C38.468,71.29 64.427,91.826 104.804,91.826C145.427,91.826 171.15,71.293 171.15,45.933C171.149,45.048 171.149,44.538 171.149,43.39Z" style="fill:rgb(43,51,117);fill-rule:nonzero;"/>
            </g>
            <g transform="matrix(1,0,0,1,-0.993019,-2.48255)">
                <ellipse cx="104.824" cy="43.367" rx="63.785" ry="40.805" style="fill:rgb(31,156,216);"/>
            </g>
            <g transform="matrix(1,0,0,1,-0.993019,-2.48255)">
                <path d="M83.645,30.494C83.611,30.558 82.976,31.217 83.388,31.746C84.395,33.031 87.503,33.768 90.648,33.064C92.52,32.643 94.919,30.734 97.244,28.89C99.764,26.889 102.262,24.885 104.774,24.088C107.434,23.241 109.138,23.605 110.264,23.944C111.5,24.313 112.952,25.126 115.269,26.865C119.634,30.146 137.183,45.464 140.215,48.112C142.656,47.009 153.51,42.337 168.259,39.087C166.978,31.224 162.196,24.029 154.941,18.14C144.83,22.386 132.477,24.601 120.395,18.701C120.332,18.676 113.794,15.581 107.344,15.733C97.758,15.956 93.605,20.104 89.21,24.496L83.645,30.494Z" style="fill:white;fill-rule:nonzero;"/>
            </g>
            <g transform="matrix(1,0,0,1,-0.993019,-2.48255)">
                <path d="M139.502,49.779C139.296,49.595 118.867,31.72 114.238,28.242C111.559,26.233 110.071,25.721 108.507,25.521C107.693,25.416 106.568,25.566 105.78,25.782C103.628,26.368 100.812,28.25 98.312,30.232C95.725,32.293 93.284,34.234 91.021,34.741C88.127,35.39 84.595,34.624 82.983,33.534C82.331,33.096 81.871,32.588 81.65,32.072C81.055,30.692 82.153,29.588 82.333,29.403L87.971,23.304C88.626,22.652 89.287,21.996 89.962,21.352C88.144,21.589 86.462,22.054 84.824,22.509C82.782,23.083 80.816,23.63 78.829,23.628C78,23.628 73.554,22.899 72.71,22.671C67.607,21.275 63.13,19.915 56.441,16.792C48.426,22.758 43.067,30.218 41.518,38.435C42.669,38.74 44.525,39.292 45.305,39.464C63.442,43.497 69.09,47.652 70.116,48.519C71.225,47.285 72.826,46.503 74.612,46.503C76.62,46.506 78.427,47.514 79.527,49.072C80.566,48.252 81.998,47.55 83.85,47.551C84.691,47.551 85.563,47.706 86.444,48.006C88.491,48.708 89.547,50.07 90.094,51.304C90.781,50.993 91.624,50.765 92.618,50.768C93.594,50.768 94.61,50.991 95.634,51.433C98.979,52.869 99.499,56.153 99.196,58.629C99.434,58.602 99.675,58.59 99.918,58.59C103.882,58.593 107.107,61.816 107.106,65.782C107.106,67.01 106.793,68.164 106.246,69.178C107.325,69.783 110.075,71.157 112.49,70.85C114.419,70.607 115.151,69.948 115.413,69.578C115.593,69.322 115.782,69.024 115.606,68.811L110.489,63.125C110.489,63.125 109.646,62.328 109.925,62.021C110.213,61.706 110.734,62.159 111.103,62.466C113.707,64.641 116.886,67.924 116.886,67.924C116.941,67.959 117.151,68.375 118.327,68.586C119.339,68.768 121.131,68.662 122.371,67.643C122.684,67.385 122.997,67.065 123.26,66.733C123.239,66.75 123.222,66.772 123.202,66.779C124.511,65.104 123.056,63.41 123.056,63.41L117.082,56.701C117.082,56.701 116.227,55.911 116.518,55.594C116.778,55.319 117.328,55.735 117.703,56.045C119.594,57.627 122.267,60.31 124.828,62.818C125.329,63.184 127.579,64.577 130.561,62.619C132.371,61.432 132.733,59.975 132.682,58.875C132.556,57.419 131.42,56.382 131.42,56.382L123.259,48.177C123.259,48.177 122.397,47.441 122.701,47.069C122.951,46.756 123.51,47.207 123.877,47.514C126.477,49.689 133.514,56.142 133.514,56.142C133.616,56.212 136.046,57.944 139.052,56.031C140.126,55.343 140.813,54.308 140.871,53.105C140.974,51.019 139.502,49.779 139.502,49.779Z" style="fill:white;fill-rule:nonzero;"/>
            </g>
            <g transform="matrix(1,0,0,1,-0.993019,-2.48255)">
                <path d="M99.917,60.182C98.651,60.166 97.268,60.918 97.087,60.809C96.986,60.743 97.164,60.235 97.282,59.942C97.403,59.65 99.071,54.635 95.008,52.894C91.9,51.558 89.999,53.061 89.346,53.739C89.175,53.917 89.098,53.903 89.078,53.676C89.015,52.774 88.612,50.33 85.929,49.512C82.094,48.338 79.628,51.014 79.003,51.98C78.723,49.794 76.875,48.098 74.611,48.096C72.153,48.094 70.158,50.086 70.155,52.543C70.155,55.002 72.147,56.995 74.606,56.995C75.801,56.998 76.884,56.52 77.684,55.753C77.709,55.776 77.719,55.818 77.706,55.904C77.519,57.004 77.174,61.004 81.363,62.633C83.043,63.285 84.471,62.801 85.656,61.97C86.009,61.721 86.066,61.826 86.015,62.158C85.865,63.186 86.056,65.389 89.144,66.641C91.494,67.596 92.884,66.62 93.795,65.778C94.191,65.416 94.3,65.474 94.319,66.034C94.431,69.011 96.905,71.374 99.908,71.377C103.003,71.38 105.511,68.879 105.512,65.785C105.517,62.69 103.011,60.215 99.917,60.182Z" style="fill:white;fill-rule:nonzero;"/>
            </g>
            <g transform="matrix(1,0,0,1,-0.993019,-2.48255)">
                <path d="M140.292,47.639C133.999,42.148 119.455,29.503 115.517,26.547C113.266,24.854 111.731,23.96 110.384,23.559C109.779,23.375 108.941,23.168 107.863,23.166C106.861,23.166 105.785,23.348 104.662,23.705C102.115,24.511 99.58,26.526 97.127,28.476L97,28.576C94.715,30.392 92.354,32.271 90.566,32.67C89.786,32.846 88.984,32.937 88.184,32.937C86.182,32.934 84.383,32.357 83.709,31.497C83.598,31.355 83.669,31.126 83.93,30.794L83.964,30.751L89.5,24.784C93.835,20.448 97.932,16.354 107.359,16.138C107.514,16.133 107.674,16.13 107.83,16.13C113.698,16.134 119.563,18.761 120.223,19.066C125.725,21.75 131.405,23.113 137.113,23.118C143.063,23.119 149.202,21.647 155.656,18.676C154.935,18.069 154.185,17.479 153.414,16.901C147.743,19.358 142.342,20.6 137.129,20.599C131.805,20.594 126.487,19.316 121.323,16.796C121.051,16.666 114.574,13.611 107.834,13.608C107.657,13.608 107.479,13.611 107.302,13.614C99.383,13.801 94.923,16.611 91.923,19.075C89.006,19.146 86.488,19.849 84.248,20.475C82.25,21.031 80.525,21.512 78.842,21.511C78.149,21.511 76.901,21.448 76.789,21.443C74.852,21.384 65.101,18.993 57.344,16.056C56.552,16.617 55.79,17.195 55.048,17.785C63.152,21.107 73.013,23.677 76.126,23.878C76.991,23.935 77.914,24.032 78.837,24.034C80.897,24.034 82.951,23.457 84.94,22.9C86.115,22.571 87.412,22.212 88.774,21.951C88.411,22.308 88.047,22.671 87.683,23.035L82.058,29.12C81.616,29.567 80.654,30.759 81.288,32.228C81.539,32.82 82.051,33.387 82.767,33.869C84.108,34.771 86.507,35.382 88.737,35.384C89.582,35.386 90.383,35.3 91.119,35.135C93.477,34.607 95.95,32.636 98.57,30.553C100.657,28.895 103.624,26.788 105.894,26.17C106.528,25.997 107.308,25.89 107.934,25.89C108.122,25.892 108.297,25.898 108.462,25.921C109.962,26.111 111.413,26.621 114.002,28.566C118.619,32.035 139.051,49.908 139.25,50.084C139.264,50.096 140.567,51.22 140.477,53.088C140.428,54.129 139.85,55.055 138.845,55.696C137.973,56.25 137.073,56.531 136.163,56.531C134.797,56.528 133.857,55.889 133.795,55.845C133.721,55.783 126.72,49.365 124.145,47.208C123.735,46.868 123.336,46.562 122.934,46.562C122.718,46.561 122.528,46.654 122.399,46.814C121.994,47.314 122.448,48.005 122.982,48.46L131.159,56.68C131.171,56.689 132.179,57.634 132.289,58.895C132.353,60.257 131.702,61.397 130.348,62.285C129.383,62.921 128.407,63.243 127.45,63.243C126.193,63.243 125.313,62.672 125.118,62.535L123.944,61.38C121.801,59.271 119.588,57.09 117.966,55.737C117.571,55.409 117.151,55.105 116.747,55.105C116.548,55.105 116.37,55.179 116.232,55.324C116.047,55.529 115.919,55.898 116.379,56.511C116.568,56.763 116.792,56.971 116.792,56.971L122.759,63.674C122.809,63.735 123.988,65.136 122.894,66.533L122.684,66.801C122.504,66.998 122.312,67.18 122.128,67.336C121.11,68.171 119.751,68.26 119.212,68.26C118.924,68.26 118.647,68.236 118.405,68.192C117.817,68.087 117.42,67.922 117.229,67.697L117.156,67.621C116.831,67.284 113.823,64.214 111.335,62.137C111.007,61.862 110.598,61.516 110.175,61.516C109.965,61.516 109.779,61.598 109.636,61.756C109.144,62.295 109.883,63.103 110.196,63.398L115.286,69.01C115.28,69.06 115.217,69.175 115.093,69.353C114.911,69.604 114.294,70.222 112.448,70.454C112.226,70.483 111.998,70.495 111.772,70.495C109.868,70.495 107.837,69.571 106.791,69.016C107.268,68.009 107.515,66.902 107.515,65.79C107.517,61.601 104.115,58.193 99.927,58.19C99.837,58.19 99.741,58.193 99.653,58.196C99.79,56.284 99.519,52.662 95.802,51.068C94.732,50.605 93.665,50.37 92.628,50.37C91.815,50.37 91.035,50.509 90.301,50.79C89.53,49.293 88.252,48.203 86.583,47.635C85.662,47.316 84.745,47.155 83.858,47.155C82.311,47.155 80.886,47.611 79.616,48.514C78.397,46.999 76.558,46.103 74.622,46.103C72.927,46.103 71.296,46.781 70.088,47.978C68.504,46.768 62.22,42.777 45.4,38.957C44.585,38.77 42.715,38.236 41.571,37.901C41.382,38.811 41.236,39.731 41.141,40.661C41.141,40.661 44.243,41.403 44.852,41.541C62.035,45.356 67.712,49.325 68.671,50.075C68.346,50.856 68.177,51.698 68.176,52.546C68.173,56.096 71.061,58.987 74.613,58.99C75.01,58.99 75.406,58.955 75.794,58.884C76.329,61.495 78.038,63.476 80.651,64.492C81.414,64.785 82.186,64.936 82.944,64.936C83.435,64.937 83.928,64.875 84.411,64.752C84.893,65.977 85.978,67.504 88.405,68.49C89.257,68.833 90.107,69.011 90.934,69.011C91.61,69.011 92.27,68.892 92.9,68.661C94.063,71.493 96.831,73.369 99.917,73.369C101.962,73.372 103.926,72.539 105.356,71.065C106.583,71.746 109.17,72.979 111.784,72.982C112.123,72.982 112.44,72.959 112.758,72.92C115.353,72.592 116.563,71.577 117.116,70.787C117.217,70.649 117.307,70.503 117.385,70.35C117.998,70.528 118.672,70.671 119.445,70.672C120.862,70.672 122.223,70.189 123.597,69.188C124.949,68.214 125.91,66.815 126.048,65.625C126.051,65.608 126.052,65.591 126.055,65.573C126.511,65.667 126.978,65.715 127.445,65.715C128.905,65.715 130.341,65.26 131.713,64.361C134.36,62.626 134.818,60.359 134.776,58.876C135.24,58.973 135.713,59.022 136.182,59.022C137.553,59.022 138.899,58.609 140.18,57.792C141.821,56.744 142.809,55.138 142.959,53.27C143.061,52 142.746,50.719 142.076,49.618C146.511,47.708 156.645,44.011 168.58,41.321C168.509,40.395 168.375,39.481 168.209,38.571C153.765,41.775 142.99,46.438 140.292,47.639ZM99.917,70.978C97.112,70.975 94.833,68.796 94.729,66.019C94.722,65.782 94.698,65.149 94.162,65.149C93.942,65.149 93.751,65.281 93.53,65.48C92.915,66.051 92.129,66.633 90.981,66.633C90.461,66.633 89.897,66.511 89.302,66.268C86.34,65.069 86.299,63.034 86.42,62.216C86.452,61.998 86.463,61.771 86.313,61.595L86.131,61.431L85.946,61.431C85.795,61.431 85.64,61.493 85.431,61.641C84.574,62.243 83.752,62.534 82.917,62.534C82.457,62.534 81.985,62.442 81.514,62.261C77.615,60.743 77.922,57.064 78.113,55.956C78.141,55.731 78.086,55.558 77.943,55.442L77.668,55.214L77.41,55.46C76.65,56.192 75.657,56.594 74.612,56.594C72.379,56.591 70.561,54.778 70.563,52.543C70.564,50.31 72.383,48.496 74.617,48.499C76.635,48.499 78.353,50.017 78.61,52.032L78.75,53.119L79.348,52.199C79.414,52.092 81.05,49.618 84.059,49.621C84.63,49.621 85.221,49.713 85.817,49.896C88.214,50.628 88.62,52.802 88.683,53.708C88.725,54.236 89.101,54.262 89.174,54.262C89.381,54.262 89.533,54.13 89.643,54.018C90.095,53.545 91.081,52.759 92.622,52.759C93.328,52.762 94.079,52.929 94.854,53.263C98.666,54.898 96.937,59.741 96.916,59.79C96.589,60.593 96.576,60.947 96.884,61.152L97.033,61.224L97.144,61.224C97.317,61.224 97.531,61.149 97.882,61.029C98.402,60.85 99.184,60.581 99.916,60.582L99.918,60.582C102.786,60.613 105.12,62.948 105.118,65.784C105.118,68.649 102.784,70.978 99.917,70.978Z" style="fill:rgb(43,51,117);fill-rule:nonzero;"/>
            </g>
            <g transform="matrix(1,0,0,1,177.44,-107.215)">
                <path d="M205.65,117.744C203.256,114.742 199.622,113.244 194.743,113.244C189.871,113.244 186.235,114.742 183.842,117.744C181.446,120.74 180.247,124.285 180.247,128.375C180.247,132.538 181.445,136.095 183.842,139.054C186.236,142.007 189.871,143.486 194.743,143.486C199.622,143.486 203.257,142.007 205.65,139.054C208.046,136.095 209.242,132.538 209.242,128.375C209.242,124.285 208.047,120.74 205.65,117.744ZM199.718,134.952C198.556,136.493 196.894,137.265 194.72,137.265C192.552,137.265 190.882,136.494 189.71,134.952C188.538,133.41 187.955,131.217 187.955,128.375C187.955,125.537 188.538,123.348 189.71,121.814C190.882,120.28 192.552,119.514 194.72,119.514C196.894,119.514 198.556,120.281 199.718,121.814C200.878,123.347 201.462,125.537 201.462,128.375C201.462,131.217 200.878,133.411 199.718,134.952Z" style="fill:rgb(43,51,117);fill-rule:nonzero;"/>
            </g>
            <g transform="matrix(1,0,0,1,177.44,-107.215)">
                <path d="M144.454,115.234C142.026,114.003 139.246,113.381 136.12,113.381C131.31,113.381 127.919,114.636 125.943,117.14C124.702,118.744 124.004,120.786 123.841,123.277L131.025,123.277C131.201,122.179 131.553,121.308 132.085,120.666C132.825,119.797 134.084,119.361 135.865,119.361C137.456,119.361 138.659,119.58 139.481,120.029C140.299,120.47 140.711,121.277 140.711,122.441C140.711,123.4 140.178,124.102 139.107,124.558C138.509,124.818 137.519,125.035 136.13,125.209L133.583,125.521C130.692,125.888 128.495,126.5 127.008,127.353C124.288,128.919 122.93,131.449 122.93,134.949C122.93,137.643 123.773,139.731 125.466,141.2C127.15,142.671 129.296,143.29 131.886,143.409C148.13,144.134 147.946,134.849 148.095,132.919L148.095,122.232C148.097,118.806 146.881,116.473 144.454,115.234ZM140.682,131.449C140.632,133.938 139.918,135.652 138.549,136.593C137.18,137.532 135.683,138.005 134.06,138.005C133.031,138.005 132.162,137.718 131.445,137.155C130.73,136.589 130.374,135.67 130.374,134.398C130.374,132.972 130.958,131.919 132.131,131.24C132.826,130.842 133.965,130.499 135.551,130.226L137.247,129.911C138.091,129.752 138.758,129.58 139.241,129.398C139.731,129.218 140.207,128.982 140.682,128.683L140.682,131.449Z" style="fill:rgb(43,51,117);fill-rule:nonzero;"/>
            </g>
            <g transform="matrix(1,0,0,1,177.44,-107.215)">
                <path d="M107.417,119.748C109.273,119.748 110.638,120.32 111.519,121.467C112.122,122.315 112.499,123.272 112.646,124.332L120.66,124.332C120.22,120.289 118.805,117.469 116.417,115.869C114.022,114.278 110.955,113.475 107.202,113.475C102.788,113.475 99.322,114.831 96.819,117.535C94.309,120.246 93.054,124.031 93.054,128.896C93.054,133.206 94.19,136.717 96.46,139.424C98.73,142.131 102.273,143.485 107.087,143.485C111.904,143.485 115.542,141.862 117.993,138.618C119.532,136.606 120.391,134.472 120.574,132.216L112.589,132.216C112.426,133.707 111.96,134.923 111.187,135.861C110.417,136.795 109.119,137.265 107.283,137.265C104.697,137.265 102.936,136.086 102.002,133.723C101.489,132.462 101.23,130.792 101.23,128.715C101.23,126.537 101.49,124.789 102.002,123.47C102.972,120.991 104.78,119.748 107.417,119.748Z" style="fill:rgb(43,51,117);fill-rule:nonzero;"/>
            </g>
            <g transform="matrix(1,0,0,1,177.44,-107.215)">
                <path d="M90.906,113.476C74.449,113.476 75.422,128.047 75.422,128.047L75.422,142.847L82.891,142.847L82.891,128.965C82.891,126.692 83.179,125.006 83.747,123.91C84.773,121.97 86.773,120.996 89.761,120.996C89.987,120.996 90.282,121.008 90.647,121.025C91.012,121.042 91.424,121.074 91.899,121.13L91.899,113.53C91.567,113.509 91.352,113.498 91.261,113.489C91.162,113.481 91.045,113.476 90.906,113.476Z" style="fill:rgb(43,51,117);fill-rule:nonzero;"/>
            </g>
            <g transform="matrix(1,0,0,1,177.44,-107.215)">
                <path d="M63.472,135.113C63.159,135.561 62.821,135.945 62.451,136.243C61.395,137.11 59.962,137.376 58.274,137.376C56.678,137.376 55.43,137.134 54.298,136.421C52.436,135.277 51.387,133.338 51.275,130.493L71.94,130.493C71.969,128.045 71.89,126.17 71.693,124.863C71.348,122.642 70.593,120.681 69.434,118.998C68.145,117.086 66.505,115.687 64.531,114.799C62.552,113.917 60.33,113.473 57.861,113.473C53.7,113.473 50.322,114.786 47.715,117.405C45.111,120.031 43.803,123.798 43.803,128.71C43.803,133.957 45.248,137.742 48.136,140.068C51.02,142.394 54.355,143.56 58.128,143.56C62.701,143.56 66.262,142.181 68.803,139.419C70.172,137.968 71.031,136.53 71.393,135.113L63.472,135.113ZM53.433,121.209C54.483,120.13 55.958,119.59 57.861,119.59C59.613,119.59 61.08,120.096 62.263,121.119C63.443,122.137 64.103,123.634 64.238,125.598L51.456,125.598C51.724,123.752 52.386,122.291 53.433,121.209Z" style="fill:rgb(43,51,117);fill-rule:nonzero;"/>
            </g>
            <g transform="matrix(1,0,0,1,177.44,-107.215)">
                <path d="M40.803,142.845L33.982,142.845L33.982,125.668C33.982,124.098 33.463,120.365 28.963,120.365C25.963,120.365 23.792,122.529 23.792,125.668L23.792,142.845L16.962,142.845L16.962,125.668C16.962,124.098 16.497,120.365 11.999,120.365C8.946,120.365 6.826,122.529 6.826,125.668L6.826,142.845L0,142.845L0,125.831C0,118.74 4.706,113.376 11.999,113.376C15.62,113.376 18.566,114.897 20.482,117.334C22.496,114.896 25.495,113.376 28.962,113.376C36.409,113.376 40.802,118.522 40.802,125.831L40.802,142.845L40.803,142.845Z" style="fill:rgb(43,51,117);fill-rule:nonzero;"/>
            </g>
            <g transform="matrix(1,0,0,1,177.44,-107.215)">
                <path d="M178.026,104.505C178.026,104.505 170.503,103.701 170.503,109.743L170.497,117.744C169.665,116.408 168.581,115.361 167.245,114.609C165.912,113.855 164.386,113.475 162.663,113.475C158.931,113.475 155.957,114.863 153.725,117.639C151.493,120.417 150.382,124.419 150.382,129.259C150.382,133.458 151.513,136.903 153.778,139.582C156.043,142.26 160.484,143.436 164.427,143.436C178.179,143.436 178.021,131.644 178.021,131.644L178.026,104.505ZM169.067,135.014C167.977,136.576 166.375,137.357 164.28,137.357C162.176,137.357 160.612,136.57 159.581,135.001C158.55,133.43 158.034,131.142 158.034,128.522C158.034,126.09 158.538,124.057 159.555,122.418C160.569,120.779 162.159,119.957 164.33,119.957C165.754,119.957 167.002,120.408 168.08,121.309C169.832,122.803 170.708,125.481 170.708,128.95C170.708,131.431 170.16,133.452 169.067,135.014Z" style="fill:rgb(43,51,117);fill-rule:nonzero;"/>
            </g>
            <g transform="matrix(1,0,0,1,177.44,-107.215)">
                <path d="M54.353,187.997C54.353,189.011 53.986,189.879 53.248,190.601C52.519,191.325 51.639,191.686 50.609,191.686L46.873,191.686L46.873,165.69C46.873,160.635 48.578,157.469 51.382,155.329C53.236,153.915 55.996,152.565 61.17,152.565C64.662,152.565 68.753,153.921 70.961,156.615C73.441,159.645 74.474,163.02 74.474,167.43C74.474,171.991 73.376,175.67 71.179,178.499C68.979,181.251 66.155,182.621 62.707,182.621C60.877,182.621 59.264,182.296 57.871,181.647C56.401,180.921 55.233,179.8 54.353,178.28L54.353,187.997ZM66.889,167.757C66.889,164.935 66.341,162.766 65.236,161.245C64.136,159.731 62.562,158.966 60.509,158.966C58.53,158.966 56.989,159.732 55.885,161.245C54.863,162.622 54.353,164.796 54.353,167.757C54.353,170.512 54.9,172.567 56.001,173.943C57.097,175.463 58.677,176.223 60.728,176.223C62.632,176.223 64.136,175.462 65.236,173.943C66.341,172.423 66.889,170.368 66.889,167.757" style="fill:rgb(31,156,216);fill-rule:nonzero;"/>
            </g>
            <g transform="matrix(1,0,0,1,177.44,-107.215)">
                <path d="M124.041,180.226L124.041,178.389C122.747,180.416 120.997,181.672 118.802,182.183C116.605,182.683 114.425,182.505 112.273,181.636C110.108,180.772 108.252,179.162 106.703,176.815C105.158,174.459 104.385,171.37 104.385,167.538C104.385,163.062 105.41,159.427 107.46,156.645C109.514,153.863 112.811,152.592 117.346,152.469C121.817,152.352 124.415,153.362 126.959,155.288C129.74,157.401 131.386,160.642 131.386,165.697L131.386,180.991C131.397,185.855 128.004,194.876 117.346,194.109C110.742,193.631 107.078,190.923 105.033,184.784L112.917,184.784C113.493,185.795 114.373,186.572 115.568,187.11C116.75,187.657 117.944,187.798 119.124,187.546C120.312,187.294 121.395,186.587 122.371,185.433C123.339,184.276 123.896,182.54 124.041,180.226M111.728,167.761C111.728,172.745 113.168,175.51 116.05,176.055C118.925,176.589 121.053,175.921 122.421,174.045C123.069,173.256 123.535,172.003 123.823,170.31C124.11,168.612 124.132,166.929 123.878,165.269C123.63,163.602 123.034,162.121 122.096,160.818C121.163,159.521 119.794,158.866 117.992,158.866C115.544,158.866 113.89,159.773 113.025,161.575C112.155,163.385 111.728,165.444 111.728,167.761" style="fill:rgb(31,156,216);fill-rule:nonzero;"/>
            </g>
            <g transform="matrix(1,0,0,1,177.44,-107.215)">
                <path d="M97.984,154.532C95.551,153.302 92.766,152.677 89.637,152.677C84.819,152.677 81.423,153.936 79.443,156.443C78.202,158.048 77.501,160.095 77.339,162.589L84.537,162.589C84.714,161.489 85.065,160.617 85.597,159.975C86.339,159.103 87.601,158.667 89.382,158.667C90.98,158.667 92.183,158.887 93.005,159.335C93.823,159.778 94.237,160.585 94.237,161.753C94.237,162.713 93.703,163.417 92.629,163.872C92.034,164.134 91.042,164.35 89.65,164.526L87.099,164.837C84.203,165.204 82.002,165.817 80.515,166.671C77.788,168.241 76.43,170.777 76.43,174.279C76.43,176.979 77.273,179.068 78.968,180.542C80.656,182.016 82.806,182.635 85.4,182.755C101.668,183.482 101.483,174.181 101.632,172.246L101.632,161.542C101.632,158.108 100.417,155.772 97.984,154.532M94.204,170.777C94.157,173.27 93.442,174.984 92.071,175.925C90.701,176.867 89.2,177.339 87.575,177.339C86.545,177.339 85.673,177.052 84.957,176.489C84.238,175.922 83.88,175 83.88,173.727C83.88,172.301 84.467,171.245 85.641,170.564C86.339,170.164 87.478,169.822 89.069,169.547L90.766,169.234C91.615,169.072 92.281,168.902 92.761,168.717C93.254,168.539 93.73,168.301 94.204,168.001L94.204,170.777Z" style="fill:rgb(31,156,216);fill-rule:nonzero;"/>
            </g>
            <g transform="matrix(1,0,0,1,177.44,-107.215)">
                <path d="M159.682,156.891C157.283,153.884 153.64,152.384 148.755,152.384C143.877,152.384 140.235,153.884 137.835,156.891C135.436,159.893 134.235,163.444 134.235,167.54C134.235,171.71 135.435,175.269 137.835,178.235C140.235,181.189 143.877,182.675 148.755,182.675C153.64,182.675 157.282,181.189 159.682,178.235C162.079,175.268 163.277,171.71 163.277,167.54C163.276,163.443 162.079,159.893 159.682,156.891M153.737,174.124C152.575,175.671 150.908,176.443 148.733,176.443C146.562,176.443 144.886,175.671 143.715,174.124C142.539,172.584 141.954,170.386 141.954,167.54C141.954,164.696 142.539,162.505 143.715,160.97C144.886,159.433 146.562,158.667 148.733,158.667C150.908,158.667 152.575,159.433 153.737,160.97C154.901,162.505 155.483,164.697 155.483,167.54C155.483,170.386 154.901,172.584 153.737,174.124" style="fill:rgb(31,156,216);fill-rule:nonzero;"/>
            </g>
        </g>
    </g>
</svg>
