<?xml version="1.0" encoding="UTF-8" standalone="no"?>
<!DOCTYPE svg PUBLIC "-//W3C//DTD SVG 1.1//EN" "http://www.w3.org/Graphics/SVG/1.1/DTD/svg11.dtd">
<svg width="100%" height="100%" viewBox="0 0 365 100" version="1.1" xmlns="http://www.w3.org/2000/svg" xmlns:xlink="http://www.w3.org/1999/xlink" xml:space="preserve" xmlns:serif="http://www.serif.com/" style="fill-rule:evenodd;clip-rule:evenodd;stroke-linejoin:round;stroke-miterlimit:1.41421;">
    <g transform="matrix(0.110461,0,0,0.110461,0.661593,-30.6286)">
        <g id="Prancheta1">
            <g>
                <g>
                    <g transform="matrix(0.772943,0,0,0.772942,1291.89,1007.54)">
                        <path d="M221.875,-267.773L134.57,-267.773L134.57,0L95.313,0L95.313,-267.773L8.398,-267.773L8.398,-302.539L221.875,-302.539L221.875,-267.773Z" style="fill-rule:nonzero;"/>
                    </g>
                    <g transform="matrix(0.772943,0,0,0.772942,1440.14,1007.54)">
                        <path d="M150,-178.125C143.62,-182.682 134.831,-184.961 123.633,-184.961C108.789,-184.961 96.549,-178.027 86.914,-164.16C77.279,-150.293 72.461,-132.031 72.461,-109.375L72.461,0L34.18,0L34.18,-216.016L72.461,-216.016L72.461,-172.07L73.242,-172.07C84.18,-203.841 103.06,-219.727 129.883,-219.727C138.607,-219.727 145.313,-218.75 150,-216.797L150,-178.125Z" style="fill-rule:nonzero;"/>
                    </g>
                    <g transform="matrix(0.772943,0,0,0.772942,1440.14,1007.54)">
                        <path d="M191.992,-200.977C213.477,-214.388 238.281,-221.094 266.406,-221.094C318.49,-221.094 344.531,-193.75 344.531,-139.063L344.531,0L306.641,0L306.641,-33.398L305.664,-33.398C290.69,-7.747 268.62,5.078 239.453,5.078C218.49,5.078 201.823,-0.586 189.453,-11.914C177.083,-23.242 170.898,-38.542 170.898,-57.813C170.898,-98.177 194.792,-121.68 242.578,-128.32L306.641,-137.305C306.641,-172.591 292.057,-190.234 262.891,-190.234C236.979,-190.234 213.346,-181.51 191.992,-164.063L191.992,-200.977ZM256.055,-101.563C238.346,-99.219 226.139,-94.792 219.434,-88.281C212.728,-81.771 209.375,-72.656 209.375,-60.938C209.375,-50.651 213.021,-42.253 220.313,-35.742C227.604,-29.232 237.24,-25.977 249.219,-25.977C265.885,-25.977 279.622,-31.836 290.43,-43.555C301.237,-55.273 306.641,-69.987 306.641,-87.695L306.641,-108.398L256.055,-101.563Z" style="fill-rule:nonzero;"/>
                    </g>
                    <g transform="matrix(0.772943,0,0,0.772942,1440.14,1007.54)">
                        <path d="M590.625,0L552.539,0L552.539,-122.852C552.539,-167.253 536.328,-189.453 503.906,-189.453C487.109,-189.453 473.307,-183.203 462.5,-170.703C451.693,-158.203 446.289,-142.383 446.289,-123.242L446.289,0L408.008,0L408.008,-216.016L446.289,-216.016L446.289,-180.273L447.07,-180.273C463.346,-207.487 486.979,-221.094 517.969,-221.094C541.667,-221.094 559.701,-213.509 572.07,-198.34C584.44,-183.171 590.625,-161.068 590.625,-132.031L590.625,0Z" style="fill-rule:nonzero;"/>
                    </g>
                    <g transform="matrix(0.772943,0,0,0.772942,1440.14,1007.54)">
                        <path d="M642.383,-46.68C661.654,-32.747 682.422,-25.781 704.688,-25.781C734.505,-25.781 749.414,-35.547 749.414,-55.078C749.414,-63.411 746.159,-70.28 739.648,-75.684C733.138,-81.087 719.922,-87.5 700,-94.922C676.042,-104.557 660.482,-114.095 653.32,-123.535C646.159,-132.975 642.578,-144.401 642.578,-157.813C642.578,-176.953 650.684,-192.285 666.895,-203.809C683.105,-215.332 703.06,-221.094 726.758,-221.094C745.117,-221.094 762.174,-217.904 777.93,-211.523L777.93,-174.609C761.784,-185.026 743.49,-190.234 723.047,-190.234C710.807,-190.234 700.846,-187.565 693.164,-182.227C685.482,-176.888 681.641,-169.857 681.641,-161.133C681.641,-152.539 684.408,-145.833 689.941,-141.016C695.475,-136.198 707.747,-130.013 726.758,-122.461C750.846,-113.477 767.122,-104.167 775.586,-94.531C784.049,-84.896 788.281,-72.982 788.281,-58.789C788.281,-38.997 780.176,-23.405 763.965,-12.012C747.754,-0.618 726.758,5.078 700.977,5.078C678.581,5.078 659.049,0.846 642.383,-7.617L642.383,-46.68Z" style="fill-rule:nonzero;"/>
                    </g>
                    <g transform="matrix(0.772943,0,0,0.772942,1440.14,1007.54)">
                        <path d="M950.391,-287.109C943.229,-290.885 935.482,-292.773 927.148,-292.773C903.19,-292.773 891.211,-277.93 891.211,-248.242L891.211,-216.016L941.797,-216.016L941.797,-184.375L891.211,-184.375L891.211,0L853.32,0L853.32,-184.375L816.406,-184.375L816.406,-216.016L853.32,-216.016L853.32,-250C853.32,-273.177 859.993,-291.374 873.34,-304.59C886.686,-317.806 903.646,-324.414 924.219,-324.414C935.156,-324.414 943.88,-323.177 950.391,-320.703L950.391,-287.109Z" style="fill-rule:nonzero;"/>
                    </g>
                    <g transform="matrix(0.772943,0,0,0.772942,1440.14,1007.54)">
                        <path d="M1154.3,-98.242L1003.13,-98.242C1003.78,-75.195 1010.09,-57.389 1022.07,-44.824C1034.05,-32.259 1050.78,-25.977 1072.27,-25.977C1096.48,-25.977 1118.68,-33.724 1138.87,-49.219L1138.87,-15.039C1119.86,-1.628 1094.66,5.078 1063.28,5.078C1032.03,5.078 1007.65,-4.818 990.137,-24.609C972.624,-44.401 963.867,-71.875 963.867,-107.031C963.867,-140.104 973.47,-167.383 992.676,-188.867C1011.88,-210.352 1035.74,-221.094 1064.26,-221.094C1092.51,-221.094 1114.58,-212.012 1130.47,-193.848C1146.35,-175.684 1154.3,-150.26 1154.3,-117.578L1154.3,-98.242ZM1116.02,-128.906C1115.88,-148.438 1111.26,-163.542 1102.15,-174.219C1093.03,-184.896 1080.21,-190.234 1063.67,-190.234C1048.44,-190.234 1035.25,-184.57 1024.12,-173.242C1012.99,-161.914 1005.99,-147.135 1003.13,-128.906L1116.02,-128.906Z" style="fill-rule:nonzero;"/>
                    </g>
                    <g transform="matrix(0.772943,0,0,0.772942,1440.14,1007.54)">
                        <path d="M1321.09,-178.125C1314.71,-182.682 1305.92,-184.961 1294.73,-184.961C1279.88,-184.961 1267.64,-178.027 1258.01,-164.16C1248.37,-150.293 1243.56,-132.031 1243.56,-109.375L1243.56,0L1205.27,0L1205.27,-216.016L1243.56,-216.016L1243.56,-172.07L1244.34,-172.07C1255.27,-203.841 1274.15,-219.727 1300.98,-219.727C1309.7,-219.727 1316.41,-218.75 1321.09,-216.797L1321.09,-178.125Z" style="fill-rule:nonzero;"/>
                    </g>
                    <g transform="matrix(0.772943,0,0,0.772942,2459.01,1007.54)">
                        <path d="M210.156,-98.242L58.984,-98.242C59.635,-75.195 65.951,-57.389 77.93,-44.824C89.909,-32.259 106.641,-25.977 128.125,-25.977C152.344,-25.977 174.544,-33.724 194.727,-49.219L194.727,-15.039C175.716,-1.628 150.521,5.078 119.141,5.078C87.891,5.078 63.509,-4.818 45.996,-24.609C28.483,-44.401 19.727,-71.875 19.727,-107.031C19.727,-140.104 29.329,-167.383 48.535,-188.867C67.741,-210.352 91.602,-221.094 120.117,-221.094C148.372,-221.094 170.443,-212.012 186.328,-193.848C202.214,-175.684 210.156,-150.26 210.156,-117.578L210.156,-98.242ZM171.875,-128.906C171.745,-148.438 167.122,-163.542 158.008,-174.219C148.893,-184.896 136.068,-190.234 119.531,-190.234C104.297,-190.234 91.113,-184.57 79.98,-173.242C68.848,-161.914 61.849,-147.135 58.984,-128.906L171.875,-128.906ZM179.688,-256.055L151.953,-256.055L117.578,-303.711L83.008,-256.055L57.031,-256.055L102.93,-325.977L133.594,-325.977L179.688,-256.055Z" style="fill-rule:nonzero;"/>
                    </g>
                    <g transform="matrix(0.772943,0,0,0.772942,2459.01,1007.54)">
                        <path d="M443.75,0L405.664,0L405.664,-122.852C405.664,-167.253 389.453,-189.453 357.031,-189.453C340.234,-189.453 326.432,-183.203 315.625,-170.703C304.818,-158.203 299.414,-142.383 299.414,-123.242L299.414,0L261.133,0L261.133,-216.016L299.414,-216.016L299.414,-180.273L300.195,-180.273C316.471,-207.487 340.104,-221.094 371.094,-221.094C394.792,-221.094 412.826,-213.509 425.195,-198.34C437.565,-183.171 443.75,-161.068 443.75,-132.031L443.75,0Z" style="fill-rule:nonzero;"/>
                    </g>
                    <g transform="matrix(0.772943,0,0,0.772942,2459.01,1007.54)">
                        <path d="M656.836,-9.766C640.299,0.13 620.378,5.078 597.07,5.078C565.82,5.078 540.69,-4.948 521.68,-25C502.669,-45.052 493.164,-71.029 493.164,-102.93C493.164,-138.346 503.418,-166.895 523.926,-188.574C544.434,-210.254 571.875,-221.094 606.25,-221.094C626.042,-221.094 642.969,-217.578 657.031,-210.547L657.031,-172.656C641.797,-183.854 624.87,-189.453 606.25,-189.453C584.375,-189.453 566.569,-181.868 552.832,-166.699C539.095,-151.53 532.227,-131.315 532.227,-106.055C532.227,-81.185 538.704,-61.719 551.66,-47.656C564.616,-33.594 582.096,-26.563 604.102,-26.563C622.721,-26.563 640.299,-32.682 656.836,-44.922L656.836,-9.766Z" style="fill-rule:nonzero;"/>
                    </g>
                    <g transform="matrix(0.772943,0,0,0.772942,2459.01,1007.54)">
                        <path d="M703.516,-292.188C703.516,-298.958 705.827,-304.655 710.449,-309.277C715.072,-313.9 720.768,-316.211 727.539,-316.211C734.44,-316.211 740.267,-313.932 745.02,-309.375C749.772,-304.818 752.148,-299.089 752.148,-292.188C752.148,-285.417 749.772,-279.785 745.02,-275.293C740.267,-270.801 734.44,-268.555 727.539,-268.555C720.638,-268.555 714.909,-270.801 710.352,-275.293C705.794,-279.785 703.516,-285.417 703.516,-292.188ZM708.008,0L708.008,-216.016L746.289,-216.016L746.289,0L708.008,0Z" style="fill-rule:nonzero;"/>
                    </g>
                    <g transform="matrix(0.772943,0,0,0.772942,2459.01,1007.54)">
                        <path d="M819.727,-200.977C841.211,-214.388 866.016,-221.094 894.141,-221.094C946.224,-221.094 972.266,-193.75 972.266,-139.063L972.266,0L934.375,0L934.375,-33.398L933.398,-33.398C918.424,-7.747 896.354,5.078 867.188,5.078C846.224,5.078 829.557,-0.586 817.188,-11.914C804.818,-23.242 798.633,-38.542 798.633,-57.813C798.633,-98.177 822.526,-121.68 870.313,-128.32L934.375,-137.305C934.375,-172.591 919.792,-190.234 890.625,-190.234C864.714,-190.234 841.081,-181.51 819.727,-164.063L819.727,-200.977ZM883.789,-101.563C866.081,-99.219 853.874,-94.792 847.168,-88.281C840.462,-81.771 837.109,-72.656 837.109,-60.938C837.109,-50.651 840.755,-42.253 848.047,-35.742C855.339,-29.232 864.974,-25.977 876.953,-25.977C893.62,-25.977 907.357,-31.836 918.164,-43.555C928.971,-55.273 934.375,-69.987 934.375,-87.695L934.375,-108.398L883.789,-101.563Z" style="fill-rule:nonzero;"/>
                    </g>
                </g>
                <g transform="matrix(1.1031,0,0,1.1031,-614.556,269.87)">
                    <g transform="matrix(1,0,0,1,1717.56,354.915)">
                        <path d="M34.961,0L34.961,-302.539L139.453,-302.539C246.875,-302.539 300.586,-253.385 300.586,-155.078C300.586,-108.333 285.547,-70.801 255.469,-42.48C225.391,-14.16 186.589,0 139.063,0L34.961,0ZM99.414,-249.805L99.414,-52.734L134.57,-52.734C165.169,-52.734 189.193,-61.849 206.641,-80.078C224.089,-98.307 232.813,-122.982 232.813,-154.102C232.813,-184.18 223.698,-207.65 205.469,-224.512C187.24,-241.374 163.542,-249.805 134.375,-249.805L99.414,-249.805Z" style="fill:rgb(14,147,71);fill-rule:nonzero;"/>
                    </g>
                    <g transform="matrix(1,0,0,1,1717.56,354.915)">
                        <path d="M537.109,-90.234L394.922,-90.234C397.135,-56.771 417.318,-40.039 455.469,-40.039C479.297,-40.039 500.326,-45.898 518.555,-57.617L518.555,-11.328C498.893,-0.26 473.112,5.273 441.211,5.273C406.836,5.273 380.111,-4.427 361.035,-23.828C341.96,-43.229 332.422,-70.247 332.422,-104.883C332.422,-139.388 342.578,-167.415 362.891,-188.965C383.203,-210.514 408.724,-221.289 439.453,-221.289C470.052,-221.289 493.978,-212.012 511.23,-193.457C528.483,-174.902 537.109,-149.414 537.109,-116.992L537.109,-90.234ZM478.32,-129.688C478.32,-161.979 465.234,-178.125 439.063,-178.125C428.255,-178.125 418.685,-173.698 410.352,-164.844C402.018,-155.99 396.81,-144.271 394.727,-129.688L478.32,-129.688Z" style="fill:rgb(14,147,71);fill-rule:nonzero;"/>
                    </g>
                    <g transform="matrix(1,0,0,1,1717.56,354.915)">
                        <path d="M641.211,-25.977L641.211,99.414L578.125,99.414L578.125,-216.016L641.211,-216.016L641.211,-183.008L641.992,-183.008C658.529,-208.529 681.901,-221.289 712.109,-221.289C739.583,-221.289 761.068,-211.686 776.563,-192.48C792.057,-173.275 799.805,-147.135 799.805,-114.063C799.805,-77.995 790.82,-49.089 772.852,-27.344C754.883,-5.599 731.315,5.273 702.148,5.273C675.716,5.273 655.664,-5.143 641.992,-25.977L641.211,-25.977ZM640.234,-95.508C640.234,-80.143 644.401,-67.578 652.734,-57.813C661.068,-48.047 671.875,-43.164 685.156,-43.164C700.911,-43.164 713.184,-49.284 721.973,-61.523C730.762,-73.763 735.156,-91.081 735.156,-113.477C735.156,-153.06 719.727,-172.852 688.867,-172.852C674.544,-172.852 662.858,-167.383 653.809,-156.445C644.759,-145.508 640.234,-131.445 640.234,-114.258L640.234,-95.508Z" style="fill:rgb(14,147,71);fill-rule:nonzero;"/>
                    </g>
                    <g transform="matrix(1,0,0,1,1717.56,354.915)">
                        <path d="M831.641,-107.031C831.641,-142.578 842.285,-170.508 863.574,-190.82C884.863,-211.133 913.477,-221.289 949.414,-221.289C984.18,-221.289 1011.78,-211.296 1032.23,-191.309C1052.67,-171.322 1062.89,-144.466 1062.89,-110.742C1062.89,-75.326 1052.41,-47.135 1031.44,-26.172C1010.48,-5.208 982.096,5.273 946.289,5.273C911.133,5.273 883.236,-4.785 862.598,-24.902C841.96,-45.02 831.641,-72.396 831.641,-107.031ZM895.508,-107.813C895.508,-64.714 913.086,-43.164 948.242,-43.164C981.966,-43.164 998.828,-65.299 998.828,-109.57C998.828,-151.758 981.836,-172.852 947.852,-172.852C931.315,-172.852 918.457,-167.188 909.277,-155.859C900.098,-144.531 895.508,-128.516 895.508,-107.813ZM1007.81,-318.359L942.969,-250.195L897.266,-250.195L951.172,-318.359L1007.81,-318.359Z" style="fill:rgb(14,147,71);fill-rule:nonzero;"/>
                    </g>
                    <g transform="matrix(1,0,0,1,1717.56,354.915)">
                        <path d="M1101.76,-58.008C1123.37,-44.857 1144.53,-38.281 1165.23,-38.281C1191.28,-38.281 1204.3,-45.247 1204.3,-59.18C1204.3,-69.076 1193.56,-77.344 1172.07,-83.984C1145.25,-92.318 1126.82,-101.595 1116.8,-111.816C1106.77,-122.038 1101.76,-135.872 1101.76,-153.32C1101.76,-174.544 1110.35,-191.178 1127.54,-203.223C1144.73,-215.267 1167.25,-221.289 1195.12,-221.289C1214.91,-221.289 1233.98,-218.359 1252.34,-212.5L1252.34,-162.891C1235.55,-172.786 1217.06,-177.734 1196.88,-177.734C1186.85,-177.734 1178.78,-175.944 1172.66,-172.363C1166.54,-168.783 1163.48,-164.063 1163.48,-158.203C1163.48,-148.307 1172.59,-140.299 1190.82,-134.18C1210.35,-127.669 1225.03,-121.745 1234.86,-116.406C1244.69,-111.068 1252.18,-104.036 1257.32,-95.313C1262.47,-86.589 1265.04,-76.497 1265.04,-65.039C1265.04,-42.773 1256.12,-25.488 1238.28,-13.184C1220.44,-0.879 1196.62,5.273 1166.8,5.273C1143.36,5.273 1121.68,1.562 1101.76,-5.859L1101.76,-58.008Z" style="fill:rgb(14,147,71);fill-rule:nonzero;"/>
                    </g>
                    <g transform="matrix(1,0,0,1,1717.56,354.915)">
                        <path d="M1299.22,-285.742C1299.22,-295.378 1302.64,-303.223 1309.47,-309.277C1316.31,-315.332 1325.07,-318.359 1335.74,-318.359C1346.68,-318.359 1355.53,-315.267 1362.31,-309.082C1369.08,-302.897 1372.46,-295.117 1372.46,-285.742C1372.46,-276.237 1369.01,-268.327 1362.11,-262.012C1355.21,-255.697 1346.42,-252.539 1335.74,-252.539C1325.19,-252.539 1316.47,-255.729 1309.57,-262.109C1302.67,-268.49 1299.22,-276.367 1299.22,-285.742ZM1303.91,0L1303.91,-216.016L1366.8,-216.016L1366.8,0L1303.91,0Z" style="fill:rgb(14,147,71);fill-rule:nonzero;"/>
                    </g>
                    <g transform="matrix(1,0,0,1,1717.56,354.915)">
                        <path d="M1550.39,-2.539C1540.88,2.669 1526.5,5.273 1507.23,5.273C1461.39,5.273 1438.48,-18.815 1438.48,-66.992L1438.48,-168.945L1402.93,-168.945L1402.93,-216.016L1438.48,-216.016L1438.48,-263.477L1501.17,-281.445L1501.17,-216.016L1550.39,-216.016L1550.39,-168.945L1501.17,-168.945L1501.17,-77.93C1501.17,-54.883 1510.29,-43.359 1528.52,-43.359C1535.55,-43.359 1542.84,-45.443 1550.39,-49.609L1550.39,-2.539Z" style="fill:rgb(14,147,71);fill-rule:nonzero;"/>
                    </g>
                    <g transform="matrix(1,0,0,1,3275.96,354.915)">
                        <path d="M15.82,-107.031C15.82,-142.578 26.465,-170.508 47.754,-190.82C69.043,-211.133 97.656,-221.289 133.594,-221.289C168.359,-221.289 195.964,-211.296 216.406,-191.309C236.849,-171.322 247.07,-144.466 247.07,-110.742C247.07,-75.326 236.589,-47.135 215.625,-26.172C194.661,-5.208 166.276,5.273 130.469,5.273C95.313,5.273 67.415,-4.785 46.777,-24.902C26.139,-45.02 15.82,-72.396 15.82,-107.031ZM79.688,-107.813C79.688,-64.714 97.266,-43.164 132.422,-43.164C166.146,-43.164 183.008,-65.299 183.008,-109.57C183.008,-151.758 166.016,-172.852 132.031,-172.852C115.495,-172.852 102.637,-167.188 93.457,-155.859C84.277,-144.531 79.688,-128.516 79.688,-107.813Z" style="fill:rgb(14,147,71);fill-rule:nonzero;"/>
                    </g>
                </g>
                <g transform="matrix(2.06201,0,0,2.062,18.7561,278.587)">
                    <path d="M488.727,325.818L23.273,325.818C10.473,325.818 0,315.345 0,302.545L0,46.545C0,33.745 10.473,23.272 23.273,23.272L488.728,23.272C501.528,23.272 512.001,33.745 512.001,46.545L512.001,302.545C512,315.345 501.527,325.818 488.727,325.818Z" style="fill:rgb(14,147,71);fill-rule:nonzero;"/>
                </g>
                <g transform="matrix(2.06201,0,0,2.062,18.7561,278.587)">
                    <path d="M430.545,232.727C403.781,232.727 379.345,245.527 365.381,266.472C353.745,260.655 340.945,256 325.818,256C285.091,256 251.345,286.255 245.527,325.818L488.727,325.818C500.363,325.818 509.672,317.673 512,306.036C507.345,265.309 472.436,232.727 430.545,232.727Z" style="fill:rgb(13,137,68);fill-rule:nonzero;"/>
                </g>
                <g transform="matrix(2.06201,0,0,2.062,18.7561,278.587)">
                    <path d="M442.182,302.545L69.818,302.545C69.818,276.945 48.873,256 23.273,256L23.273,93.091C48.873,93.091 69.818,72.146 69.818,46.546L442.182,46.546C442.182,72.146 463.127,93.091 488.727,93.091L488.727,256C463.127,256 442.182,276.945 442.182,302.545Z" style="fill:rgb(59,181,74);fill-rule:nonzero;"/>
                </g>
                <g transform="matrix(2.06201,0,0,2.062,18.7561,278.587)">
                    <path d="M430.545,232.727C403.781,232.727 379.345,245.527 365.381,266.472C353.745,260.655 340.945,256 325.818,256C293.236,256 265.309,274.618 252.509,302.545L442.182,302.545C442.182,276.945 461.964,257.163 487.564,256C472.436,242.036 452.655,232.727 430.545,232.727Z" style="fill:rgb(14,147,71);fill-rule:nonzero;"/>
                </g>
                <g transform="matrix(2.06201,0,0,2.062,18.7561,278.587)">
                    <ellipse cx="256" cy="174.545" rx="93.091" ry="104.727" style="fill:rgb(14,147,71);"/>
                </g>
                <g transform="matrix(2.06201,0,0,2.062,18.7561,278.587)">
                    <circle cx="116.364" cy="174.545" r="23.273" style="fill:rgb(14,147,71);"/>
                </g>
                <g transform="matrix(2.06201,0,0,2.062,18.7561,278.587)">
                    <circle cx="395.636" cy="174.545" r="23.273" style="fill:rgb(14,147,71);"/>
                </g>
                <g transform="matrix(2.06201,0,0,2.062,18.7561,278.587)">
                    <path d="M267.636,162.909L244.363,162.909C237.381,162.909 232.727,158.254 232.727,151.273C232.727,144.291 237.382,139.637 244.363,139.637L279.272,139.637C286.254,139.637 290.908,134.982 290.908,128.001C290.908,121.019 286.253,116.365 279.272,116.365L267.636,116.365C267.636,109.383 262.981,104.729 256,104.729C249.018,104.729 244.364,109.384 244.364,116.365C224.582,116.365 209.455,131.492 209.455,151.274C209.455,171.056 224.582,186.183 244.364,186.183L267.637,186.183C274.619,186.183 279.273,190.838 279.273,197.819C279.273,204.801 274.618,209.455 267.637,209.455L232.728,209.455C225.746,209.455 221.092,214.11 221.092,221.091C221.092,228.073 225.747,232.727 232.728,232.727L244.364,232.727C244.364,239.709 249.019,244.363 256,244.363C262.982,244.363 267.636,239.708 267.636,232.727C287.418,232.727 302.545,217.6 302.545,197.818C302.545,178.036 287.418,162.909 267.636,162.909Z" style="fill:rgb(137,199,99);fill-rule:nonzero;"/>
                </g>
                <g transform="matrix(2.06201,0,0,2.062,11.8843,145.732)">
                    <circle cx="302.545" cy="337.455" r="81.455" style="fill:rgb(255,202,93);"/>
                </g>
                <g transform="matrix(2.06201,0,0,2.062,11.8843,145.732)">
                    <circle cx="407.273" cy="314.182" r="81.455" style="fill:rgb(246,181,69);"/>
                </g>
                <g transform="matrix(2.06201,0,0,2.062,11.8843,145.732)">
                    <path d="M407.273,232.727C361.891,232.727 325.818,268.8 325.818,314.182C325.818,359.564 361.891,395.637 407.273,395.637C452.655,395.637 488.728,359.564 488.728,314.182C488.728,268.8 452.655,232.727 407.273,232.727ZM407.273,372.364C374.691,372.364 349.091,346.764 349.091,314.182C349.091,281.6 374.691,256 407.273,256C439.855,256 465.455,281.6 465.455,314.182C465.455,346.764 439.855,372.364 407.273,372.364Z" style="fill:rgb(255,203,91);fill-rule:nonzero;"/>
                </g>
                <g transform="matrix(2.06201,0,0,2.062,11.8843,145.732)">
                    <path d="M407.273,394.473C452.655,395.637 488.728,358.4 488.728,314.182L487.564,314.182C481.746,314.182 477.091,318.837 475.928,324.655C473.601,340.946 465.455,356.073 453.819,366.546C444.51,375.855 431.71,381.673 417.746,384C411.927,384 407.273,388.655 407.273,394.473Z" style="fill:rgb(246,181,69);fill-rule:nonzero;"/>
                </g>
                <g transform="matrix(2.06201,0,0,2.062,11.8843,145.732)">
                    <path d="M407.273,233.891C361.891,232.727 325.818,269.964 325.818,314.182L326.982,314.182C332.8,314.182 337.455,309.527 338.618,303.709C340.945,287.418 349.091,272.291 360.727,261.818C370.036,252.509 382.836,246.691 396.8,244.363C402.618,244.364 407.273,239.709 407.273,233.891Z" style="fill:rgb(255,226,122);fill-rule:nonzero;"/>
                </g>
                <g transform="matrix(2.06201,0,0,2.062,11.8843,145.732)">
                    <path d="M357.236,322.327C357.236,289.745 382.836,264.145 415.418,264.145C429.382,264.145 442.182,268.8 452.654,278.109C441.018,264.145 425.891,256 407.273,256C374.691,256 349.091,281.6 349.091,314.182C349.091,332.8 357.236,347.927 370.036,358.4C361.891,349.091 357.236,336.291 357.236,322.327Z" style="fill:rgb(241,153,32);fill-rule:nonzero;"/>
                </g>
                <g transform="matrix(2.06201,0,0,2.062,11.8843,145.732)">
                    <path d="M442.182,350.255C441.018,350.255 439.855,350.255 438.691,349.091C436.364,346.764 436.364,343.273 438.691,340.946C445.673,333.964 449.164,323.491 449.164,314.182C449.164,310.691 451.491,308.364 454.982,308.364C458.473,308.364 460.8,310.691 460.8,314.182C460.8,326.982 456.145,339.782 448,349.091C445.673,350.255 443.345,350.255 442.182,350.255Z" style="fill:rgb(255,203,91);fill-rule:nonzero;"/>
                </g>
                <g transform="matrix(2.06201,0,0,2.062,11.8843,145.732)">
                    <path d="M407.273,349.091C400.291,349.091 395.637,344.436 395.637,337.455L395.637,290.91C395.637,283.928 400.292,279.274 407.273,279.274C414.254,279.274 418.909,283.929 418.909,290.91L418.909,337.455C418.909,344.436 414.255,349.091 407.273,349.091Z" style="fill:rgb(241,153,32);fill-rule:nonzero;"/>
                </g>
                <g transform="matrix(2.06201,0,0,2.062,11.8843,145.732)">
                    <path d="M450.327,382.836C442.182,353.745 421.236,330.472 394.472,320C389.817,293.236 372.363,269.964 350.254,256C336.29,271.127 326.981,290.909 326.981,313.018C326.981,358.4 363.054,394.473 408.436,394.473C423.564,395.636 437.527,390.982 450.327,382.836Z" style="fill:rgb(241,153,32);fill-rule:nonzero;"/>
                </g>
                <g transform="matrix(2.06201,0,0,2.062,11.8843,145.732)">
                    <path d="M370.036,358.4C361.891,347.927 356.072,335.127 356.072,321.164C356.072,304.873 363.054,289.746 374.69,279.273C372.363,275.782 370.035,273.455 367.708,271.128C356.072,281.601 349.09,296.728 349.09,314.183C349.091,332.8 357.236,347.927 370.036,358.4Z" style="fill:rgb(231,136,37);fill-rule:nonzero;"/>
                </g>
                <g transform="matrix(2.06201,0,0,2.062,11.8843,145.732)">
                    <path d="M395.636,321.164L395.636,337.455C395.636,344.437 400.291,349.091 407.272,349.091C414.253,349.091 418.908,344.436 418.908,337.455L418.908,335.128C411.927,329.309 403.782,324.655 395.636,321.164Z" style="fill:rgb(231,136,37);fill-rule:nonzero;"/>
                </g>
                <g transform="matrix(2.06201,0,0,2.062,11.8843,145.732)">
                    <path d="M450.327,382.836C448,374.691 445.672,367.709 441.018,360.727C431.709,367.709 420.073,372.363 407.273,372.363C374.691,372.363 349.091,346.763 349.091,314.181C349.091,296.726 356.073,281.599 367.709,271.126C361.891,265.308 356.073,260.653 349.091,257.162C335.127,272.289 325.818,292.071 325.818,314.18C325.818,359.562 361.891,395.635 407.273,395.635C423.564,395.636 437.527,390.982 450.327,382.836Z" style="fill:rgb(246,181,69);fill-rule:nonzero;"/>
                </g>
                <g transform="matrix(2.06201,0,0,2.062,11.8843,145.732)">
                    <path d="M446.836,372.364C438.691,378.182 428.218,381.673 417.745,384C411.927,385.164 407.272,389.818 407.272,395.636C423.563,395.636 437.527,390.981 450.327,382.836C449.164,379.345 448,375.855 446.836,372.364Z" style="fill:rgb(241,153,32);fill-rule:nonzero;"/>
                </g>
                <g transform="matrix(2.06201,0,0,2.062,11.8843,145.732)">
                    <path d="M349.091,257.164C335.127,272.291 325.818,292.073 325.818,314.182L326.982,314.182C332.8,314.182 337.455,309.527 338.618,303.709C340.945,287.418 349.091,273.454 359.563,262.982C356.073,261.818 352.582,259.491 349.091,257.164Z" style="fill:rgb(255,203,91);fill-rule:nonzero;"/>
                </g>
                <g transform="matrix(2.06201,0,0,2.062,11.8843,145.732)">
                    <circle cx="302.545" cy="337.455" r="81.455" style="fill:rgb(246,181,69);"/>
                </g>
                <g transform="matrix(2.06201,0,0,2.062,11.8843,145.732)">
                    <path d="M290.909,395.636C290.909,403.781 292.073,410.763 294.4,418.909C296.727,418.909 300.218,418.909 302.545,418.909C347.927,418.909 384,382.836 384,337.454C384,329.309 382.836,322.327 380.509,314.181C378.182,314.181 374.691,314.181 372.364,314.181C326.982,314.182 290.909,350.255 290.909,395.636Z" style="fill:rgb(241,153,32);fill-rule:nonzero;"/>
                </g>
                <g transform="matrix(2.06201,0,0,2.062,11.8843,145.732)">
                    <path d="M302.545,256C257.163,256 221.09,292.073 221.09,337.455C221.09,382.837 257.163,418.91 302.545,418.91C347.927,418.91 384,382.836 384,337.455C384,292.074 347.927,256 302.545,256ZM302.545,395.636C269.963,395.636 244.363,370.036 244.363,337.454C244.363,304.872 269.963,279.272 302.545,279.272C335.127,279.272 360.727,304.872 360.727,337.454C360.727,370.036 335.127,395.636 302.545,395.636Z" style="fill:rgb(255,203,91);fill-rule:nonzero;"/>
                </g>
                <g transform="matrix(2.06201,0,0,2.062,11.8843,145.732)">
                    <path d="M302.545,417.745C347.927,418.909 384,381.673 384,337.455L382.836,337.455C377.018,337.455 372.363,342.11 371.2,347.928C368.873,364.219 360.727,379.346 349.091,389.819C339.782,399.128 326.982,404.946 313.018,407.274C307.2,407.273 302.545,411.927 302.545,417.745Z" style="fill:rgb(246,181,69);fill-rule:nonzero;"/>
                </g>
                <g transform="matrix(2.06201,0,0,2.062,11.8843,145.732)">
                    <path d="M302.545,257.164C257.163,256 221.09,293.237 221.09,337.455L222.254,337.455C228.072,337.455 232.727,332.8 233.89,326.982C236.217,310.691 244.363,295.564 255.999,285.091C265.308,275.782 278.108,269.964 292.072,267.636C297.891,267.636 302.545,262.982 302.545,257.164Z" style="fill:rgb(255,226,122);fill-rule:nonzero;"/>
                </g>
                <g transform="matrix(2.06201,0,0,2.062,11.8843,145.732)">
                    <path d="M252.509,345.6C252.509,313.018 278.109,287.418 310.691,287.418C324.655,287.418 337.455,292.073 347.927,301.382C336.291,287.418 321.163,279.273 302.545,279.273C269.963,279.273 244.363,304.873 244.363,337.455C244.363,356.073 252.508,371.2 265.308,381.673C257.164,372.364 252.509,359.564 252.509,345.6Z" style="fill:rgb(241,153,32);fill-rule:nonzero;"/>
                </g>
                <g transform="matrix(2.06201,0,0,2.062,11.8843,145.732)">
                    <path d="M337.455,373.527C336.291,373.527 335.128,373.527 333.964,372.363C331.637,370.036 331.637,366.545 333.964,364.218C340.946,357.236 344.437,346.763 344.437,337.454C344.437,333.963 346.764,331.636 350.255,331.636C353.746,331.636 356.073,333.963 356.073,337.454C356.073,350.254 351.418,363.054 343.273,372.363C340.945,373.527 338.618,373.527 337.455,373.527Z" style="fill:rgb(255,203,91);fill-rule:nonzero;"/>
                </g>
                <g transform="matrix(2.06201,0,0,2.062,11.8843,145.732)">
                    <path d="M302.545,372.364C295.563,372.364 290.909,367.709 290.909,360.728L290.909,314.183C290.909,307.201 295.564,302.547 302.545,302.547C309.527,302.547 314.181,307.202 314.181,314.183L314.181,360.728C314.182,367.709 309.527,372.364 302.545,372.364Z" style="fill:rgb(241,153,32);fill-rule:nonzero;"/>
                </g>
                <g transform="matrix(2.06201,0,0,2.062,11.8843,145.732)">
                    <path d="M356.073,315.345C358.4,322.327 360.728,329.309 360.728,337.454C360.728,370.036 335.128,395.636 302.546,395.636C299.055,395.636 294.401,395.636 290.91,394.472L290.91,395.636C290.91,403.781 292.074,410.763 294.401,418.909C296.728,418.909 300.219,418.909 302.546,418.909C347.928,418.909 384.001,382.836 384.001,337.454C384.001,329.309 382.837,322.327 380.51,314.181C378.183,314.181 374.692,314.181 372.365,314.181C366.545,314.182 361.891,314.182 356.073,315.345Z" style="fill:rgb(246,181,69);fill-rule:nonzero;"/>
                </g>
                <g transform="matrix(2.06201,0,0,2.062,11.8843,145.732)">
                    <circle cx="360.727" cy="407.273" r="81.455" style="fill:rgb(246,181,69);"/>
                </g>
                <g transform="matrix(2.06201,0,0,2.062,11.8843,145.732)">
                    <path d="M360.727,325.818C315.345,325.818 279.272,361.891 279.272,407.273C279.272,452.655 315.345,488.728 360.727,488.728C406.109,488.728 442.182,452.655 442.182,407.273C442.182,361.891 406.109,325.818 360.727,325.818ZM360.727,465.455C328.145,465.455 302.545,439.855 302.545,407.273C302.545,374.691 328.145,349.091 360.727,349.091C393.309,349.091 418.909,374.691 418.909,407.273C418.909,439.855 393.309,465.455 360.727,465.455Z" style="fill:rgb(255,203,91);fill-rule:nonzero;"/>
                </g>
                <g transform="matrix(2.06201,0,0,2.062,11.8843,145.732)">
                    <path d="M360.727,487.564C406.109,488.728 442.182,451.491 442.182,407.273L441.018,407.273C435.2,407.273 430.545,411.928 429.382,417.746C427.055,434.037 418.909,449.164 407.273,459.637C397.964,468.946 385.164,474.764 371.2,477.092C365.382,477.091 360.727,481.745 360.727,487.564Z" style="fill:rgb(246,181,69);fill-rule:nonzero;"/>
                </g>
                <g transform="matrix(2.06201,0,0,2.062,11.8843,145.732)">
                    <path d="M360.727,326.982C315.345,325.818 279.272,363.055 279.272,407.273L280.436,407.273C286.254,407.273 290.909,402.618 292.072,396.8C294.399,380.509 302.545,365.382 314.181,354.909C323.49,345.6 336.29,339.782 350.254,337.454C356.073,337.455 360.727,332.8 360.727,326.982Z" style="fill:rgb(255,226,122);fill-rule:nonzero;"/>
                </g>
                <g transform="matrix(2.06201,0,0,2.062,11.8843,145.732)">
                    <path d="M310.691,415.418C310.691,382.836 336.291,357.236 368.873,357.236C382.837,357.236 395.637,361.891 406.109,371.2C394.473,357.236 379.345,349.091 360.727,349.091C328.145,349.091 302.545,374.691 302.545,407.273C302.545,425.891 310.69,441.018 323.49,451.491C315.345,442.182 310.691,429.382 310.691,415.418Z" style="fill:rgb(241,153,32);fill-rule:nonzero;"/>
                </g>
                <g transform="matrix(2.06201,0,0,2.062,11.8843,145.732)">
                    <path d="M395.636,443.345C394.472,443.345 393.309,443.345 392.145,442.181C389.818,439.854 389.818,436.363 392.145,434.036C399.127,427.054 402.618,416.581 402.618,407.272C402.618,403.781 404.945,401.454 408.436,401.454C411.927,401.454 414.254,403.781 414.254,407.272C414.254,420.072 409.599,432.872 401.454,442.181C399.127,443.345 396.8,443.345 395.636,443.345Z" style="fill:rgb(255,203,91);fill-rule:nonzero;"/>
                </g>
                <g transform="matrix(2.06201,0,0,2.062,11.8843,145.732)">
                    <path d="M360.727,442.182C353.745,442.182 349.091,437.527 349.091,430.546L349.091,384C349.091,377.018 353.746,372.364 360.727,372.364C367.709,372.364 372.363,377.019 372.363,384L372.363,430.545C372.364,437.527 367.709,442.182 360.727,442.182Z" style="fill:rgb(241,153,32);fill-rule:nonzero;"/>
                </g>
            </g>
        </g>
    </g>
</svg>
