<?xml version="1.0" encoding="UTF-8" standalone="no"?>
<!DOCTYPE svg PUBLIC "-//W3C//DTD SVG 1.1//EN" "http://www.w3.org/Graphics/SVG/1.1/DTD/svg11.dtd">
<svg width="100%" height="100%" viewBox="0 0 365 100" version="1.1" xmlns="http://www.w3.org/2000/svg" xmlns:xlink="http://www.w3.org/1999/xlink" xml:space="preserve" xmlns:serif="http://www.serif.com/" style="fill-rule:evenodd;clip-rule:evenodd;stroke-linejoin:round;stroke-miterlimit:1.41421;">
    <g id="Prancheta1" transform="matrix(0.100374,0,0,0.0833439,0.739197,13.1523)">
        <rect x="-7.364" y="-157.808" width="3636.4" height="1199.85" style="fill:none;"/>
        <g transform="matrix(0.987569,0,0,1.18936,-75.6502,-168.072)">
            <g transform="matrix(4.16667,0,0,4.16667,-7.39313,-25.8759)">
                <path d="M287.143,126.221C297.132,117.852 297.021,102.659 290.163,98.296C283.309,93.934 267.806,97.414 262.754,109.896C257.708,122.38 257.298,129.992 254.534,136.783C260.315,136.358 277.154,134.591 287.143,126.221ZM221.781,174.309C231.587,144.523 240.924,114.299 247.972,83.124C253.471,83.124 259.747,83.256 265.244,83.256L263.167,95.027C277.126,85.97 286.318,83.624 295.469,84.373C328.561,87.077 310.769,130.557 293.28,141.008C283.02,147.142 269.117,149.877 249.914,147.148C247.65,156.203 245.386,165.256 243.124,174.309C236.009,174.309 228.896,174.309 221.781,174.309Z" style="fill:rgb(34,31,32);"/>
            </g>
            <g transform="matrix(4.16667,0,0,4.16667,-7.39313,-25.8759)">
                <path d="M346.277,105.504C337.59,113.871 337.686,129.066 343.651,133.428C349.612,137.792 363.101,134.311 367.493,121.828C371.885,109.345 372.241,101.735 374.644,94.943C369.617,95.367 354.965,97.135 346.277,105.504ZM383.569,148.777C377.343,148.777 371.9,148.905 365.674,148.905L366.835,135.418C354.039,147.511 333.297,155.504 323.782,144.107C310.748,126.3 323.094,103.14 337.784,93.627C354.089,83.065 375.74,83.613 397.313,83.156C389.589,104.621 384.401,126.627 383.569,148.777Z" style="fill:rgb(34,31,32);"/>
            </g>
            <g transform="matrix(4.16667,0,0,4.16667,-7.39313,-25.8759)">
                <path d="M423.464,105.504C414.774,113.871 414.871,129.066 420.836,133.428C426.802,137.792 440.289,134.311 444.681,121.828C449.073,109.345 449.43,101.735 451.832,94.943C446.804,95.367 432.155,97.135 423.464,105.504ZM390.662,174.813L393.792,158.165C407.701,162.672 419.773,164.837 428.842,160.287C435.9,156.747 441.144,149.142 444.023,135.418C431.229,147.511 410.484,155.504 400.971,144.107C387.933,126.3 400.28,103.14 414.972,93.627C431.278,83.065 452.928,83.613 474.504,83.156C467.821,101.72 467.697,130.854 458.826,151.584C454.144,162.53 446.274,169.557 436.857,173.579C423.085,179.457 405.996,178.918 390.662,174.813Z" style="fill:rgb(34,31,32);"/>
            </g>
            <g transform="matrix(4.16667,0,0,4.16667,-7.39313,-25.8759)">
                <path d="M637.192,105.504C628.506,113.871 628.601,129.066 634.561,133.428C640.53,137.792 654.016,134.311 658.411,121.828C662.801,109.345 663.158,101.735 665.561,94.943C660.531,95.367 645.884,97.135 637.192,105.504ZM477.807,132.421C475.729,136.909 473.4,141.658 471.33,146.146C496.633,151.653 516.007,148.332 523.649,140.191C531.115,130.984 529.863,120.563 516.916,112.989C514.155,111.073 506.353,107.207 506.554,102.632C506.921,92.223 522.749,94.698 532.463,97.711L535.564,83.461C528.775,81.885 520.154,81.416 513.228,82.095C504.795,82.921 495.722,86.567 488.687,93.562C483.223,99.236 482.097,106.883 484.099,111.535C486.501,117.114 494.294,119.46 498.268,121.791C504.917,124.888 508.877,127.228 507.751,131.938C506.806,135.893 501.986,139.128 493.363,137.59C488.007,136.632 481.751,134.725 477.807,132.421ZM561.083,110.663C564.207,103.746 569.498,96.75 580.25,95.379C588.715,94.559 589.618,103.48 584.645,106.911C575.613,110.804 574.604,105.469 561.083,110.663ZM596.175,133.715C595.659,138.03 594.102,142.346 593.589,146.665C573.474,149.427 551.888,154.084 540.745,138.378C529.216,116.142 545.847,95.778 560.431,88.128C586.034,76.643 603.817,82.491 607.574,93.825C615.164,113.706 591.69,126.823 557.841,122.835C554.312,140.121 571.974,139.862 596.175,133.715ZM702.376,82.946C708.59,83.119 714.81,83.293 721.023,83.466C717.739,97.279 712.386,110.574 709.109,124.388C704.249,141.194 724.291,139.446 732.937,129.052C740.637,115.513 744.081,99.27 749.001,82.946C755.215,82.946 761.431,82.946 767.647,82.946C760.608,104.531 754.477,126.115 751.587,147.702C746.063,147.356 739.498,147.01 733.977,146.665C734.15,143.209 734.318,139.758 734.494,136.302C715.808,153.469 685.053,158 688.904,129.052C691.115,113.681 697.35,98.315 702.376,82.946ZM762.986,146.665C771.315,125.505 776.923,98.502 781.115,83.466L796.14,83.466L795.618,96.934C802.181,87.868 814.096,82.862 826.188,83.466L820.488,100.56C805.459,98.588 794.868,110.612 789.01,130.484C787.519,135.544 786.329,141.119 785.46,147.097L762.986,146.665ZM839.659,91.494C820.661,104.224 813.041,125.682 822.647,139.413C832.253,153.143 855.449,153.956 874.443,141.227C893.443,128.498 901.06,107.039 891.461,93.308C881.85,79.577 858.659,78.766 839.659,91.494ZM845.126,111.024C838.991,121.988 839.762,133.621 846.847,136.999C853.932,140.375 864.65,134.22 870.789,123.253C876.925,112.286 876.158,100.657 869.069,97.279C861.984,93.902 851.262,100.054 845.126,111.024ZM604.391,174.813L607.521,158.165C621.427,162.672 633.5,164.837 642.572,160.287C649.625,156.747 654.87,149.142 657.748,135.418C644.955,147.511 624.211,155.504 614.699,144.107C601.661,126.3 614.01,103.14 628.698,93.627C645.002,83.065 666.658,83.613 688.231,83.156C681.548,101.72 681.424,130.854 672.551,151.584C667.868,162.53 660.004,169.557 650.585,173.579C636.813,179.457 619.721,178.918 604.391,174.813Z" style="fill:rgb(165,206,57);"/>
            </g>
            <g transform="matrix(4.16667,0,0,4.16667,-7.39313,-25.8759)">
                <path d="M48.033,60.091C41.555,67.706 36.67,76.365 33.096,85.839C29.346,95.691 27.342,105.816 27.342,116.613C27.342,128.847 29.954,140.18 34.439,150.887C38.91,161.514 45.02,170.651 53.063,178.68C60.887,186.501 70.054,192.759 80.651,197.315C91.246,201.939 102.764,204.487 114.712,204.487C126.862,204.487 138.195,202.05 148.982,197.315C159.302,192.811 168.613,186.651 176.57,178.68C184.452,170.785 190.533,161.459 194.901,150.887C199.49,140.068 202.088,128.847 202.088,116.613C202.088,105.816 200.067,95.691 196.328,85.839C192.67,76.365 187.829,67.892 181.396,60.091C174.958,52.462 167.508,46.145 159.067,41.26C145.809,33.607 132.131,29.031 116.28,29.031C115.513,29.031 114.761,29.031 114.007,29.031C98.362,29.031 84.031,33.512 70.554,41.26C62.022,46.107 54.497,52.491 48.033,60.091Z" style="fill:rgb(34,31,32);"/>
            </g>
            <g transform="matrix(4.16667,0,0,4.16667,-7.39313,-25.8759)">
                <path d="M835.368,178.674C837.586,178.674 839.35,179.386 840.662,180.964C841.993,182.464 842.707,184.403 842.707,186.965C842.707,189.339 841.993,191.381 840.662,192.799C839.35,194.272 837.586,194.984 835.368,194.984C833.189,194.984 831.499,194.304 830.189,192.799C828.77,191.381 828.146,189.339 828.146,186.965C828.146,184.403 828.77,182.464 830.189,180.964C831.499,179.386 833.189,178.674 835.368,178.674ZM835.368,164.221C832.127,164.221 829.132,164.738 826.291,165.885C823.482,167.036 821.004,168.609 818.902,170.741C816.779,172.865 815.113,175.241 814.045,177.967C812.899,180.722 812.388,183.72 812.388,186.965C812.388,190.045 812.899,193.045 814.045,195.801C815.113,198.418 816.779,200.906 818.902,203.028C821.115,205.045 823.566,206.709 826.402,207.854C829.132,208.917 832.211,209.543 835.368,209.543C838.648,209.543 841.563,208.917 844.484,207.854C847.207,206.709 849.744,205.045 851.873,203.028C854.074,200.906 855.66,198.418 856.81,195.688C857.953,192.963 858.496,190.049 858.496,186.965C858.496,183.72 857.953,180.722 856.81,177.967C855.746,175.241 854.16,172.865 851.95,170.741C849.855,168.609 847.287,167.036 844.484,165.885C841.648,164.738 838.648,164.221 835.368,164.221Z" style="fill:rgb(34,31,32);"/>
            </g>
            <g transform="matrix(4.16667,0,0,4.16667,-7.39313,-25.8759)">
                <path d="M805.242,196.238C805.597,194.188 805.751,191.655 805.751,188.549L805.751,165.172L790.238,165.172L790.238,188.737C790.238,191.381 789.966,193.237 789.26,194.385C788.553,195.446 787.517,195.962 785.902,195.962C784.322,195.962 783.265,195.446 782.579,194.385C781.951,193.398 781.595,191.469 781.595,188.737L781.595,165.172L766.167,165.172L766.167,188.549C766.077,191.818 766.349,194.304 766.705,196.238C767.032,198.256 767.747,199.836 768.534,201.176C770.313,203.895 772.68,205.921 775.678,207.337C778.6,208.837 782.035,209.543 785.902,209.543C789.804,209.543 793.16,208.837 796.133,207.337C799.133,205.921 801.533,203.895 803.191,201.176C804.063,199.836 804.776,198.172 805.242,196.238Z" style="fill:rgb(34,31,32);"/>
            </g>
            <g transform="matrix(4.16667,0,0,4.16667,-7.39313,-25.8759)">
                <path d="M880.537,165.172L865.013,165.172L865.013,208.399L895.611,208.399L895.611,194.385L880.537,194.385L880.537,165.172Z" style="fill:rgb(34,31,32);"/>
            </g>
            <g transform="matrix(4.16667,0,0,4.16667,-7.39313,-25.8759)">
                <path d="M173.088,60.816C162.267,47.664 148.262,39.194 130.978,35.925C114.007,32.73 97.934,35.29 82.714,43.541C74.895,47.937 68.285,53.421 62.956,59.885C57.478,66.499 53.287,74.105 50.587,82.637C47.811,91.382 47.101,100.56 48.033,109.511C50.306,103.755 53.787,98.481 57.92,93.441C63.884,86.326 71.279,80.998 79.53,77.087C87.763,73.388 96.799,71.325 106.185,71.117C115.63,71.117 124.809,72.962 133.324,76.667C142.3,80.297 150.123,85.839 156.791,93.234C159.286,95.721 161.356,98.703 163.401,101.69C166.384,101.69 169.379,101.897 171.936,102.618C178.621,104.463 183.891,107.874 188.01,112.993L188.211,109.719C188.938,100.76 188.01,92.302 185.529,83.986C182.959,75.735 178.824,67.914 173.088,60.816Z" style="fill:rgb(243,169,52);"/>
            </g>
            <g transform="matrix(4.16667,0,0,4.16667,-7.39313,-25.8759)">
                <path d="M46.172,143.56C47.307,150.461 49.377,157.066 52.843,163.107C56.062,169.087 60.459,174.554 65.937,179.395L68.711,181.67C78.17,188.142 88.252,192.759 99.289,195.038C106.404,196.383 113.576,195.955 120.471,194.325C127.79,192.759 134.7,189.777 141.166,185.366C135.188,184.016 129.86,180.809 125.724,175.981L124.099,174.135C115.422,175.057 106.685,174.776 97.934,172.998C86.832,170.442 77.242,165.815 68.285,159.42C59.751,152.947 52.652,144.695 47.307,135.037L45.956,132.253C45.744,135.953 45.744,139.855 46.172,143.56Z" style="fill:rgb(243,169,52);"/>
            </g>
            <g transform="matrix(4.16667,0,0,4.16667,-7.39313,-25.8759)">
                <path d="M127.997,85.625C119.971,82.142 111.212,80.578 102.271,80.578C93.521,80.783 85.269,82.637 77.668,86.326C70.054,89.75 63.457,94.798 57.92,101.269C53.995,106.104 50.792,111.364 48.743,116.905C50.306,123.798 52.843,130.193 56.562,136.67C61.819,145.625 68.711,153.227 77.242,159.2C85.492,165.169 94.953,169.087 105.033,171.352C111.212,172.498 117.695,172.998 124.099,172.703C121.608,168.594 119.971,164.253 119.261,159.2C118.403,154.093 118.627,149.038 119.54,143.56C120.676,136.876 123.171,130.692 126.636,124.934C130.358,119.173 135.188,113.916 140.865,109.719C144.571,107.025 148.48,104.965 152.396,103.319L150.325,100.974C143.861,94.369 136.532,89.032 127.997,85.625Z" style="fill:rgb(218,72,55);"/>
            </g>
            <g transform="matrix(4.16667,0,0,4.16667,-7.39313,-25.8759)">
                <path d="M189.423,124.934L187.375,121.452C184.379,131.827 178.824,141.01 171.728,149.325C170.089,156.215 167.318,162.401 163.701,168.164C159.996,173.847 155.152,178.967 149.619,183.306C153.532,183.514 157.441,182.885 161.356,181.453C165.038,180.103 168.453,178.046 171.936,175.262C176.57,170.931 180.906,165.815 184.598,160.556L185.23,159.634C186.869,156.215 188.51,152.741 189.631,149.531C190.783,146.048 191.491,142.638 191.71,139.45C191.92,135.953 191.92,132.963 191.283,129.984C190.783,128.144 190.072,126.501 189.423,124.934Z" style="fill:rgb(238,138,48);"/>
            </g>
            <g transform="matrix(4.16667,0,0,4.16667,-7.39313,-25.8759)">
                <path d="M38.13,84.473C35.149,92.74 33.523,101.469 33.096,110.935C32.886,123.076 35.149,134.816 39.782,145.848C42.039,151.094 44.83,156.215 48.227,161.058C51.517,165.604 55.133,170.017 59.249,173.847C50.306,163.964 45.02,152.52 43.414,139.656C42.975,135.252 42.975,131.126 43.191,126.788C40.21,118.455 38.572,110.22 38.572,101.69C38.572,93.662 39.985,85.839 42.481,77.794C44.607,72.26 47.307,66.992 50.306,62.173C45.02,69.066 41.139,76.452 38.13,84.473Z" style="fill:rgb(227,106,52);"/>
            </g>
            <g transform="matrix(4.16667,0,0,4.16667,-7.39313,-25.8759)">
                <path d="M195.123,89.321C193.053,82.637 190.356,76.165 186.869,70.194C183.459,64.438 179.252,59.168 174.224,54.35C169.663,49.502 164.337,45.376 158.368,41.903C163.401,45.376 168.019,49.502 172.154,54.128C178.621,61.451 183.459,69.272 186.44,78.018C189.423,86.967 190.783,96.222 190.072,105.816C189.865,108.804 189.423,111.571 188.938,114.559C190.072,116.404 191.283,118.676 192.212,121.021C194.472,127.711 194.901,134.816 193.764,141.93C197.249,132.057 199.018,121.656 198.809,110.935C198.38,103.541 197.249,96.222 195.123,89.321Z" style="fill:rgb(227,106,52);"/>
            </g>
            <g transform="matrix(4.16667,0,0,4.16667,-7.39313,-25.8759)">
                <path d="M168.019,111.144C170.299,115.977 171.728,121.245 172.36,126.501C173.088,131.827 173.289,136.876 172.864,141.93L171.936,146.978C178.824,138.95 183.459,129.984 186.164,119.598C184.598,118.042 182.959,116.404 181.099,115.06C177.408,112.493 173.088,111.144 168.019,111.144Z" style="fill:rgb(227,106,52);"/>
            </g>
            <g transform="matrix(4.16667,0,0,4.16667,-7.39313,-25.8759)">
                <path d="M154.242,171.788C157.015,167.868 159.286,163.55 160.922,159.2C151.67,165.815 141.59,170.442 130.567,172.703C132.131,175.262 134.252,177.336 136.532,178.967C138.817,180.53 141.368,181.67 144.348,182.596C148.054,179.395 151.462,175.69 154.242,171.788Z" style="fill:rgb(218,72,55);"/>
            </g>
            <g transform="matrix(4.16667,0,0,4.16667,-7.39313,-25.8759)">
                <path d="M108.014,196.383L117.918,196.876C126.444,196.672 134.462,195.038 142.3,192.471C149.619,189.984 156.791,186.501 162.991,182.163C159.067,184.016 154.944,185.366 150.551,185.572C149.19,185.854 147.552,185.854 145.991,185.854C134.7,193.188 122.019,196.672 108.014,196.383Z" style="fill:rgb(218,72,55);"/>
            </g>
            <g transform="matrix(4.16667,0,0,4.16667,-7.39313,-25.8759)">
                <path d="M162.767,129.768C161.356,123.798 159.286,118.263 156.305,112.993C151.035,114.559 146.416,117.335 142.075,121.021C137.457,124.934 133.549,129.768 130.567,135.252C127.997,140.785 126.444,146.048 125.945,151.587C125.307,156.849 125.945,161.693 127.362,166.31C127.997,167.868 128.5,169.292 129.432,170.651C135.188,170.017 140.44,168.372 145.709,166.097C151.243,163.964 156.305,161.058 161.132,157.362L161.559,157.066C162.492,153.65 163.2,150.173 163.701,146.749C164.111,141.01 163.903,135.522 162.767,129.768Z" style="fill:rgb(250,231,55);"/>
            </g>
        </g>
    </g>
</svg>
