<?xml version="1.0" encoding="UTF-8" standalone="no"?>
<!DOCTYPE svg PUBLIC "-//W3C//DTD SVG 1.1//EN" "http://www.w3.org/Graphics/SVG/1.1/DTD/svg11.dtd">
<svg width="100%" height="100%" viewBox="0 0 512 480" version="1.1" xmlns="http://www.w3.org/2000/svg" xmlns:xlink="http://www.w3.org/1999/xlink" xml:space="preserve" xmlns:serif="http://www.serif.com/" style="fill-rule:evenodd;clip-rule:evenodd;stroke-linejoin:round;stroke-miterlimit:2;">
    <g>
        <path d="M496,0L16,0C7.2,0 0,7.2 0,16L0,464C0,472.8 7.2,480 16,480L496,480C504.8,480 512,472.8 512,464L512,16C512,7.2 504.8,0 496,0ZM496,456C496,460.4 492.4,464 488,464L24,464C19.6,464 16,460.4 16,456L16,72C16,67.6 19.6,64 24,64L488,64C492.4,64 496,67.6 496,72L496,456Z" style="fill:rgb(202,208,215);fill-rule:nonzero;"/>
        <path d="M490,40L118,40C114.7,40 112,37.3 112,34L112,30C112,26.7 114.7,24 118,24L490,24C493.3,24 496,26.7 496,30L496,34C496,37.3 493.3,40 490,40Z" style="fill:rgb(225,230,233);fill-rule:nonzero;"/>
        <path d="M24,40C19.6,40 16,36.4 16,32C16,27.6 19.6,24 24,24C28.4,24 32,27.6 32,32C32,36.4 28.4,40 24,40Z" style="fill:rgb(225,230,233);"/>
        <path d="M64,32C64,27.6 60.4,24 56,24C51.6,24 48,27.6 48,32C48,36.4 51.6,40 56,40C60.4,40 64,36.4 64,32Z" style="fill:rgb(225,230,233);"/>
        <path d="M96,32C96,27.6 92.4,24 88,24C83.6,24 80,27.6 80,32C80,36.4 83.6,40 88,40C92.4,40 96,36.4 96,32Z" style="fill:rgb(225,230,233);"/>
    </g>
    <g transform="matrix(1.16063,0,0,1.16063,-40.175,-69.1591)">
        <path d="M86.646,141.785L417.477,141.785C426.142,141.785 433.231,148.874 433.231,157.539L433.231,252.062C433.231,260.727 426.142,267.816 417.477,267.816L86.646,267.816C77.981,267.816 70.892,260.727 70.892,252.062L70.892,157.539C70.892,148.874 77.982,141.785 86.646,141.785Z" style="fill:rgb(202,208,215);fill-rule:nonzero;"/>
    </g>
    <g transform="matrix(1.16063,0,0,1.16063,-40.175,-69.1591)">
        <path d="M86.646,311.138L216.615,311.138C225.28,311.138 232.369,318.227 232.369,326.892L232.369,413.538C232.369,422.203 225.28,429.292 216.615,429.292L86.646,429.292C77.981,429.292 70.892,422.203 70.892,413.538L70.892,326.892C70.892,318.228 77.982,311.138 86.646,311.138ZM421.415,311.138L275.692,311.138C268.997,311.138 263.877,316.258 263.877,322.953C263.877,329.648 268.997,334.768 275.692,334.768L421.415,334.768C428.11,334.768 433.23,329.648 433.23,322.953C433.231,316.652 428.111,311.138 421.415,311.138ZM421.415,358.4L275.692,358.4C268.997,358.4 263.877,363.52 263.877,370.215C263.877,376.91 268.997,382.03 275.692,382.03L421.415,382.03C428.11,382.03 433.23,376.91 433.23,370.215C433.231,363.914 428.111,358.4 421.415,358.4ZM421.415,405.662L275.692,405.662C268.997,405.662 263.877,410.782 263.877,417.477C263.877,424.172 268.997,429.292 275.692,429.292L421.415,429.292C428.11,429.292 433.23,424.172 433.23,417.477C433.231,411.175 428.111,405.662 421.415,405.662Z" style="fill:rgb(202,208,215);fill-rule:nonzero;"/>
    </g>
</svg>
