<?xml version="1.0" encoding="UTF-8" standalone="no"?>
<!DOCTYPE svg PUBLIC "-//W3C//DTD SVG 1.1//EN" "http://www.w3.org/Graphics/SVG/1.1/DTD/svg11.dtd">
<svg width="100%" height="100%" viewBox="0 0 449 95" version="1.1" xmlns="http://www.w3.org/2000/svg" xmlns:xlink="http://www.w3.org/1999/xlink" xml:space="preserve" xmlns:serif="http://www.serif.com/" style="fill-rule:evenodd;clip-rule:evenodd;stroke-linejoin:round;stroke-miterlimit:2;">
    <g transform="matrix(1,0,0,1,-930.359,-2084.39)">
        <g id="Upload-Video" serif:id="Upload Video" transform="matrix(-1.43284,0,0,0.831303,2477.83,-1650.65)">
            <path d="M1080,4499.02C1080,4495.69 1078.44,4493 1076.51,4493L933.49,4493C931.564,4493 930,4495.69 930,4499.02L930,4600.98C930,4604.31 931.564,4607 933.49,4607L1076.51,4607C1078.44,4607 1080,4604.31 1080,4600.98L1080,4499.02Z" style="fill:rgb(235,239,243);"/>
            <path d="M1077.31,4604.75L1077.28,4604.77L1077.26,4604.78L1077.23,4604.8L1077.2,4604.82L1077.17,4604.83L1077.15,4604.84L1077.12,4604.86L1077.09,4604.87L1077.06,4604.88L1077.04,4604.89L1077.01,4604.9L1076.98,4604.91L1076.95,4604.92L1076.92,4604.93L1076.89,4604.94L1076.87,4604.95L1076.84,4604.96L1076.81,4604.96L1076.78,4604.97L1076.75,4604.97L1076.72,4604.98L1076.69,4604.98L1076.66,4604.99L1076.63,4604.99L1076.6,4604.99L1076.57,4604.99L1076.54,4604.99L1076.51,4604.99L1073.13,4604.99L1073.13,4607L1076.51,4607L1076.56,4607L1076.6,4607L1076.64,4607L1076.69,4606.99L1076.73,4606.99L1076.78,4606.98L1076.82,4606.98L1076.87,4606.97L1076.91,4606.96L1076.95,4606.95L1077,4606.94L1077.04,4606.93L1077.09,4606.92L1077.13,4606.91L1077.17,4606.89L1077.21,4606.88L1077.26,4606.86L1077.3,4606.85L1077.34,4606.83L1077.38,4606.81L1077.42,4606.79L1077.46,4606.77L1077.51,4606.75L1077.55,4606.73L1077.59,4606.71L1077.63,4606.68L1077.67,4606.66L1077.71,4606.64L1077.75,4606.61L1077.75,4606.61L1077.33,4604.74L1077.34,4604.74L1077.31,4604.75ZM1064.98,4607L1069.64,4607L1069.64,4604.99L1064.98,4604.99L1064.98,4607ZM1056.84,4607L1061.49,4607L1061.49,4604.99L1056.84,4604.99L1056.84,4607ZM1048.7,4607L1053.35,4607L1053.35,4604.99L1048.7,4604.99L1048.7,4607ZM1040.56,4607L1045.21,4607L1045.21,4604.99L1040.56,4604.99L1040.56,4607ZM1032.41,4607L1037.07,4607L1037.07,4604.99L1032.41,4604.99L1032.41,4607ZM1024.27,4607L1028.92,4607L1028.92,4604.99L1024.27,4604.99L1024.27,4607ZM1016.13,4607L1020.78,4607L1020.78,4604.99L1016.13,4604.99L1016.13,4607ZM1007.99,4607L1012.64,4607L1012.64,4604.99L1007.99,4604.99L1007.99,4607ZM999.844,4607L1004.5,4607L1004.5,4604.99L999.844,4604.99L999.844,4607ZM991.702,4607L996.355,4607L996.355,4604.99L991.702,4604.99L991.702,4607ZM983.56,4607L988.212,4607L988.212,4604.99L983.56,4604.99L983.56,4607ZM975.417,4607L980.07,4607L980.07,4604.99L975.417,4604.99L975.417,4607ZM967.275,4607L971.928,4607L971.928,4604.99L967.275,4604.99L967.275,4607ZM959.133,4607L963.785,4607L963.785,4604.99L959.133,4604.99L959.133,4607ZM950.99,4607L955.643,4607L955.643,4604.99L950.99,4604.99L950.99,4607ZM942.848,4607L947.501,4607L947.501,4604.99L942.848,4604.99L942.848,4607ZM934.706,4607L939.358,4607L939.358,4604.99L934.706,4604.99L934.706,4607ZM930,4600.98L930,4601.06L930.001,4601.14L930.003,4601.22L930.005,4601.3L930.007,4601.37L930.01,4601.45L930.014,4601.52L930.018,4601.6L930.023,4601.68L930.028,4601.75L930.034,4601.83L930.04,4601.9L930.047,4601.98L930.055,4602.05L930.062,4602.12L930.071,4602.2L930.08,4602.27L930.089,4602.34L930.099,4602.42L930.11,4602.49L930.121,4602.56L930.132,4602.63L930.144,4602.7L930.157,4602.77L930.17,4602.84L930.183,4602.91L930.197,4602.98L930.212,4603.05L930.227,4603.12L930.242,4603.19L930.274,4603.33L930.308,4603.46L930.344,4603.59L930.382,4603.72L930.421,4603.85L930.463,4603.98L930.505,4604.1L930.55,4604.23L930.596,4604.35L930.644,4604.47L930.694,4604.58L930.745,4604.7L930.797,4604.81L930.851,4604.92L930.907,4605.03L930.964,4605.13L931.023,4605.24L931.082,4605.34L931.144,4605.44L931.206,4605.53L931.27,4605.63L931.336,4605.72L931.374,4605.77L932.081,4604.18L932.054,4604.14L932.011,4604.08L931.968,4604.02L931.926,4603.95L931.885,4603.89L931.845,4603.82L931.806,4603.75L931.768,4603.68L931.731,4603.61L931.694,4603.53L931.659,4603.46L931.625,4603.38L931.592,4603.3L931.56,4603.23L931.53,4603.15L931.499,4603.06L931.471,4602.98L931.444,4602.89L931.417,4602.81L931.392,4602.72L931.368,4602.63L931.346,4602.54L931.323,4602.45L931.314,4602.41L931.304,4602.36L931.294,4602.32L931.285,4602.27L931.276,4602.22L931.267,4602.18L931.259,4602.13L931.252,4602.08L931.244,4602.04L931.236,4601.99L931.229,4601.94L931.223,4601.89L931.216,4601.84L931.21,4601.79L931.205,4601.75L931.2,4601.7L931.195,4601.65L931.19,4601.6L931.186,4601.55L931.182,4601.5L931.178,4601.45L931.175,4601.4L931.172,4601.35L931.17,4601.29L931.168,4601.24L931.166,4601.19L931.165,4601.14L931.164,4601.09L931.163,4601.04L931.163,4600.98L931.163,4598.49L930,4598.49L930,4600.98ZM1078.84,4600.98L1078.84,4601.04L1078.84,4601.09L1078.84,4601.14L1078.83,4601.19L1078.83,4601.24L1078.83,4601.29L1078.83,4601.35L1078.83,4601.4L1078.82,4601.45L1078.82,4601.5L1078.81,4601.55L1078.81,4601.6L1078.81,4601.65L1078.8,4601.7L1078.8,4601.75L1078.79,4601.79L1078.79,4601.81L1079.93,4602.23L1079.93,4602.2L1079.94,4602.12L1079.94,4602.05L1079.95,4601.98L1079.96,4601.9L1079.97,4601.83L1079.97,4601.75L1079.98,4601.68L1079.98,4601.6L1079.99,4601.52L1079.99,4601.45L1079.99,4601.37L1080,4601.3L1080,4601.22L1080,4601.14L1080,4601.06L1080,4600.98L1080,4594.22L1078.84,4594.22L1078.84,4600.98ZM930,4592.48L931.163,4592.48L931.163,4584.46L930,4584.46L930,4592.48ZM1078.84,4588.2L1080,4588.2L1080,4580.18L1078.84,4580.18L1078.84,4588.2ZM930,4578.45L931.163,4578.45L931.163,4570.43L930,4570.43L930,4578.45ZM1078.84,4574.17L1080,4574.17L1080,4566.15L1078.84,4566.15L1078.84,4574.17ZM930,4564.41L931.163,4564.41L931.163,4556.39L930,4556.39L930,4564.41ZM1078.84,4560.13L1080,4560.13L1080,4552.11L1078.84,4552.11L1078.84,4560.13ZM930,4550.38L931.163,4550.38L931.163,4542.36L930,4542.36L930,4550.38ZM1078.84,4546.1L1080,4546.1L1080,4538.08L1078.84,4538.08L1078.84,4546.1ZM930,4536.34L931.163,4536.34L931.163,4528.32L930,4528.32L930,4536.34ZM1078.84,4532.06L1080,4532.06L1080,4524.04L1078.84,4524.04L1078.84,4532.06ZM930,4522.31L931.163,4522.31L931.163,4514.29L930,4514.29L930,4522.31ZM1078.84,4518.03L1080,4518.03L1080,4510.01L1078.84,4510.01L1078.84,4518.03ZM930,4508.28L931.163,4508.28L931.163,4500.26L930,4500.26L930,4508.28ZM1077.06,4495.12L1077.09,4495.13L1077.12,4495.14L1077.15,4495.16L1077.17,4495.17L1077.2,4495.19L1077.23,4495.2L1077.26,4495.22L1077.28,4495.23L1077.31,4495.25L1077.34,4495.27L1077.36,4495.28L1077.41,4495.32L1077.47,4495.36L1077.52,4495.4L1077.57,4495.44L1077.62,4495.49L1077.67,4495.53L1077.71,4495.58L1077.76,4495.64L1077.81,4495.69L1077.86,4495.74L1077.9,4495.8L1077.95,4495.86L1077.99,4495.92L1078.03,4495.98L1078.07,4496.05L1078.12,4496.11L1078.15,4496.18L1078.19,4496.25L1078.23,4496.32L1078.27,4496.39L1078.31,4496.47L1078.34,4496.54L1078.38,4496.62L1078.41,4496.7L1078.44,4496.78L1078.47,4496.86L1078.5,4496.94L1078.53,4497.02L1078.56,4497.11L1078.58,4497.19L1078.61,4497.28L1078.63,4497.37L1078.65,4497.46L1078.68,4497.55L1078.69,4497.59L1078.7,4497.64L1078.71,4497.68L1078.71,4497.73L1078.72,4497.78L1078.73,4497.82L1078.74,4497.87L1078.75,4497.92L1078.76,4497.96L1078.76,4498.01L1078.77,4498.06L1078.78,4498.11L1078.78,4498.16L1078.79,4498.21L1078.8,4498.25L1078.8,4498.3L1078.81,4498.35L1078.81,4498.4L1078.81,4498.45L1078.82,4498.5L1078.82,4498.55L1078.83,4498.6L1078.83,4498.65L1078.83,4498.71L1078.83,4498.76L1078.83,4498.81L1078.84,4498.86L1078.84,4498.91L1078.84,4498.96L1078.84,4499.02L1078.84,4503.99L1080,4503.99L1080,4499.02L1080,4498.94L1080,4498.86L1080,4498.78L1080,4498.7L1079.99,4498.63L1079.99,4498.55L1079.99,4498.48L1079.98,4498.4L1079.98,4498.32L1079.97,4498.25L1079.97,4498.17L1079.96,4498.1L1079.95,4498.03L1079.94,4497.95L1079.94,4497.88L1079.93,4497.8L1079.92,4497.73L1079.91,4497.66L1079.9,4497.58L1079.89,4497.51L1079.88,4497.44L1079.87,4497.37L1079.86,4497.3L1079.84,4497.23L1079.83,4497.16L1079.82,4497.09L1079.8,4497.02L1079.79,4496.95L1079.77,4496.88L1079.76,4496.81L1079.73,4496.67L1079.69,4496.54L1079.66,4496.41L1079.62,4496.28L1079.58,4496.15L1079.54,4496.02L1079.5,4495.9L1079.45,4495.77L1079.4,4495.65L1079.36,4495.53L1079.31,4495.42L1079.26,4495.3L1079.2,4495.19L1079.15,4495.08L1079.09,4494.97L1079.04,4494.87L1078.98,4494.76L1078.92,4494.66L1078.86,4494.56L1078.79,4494.47L1078.73,4494.37L1078.66,4494.28L1078.6,4494.2L1078.53,4494.11L1078.46,4494.03L1078.39,4493.95L1078.32,4493.87L1078.25,4493.8L1078.17,4493.73L1078.1,4493.66L1078.02,4493.59L1077.95,4493.53L1077.87,4493.47L1077.79,4493.42L1077.75,4493.39L1077.71,4493.36L1077.67,4493.34L1077.63,4493.32L1077.59,4493.29L1077.55,4493.27L1077.51,4493.25L1077.46,4493.23L1077.42,4493.21L1077.38,4493.19L1077.34,4493.17L1077.33,4493.17L1077.06,4495.12ZM933.444,4493L933.4,4493L933.355,4493L933.31,4493.01L933.266,4493.01L933.221,4493.02L933.177,4493.02L933.133,4493.03L933.089,4493.04L933.045,4493.05L933.002,4493.06L932.958,4493.07L932.915,4493.08L932.872,4493.09L932.829,4493.11L932.787,4493.12L932.744,4493.14L932.702,4493.15L932.66,4493.17L932.618,4493.19L932.576,4493.21L932.535,4493.23L932.493,4493.25L932.452,4493.27L932.411,4493.29L932.371,4493.32L932.33,4493.34L932.29,4493.36L932.25,4493.39L932.211,4493.42L932.132,4493.47L932.054,4493.53L931.977,4493.59L931.902,4493.66L931.827,4493.73L931.753,4493.8L931.681,4493.87L931.609,4493.95L931.539,4494.03L931.47,4494.11L931.402,4494.2L931.336,4494.28L931.27,4494.37L931.206,4494.47L931.144,4494.56L931.082,4494.66L931.043,4494.73L931.856,4496.16L931.885,4496.11L931.926,4496.05L931.968,4495.98L932.011,4495.92L932.054,4495.86L932.099,4495.8L932.144,4495.74L932.191,4495.69L932.237,4495.64L932.285,4495.58L932.333,4495.53L932.382,4495.49L932.432,4495.44L932.483,4495.4L932.534,4495.36L932.585,4495.32L932.641,4495.28L932.664,4495.27L932.69,4495.25L932.716,4495.23L932.745,4495.22L932.771,4495.2L932.797,4495.19L932.826,4495.17L932.853,4495.16L932.88,4495.14L932.909,4495.13L932.936,4495.12L932.963,4495.11L932.992,4495.1L933.02,4495.09L933.049,4495.08L933.077,4495.07L933.105,4495.06L933.134,4495.05L933.163,4495.04L933.193,4495.04L933.221,4495.03L933.25,4495.03L933.28,4495.02L933.31,4495.02L933.339,4495.01L933.368,4495.01L933.399,4495.01L933.43,4495.01L933.46,4495.01L933.493,4495.01L935.43,4495.01L935.43,4493L933.49,4493L933.444,4493ZM938.92,4495.01L943.572,4495.01L943.572,4493L938.92,4493L938.92,4495.01ZM971.489,4495.01L976.142,4495.01L976.142,4493L971.489,4493L971.489,4495.01ZM947.062,4495.01L951.715,4495.01L951.715,4493L947.062,4493L947.062,4495.01ZM955.204,4495.01L959.857,4495.01L959.857,4493L955.204,4493L955.204,4495.01ZM963.347,4495.01L967.999,4495.01L967.999,4493L963.347,4493L963.347,4495.01ZM987.774,4495.01L992.426,4495.01L992.426,4493L987.774,4493L987.774,4495.01ZM995.916,4495.01L1000.57,4495.01L1000.57,4493L995.916,4493L995.916,4495.01ZM1004.06,4495.01L1008.71,4495.01L1008.71,4493L1004.06,4493L1004.06,4495.01ZM1012.2,4495.01L1016.85,4495.01L1016.85,4493L1012.2,4493L1012.2,4495.01ZM1020.34,4495.01L1025,4495.01L1025,4493L1020.34,4493L1020.34,4495.01ZM979.631,4495.01L984.284,4495.01L984.284,4493L979.631,4493L979.631,4495.01ZM1036.63,4495.01L1041.28,4495.01L1041.28,4493L1036.63,4493L1036.63,4495.01ZM1044.77,4495.01L1049.42,4495.01L1049.42,4493L1044.77,4493L1044.77,4495.01ZM1052.91,4495.01L1057.57,4495.01L1057.57,4493L1052.91,4493L1052.91,4495.01ZM1061.06,4495.01L1065.71,4495.01L1065.71,4493L1061.06,4493L1061.06,4495.01ZM1069.2,4495.01L1073.85,4495.01L1073.85,4493L1069.2,4493L1069.2,4495.01ZM1028.49,4495.01L1033.14,4495.01L1033.14,4493L1028.49,4493L1028.49,4495.01Z" style="fill:rgb(201,211,223);"/>
        </g>
        <g id="Upload-Video1" serif:id="Upload Video" transform="matrix(-1.43284,0,0,0.831303,2711.8,-1650.65)">
            <path d="M1080,4499.02C1080,4495.69 1078.44,4493 1076.51,4493L933.49,4493C931.564,4493 930,4495.69 930,4499.02L930,4600.98C930,4604.31 931.564,4607 933.49,4607L1076.51,4607C1078.44,4607 1080,4604.31 1080,4600.98L1080,4499.02Z" style="fill:rgb(235,239,243);"/>
            <path d="M1077.31,4604.75L1077.28,4604.77L1077.26,4604.78L1077.23,4604.8L1077.2,4604.82L1077.17,4604.83L1077.15,4604.84L1077.12,4604.86L1077.09,4604.87L1077.06,4604.88L1077.04,4604.89L1077.01,4604.9L1076.98,4604.91L1076.95,4604.92L1076.92,4604.93L1076.89,4604.94L1076.87,4604.95L1076.84,4604.96L1076.81,4604.96L1076.78,4604.97L1076.75,4604.97L1076.72,4604.98L1076.69,4604.98L1076.66,4604.99L1076.63,4604.99L1076.6,4604.99L1076.57,4604.99L1076.54,4604.99L1076.51,4604.99L1073.13,4604.99L1073.13,4607L1076.51,4607L1076.56,4607L1076.6,4607L1076.64,4607L1076.69,4606.99L1076.73,4606.99L1076.78,4606.98L1076.82,4606.98L1076.87,4606.97L1076.91,4606.96L1076.95,4606.95L1077,4606.94L1077.04,4606.93L1077.09,4606.92L1077.13,4606.91L1077.17,4606.89L1077.21,4606.88L1077.26,4606.86L1077.3,4606.85L1077.34,4606.83L1077.38,4606.81L1077.42,4606.79L1077.46,4606.77L1077.51,4606.75L1077.55,4606.73L1077.59,4606.71L1077.63,4606.68L1077.67,4606.66L1077.71,4606.64L1077.75,4606.61L1077.75,4606.61L1077.33,4604.74L1077.34,4604.74L1077.31,4604.75ZM1064.98,4607L1069.64,4607L1069.64,4604.99L1064.98,4604.99L1064.98,4607ZM1056.84,4607L1061.49,4607L1061.49,4604.99L1056.84,4604.99L1056.84,4607ZM1048.7,4607L1053.35,4607L1053.35,4604.99L1048.7,4604.99L1048.7,4607ZM1040.56,4607L1045.21,4607L1045.21,4604.99L1040.56,4604.99L1040.56,4607ZM1032.41,4607L1037.07,4607L1037.07,4604.99L1032.41,4604.99L1032.41,4607ZM1024.27,4607L1028.92,4607L1028.92,4604.99L1024.27,4604.99L1024.27,4607ZM1016.13,4607L1020.78,4607L1020.78,4604.99L1016.13,4604.99L1016.13,4607ZM1007.99,4607L1012.64,4607L1012.64,4604.99L1007.99,4604.99L1007.99,4607ZM999.844,4607L1004.5,4607L1004.5,4604.99L999.844,4604.99L999.844,4607ZM991.702,4607L996.355,4607L996.355,4604.99L991.702,4604.99L991.702,4607ZM983.56,4607L988.212,4607L988.212,4604.99L983.56,4604.99L983.56,4607ZM975.417,4607L980.07,4607L980.07,4604.99L975.417,4604.99L975.417,4607ZM967.275,4607L971.928,4607L971.928,4604.99L967.275,4604.99L967.275,4607ZM959.133,4607L963.785,4607L963.785,4604.99L959.133,4604.99L959.133,4607ZM950.99,4607L955.643,4607L955.643,4604.99L950.99,4604.99L950.99,4607ZM942.848,4607L947.501,4607L947.501,4604.99L942.848,4604.99L942.848,4607ZM934.706,4607L939.358,4607L939.358,4604.99L934.706,4604.99L934.706,4607ZM930,4600.98L930,4601.06L930.001,4601.14L930.003,4601.22L930.005,4601.3L930.007,4601.37L930.01,4601.45L930.014,4601.52L930.018,4601.6L930.023,4601.68L930.028,4601.75L930.034,4601.83L930.04,4601.9L930.047,4601.98L930.055,4602.05L930.062,4602.12L930.071,4602.2L930.08,4602.27L930.089,4602.34L930.099,4602.42L930.11,4602.49L930.121,4602.56L930.132,4602.63L930.144,4602.7L930.157,4602.77L930.17,4602.84L930.183,4602.91L930.197,4602.98L930.212,4603.05L930.227,4603.12L930.242,4603.19L930.274,4603.33L930.308,4603.46L930.344,4603.59L930.382,4603.72L930.421,4603.85L930.463,4603.98L930.505,4604.1L930.55,4604.23L930.596,4604.35L930.644,4604.47L930.694,4604.58L930.745,4604.7L930.797,4604.81L930.851,4604.92L930.907,4605.03L930.964,4605.13L931.023,4605.24L931.082,4605.34L931.144,4605.44L931.206,4605.53L931.27,4605.63L931.336,4605.72L931.374,4605.77L932.081,4604.18L932.054,4604.14L932.011,4604.08L931.968,4604.02L931.926,4603.95L931.886,4603.89L931.845,4603.82L931.806,4603.75L931.768,4603.68L931.731,4603.61L931.694,4603.53L931.659,4603.46L931.625,4603.38L931.592,4603.3L931.56,4603.23L931.529,4603.14L931.499,4603.06L931.471,4602.98L931.444,4602.89L931.417,4602.81L931.392,4602.72L931.368,4602.63L931.346,4602.54L931.323,4602.45L931.314,4602.41L931.304,4602.36L931.295,4602.32L931.285,4602.27L931.276,4602.22L931.267,4602.18L931.259,4602.13L931.252,4602.08L931.244,4602.04L931.236,4601.99L931.229,4601.94L931.223,4601.89L931.216,4601.84L931.211,4601.8L931.205,4601.75L931.2,4601.7L931.195,4601.65L931.19,4601.6L931.186,4601.55L931.182,4601.5L931.178,4601.45L931.175,4601.4L931.172,4601.35L931.17,4601.3L931.168,4601.24L931.166,4601.19L931.165,4601.14L931.164,4601.09L931.163,4601.04L931.163,4600.98L931.163,4598.49L930,4598.49L930,4600.98ZM1078.84,4600.98L1078.84,4601.04L1078.84,4601.09L1078.84,4601.14L1078.83,4601.19L1078.83,4601.24L1078.83,4601.3L1078.83,4601.35L1078.83,4601.4L1078.82,4601.45L1078.82,4601.5L1078.81,4601.55L1078.81,4601.6L1078.81,4601.65L1078.8,4601.7L1078.8,4601.75L1078.79,4601.79L1078.79,4601.81L1079.93,4602.23L1079.93,4602.2L1079.94,4602.12L1079.94,4602.05L1079.95,4601.98L1079.96,4601.9L1079.97,4601.83L1079.97,4601.75L1079.98,4601.68L1079.98,4601.6L1079.99,4601.52L1079.99,4601.45L1079.99,4601.37L1080,4601.3L1080,4601.22L1080,4601.14L1080,4601.06L1080,4600.98L1080,4594.22L1078.84,4594.22L1078.84,4600.98ZM930,4592.48L931.163,4592.48L931.163,4584.46L930,4584.46L930,4592.48ZM1078.84,4588.2L1080,4588.2L1080,4580.18L1078.84,4580.18L1078.84,4588.2ZM930,4578.45L931.163,4578.45L931.163,4570.43L930,4570.43L930,4578.45ZM1078.84,4574.17L1080,4574.17L1080,4566.15L1078.84,4566.15L1078.84,4574.17ZM930,4564.41L931.163,4564.41L931.163,4556.39L930,4556.39L930,4564.41ZM1078.84,4560.13L1080,4560.13L1080,4552.11L1078.84,4552.11L1078.84,4560.13ZM930,4550.38L931.163,4550.38L931.163,4542.36L930,4542.36L930,4550.38ZM1078.84,4546.1L1080,4546.1L1080,4538.08L1078.84,4538.08L1078.84,4546.1ZM930,4536.34L931.163,4536.34L931.163,4528.32L930,4528.32L930,4536.34ZM1078.84,4532.06L1080,4532.06L1080,4524.04L1078.84,4524.04L1078.84,4532.06ZM930,4522.31L931.163,4522.31L931.163,4514.29L930,4514.29L930,4522.31ZM1078.84,4518.03L1080,4518.03L1080,4510.01L1078.84,4510.01L1078.84,4518.03ZM930,4508.28L931.163,4508.28L931.163,4500.26L930,4500.26L930,4508.28ZM1077.06,4495.12L1077.09,4495.13L1077.12,4495.14L1077.15,4495.16L1077.17,4495.17L1077.2,4495.19L1077.23,4495.2L1077.26,4495.22L1077.28,4495.23L1077.31,4495.25L1077.34,4495.27L1077.36,4495.28L1077.41,4495.32L1077.47,4495.36L1077.52,4495.4L1077.57,4495.44L1077.62,4495.49L1077.67,4495.53L1077.71,4495.58L1077.76,4495.64L1077.81,4495.69L1077.86,4495.74L1077.9,4495.8L1077.95,4495.86L1077.99,4495.92L1078.03,4495.98L1078.07,4496.05L1078.12,4496.11L1078.15,4496.18L1078.19,4496.25L1078.23,4496.32L1078.27,4496.39L1078.31,4496.47L1078.34,4496.54L1078.38,4496.62L1078.41,4496.7L1078.44,4496.77L1078.47,4496.86L1078.5,4496.94L1078.53,4497.02L1078.56,4497.11L1078.58,4497.19L1078.61,4497.28L1078.63,4497.37L1078.65,4497.46L1078.68,4497.55L1078.69,4497.59L1078.7,4497.64L1078.71,4497.68L1078.71,4497.73L1078.72,4497.78L1078.73,4497.82L1078.74,4497.87L1078.75,4497.92L1078.76,4497.97L1078.76,4498.01L1078.77,4498.06L1078.78,4498.11L1078.78,4498.16L1078.79,4498.21L1078.8,4498.25L1078.8,4498.3L1078.81,4498.35L1078.81,4498.4L1078.81,4498.45L1078.82,4498.5L1078.82,4498.55L1078.83,4498.6L1078.83,4498.65L1078.83,4498.7L1078.83,4498.76L1078.83,4498.81L1078.84,4498.86L1078.84,4498.91L1078.84,4498.96L1078.84,4499.02L1078.84,4503.99L1080,4503.99L1080,4499.02L1080,4499.02L1080,4499.02L1080,4499.02L1080,4498.94L1080,4498.86L1080,4498.78L1080,4498.7L1079.99,4498.63L1079.99,4498.55L1079.99,4498.48L1079.98,4498.4L1079.98,4498.32L1079.97,4498.25L1079.97,4498.17L1079.96,4498.1L1079.95,4498.03L1079.94,4497.95L1079.94,4497.88L1079.93,4497.8L1079.92,4497.73L1079.91,4497.66L1079.9,4497.58L1079.89,4497.51L1079.88,4497.44L1079.87,4497.37L1079.86,4497.3L1079.84,4497.23L1079.83,4497.16L1079.82,4497.09L1079.8,4497.02L1079.79,4496.95L1079.77,4496.88L1079.76,4496.81L1079.73,4496.67L1079.69,4496.54L1079.66,4496.41L1079.62,4496.28L1079.58,4496.15L1079.54,4496.02L1079.5,4495.9L1079.45,4495.77L1079.4,4495.65L1079.36,4495.53L1079.31,4495.42L1079.26,4495.3L1079.2,4495.19L1079.15,4495.08L1079.09,4494.97L1079.04,4494.87L1078.98,4494.76L1078.92,4494.66L1078.86,4494.56L1078.79,4494.47L1078.73,4494.37L1078.66,4494.28L1078.6,4494.2L1078.53,4494.11L1078.46,4494.03L1078.39,4493.95L1078.32,4493.87L1078.25,4493.8L1078.17,4493.73L1078.1,4493.66L1078.02,4493.59L1077.95,4493.53L1077.87,4493.47L1077.79,4493.42L1077.75,4493.39L1077.71,4493.36L1077.67,4493.34L1077.63,4493.32L1077.59,4493.29L1077.55,4493.27L1077.51,4493.25L1077.46,4493.23L1077.42,4493.21L1077.38,4493.19L1077.34,4493.17L1077.33,4493.17L1077.06,4495.12ZM933.444,4493L933.4,4493L933.355,4493L933.31,4493.01L933.266,4493.01L933.221,4493.02L933.177,4493.02L933.133,4493.03L933.089,4493.04L933.045,4493.05L933.002,4493.06L932.958,4493.07L932.915,4493.08L932.872,4493.09L932.829,4493.11L932.787,4493.12L932.744,4493.14L932.702,4493.15L932.66,4493.17L932.618,4493.19L932.576,4493.21L932.535,4493.23L932.493,4493.25L932.452,4493.27L932.411,4493.29L932.371,4493.32L932.33,4493.34L932.29,4493.36L932.25,4493.39L932.211,4493.42L932.132,4493.47L932.054,4493.53L931.977,4493.59L931.902,4493.66L931.827,4493.73L931.753,4493.8L931.681,4493.87L931.609,4493.95L931.539,4494.03L931.47,4494.11L931.402,4494.2L931.336,4494.28L931.27,4494.37L931.206,4494.47L931.144,4494.56L931.082,4494.66L931.043,4494.73L931.856,4496.16L931.886,4496.11L931.926,4496.05L931.968,4495.98L932.011,4495.92L932.054,4495.86L932.099,4495.8L932.145,4495.74L932.19,4495.69L932.237,4495.64L932.285,4495.58L932.333,4495.53L932.382,4495.49L932.432,4495.44L932.483,4495.4L932.534,4495.36L932.585,4495.32L932.641,4495.28L932.664,4495.27L932.69,4495.25L932.716,4495.23L932.745,4495.22L932.771,4495.2L932.797,4495.19L932.827,4495.17L932.853,4495.16L932.88,4495.14L932.909,4495.13L932.936,4495.12L932.963,4495.11L932.993,4495.1L933.02,4495.09L933.048,4495.08L933.077,4495.07L933.105,4495.06L933.134,4495.05L933.163,4495.04L933.193,4495.04L933.221,4495.03L933.25,4495.03L933.28,4495.02L933.31,4495.02L933.339,4495.01L933.368,4495.01L933.399,4495.01L933.43,4495.01L933.46,4495.01L933.493,4495.01L935.43,4495.01L935.43,4493L933.49,4493L933.444,4493ZM938.92,4495.01L943.572,4495.01L943.572,4493L938.92,4493L938.92,4495.01ZM971.489,4495.01L976.142,4495.01L976.142,4493L971.489,4493L971.489,4495.01ZM947.062,4495.01L951.715,4495.01L951.715,4493L947.062,4493L947.062,4495.01ZM955.204,4495.01L959.857,4495.01L959.857,4493L955.204,4493L955.204,4495.01ZM963.347,4495.01L967.999,4495.01L967.999,4493L963.347,4493L963.347,4495.01ZM987.774,4495.01L992.426,4495.01L992.426,4493L987.774,4493L987.774,4495.01ZM995.916,4495.01L1000.57,4495.01L1000.57,4493L995.916,4493L995.916,4495.01ZM1004.06,4495.01L1008.71,4495.01L1008.71,4493L1004.06,4493L1004.06,4495.01ZM1012.2,4495.01L1016.85,4495.01L1016.85,4493L1012.2,4493L1012.2,4495.01ZM1020.34,4495.01L1025,4495.01L1025,4493L1020.34,4493L1020.34,4495.01ZM979.631,4495.01L984.284,4495.01L984.284,4493L979.631,4493L979.631,4495.01ZM1036.63,4495.01L1041.28,4495.01L1041.28,4493L1036.63,4493L1036.63,4495.01ZM1044.77,4495.01L1049.42,4495.01L1049.42,4493L1044.77,4493L1044.77,4495.01ZM1052.91,4495.01L1057.57,4495.01L1057.57,4493L1052.91,4493L1052.91,4495.01ZM1061.06,4495.01L1065.71,4495.01L1065.71,4493L1061.06,4493L1061.06,4495.01ZM1069.2,4495.01L1073.85,4495.01L1073.85,4493L1069.2,4493L1069.2,4495.01ZM1028.49,4495.01L1033.14,4495.01L1033.14,4493L1028.49,4493L1028.49,4495.01Z" style="fill:rgb(201,211,223);"/>
        </g>
    </g>
</svg>
