<?xml version="1.0" encoding="UTF-8" standalone="no"?>
<!DOCTYPE svg PUBLIC "-//W3C//DTD SVG 1.1//EN" "http://www.w3.org/Graphics/SVG/1.1/DTD/svg11.dtd">
<svg width="100%" height="100%" viewBox="0 0 450 115" version="1.1" xmlns="http://www.w3.org/2000/svg" xmlns:xlink="http://www.w3.org/1999/xlink" xml:space="preserve" xmlns:serif="http://www.serif.com/" style="fill-rule:evenodd;clip-rule:evenodd;stroke-linejoin:round;stroke-miterlimit:2;">
    <g transform="matrix(1,0,0,1,-930,-1183.16)">
        <g id="Upload-Video" serif:id="Upload Video" transform="matrix(2.99657,0,0,1,-1856.81,-3309.85)">
            <path d="M1080,4498C1080,4495.24 1079.25,4493 1078.33,4493L931.669,4493C930.748,4493 930,4495.24 930,4498L930,4602C930,4604.76 930.748,4607 931.669,4607L1078.33,4607C1079.25,4607 1080,4604.76 1080,4602L1080,4498Z" style="fill:rgb(235,239,243);"/>
            <path d="M935.435,4607L933.21,4607L933.21,4605.33L935.435,4605.33L935.435,4607ZM939.328,4607L937.103,4607L937.103,4605.33L939.328,4605.33L939.328,4607ZM943.221,4607L940.997,4607L940.997,4605.33L943.221,4605.33L943.221,4607ZM947.115,4607L944.89,4607L944.89,4605.33L947.115,4605.33L947.115,4607ZM951.008,4607L948.783,4607L948.783,4605.33L951.008,4605.33L951.008,4607ZM954.901,4607L952.677,4607L952.677,4605.33L954.901,4605.33L954.901,4607ZM958.795,4607L956.57,4607L956.57,4605.33L958.795,4605.33L958.795,4607ZM962.688,4607L960.463,4607L960.463,4605.33L962.688,4605.33L962.688,4607ZM966.581,4607L964.357,4607L964.357,4605.33L966.581,4605.33L966.581,4607ZM970.475,4607L968.25,4607L968.25,4605.33L970.475,4605.33L970.475,4607ZM974.368,4607L972.143,4607L972.143,4605.33L974.368,4605.33L974.368,4607ZM978.261,4607L976.037,4607L976.037,4605.33L978.261,4605.33L978.261,4607ZM982.155,4607L979.93,4607L979.93,4605.33L982.155,4605.33L982.155,4607ZM986.048,4607L983.823,4607L983.823,4605.33L986.048,4605.33L986.048,4607ZM989.941,4607L987.717,4607L987.717,4605.33L989.941,4605.33L989.941,4607ZM993.835,4607L991.61,4607L991.61,4605.33L993.835,4605.33L993.835,4607ZM997.728,4607L995.503,4607L995.503,4605.33L997.728,4605.33L997.728,4607ZM1001.62,4607L999.397,4607L999.397,4605.33L1001.62,4605.33L1001.62,4607ZM1005.51,4607L1003.29,4607L1003.29,4605.33L1005.51,4605.33L1005.51,4607ZM1009.41,4607L1007.18,4607L1007.18,4605.33L1009.41,4605.33L1009.41,4607ZM1013.3,4607L1011.08,4607L1011.08,4605.33L1013.3,4605.33L1013.3,4607ZM1017.2,4607L1014.97,4607L1014.97,4605.33L1017.2,4605.33L1017.2,4607ZM1021.09,4607L1018.86,4607L1018.86,4605.33L1021.09,4605.33L1021.09,4607ZM1024.98,4607L1022.76,4607L1022.76,4605.33L1024.98,4605.33L1024.98,4607ZM1028.88,4607L1026.65,4607L1026.65,4605.33L1028.88,4605.33L1028.88,4607ZM1032.77,4607L1030.54,4607L1030.54,4605.33L1032.77,4605.33L1032.77,4607ZM1036.66,4607L1034.44,4607L1034.44,4605.33L1036.66,4605.33L1036.66,4607ZM1040.56,4607L1038.33,4607L1038.33,4605.33L1040.56,4605.33L1040.56,4607ZM1044.45,4607L1042.22,4607L1042.22,4605.33L1044.45,4605.33L1044.45,4607ZM1048.34,4607L1046.12,4607L1046.12,4605.33L1048.34,4605.33L1048.34,4607ZM1052.24,4607L1050.01,4607L1050.01,4605.33L1052.24,4605.33L1052.24,4607ZM1056.13,4607L1053.9,4607L1053.9,4605.33L1056.13,4605.33L1056.13,4607ZM1060.02,4607L1057.8,4607L1057.8,4605.33L1060.02,4605.33L1060.02,4607ZM1063.91,4607L1061.69,4607L1061.69,4605.33L1063.91,4605.33L1063.91,4607ZM1067.81,4607L1065.58,4607L1065.58,4605.33L1067.81,4605.33L1067.81,4607ZM1071.7,4607L1069.48,4607L1069.48,4605.33L1071.7,4605.33L1071.7,4607ZM1075.6,4607L1073.37,4607L1073.37,4605.33L1075.6,4605.33L1075.6,4607ZM1079.4,4605.85L1079.39,4605.86L1079.36,4605.93L1079.33,4606.01L1079.3,4606.08L1079.26,4606.15L1079.23,4606.21L1079.2,4606.28L1079.16,4606.34L1079.13,4606.4L1079.09,4606.45L1079.06,4606.51L1079.02,4606.56L1078.98,4606.61L1078.94,4606.65L1078.92,4606.68L1078.9,4606.7L1078.89,4606.72L1078.87,4606.74L1078.85,4606.76L1078.83,4606.78L1078.81,4606.79L1078.79,4606.81L1078.77,4606.83L1078.75,4606.84L1078.73,4606.86L1078.71,4606.87L1078.69,4606.89L1078.67,4606.9L1078.65,4606.91L1078.63,4606.92L1078.61,4606.93L1078.59,4606.94L1078.57,4606.95L1078.54,4606.96L1078.52,4606.97L1078.5,4606.97L1078.48,4606.98L1078.46,4606.98L1078.44,4606.99L1078.42,4606.99L1078.4,4607L1078.37,4607L1078.35,4607L1078.33,4607L1077.26,4607L1077.26,4605.33L1078.33,4605.33L1078.35,4605.33L1078.36,4605.33L1078.38,4605.33L1078.39,4605.33L1078.4,4605.33L1078.42,4605.32L1078.43,4605.32L1078.45,4605.32L1078.46,4605.31L1078.47,4605.31L1078.49,4605.3L1078.5,4605.3L1078.52,4605.29L1078.53,4605.28L1078.54,4605.27L1078.56,4605.27L1078.57,4605.26L1078.58,4605.25L1078.6,4605.24L1078.61,4605.23L1078.62,4605.22L1078.64,4605.21L1078.65,4605.2L1078.66,4605.18L1078.67,4605.17L1078.69,4605.16L1078.7,4605.15L1078.71,4605.13L1078.73,4605.12L1078.74,4605.1L1078.76,4605.07L1078.79,4605.04L1078.81,4605.01L1078.84,4604.97L1078.86,4604.93L1078.88,4604.89L1078.91,4604.85L1078.93,4604.81L1078.95,4604.77L1078.97,4604.72L1079,4604.67L1079.02,4604.62L1079.04,4604.57L1079.04,4604.57L1079.4,4605.85ZM930.571,4602.55L930.574,4602.59L930.576,4602.63L930.579,4602.67L930.582,4602.71L930.585,4602.75L930.588,4602.79L930.591,4602.83L930.595,4602.87L930.598,4602.91L930.602,4602.95L930.606,4602.99L930.61,4603.03L930.615,4603.07L930.619,4603.11L930.624,4603.15L930.628,4603.18L930.633,4603.22L930.643,4603.3L930.654,4603.37L930.666,4603.44L930.678,4603.52L930.69,4603.59L930.703,4603.66L930.717,4603.73L930.731,4603.79L930.746,4603.86L930.761,4603.93L930.777,4603.99L930.793,4604.06L930.81,4604.12L930.827,4604.18L930.845,4604.24L930.864,4604.3L930.882,4604.36L930.901,4604.41L930.921,4604.47L930.941,4604.52L930.961,4604.57L930.982,4604.62L931.004,4604.67L931.025,4604.72L931.047,4604.77L931.07,4604.81L931.093,4604.85L931.116,4604.89L931.139,4604.93L931.163,4604.97L931.187,4605.01L931.211,4605.04L931.236,4605.07L931.263,4605.1L931.274,4605.12L931.286,4605.13L931.299,4605.15L931.312,4605.16L931.325,4605.17L931.338,4605.18L931.351,4605.2L931.364,4605.21L931.377,4605.22L931.391,4605.23L931.404,4605.24L931.417,4605.25L931.431,4605.26L931.444,4605.27L931.458,4605.27L931.471,4605.28L931.485,4605.29L931.499,4605.3L931.513,4605.3L931.527,4605.31L931.54,4605.31L931.554,4605.32L931.568,4605.32L931.583,4605.32L931.58,4605.32L931.541,4606.99L931.54,4606.98L931.519,4606.98L931.498,4606.97L931.477,4606.97L931.456,4606.96L931.435,4606.95L931.415,4606.94L931.394,4606.93L931.373,4606.92L931.353,4606.91L931.332,4606.9L931.312,4606.89L931.292,4606.87L931.272,4606.86L931.252,4606.84L931.232,4606.83L931.212,4606.81L931.192,4606.79L931.173,4606.78L931.153,4606.76L931.134,4606.74L931.114,4606.72L931.095,4606.7L931.076,4606.68L931.057,4606.65L931.019,4606.61L930.982,4606.56L930.945,4606.51L930.909,4606.45L930.874,4606.4L930.838,4606.34L930.804,4606.28L930.77,4606.21L930.736,4606.15L930.703,4606.08L930.671,4606.01L930.639,4605.93L930.607,4605.86L930.577,4605.78L930.547,4605.7L930.518,4605.62L930.489,4605.53L930.461,4605.45L930.434,4605.36L930.407,4605.27L930.381,4605.18L930.356,4605.09L930.332,4604.99L930.308,4604.89L930.285,4604.8L930.263,4604.69L930.242,4604.59L930.221,4604.49L930.202,4604.38L930.183,4604.28L930.165,4604.17L930.147,4604.06L930.131,4603.94L930.116,4603.83L930.108,4603.78L930.101,4603.72L930.094,4603.66L930.088,4603.6L930.081,4603.55L930.075,4603.49L930.069,4603.43L930.063,4603.37L930.058,4603.31L930.053,4603.25L930.048,4603.19L930.043,4603.13L930.038,4603.07L930.034,4603.01L930.03,4602.95L930.026,4602.89L930.023,4602.82L930.021,4602.8L930.571,4602.54L930.571,4602.55ZM1080,4601.39L1079.44,4601.39L1079.44,4594.72L1080,4594.72L1080,4601.39ZM930.556,4597.81L930,4597.81L930,4591.14L930.556,4591.14L930.556,4597.81ZM1080,4589.72L1079.44,4589.72L1079.44,4583.05L1080,4583.05L1080,4589.72ZM930.556,4586.14L930,4586.14L930,4579.47L930.556,4579.47L930.556,4586.14ZM1080,4578.05L1079.44,4578.05L1079.44,4571.39L1080,4571.39L1080,4578.05ZM930.556,4574.47L930,4574.47L930,4567.81L930.556,4567.81L930.556,4574.47ZM1080,4566.39L1079.44,4566.39L1079.44,4559.72L1080,4559.72L1080,4566.39ZM930.556,4562.81L930,4562.81L930,4556.14L930.556,4556.14L930.556,4562.81ZM1080,4554.72L1079.44,4554.72L1079.44,4548.06L1080,4548.06L1080,4554.72ZM930.556,4551.14L930,4551.14L930,4544.47L930.556,4544.47L930.556,4551.14ZM1080,4543.06L1079.44,4543.06L1079.44,4536.39L1080,4536.39L1080,4543.06ZM930.556,4539.47L930,4539.47L930,4532.81L930.556,4532.81L930.556,4539.47ZM1080,4531.39L1079.44,4531.39L1079.44,4524.72L1080,4524.72L1080,4531.39ZM930.556,4527.81L930,4527.81L930,4521.14L930.556,4521.14L930.556,4527.81ZM1080,4519.72L1079.44,4519.72L1079.44,4513.06L1080,4513.06L1080,4519.72ZM930.556,4516.14L930,4516.14L930,4509.47L930.556,4509.47L930.556,4516.14ZM1080,4508.06L1079.44,4508.06L1079.44,4501.39L1080,4501.39L1080,4508.06ZM930.557,4497.88L930.557,4497.87L930.557,4497.91L930.556,4497.96L930.556,4498.01L930.556,4504.47L930,4504.47L930,4498L930,4497.94L930.001,4497.87L930.001,4497.81L930.001,4497.81L930.557,4497.88ZM1078.73,4493.14L1078.75,4493.16L1078.77,4493.17L1078.79,4493.19L1078.81,4493.21L1078.83,4493.23L1078.85,4493.24L1078.87,4493.26L1078.89,4493.28L1078.9,4493.3L1078.92,4493.32L1078.94,4493.35L1078.98,4493.39L1079.02,4493.44L1079.06,4493.49L1079.09,4493.55L1079.13,4493.6L1079.16,4493.66L1079.2,4493.72L1079.23,4493.79L1079.26,4493.85L1079.3,4493.92L1079.33,4493.99L1079.36,4494.07L1079.39,4494.14L1079.42,4494.22L1079.45,4494.3L1079.48,4494.38L1079.51,4494.47L1079.54,4494.55L1079.57,4494.64L1079.59,4494.73L1079.62,4494.82L1079.64,4494.91L1079.67,4495.01L1079.69,4495.11L1079.71,4495.2L1079.74,4495.31L1079.76,4495.41L1079.78,4495.51L1079.8,4495.62L1079.82,4495.73L1079.84,4495.83L1079.85,4495.94L1079.87,4496.06L1079.88,4496.17L1079.89,4496.22L1079.9,4496.28L1079.91,4496.34L1079.91,4496.4L1079.92,4496.45L1079.92,4496.51L1079.93,4496.57L1079.94,4496.63L1079.94,4496.69L1079.95,4496.75L1079.95,4496.81L1079.96,4496.87L1079.96,4496.93L1079.97,4496.99L1079.97,4497.05L1079.97,4497.11L1079.98,4497.18L1079.98,4497.24L1079.98,4497.3L1079.99,4497.36L1079.99,4497.43L1079.99,4497.49L1079.99,4497.55L1080,4497.62L1080,4497.68L1080,4497.74L1080,4497.81L1080,4497.87L1080,4497.94L1080,4498L1079.44,4498.01L1079.44,4497.96L1079.44,4497.91L1079.44,4497.87L1079.44,4497.83L1079.44,4497.78L1079.44,4497.74L1079.44,4497.7L1079.44,4497.66L1079.44,4497.62L1079.43,4497.57L1079.43,4497.53L1079.43,4497.49L1079.43,4497.45L1079.43,4497.41L1079.42,4497.37L1079.42,4497.33L1079.42,4497.29L1079.41,4497.25L1079.41,4497.2L1079.41,4497.17L1079.4,4497.13L1079.4,4497.09L1079.4,4497.05L1079.39,4497.01L1079.39,4496.97L1079.39,4496.93L1079.38,4496.89L1079.38,4496.85L1079.37,4496.82L1079.37,4496.78L1079.36,4496.7L1079.35,4496.63L1079.33,4496.56L1079.32,4496.48L1079.31,4496.41L1079.3,4496.34L1079.28,4496.27L1079.27,4496.2L1079.25,4496.14L1079.24,4496.07L1079.22,4496.01L1079.21,4495.94L1079.19,4495.88L1079.17,4495.82L1079.15,4495.76L1079.14,4495.7L1079.12,4495.64L1079.1,4495.59L1079.08,4495.53L1079.06,4495.48L1079.04,4495.43L1079.02,4495.38L1079,4495.33L1078.97,4495.28L1078.95,4495.24L1078.93,4495.19L1078.91,4495.15L1078.88,4495.11L1078.86,4495.07L1078.84,4495.03L1078.81,4494.99L1078.79,4494.96L1078.76,4494.93L1078.74,4494.9L1078.73,4494.88L1078.71,4494.87L1078.7,4494.86L1078.69,4494.84L1078.67,4494.83L1078.66,4494.82L1078.65,4494.8L1078.64,4494.79L1078.62,4494.78L1078.61,4494.77L1078.6,4494.76L1078.6,4494.76L1078.72,4493.14L1078.73,4493.14ZM933.006,4494.67L931.67,4494.67L931.654,4494.67L931.64,4494.67L931.625,4494.67L931.611,4494.67L931.597,4494.67L931.583,4494.68L931.568,4494.68L931.555,4494.68L931.54,4494.69L931.526,4494.69L931.512,4494.7L931.499,4494.7L931.485,4494.71L931.471,4494.72L931.458,4494.73L931.444,4494.73L931.431,4494.74L931.417,4494.75L931.404,4494.76L931.391,4494.77L931.377,4494.78L931.364,4494.79L931.351,4494.8L931.338,4494.82L931.325,4494.83L931.312,4494.84L931.299,4494.86L931.286,4494.87L931.274,4494.88L931.263,4494.9L931.236,4494.93L931.211,4494.96L931.187,4494.99L931.163,4495.03L931.139,4495.07L931.116,4495.11L931.105,4495.13L930.822,4493.69L930.838,4493.66L930.874,4493.6L930.909,4493.55L930.945,4493.49L930.982,4493.44L931.019,4493.39L931.057,4493.35L931.076,4493.32L931.095,4493.3L931.114,4493.28L931.134,4493.26L931.153,4493.24L931.173,4493.23L931.192,4493.21L931.212,4493.19L931.232,4493.17L931.252,4493.16L931.272,4493.14L931.292,4493.13L931.312,4493.11L931.332,4493.1L931.353,4493.09L931.373,4493.08L931.394,4493.07L931.415,4493.06L931.435,4493.05L931.456,4493.04L931.477,4493.03L931.498,4493.03L931.519,4493.02L931.54,4493.02L931.561,4493.01L931.583,4493.01L931.604,4493L931.626,4493L931.647,4493L931.669,4493L933.006,4493L933.006,4494.67ZM999.192,4494.67L996.968,4494.67L996.968,4493L999.192,4493L999.192,4494.67ZM995.299,4494.67L993.074,4494.67L993.074,4493L995.299,4493L995.299,4494.67ZM991.406,4494.67L989.181,4494.67L989.181,4493L991.406,4493L991.406,4494.67ZM987.512,4494.67L985.288,4494.67L985.288,4493L987.512,4493L987.512,4494.67ZM983.619,4494.67L981.394,4494.67L981.394,4493L983.619,4493L983.619,4494.67ZM979.726,4494.67L977.501,4494.67L977.501,4493L979.726,4493L979.726,4494.67ZM975.832,4494.67L973.608,4494.67L973.608,4493L975.832,4493L975.832,4494.67ZM971.939,4494.67L969.714,4494.67L969.714,4493L971.939,4493L971.939,4494.67ZM1003.09,4494.67L1000.86,4494.67L1000.86,4493L1003.09,4493L1003.09,4494.67ZM964.152,4494.67L961.927,4494.67L961.927,4493L964.152,4493L964.152,4494.67ZM960.259,4494.67L958.034,4494.67L958.034,4493L960.259,4493L960.259,4494.67ZM956.366,4494.67L954.141,4494.67L954.141,4493L956.366,4493L956.366,4494.67ZM952.472,4494.67L950.247,4494.67L950.247,4493L952.472,4493L952.472,4494.67ZM944.686,4494.67L942.461,4494.67L942.461,4493L944.686,4493L944.686,4494.67ZM940.792,4494.67L938.567,4494.67L938.567,4493L940.792,4493L940.792,4494.67ZM936.899,4494.67L934.674,4494.67L934.674,4493L936.899,4493L936.899,4494.67ZM968.046,4494.67L965.821,4494.67L965.821,4493L968.046,4493L968.046,4494.67ZM1006.98,4494.67L1004.75,4494.67L1004.75,4493L1006.98,4493L1006.98,4494.67ZM1010.87,4494.67L1008.65,4494.67L1008.65,4493L1010.87,4493L1010.87,4494.67ZM1014.77,4494.67L1012.54,4494.67L1012.54,4493L1014.77,4493L1014.77,4494.67ZM1018.66,4494.67L1016.43,4494.67L1016.43,4493L1018.66,4493L1018.66,4494.67ZM1022.55,4494.67L1020.33,4494.67L1020.33,4493L1022.55,4493L1022.55,4494.67ZM1026.45,4494.67L1024.22,4494.67L1024.22,4493L1026.45,4493L1026.45,4494.67ZM1030.34,4494.67L1028.11,4494.67L1028.11,4493L1030.34,4493L1030.34,4494.67ZM948.579,4494.67L946.354,4494.67L946.354,4493L948.579,4493L948.579,4494.67ZM1038.13,4494.67L1035.9,4494.67L1035.9,4493L1038.13,4493L1038.13,4494.67ZM1042.02,4494.67L1039.79,4494.67L1039.79,4493L1042.02,4493L1042.02,4494.67ZM1045.91,4494.67L1043.69,4494.67L1043.69,4493L1045.91,4493L1045.91,4494.67ZM1049.81,4494.67L1047.58,4494.67L1047.58,4493L1049.81,4493L1049.81,4494.67ZM1053.7,4494.67L1051.47,4494.67L1051.47,4493L1053.7,4493L1053.7,4494.67ZM1077.06,4494.67L1074.83,4494.67L1074.83,4493L1077.06,4493L1077.06,4494.67ZM1057.59,4494.67L1055.37,4494.67L1055.37,4493L1057.59,4493L1057.59,4494.67ZM1061.49,4494.67L1059.26,4494.67L1059.26,4493L1061.49,4493L1061.49,4494.67ZM1065.38,4494.67L1063.15,4494.67L1063.15,4493L1065.38,4493L1065.38,4494.67ZM1069.27,4494.67L1067.05,4494.67L1067.05,4493L1069.27,4493L1069.27,4494.67ZM1073.17,4494.67L1070.94,4494.67L1070.94,4493L1073.17,4493L1073.17,4494.67ZM1034.23,4494.67L1032.01,4494.67L1032.01,4493L1034.23,4493L1034.23,4494.67Z" style="fill:rgb(201,211,223);"/>
        </g>
    </g>
</svg>
