<?xml version="1.0" encoding="UTF-8" standalone="no"?>
<!DOCTYPE svg PUBLIC "-//W3C//DTD SVG 1.1//EN" "http://www.w3.org/Graphics/SVG/1.1/DTD/svg11.dtd">
<svg width="100%" height="100%" viewBox="0 0 450 95" version="1.1" xmlns="http://www.w3.org/2000/svg" xmlns:xlink="http://www.w3.org/1999/xlink" xml:space="preserve" xmlns:serif="http://www.serif.com/" style="fill-rule:evenodd;clip-rule:evenodd;stroke-linejoin:round;stroke-miterlimit:2;">
    <g transform="matrix(1,0,0,1,-930.302,-1655.81)">
        <g id="Upload-Video" serif:id="Upload Video" transform="matrix(-0.666911,0,0,0.831303,1999.71,-2079.23)">
            <path d="M1080,4499.02C1080,4495.69 1076.64,4493 1072.5,4493L937.497,4493C933.359,4493 930,4495.69 930,4499.02L930,4600.98C930,4604.31 933.359,4607 937.497,4607L1072.5,4607C1076.64,4607 1080,4604.31 1080,4600.98L1080,4499.02Z" style="fill:rgb(235,239,243);"/>
            <path d="M1059.9,4607L1069.9,4607L1069.9,4604.99L1059.9,4604.99L1059.9,4607ZM1042.41,4607L1052.4,4607L1052.4,4604.99L1042.41,4604.99L1042.41,4607ZM1024.91,4607L1034.91,4607L1034.91,4604.99L1024.91,4604.99L1024.91,4607ZM1007.42,4607L1017.42,4607L1017.42,4604.99L1007.42,4604.99L1007.42,4607ZM989.927,4607L999.923,4607L999.923,4604.99L989.927,4604.99L989.927,4607ZM972.433,4607L982.429,4607L982.429,4604.99L972.433,4604.99L972.433,4607ZM954.939,4607L964.936,4607L964.936,4604.99L954.939,4604.99L954.939,4607ZM937.446,4607L937.497,4607L947.442,4607L947.442,4604.99L937.506,4604.99L937.464,4604.99L937.446,4607ZM1077.5,4600.98L1077.5,4601.04L1077.5,4601.09L1077.5,4601.14L1077.49,4601.19L1077.49,4601.24L1077.49,4601.3L1077.48,4601.35L1077.47,4601.4L1077.47,4601.45L1077.46,4601.5L1077.45,4601.55L1077.44,4601.6L1077.43,4601.65L1077.42,4601.7L1077.41,4601.74L1077.4,4601.79L1077.39,4601.84L1077.37,4601.89L1077.36,4601.94L1077.34,4601.99L1077.33,4602.03L1077.31,4602.08L1077.29,4602.13L1077.28,4602.18L1077.26,4602.22L1077.24,4602.27L1077.22,4602.32L1077.2,4602.36L1077.18,4602.41L1077.16,4602.45L1077.11,4602.54L1077.06,4602.63L1077.01,4602.72L1076.95,4602.81L1076.9,4602.89L1076.84,4602.98L1076.78,4603.06L1076.71,4603.14L1076.65,4603.22L1076.58,4603.3L1076.51,4603.38L1076.44,4603.46L1076.36,4603.53L1076.28,4603.61L1076.2,4603.68L1076.12,4603.75L1076.04,4603.82L1075.95,4603.89L1075.86,4603.95L1075.77,4604.02L1075.68,4604.08L1075.59,4604.14L1075.53,4604.17L1077.05,4605.76L1077.13,4605.72L1077.27,4605.63L1077.41,4605.53L1077.54,4605.44L1077.67,4605.34L1077.8,4605.24L1077.93,4605.13L1078.05,4605.03L1078.17,4604.92L1078.29,4604.81L1078.4,4604.7L1078.51,4604.58L1078.62,4604.47L1078.72,4604.35L1078.82,4604.23L1078.91,4604.1L1079.01,4603.98L1079.1,4603.85L1079.18,4603.72L1079.26,4603.59L1079.34,4603.46L1079.41,4603.33L1079.48,4603.19L1079.51,4603.12L1079.55,4603.05L1079.58,4602.98L1079.61,4602.91L1079.63,4602.84L1079.66,4602.77L1079.69,4602.7L1079.71,4602.63L1079.74,4602.56L1079.76,4602.49L1079.79,4602.42L1079.81,4602.34L1079.83,4602.27L1079.85,4602.2L1079.87,4602.12L1079.88,4602.05L1079.9,4601.98L1079.91,4601.9L1079.93,4601.83L1079.94,4601.75L1079.95,4601.68L1079.96,4601.6L1079.97,4601.52L1079.98,4601.45L1079.99,4601.37L1079.99,4601.3L1079.99,4601.22L1080,4601.14L1080,4601.06L1080,4600.98L1080,4598.49L1077.5,4598.49L1077.5,4600.98ZM930,4600.98L930.001,4601.06L930.002,4601.14L930.006,4601.22L930.01,4601.3L930.015,4601.37L930.022,4601.45L930.03,4601.52L930.039,4601.6L930.049,4601.68L930.06,4601.75L930.073,4601.83L930.086,4601.9L930.101,4601.98L930.117,4602.05L930.134,4602.12L930.152,4602.2L930.172,4602.27L930.192,4602.34L930.214,4602.42L930.236,4602.49L930.26,4602.56L930.285,4602.63L930.31,4602.7L930.337,4602.77L930.365,4602.84L930.394,4602.91L930.424,4602.98L930.455,4603.05L930.487,4603.12L930.52,4603.19L930.59,4603.33L930.663,4603.46L930.74,4603.59L930.821,4603.72L930.905,4603.85L930.994,4603.98L931.086,4604.1L931.161,4604.2L933.283,4603.14L933.222,4603.06L933.16,4602.98L933.101,4602.89L933.045,4602.81L932.991,4602.72L932.94,4602.63L932.891,4602.54L932.842,4602.45L932.823,4602.41L932.802,4602.36L932.782,4602.32L932.761,4602.27L932.742,4602.22L932.724,4602.18L932.706,4602.13L932.688,4602.08L932.673,4602.04L932.657,4601.99L932.642,4601.94L932.627,4601.89L932.613,4601.84L932.601,4601.79L932.589,4601.75L932.577,4601.7L932.567,4601.65L932.557,4601.6L932.548,4601.55L932.539,4601.5L932.532,4601.45L932.525,4601.4L932.519,4601.35L932.514,4601.3L932.509,4601.25L932.506,4601.19L932.503,4601.14L932.501,4601.09L932.5,4601.04L932.499,4600.98L932.499,4596.36L930,4596.36L930,4600.98ZM1077.5,4592.48L1080,4592.48L1080,4584.45L1077.5,4584.45L1077.5,4592.48ZM930,4590.34L932.499,4590.34L932.499,4582.32L930,4582.32L930,4590.34ZM1077.5,4578.44L1080,4578.44L1080,4570.42L1077.5,4570.42L1077.5,4578.44ZM930,4576.31L932.499,4576.31L932.499,4568.29L930,4568.29L930,4576.31ZM1077.5,4564.41L1080,4564.41L1080,4556.39L1077.5,4556.39L1077.5,4564.41ZM930,4562.28L932.499,4562.28L932.499,4554.26L930,4554.26L930,4562.28ZM1077.5,4550.37L1080,4550.37L1080,4542.35L1077.5,4542.35L1077.5,4550.37ZM930,4548.24L932.499,4548.24L932.499,4540.22L930,4540.22L930,4548.24ZM1077.5,4536.34L1080,4536.34L1080,4528.32L1077.5,4528.32L1077.5,4536.34ZM930,4534.21L932.499,4534.21L932.499,4526.19L930,4526.19L930,4534.21ZM1077.5,4522.3L1080,4522.3L1080,4514.28L1077.5,4514.28L1077.5,4522.3ZM930,4520.17L932.499,4520.17L932.499,4512.15L930,4512.15L930,4520.17ZM1077.5,4508.27L1080,4508.27L1080,4500.25L1077.5,4500.25L1077.5,4508.27ZM930.073,4498.17L930.06,4498.25L930.049,4498.32L930.039,4498.4L930.03,4498.48L930.022,4498.55L930.015,4498.63L930.01,4498.7L930.006,4498.78L930.002,4498.86L930.001,4498.94L930,4499.02L930,4506.14L932.499,4506.14L932.499,4499.02L932.5,4498.96L932.501,4498.91L932.503,4498.86L932.506,4498.81L932.509,4498.75L932.514,4498.7L932.519,4498.65L932.525,4498.6L932.532,4498.55L932.539,4498.5L932.548,4498.45L932.555,4498.41L930.082,4498.12L930.073,4498.17ZM1073.69,4495.12L1073.69,4495.12L1073.75,4495.13L1073.81,4495.14L1073.87,4495.16L1073.93,4495.17L1073.99,4495.19L1074.05,4495.2L1074.11,4495.22L1074.16,4495.23L1074.22,4495.25L1074.28,4495.27L1074.33,4495.28L1074.45,4495.32L1074.56,4495.36L1074.67,4495.4L1074.77,4495.44L1074.88,4495.49L1074.99,4495.54L1075.09,4495.58L1075.19,4495.64L1075.3,4495.69L1075.39,4495.74L1075.49,4495.8L1075.59,4495.86L1075.68,4495.92L1075.77,4495.98L1075.86,4496.05L1075.95,4496.11L1076.04,4496.18L1076.12,4496.25L1076.2,4496.32L1076.28,4496.39L1076.36,4496.47L1076.43,4496.54L1076.51,4496.62L1076.58,4496.7L1076.65,4496.78L1076.71,4496.86L1076.78,4496.94L1076.84,4497.02L1076.9,4497.11L1076.95,4497.19L1077.01,4497.28L1077.06,4497.37L1077.11,4497.46L1077.16,4497.55L1077.18,4497.59L1077.2,4497.64L1077.22,4497.68L1077.24,4497.73L1077.26,4497.78L1077.28,4497.82L1077.29,4497.87L1077.31,4497.92L1077.33,4497.97L1077.34,4498.01L1077.36,4498.06L1077.37,4498.11L1077.39,4498.16L1077.4,4498.21L1077.41,4498.26L1077.42,4498.3L1077.43,4498.35L1077.44,4498.4L1077.45,4498.45L1077.46,4498.5L1077.47,4498.55L1077.47,4498.6L1077.48,4498.65L1077.49,4498.7L1077.49,4498.76L1077.49,4498.81L1077.5,4498.86L1077.5,4498.91L1077.5,4498.96L1077.5,4499.03L1080,4499.02L1080,4499.02L1080,4498.94L1080,4498.86L1079.99,4498.78L1079.99,4498.7L1079.99,4498.63L1079.98,4498.55L1079.97,4498.48L1079.96,4498.4L1079.95,4498.32L1079.94,4498.25L1079.93,4498.17L1079.91,4498.1L1079.9,4498.03L1079.88,4497.95L1079.87,4497.88L1079.85,4497.8L1079.83,4497.73L1079.81,4497.66L1079.79,4497.58L1079.76,4497.51L1079.74,4497.44L1079.71,4497.37L1079.69,4497.3L1079.66,4497.23L1079.63,4497.16L1079.61,4497.09L1079.58,4497.02L1079.55,4496.95L1079.51,4496.88L1079.48,4496.81L1079.41,4496.67L1079.34,4496.54L1079.26,4496.41L1079.18,4496.28L1079.1,4496.15L1079.01,4496.02L1078.91,4495.9L1078.82,4495.77L1078.72,4495.65L1078.62,4495.53L1078.51,4495.42L1078.4,4495.3L1078.29,4495.19L1078.17,4495.08L1078.05,4494.97L1077.93,4494.87L1077.8,4494.76L1077.67,4494.66L1077.54,4494.56L1077.41,4494.47L1077.27,4494.37L1077.13,4494.28L1076.99,4494.2L1076.84,4494.11L1076.69,4494.03L1076.54,4493.95L1076.39,4493.87L1076.23,4493.8L1076.08,4493.73L1075.91,4493.66L1075.75,4493.59L1075.59,4493.53L1075.42,4493.47L1075.25,4493.42L1075.16,4493.39L1075.08,4493.36L1074.99,4493.34L1074.91,4493.32L1074.82,4493.29L1074.73,4493.27L1074.64,4493.25L1074.55,4493.23L1074.46,4493.21L1074.38,4493.19L1074.29,4493.17L1074.27,4493.17L1073.69,4495.12ZM937.4,4493L937.304,4493L937.208,4493L937.112,4493.01L937.016,4493.01L936.921,4493.02L936.826,4493.02L936.731,4493.03L936.637,4493.04L936.543,4493.05L936.449,4493.06L936.356,4493.07L936.263,4493.08L936.171,4493.09L936.079,4493.11L935.987,4493.12L935.896,4493.14L935.805,4493.15L935.715,4493.17L935.624,4493.19L935.535,4493.21L935.446,4493.23L935.357,4493.25L935.269,4493.27L935.181,4493.29L935.094,4493.32L935.007,4493.34L934.921,4493.36L934.835,4493.39L934.749,4493.42L934.58,4493.47L934.428,4493.53L935.429,4495.36L935.554,4495.32L935.673,4495.28L935.724,4495.27L935.782,4495.25L935.839,4495.23L935.894,4495.22L935.951,4495.2L936.012,4495.19L936.071,4495.17L936.13,4495.16L936.189,4495.14L936.247,4495.13L936.307,4495.12L936.368,4495.11L936.427,4495.1L936.489,4495.09L936.551,4495.08L936.612,4495.07L936.672,4495.06L936.733,4495.05L936.794,4495.04L936.859,4495.04L936.921,4495.03L936.984,4495.03L937.047,4495.02L937.111,4495.02L937.175,4495.01L937.237,4495.01L937.302,4495.01L937.368,4495.01L937.434,4495.01L937.506,4495.01L944.331,4495.01L944.331,4493L937.497,4493L937.4,4493ZM1056.79,4495.01L1066.79,4495.01L1066.79,4493L1056.79,4493L1056.79,4495.01ZM1039.3,4495.01L1049.29,4495.01L1049.29,4493L1039.3,4493L1039.3,4495.01ZM1021.8,4495.01L1031.8,4495.01L1031.8,4493L1021.8,4493L1021.8,4495.01ZM1004.31,4495.01L1014.31,4495.01L1014.31,4493L1004.31,4493L1004.31,4495.01ZM986.815,4495.01L996.812,4495.01L996.812,4493L986.815,4493L986.815,4495.01ZM969.322,4495.01L979.318,4495.01L979.318,4493L969.322,4493L969.322,4495.01ZM951.828,4495.01L961.825,4495.01L961.825,4493L951.828,4493L951.828,4495.01Z" style="fill:rgb(201,211,223);"/>
        </g>
        <g id="Upload-Video1" serif:id="Upload Video" transform="matrix(-0.666911,0,0,0.831303,1883.33,-2079.23)">
            <path d="M1080,4499.02C1080,4495.69 1076.64,4493 1072.5,4493L937.497,4493C933.359,4493 930,4495.69 930,4499.02L930,4600.98C930,4604.31 933.359,4607 937.497,4607L1072.5,4607C1076.64,4607 1080,4604.31 1080,4600.98L1080,4499.02Z" style="fill:rgb(235,239,243);"/>
            <path d="M1061.57,4607L1072.04,4607L1072.04,4604.9L1061.57,4604.9L1061.57,4607ZM1043.24,4607L1053.71,4607L1053.71,4604.9L1043.24,4604.9L1043.24,4607ZM1024.91,4607L1035.39,4607L1035.39,4604.9L1024.91,4604.9L1024.91,4607ZM1006.59,4607L1017.06,4607L1017.06,4604.9L1006.59,4604.9L1006.59,4607ZM988.261,4607L998.733,4607L998.733,4604.9L988.261,4604.9L988.261,4607ZM969.934,4607L980.406,4607L980.406,4604.9L969.934,4604.9L969.934,4607ZM951.607,4607L962.08,4607L962.08,4604.9L951.607,4604.9L951.607,4607ZM933.5,4606.07L933.611,4606.13L933.767,4606.2L933.925,4606.27L934.085,4606.34L934.248,4606.41L934.413,4606.47L934.58,4606.53L934.749,4606.58L934.835,4606.61L934.921,4606.64L935.007,4606.66L935.094,4606.68L935.181,4606.71L935.269,4606.73L935.357,4606.75L935.446,4606.77L935.535,4606.79L935.624,4606.81L935.715,4606.83L935.805,4606.85L935.896,4606.86L935.987,4606.88L936.079,4606.89L936.171,4606.91L936.263,4606.92L936.356,4606.93L936.449,4606.94L936.543,4606.95L936.637,4606.96L936.731,4606.97L936.826,4606.98L936.921,4606.98L937.016,4606.99L937.112,4606.99L937.208,4607L937.304,4607L937.4,4607L937.497,4607L943.753,4607L943.753,4604.9L937.507,4604.9L937.435,4604.9L937.371,4604.9L937.307,4604.9L937.243,4604.89L937.18,4604.89L937.12,4604.89L937.058,4604.88L936.996,4604.88L936.935,4604.87L936.874,4604.87L936.814,4604.86L936.751,4604.85L936.691,4604.85L936.633,4604.84L936.571,4604.83L936.513,4604.82L936.455,4604.81L936.395,4604.8L936.335,4604.79L936.277,4604.78L936.218,4604.76L936.162,4604.75L936.105,4604.74L936.045,4604.72L935.991,4604.71L935.935,4604.69L935.876,4604.68L935.821,4604.66L935.766,4604.65L935.719,4604.63L935.602,4604.59L935.491,4604.55L935.385,4604.51L935.28,4604.47L935.175,4604.43L935.072,4604.38L934.97,4604.33L934.886,4604.29L933.5,4606.07ZM1077.38,4600.98L1077.38,4601.04L1077.38,4601.09L1077.38,4601.14L1077.38,4601.19L1077.37,4601.24L1077.37,4601.29L1077.36,4601.34L1077.36,4601.39L1077.35,4601.44L1077.34,4601.48L1077.33,4601.53L1077.33,4601.58L1077.32,4601.63L1077.31,4601.68L1077.3,4601.73L1077.28,4601.78L1077.27,4601.82L1077.26,4601.87L1077.24,4601.92L1077.23,4601.96L1077.21,4602.01L1077.2,4602.06L1077.18,4602.1L1077.16,4602.15L1077.14,4602.19L1077.13,4602.24L1077.11,4602.28L1077.09,4602.33L1077.07,4602.37L1077.05,4602.41L1077,4602.51L1076.95,4602.59L1076.9,4602.68L1076.85,4602.76L1076.79,4602.85L1076.74,4602.93L1076.68,4603.01L1076.61,4603.09L1076.57,4603.15L1078.75,4604.31L1078.82,4604.23L1078.91,4604.1L1079.01,4603.98L1079.1,4603.85L1079.18,4603.72L1079.26,4603.59L1079.34,4603.46L1079.41,4603.33L1079.48,4603.19L1079.51,4603.12L1079.55,4603.05L1079.58,4602.98L1079.61,4602.91L1079.63,4602.84L1079.66,4602.77L1079.69,4602.7L1079.71,4602.63L1079.74,4602.56L1079.76,4602.49L1079.79,4602.42L1079.81,4602.34L1079.83,4602.27L1079.85,4602.2L1079.87,4602.12L1079.88,4602.05L1079.9,4601.98L1079.91,4601.9L1079.93,4601.83L1079.94,4601.75L1079.95,4601.68L1079.96,4601.6L1079.97,4601.52L1079.98,4601.45L1079.99,4601.37L1079.99,4601.3L1079.99,4601.22L1080,4601.14L1080,4601.06L1080,4600.98L1080,4596.1L1077.38,4596.1L1077.38,4600.98ZM930,4600.75L932.618,4600.75L932.618,4592.35L930,4592.35L930,4600.75ZM1077.38,4589.8L1080,4589.8L1080,4581.4L1077.38,4581.4L1077.38,4589.8ZM930,4586.05L932.618,4586.05L932.618,4577.65L930,4577.65L930,4586.05ZM1077.38,4575.1L1080,4575.1L1080,4566.7L1077.38,4566.7L1077.38,4575.1ZM930,4571.35L932.618,4571.35L932.618,4562.94L930,4562.94L930,4571.35ZM1077.38,4560.4L1080,4560.4L1080,4551.99L1077.38,4551.99L1077.38,4560.4ZM930,4556.64L932.618,4556.64L932.618,4548.24L930,4548.24L930,4556.64ZM1077.38,4545.69L1080,4545.69L1080,4537.29L1077.38,4537.29L1077.38,4545.69ZM930,4541.94L932.618,4541.94L932.618,4533.54L930,4533.54L930,4541.94ZM1077.38,4530.99L1080,4530.99L1080,4522.59L1077.38,4522.59L1077.38,4530.99ZM930,4527.24L932.618,4527.24L932.618,4518.84L930,4518.84L930,4527.24ZM1077.38,4516.29L1080,4516.29L1080,4507.89L1077.38,4507.89L1077.38,4516.29ZM930,4512.53L932.618,4512.53L932.618,4504.13L930,4504.13L930,4512.53ZM1073.36,4495.16L1073.37,4495.16L1073.43,4495.17L1073.49,4495.18L1073.55,4495.19L1073.61,4495.2L1073.66,4495.21L1073.72,4495.22L1073.78,4495.23L1073.84,4495.25L1073.89,4495.26L1073.95,4495.28L1074.01,4495.29L1074.07,4495.31L1074.12,4495.32L1074.18,4495.34L1074.23,4495.35L1074.28,4495.37L1074.4,4495.41L1074.51,4495.44L1074.62,4495.49L1074.72,4495.53L1074.83,4495.57L1074.93,4495.62L1075.03,4495.67L1075.13,4495.72L1075.23,4495.77L1075.32,4495.82L1075.42,4495.88L1075.51,4495.94L1075.6,4495.99L1075.69,4496.06L1075.78,4496.12L1075.87,4496.18L1075.95,4496.25L1076.03,4496.32L1076.11,4496.38L1076.19,4496.45L1076.27,4496.53L1076.34,4496.6L1076.41,4496.68L1076.48,4496.75L1076.55,4496.83L1076.61,4496.91L1076.68,4496.99L1076.74,4497.07L1076.79,4497.15L1076.85,4497.23L1076.9,4497.32L1076.95,4497.41L1077,4497.49L1077.05,4497.59L1077.07,4497.63L1077.09,4497.67L1077.11,4497.72L1077.13,4497.76L1077.14,4497.81L1077.16,4497.85L1077.18,4497.9L1077.2,4497.94L1077.21,4497.99L1077.23,4498.04L1077.24,4498.08L1077.26,4498.13L1077.27,4498.18L1077.28,4498.23L1077.3,4498.27L1077.31,4498.32L1077.32,4498.37L1077.33,4498.42L1077.33,4498.47L1077.34,4498.52L1077.35,4498.56L1077.36,4498.61L1077.36,4498.66L1077.37,4498.71L1077.37,4498.76L1077.38,4498.81L1077.38,4498.86L1077.38,4498.91L1077.38,4498.96L1077.38,4499.02L1077.38,4501.59L1080,4501.59L1080,4499.02L1080,4498.94L1080,4498.86L1079.99,4498.78L1079.99,4498.7L1079.99,4498.63L1079.98,4498.55L1079.97,4498.48L1079.96,4498.4L1079.95,4498.32L1079.94,4498.25L1079.93,4498.17L1079.91,4498.1L1079.9,4498.03L1079.88,4497.95L1079.87,4497.88L1079.85,4497.8L1079.83,4497.73L1079.81,4497.66L1079.79,4497.58L1079.76,4497.51L1079.74,4497.44L1079.71,4497.37L1079.69,4497.3L1079.66,4497.23L1079.63,4497.16L1079.61,4497.09L1079.58,4497.02L1079.55,4496.95L1079.51,4496.88L1079.48,4496.81L1079.41,4496.67L1079.34,4496.54L1079.26,4496.41L1079.18,4496.28L1079.1,4496.15L1079.01,4496.02L1078.91,4495.9L1078.82,4495.77L1078.72,4495.65L1078.62,4495.53L1078.51,4495.42L1078.4,4495.3L1078.29,4495.19L1078.17,4495.08L1078.05,4494.97L1077.93,4494.87L1077.8,4494.76L1077.67,4494.66L1077.54,4494.56L1077.41,4494.47L1077.27,4494.37L1077.13,4494.28L1076.99,4494.2L1076.84,4494.11L1076.69,4494.03L1076.54,4493.95L1076.39,4493.87L1076.23,4493.8L1076.08,4493.73L1075.91,4493.66L1075.75,4493.59L1075.59,4493.53L1075.42,4493.47L1075.25,4493.42L1075.16,4493.39L1075.08,4493.36L1074.99,4493.34L1074.91,4493.32L1074.82,4493.29L1074.73,4493.27L1074.64,4493.25L1074.55,4493.23L1074.46,4493.21L1074.38,4493.19L1074.29,4493.17L1074.19,4493.15L1074.1,4493.14L1074.01,4493.12L1073.92,4493.11L1073.83,4493.09L1073.8,4493.09L1073.36,4495.16ZM937.4,4493L937.304,4493L937.208,4493L937.112,4493.01L937.016,4493.01L936.921,4493.02L936.826,4493.02L936.731,4493.03L936.637,4493.04L936.543,4493.05L936.449,4493.06L936.356,4493.07L936.263,4493.08L936.171,4493.09L936.079,4493.11L935.987,4493.12L935.896,4493.14L935.805,4493.15L935.715,4493.17L935.624,4493.19L935.535,4493.21L935.446,4493.23L935.357,4493.25L935.269,4493.27L935.181,4493.29L935.094,4493.32L935.007,4493.34L934.921,4493.36L934.835,4493.39L934.749,4493.42L934.58,4493.47L934.413,4493.53L934.248,4493.59L934.085,4493.66L933.925,4493.73L933.767,4493.8L933.611,4493.87L933.458,4493.95L933.307,4494.03L933.158,4494.11L933.013,4494.2L932.87,4494.28L932.729,4494.37L932.592,4494.47L932.457,4494.56L932.326,4494.66L932.197,4494.76L932.071,4494.87L931.949,4494.97L931.829,4495.08L931.713,4495.19L931.6,4495.3L931.49,4495.42L931.384,4495.53L931.281,4495.65L931.182,4495.77L931.086,4495.9L930.994,4496.02L930.905,4496.15L930.821,4496.28L930.74,4496.41L930.663,4496.54L930.59,4496.67L930.52,4496.81L930.487,4496.88L930.455,4496.95L930.424,4497.02L930.394,4497.09L930.365,4497.16L930.337,4497.23L930.31,4497.3L930.285,4497.37L930.26,4497.44L930.236,4497.51L930.214,4497.58L930.192,4497.66L930.172,4497.73L930.152,4497.8L930.143,4497.84L932.711,4498.25L932.717,4498.23L932.73,4498.18L932.743,4498.13L932.757,4498.08L932.771,4498.04L932.787,4497.99L932.803,4497.94L932.82,4497.9L932.837,4497.85L932.855,4497.81L932.874,4497.76L932.893,4497.72L932.913,4497.67L932.934,4497.63L932.953,4497.59L933.001,4497.49L933.048,4497.41L933.098,4497.32L933.151,4497.23L933.206,4497.15L933.263,4497.07L933.324,4496.99L933.386,4496.91L933.451,4496.83L933.517,4496.75L933.586,4496.68L933.659,4496.6L933.732,4496.53L933.808,4496.45L933.887,4496.38L933.966,4496.32L934.048,4496.25L934.132,4496.18L934.218,4496.12L934.307,4496.06L934.396,4495.99L934.488,4495.94L934.582,4495.88L934.676,4495.82L934.772,4495.77L934.872,4495.72L934.971,4495.67L935.071,4495.62L935.175,4495.57L935.28,4495.53L935.385,4495.49L935.492,4495.44L935.601,4495.41L935.717,4495.37L935.766,4495.35L935.824,4495.34L935.879,4495.32L935.932,4495.31L935.988,4495.29L936.048,4495.28L936.105,4495.26L936.162,4495.25L936.221,4495.23L936.277,4495.22L936.335,4495.21L936.395,4495.2L936.452,4495.19L936.513,4495.18L936.574,4495.17L936.633,4495.16L936.691,4495.15L936.751,4495.15L936.811,4495.14L936.874,4495.13L936.935,4495.13L936.996,4495.12L937.058,4495.12L937.12,4495.11L937.183,4495.11L937.243,4495.11L937.307,4495.1L937.371,4495.1L937.435,4495.1L937.507,4495.1L937.667,4495.1L937.667,4493L937.497,4493L937.4,4493ZM1055.48,4495.1L1065.95,4495.1L1065.95,4493L1055.48,4493L1055.48,4495.1ZM1037.15,4495.1L1047.63,4495.1L1047.63,4493L1037.15,4493L1037.15,4495.1ZM1018.83,4495.1L1029.3,4495.1L1029.3,4493L1018.83,4493L1018.83,4495.1ZM1000.5,4495.1L1010.97,4495.1L1010.97,4493L1000.5,4493L1000.5,4495.1ZM982.174,4495.1L992.647,4495.1L992.647,4493L982.174,4493L982.174,4495.1ZM963.848,4495.1L974.32,4495.1L974.32,4493L963.848,4493L963.848,4495.1ZM945.521,4495.1L955.993,4495.1L955.993,4493L945.521,4493L945.521,4495.1Z" style="fill:rgb(201,211,223);"/>
        </g>
        <g id="Upload-Video2" serif:id="Upload Video" transform="matrix(-0.666911,0,0,0.831303,1766.95,-2079.23)">
            <path d="M1080,4499.02C1080,4495.69 1076.64,4493 1072.5,4493L937.497,4493C933.359,4493 930,4495.69 930,4499.02L930,4600.98C930,4604.31 933.359,4607 937.497,4607L1072.5,4607C1076.64,4607 1080,4604.31 1080,4600.98L1080,4499.02Z" style="fill:rgb(235,239,243);"/>
            <path d="M1061.57,4607L1072.04,4607L1072.04,4604.9L1061.57,4604.9L1061.57,4607ZM1043.24,4607L1053.71,4607L1053.71,4604.9L1043.24,4604.9L1043.24,4607ZM1024.91,4607L1035.39,4607L1035.39,4604.9L1024.91,4604.9L1024.91,4607ZM1006.59,4607L1017.06,4607L1017.06,4604.9L1006.59,4604.9L1006.59,4607ZM988.261,4607L998.733,4607L998.733,4604.9L988.261,4604.9L988.261,4607ZM969.934,4607L980.406,4607L980.406,4604.9L969.934,4604.9L969.934,4607ZM951.607,4607L962.08,4607L962.08,4604.9L951.607,4604.9L951.607,4607ZM933.5,4606.07L933.611,4606.13L933.767,4606.2L933.925,4606.27L934.085,4606.34L934.248,4606.41L934.413,4606.47L934.58,4606.53L934.749,4606.58L934.835,4606.61L934.921,4606.64L935.007,4606.66L935.094,4606.68L935.181,4606.71L935.269,4606.73L935.357,4606.75L935.446,4606.77L935.535,4606.79L935.624,4606.81L935.715,4606.83L935.805,4606.85L935.896,4606.86L935.987,4606.88L936.079,4606.89L936.171,4606.91L936.263,4606.92L936.356,4606.93L936.449,4606.94L936.543,4606.95L936.637,4606.96L936.731,4606.97L936.826,4606.98L936.921,4606.98L937.016,4606.99L937.112,4606.99L937.208,4607L937.304,4607L937.4,4607L937.497,4607L943.753,4607L943.753,4604.9L937.507,4604.9L937.435,4604.9L937.371,4604.9L937.307,4604.9L937.243,4604.89L937.18,4604.89L937.12,4604.89L937.058,4604.88L936.996,4604.88L936.935,4604.87L936.874,4604.87L936.814,4604.86L936.751,4604.85L936.691,4604.85L936.632,4604.84L936.571,4604.83L936.513,4604.82L936.455,4604.81L936.395,4604.8L936.336,4604.79L936.276,4604.78L936.217,4604.76L936.163,4604.75L936.105,4604.74L936.045,4604.72L935.991,4604.71L935.935,4604.69L935.876,4604.68L935.82,4604.66L935.766,4604.65L935.719,4604.63L935.602,4604.59L935.491,4604.55L935.385,4604.51L935.28,4604.47L935.175,4604.43L935.073,4604.38L934.97,4604.33L934.885,4604.29L933.5,4606.07ZM1077.38,4600.98L1077.38,4601.04L1077.38,4601.09L1077.38,4601.14L1077.38,4601.19L1077.37,4601.24L1077.37,4601.29L1077.36,4601.34L1077.36,4601.39L1077.35,4601.44L1077.34,4601.49L1077.34,4601.53L1077.33,4601.58L1077.32,4601.63L1077.31,4601.68L1077.3,4601.73L1077.28,4601.78L1077.27,4601.82L1077.26,4601.87L1077.24,4601.92L1077.23,4601.96L1077.21,4602.01L1077.2,4602.06L1077.18,4602.1L1077.16,4602.15L1077.14,4602.19L1077.13,4602.24L1077.11,4602.28L1077.09,4602.33L1077.07,4602.37L1077.05,4602.41L1077,4602.51L1076.95,4602.59L1076.9,4602.68L1076.85,4602.77L1076.79,4602.85L1076.74,4602.93L1076.68,4603.01L1076.61,4603.09L1076.57,4603.15L1078.75,4604.31L1078.82,4604.23L1078.91,4604.1L1079.01,4603.98L1079.1,4603.85L1079.18,4603.72L1079.26,4603.59L1079.34,4603.46L1079.41,4603.33L1079.48,4603.19L1079.51,4603.12L1079.55,4603.05L1079.58,4602.98L1079.61,4602.91L1079.63,4602.84L1079.66,4602.77L1079.69,4602.7L1079.71,4602.63L1079.74,4602.56L1079.76,4602.49L1079.79,4602.42L1079.81,4602.34L1079.83,4602.27L1079.85,4602.2L1079.87,4602.12L1079.88,4602.05L1079.9,4601.98L1079.91,4601.9L1079.93,4601.83L1079.94,4601.75L1079.95,4601.68L1079.96,4601.6L1079.97,4601.52L1079.98,4601.45L1079.99,4601.37L1079.99,4601.3L1079.99,4601.22L1080,4601.14L1080,4601.06L1080,4600.98L1080,4596.1L1077.38,4596.1L1077.38,4600.98ZM930,4600.75L932.618,4600.75L932.618,4592.35L930,4592.35L930,4600.75ZM1077.38,4589.8L1080,4589.8L1080,4581.4L1077.38,4581.4L1077.38,4589.8ZM930,4586.05L932.618,4586.05L932.618,4577.65L930,4577.65L930,4586.05ZM1077.38,4575.1L1080,4575.1L1080,4566.7L1077.38,4566.7L1077.38,4575.1ZM930,4571.35L932.618,4571.35L932.618,4562.94L930,4562.94L930,4571.35ZM1077.38,4560.4L1080,4560.4L1080,4551.99L1077.38,4551.99L1077.38,4560.4ZM930,4556.64L932.618,4556.64L932.618,4548.24L930,4548.24L930,4556.64ZM1077.38,4545.69L1080,4545.69L1080,4537.29L1077.38,4537.29L1077.38,4545.69ZM930,4541.94L932.618,4541.94L932.618,4533.54L930,4533.54L930,4541.94ZM1077.38,4530.99L1080,4530.99L1080,4522.59L1077.38,4522.59L1077.38,4530.99ZM930,4527.24L932.618,4527.24L932.618,4518.84L930,4518.84L930,4527.24ZM1077.38,4516.29L1080,4516.29L1080,4507.89L1077.38,4507.89L1077.38,4516.29ZM930,4512.53L932.618,4512.53L932.618,4504.13L930,4504.13L930,4512.53ZM1073.36,4495.16L1073.37,4495.16L1073.43,4495.17L1073.49,4495.18L1073.55,4495.19L1073.61,4495.2L1073.66,4495.21L1073.72,4495.22L1073.78,4495.23L1073.84,4495.25L1073.89,4495.26L1073.95,4495.28L1074.01,4495.29L1074.07,4495.31L1074.12,4495.32L1074.18,4495.34L1074.23,4495.35L1074.28,4495.37L1074.4,4495.41L1074.51,4495.44L1074.62,4495.49L1074.72,4495.53L1074.83,4495.57L1074.93,4495.62L1075.03,4495.67L1075.13,4495.72L1075.23,4495.77L1075.32,4495.82L1075.42,4495.88L1075.51,4495.94L1075.6,4495.99L1075.69,4496.06L1075.78,4496.12L1075.87,4496.18L1075.95,4496.25L1076.03,4496.32L1076.11,4496.38L1076.19,4496.45L1076.27,4496.53L1076.34,4496.6L1076.41,4496.68L1076.48,4496.75L1076.55,4496.83L1076.61,4496.91L1076.68,4496.99L1076.74,4497.07L1076.79,4497.15L1076.85,4497.23L1076.9,4497.32L1076.95,4497.41L1077,4497.49L1077.05,4497.59L1077.07,4497.63L1077.09,4497.67L1077.11,4497.72L1077.13,4497.76L1077.14,4497.81L1077.16,4497.85L1077.18,4497.9L1077.2,4497.94L1077.21,4497.99L1077.23,4498.04L1077.24,4498.08L1077.26,4498.13L1077.27,4498.18L1077.28,4498.22L1077.3,4498.27L1077.31,4498.32L1077.32,4498.37L1077.33,4498.42L1077.34,4498.47L1077.34,4498.51L1077.35,4498.56L1077.36,4498.61L1077.36,4498.66L1077.37,4498.71L1077.37,4498.76L1077.38,4498.81L1077.38,4498.86L1077.38,4498.91L1077.38,4498.96L1077.38,4499.02L1077.38,4501.59L1080,4501.59L1080,4499.02L1080,4498.94L1080,4498.86L1079.99,4498.78L1079.99,4498.7L1079.99,4498.63L1079.98,4498.55L1079.97,4498.48L1079.96,4498.4L1079.95,4498.32L1079.94,4498.25L1079.93,4498.17L1079.91,4498.1L1079.9,4498.03L1079.88,4497.95L1079.87,4497.88L1079.85,4497.8L1079.83,4497.73L1079.81,4497.66L1079.79,4497.58L1079.76,4497.51L1079.74,4497.44L1079.71,4497.37L1079.69,4497.3L1079.66,4497.23L1079.63,4497.16L1079.61,4497.09L1079.58,4497.02L1079.55,4496.95L1079.51,4496.88L1079.48,4496.81L1079.41,4496.67L1079.34,4496.54L1079.26,4496.41L1079.18,4496.28L1079.1,4496.15L1079.01,4496.02L1078.91,4495.9L1078.82,4495.77L1078.72,4495.65L1078.62,4495.53L1078.51,4495.42L1078.4,4495.3L1078.29,4495.19L1078.17,4495.08L1078.05,4494.97L1077.93,4494.87L1077.8,4494.76L1077.67,4494.66L1077.54,4494.56L1077.41,4494.47L1077.27,4494.37L1077.13,4494.28L1076.99,4494.2L1076.84,4494.11L1076.69,4494.03L1076.54,4493.95L1076.39,4493.87L1076.23,4493.8L1076.08,4493.73L1075.91,4493.66L1075.75,4493.59L1075.59,4493.53L1075.42,4493.47L1075.25,4493.42L1075.16,4493.39L1075.08,4493.36L1074.99,4493.34L1074.91,4493.32L1074.82,4493.29L1074.73,4493.27L1074.64,4493.25L1074.55,4493.23L1074.46,4493.21L1074.38,4493.19L1074.29,4493.17L1074.19,4493.15L1074.1,4493.14L1074.01,4493.12L1073.92,4493.11L1073.83,4493.09L1073.8,4493.09L1073.36,4495.16ZM937.4,4493L937.304,4493L937.208,4493L937.112,4493.01L937.016,4493.01L936.921,4493.02L936.826,4493.02L936.731,4493.03L936.637,4493.04L936.543,4493.05L936.449,4493.06L936.356,4493.07L936.263,4493.08L936.171,4493.09L936.079,4493.11L935.987,4493.12L935.896,4493.14L935.805,4493.15L935.715,4493.17L935.624,4493.19L935.535,4493.21L935.446,4493.23L935.357,4493.25L935.269,4493.27L935.181,4493.29L935.094,4493.32L935.007,4493.34L934.921,4493.36L934.835,4493.39L934.749,4493.42L934.58,4493.47L934.413,4493.53L934.248,4493.59L934.085,4493.66L933.925,4493.73L933.767,4493.8L933.611,4493.87L933.458,4493.95L933.307,4494.03L933.158,4494.11L933.013,4494.2L932.87,4494.28L932.729,4494.37L932.592,4494.47L932.457,4494.56L932.326,4494.66L932.197,4494.76L932.071,4494.87L931.949,4494.97L931.829,4495.08L931.713,4495.19L931.6,4495.3L931.49,4495.42L931.384,4495.53L931.281,4495.65L931.182,4495.77L931.086,4495.9L930.994,4496.02L930.905,4496.15L930.821,4496.28L930.74,4496.41L930.663,4496.54L930.59,4496.67L930.52,4496.81L930.487,4496.88L930.455,4496.95L930.424,4497.02L930.394,4497.09L930.365,4497.16L930.337,4497.23L930.31,4497.3L930.285,4497.37L930.26,4497.44L930.236,4497.51L930.214,4497.58L930.192,4497.66L930.172,4497.73L930.152,4497.8L930.143,4497.84L932.712,4498.25L932.718,4498.22L932.73,4498.18L932.743,4498.13L932.757,4498.08L932.771,4498.04L932.787,4497.99L932.803,4497.94L932.82,4497.9L932.837,4497.85L932.855,4497.81L932.874,4497.76L932.893,4497.72L932.914,4497.67L932.934,4497.63L932.953,4497.59L933.001,4497.49L933.048,4497.41L933.098,4497.32L933.151,4497.23L933.206,4497.15L933.263,4497.07L933.323,4496.99L933.386,4496.91L933.451,4496.83L933.517,4496.75L933.586,4496.68L933.659,4496.6L933.732,4496.53L933.808,4496.45L933.887,4496.38L933.966,4496.32L934.047,4496.25L934.132,4496.18L934.219,4496.12L934.307,4496.06L934.396,4495.99L934.488,4495.94L934.581,4495.88L934.676,4495.82L934.772,4495.77L934.872,4495.72L934.971,4495.67L935.072,4495.62L935.175,4495.57L935.28,4495.53L935.385,4495.49L935.492,4495.44L935.6,4495.41L935.717,4495.37L935.766,4495.35L935.823,4495.34L935.879,4495.32L935.932,4495.31L935.988,4495.29L936.048,4495.28L936.105,4495.26L936.163,4495.25L936.22,4495.24L936.276,4495.22L936.336,4495.21L936.395,4495.2L936.452,4495.19L936.513,4495.18L936.574,4495.17L936.632,4495.16L936.691,4495.15L936.751,4495.15L936.81,4495.14L936.874,4495.13L936.935,4495.13L936.996,4495.12L937.058,4495.12L937.12,4495.11L937.183,4495.11L937.243,4495.11L937.307,4495.1L937.371,4495.1L937.435,4495.1L937.507,4495.1L937.667,4495.1L937.667,4493L937.497,4493L937.4,4493ZM1055.48,4495.1L1065.95,4495.1L1065.95,4493L1055.48,4493L1055.48,4495.1ZM1037.15,4495.1L1047.63,4495.1L1047.63,4493L1037.15,4493L1037.15,4495.1ZM1018.83,4495.1L1029.3,4495.1L1029.3,4493L1018.83,4493L1018.83,4495.1ZM1000.5,4495.1L1010.97,4495.1L1010.97,4493L1000.5,4493L1000.5,4495.1ZM982.174,4495.1L992.647,4495.1L992.647,4493L982.174,4493L982.174,4495.1ZM963.848,4495.1L974.32,4495.1L974.32,4493L963.848,4493L963.848,4495.1ZM945.521,4495.1L955.993,4495.1L955.993,4493L945.521,4493L945.521,4495.1Z" style="fill:rgb(201,211,223);"/>
        </g>
        <g id="Upload-Video3" serif:id="Upload Video" transform="matrix(-0.666911,0,0,0.831303,1650.57,-2079.23)">
            <path d="M1080,4499.02C1080,4495.69 1076.64,4493 1072.5,4493L937.497,4493C933.359,4493 930,4495.69 930,4499.02L930,4600.98C930,4604.31 933.359,4607 937.497,4607L1072.5,4607C1076.64,4607 1080,4604.31 1080,4600.98L1080,4499.02Z" style="fill:rgb(235,239,243);"/>
            <path d="M1059.9,4607L1069.9,4607L1069.9,4604.99L1059.9,4604.99L1059.9,4607ZM1042.41,4607L1052.4,4607L1052.4,4604.99L1042.41,4604.99L1042.41,4607ZM1024.91,4607L1034.91,4607L1034.91,4604.99L1024.91,4604.99L1024.91,4607ZM1007.42,4607L1017.42,4607L1017.42,4604.99L1007.42,4604.99L1007.42,4607ZM989.927,4607L999.923,4607L999.923,4604.99L989.927,4604.99L989.927,4607ZM972.433,4607L982.429,4607L982.429,4604.99L972.433,4604.99L972.433,4607ZM954.939,4607L964.936,4607L964.936,4604.99L954.939,4604.99L954.939,4607ZM937.446,4607L937.497,4607L947.442,4607L947.442,4604.99L937.506,4604.99L937.464,4604.99L937.446,4607ZM1077.5,4600.98L1077.5,4601.04L1077.5,4601.09L1077.5,4601.14L1077.49,4601.19L1077.49,4601.24L1077.49,4601.3L1077.48,4601.35L1077.47,4601.4L1077.47,4601.45L1077.46,4601.5L1077.45,4601.55L1077.44,4601.6L1077.43,4601.65L1077.42,4601.7L1077.41,4601.75L1077.4,4601.79L1077.39,4601.84L1077.37,4601.89L1077.36,4601.94L1077.34,4601.99L1077.33,4602.04L1077.31,4602.08L1077.3,4602.13L1077.28,4602.18L1077.26,4602.22L1077.24,4602.27L1077.22,4602.32L1077.2,4602.36L1077.18,4602.41L1077.16,4602.45L1077.11,4602.54L1077.06,4602.63L1077.01,4602.72L1076.95,4602.81L1076.9,4602.89L1076.84,4602.98L1076.78,4603.06L1076.71,4603.14L1076.65,4603.22L1076.58,4603.3L1076.51,4603.38L1076.43,4603.46L1076.36,4603.53L1076.28,4603.61L1076.2,4603.68L1076.12,4603.75L1076.04,4603.82L1075.95,4603.89L1075.86,4603.95L1075.77,4604.02L1075.68,4604.08L1075.59,4604.14L1075.53,4604.17L1077.05,4605.76L1077.13,4605.72L1077.27,4605.63L1077.41,4605.53L1077.54,4605.44L1077.67,4605.34L1077.8,4605.24L1077.93,4605.13L1078.05,4605.03L1078.17,4604.92L1078.29,4604.81L1078.4,4604.7L1078.51,4604.58L1078.62,4604.47L1078.72,4604.35L1078.82,4604.23L1078.91,4604.1L1079.01,4603.98L1079.1,4603.85L1079.18,4603.72L1079.26,4603.59L1079.34,4603.46L1079.41,4603.33L1079.48,4603.19L1079.51,4603.12L1079.55,4603.05L1079.58,4602.98L1079.61,4602.91L1079.63,4602.84L1079.66,4602.77L1079.69,4602.7L1079.71,4602.63L1079.74,4602.56L1079.76,4602.49L1079.79,4602.42L1079.81,4602.34L1079.83,4602.27L1079.85,4602.2L1079.87,4602.12L1079.88,4602.05L1079.9,4601.98L1079.91,4601.9L1079.93,4601.83L1079.94,4601.75L1079.95,4601.68L1079.96,4601.6L1079.97,4601.52L1079.98,4601.45L1079.99,4601.37L1079.99,4601.3L1079.99,4601.22L1080,4601.14L1080,4601.06L1080,4600.98L1080,4598.49L1077.5,4598.49L1077.5,4600.98ZM930,4600.98L930.001,4601.06L930.002,4601.14L930.006,4601.22L930.01,4601.3L930.015,4601.37L930.022,4601.45L930.03,4601.52L930.039,4601.6L930.049,4601.68L930.06,4601.75L930.073,4601.83L930.086,4601.9L930.101,4601.98L930.117,4602.05L930.134,4602.12L930.152,4602.2L930.172,4602.27L930.192,4602.34L930.214,4602.42L930.236,4602.49L930.26,4602.56L930.285,4602.63L930.31,4602.7L930.337,4602.77L930.365,4602.84L930.394,4602.91L930.424,4602.98L930.455,4603.05L930.487,4603.12L930.52,4603.19L930.59,4603.33L930.663,4603.46L930.74,4603.59L930.821,4603.72L930.905,4603.85L930.994,4603.98L931.086,4604.1L931.161,4604.2L933.282,4603.14L933.222,4603.06L933.16,4602.98L933.101,4602.89L933.045,4602.81L932.991,4602.72L932.94,4602.63L932.891,4602.54L932.842,4602.45L932.823,4602.41L932.802,4602.36L932.781,4602.32L932.761,4602.27L932.742,4602.22L932.723,4602.18L932.705,4602.13L932.689,4602.08L932.672,4602.04L932.656,4601.99L932.641,4601.94L932.627,4601.89L932.613,4601.84L932.601,4601.79L932.589,4601.74L932.577,4601.7L932.567,4601.65L932.557,4601.6L932.548,4601.55L932.54,4601.5L932.532,4601.45L932.525,4601.4L932.519,4601.35L932.514,4601.3L932.509,4601.24L932.506,4601.19L932.503,4601.14L932.501,4601.09L932.5,4601.04L932.499,4600.98L932.499,4596.36L930,4596.36L930,4600.98ZM1077.5,4592.48L1080,4592.48L1080,4584.45L1077.5,4584.45L1077.5,4592.48ZM930,4590.34L932.499,4590.34L932.499,4582.32L930,4582.32L930,4590.34ZM1077.5,4578.44L1080,4578.44L1080,4570.42L1077.5,4570.42L1077.5,4578.44ZM930,4576.31L932.499,4576.31L932.499,4568.29L930,4568.29L930,4576.31ZM1077.5,4564.41L1080,4564.41L1080,4556.39L1077.5,4556.39L1077.5,4564.41ZM930,4562.28L932.499,4562.28L932.499,4554.26L930,4554.26L930,4562.28ZM1077.5,4550.37L1080,4550.37L1080,4542.35L1077.5,4542.35L1077.5,4550.37ZM930,4548.24L932.499,4548.24L932.499,4540.22L930,4540.22L930,4548.24ZM1077.5,4536.34L1080,4536.34L1080,4528.32L1077.5,4528.32L1077.5,4536.34ZM930,4534.21L932.499,4534.21L932.499,4526.19L930,4526.19L930,4534.21ZM1077.5,4522.3L1080,4522.3L1080,4514.28L1077.5,4514.28L1077.5,4522.3ZM930,4520.17L932.499,4520.17L932.499,4512.15L930,4512.15L930,4520.17ZM1077.5,4508.27L1080,4508.27L1080,4500.25L1077.5,4500.25L1077.5,4508.27ZM930.073,4498.17L930.06,4498.25L930.049,4498.32L930.039,4498.4L930.03,4498.48L930.022,4498.55L930.015,4498.63L930.01,4498.7L930.006,4498.78L930.002,4498.86L930.001,4498.94L930,4499.02L930,4506.14L932.499,4506.14L932.499,4499.02L932.5,4498.96L932.501,4498.91L932.503,4498.86L932.506,4498.81L932.509,4498.76L932.514,4498.7L932.519,4498.65L932.525,4498.6L932.532,4498.55L932.54,4498.5L932.548,4498.45L932.555,4498.41L930.082,4498.12L930.073,4498.17ZM1073.69,4495.12L1073.69,4495.12L1073.75,4495.13L1073.81,4495.14L1073.87,4495.16L1073.93,4495.17L1073.99,4495.19L1074.05,4495.2L1074.11,4495.22L1074.16,4495.23L1074.22,4495.25L1074.28,4495.27L1074.33,4495.28L1074.45,4495.32L1074.56,4495.36L1074.67,4495.4L1074.77,4495.44L1074.88,4495.49L1074.99,4495.54L1075.09,4495.58L1075.19,4495.64L1075.3,4495.69L1075.39,4495.74L1075.49,4495.8L1075.59,4495.86L1075.68,4495.92L1075.77,4495.98L1075.86,4496.05L1075.95,4496.11L1076.04,4496.18L1076.12,4496.25L1076.2,4496.32L1076.28,4496.39L1076.36,4496.47L1076.43,4496.54L1076.51,4496.62L1076.58,4496.7L1076.65,4496.78L1076.71,4496.86L1076.78,4496.94L1076.84,4497.02L1076.9,4497.11L1076.95,4497.19L1077.01,4497.28L1077.06,4497.37L1077.11,4497.46L1077.16,4497.55L1077.18,4497.59L1077.2,4497.64L1077.22,4497.68L1077.24,4497.73L1077.26,4497.78L1077.28,4497.82L1077.3,4497.87L1077.31,4497.92L1077.33,4497.97L1077.34,4498.01L1077.36,4498.06L1077.37,4498.11L1077.39,4498.16L1077.4,4498.21L1077.41,4498.25L1077.42,4498.3L1077.43,4498.35L1077.44,4498.4L1077.45,4498.45L1077.46,4498.5L1077.47,4498.55L1077.47,4498.6L1077.48,4498.65L1077.49,4498.7L1077.49,4498.76L1077.49,4498.81L1077.5,4498.86L1077.5,4498.91L1077.5,4498.96L1077.5,4499.03L1080,4499.02L1080,4499.02L1080,4498.94L1080,4498.86L1079.99,4498.78L1079.99,4498.7L1079.99,4498.63L1079.98,4498.55L1079.97,4498.48L1079.96,4498.4L1079.95,4498.32L1079.94,4498.25L1079.93,4498.17L1079.91,4498.1L1079.9,4498.03L1079.88,4497.95L1079.87,4497.88L1079.85,4497.8L1079.83,4497.73L1079.81,4497.66L1079.79,4497.58L1079.76,4497.51L1079.74,4497.44L1079.71,4497.37L1079.69,4497.3L1079.66,4497.23L1079.63,4497.16L1079.61,4497.09L1079.58,4497.02L1079.55,4496.95L1079.51,4496.88L1079.48,4496.81L1079.41,4496.67L1079.34,4496.54L1079.26,4496.41L1079.18,4496.28L1079.1,4496.15L1079.01,4496.02L1078.91,4495.9L1078.82,4495.77L1078.72,4495.65L1078.62,4495.53L1078.51,4495.42L1078.4,4495.3L1078.29,4495.19L1078.17,4495.08L1078.05,4494.97L1077.93,4494.87L1077.8,4494.76L1077.67,4494.66L1077.54,4494.56L1077.41,4494.47L1077.27,4494.37L1077.13,4494.28L1076.99,4494.2L1076.84,4494.11L1076.69,4494.03L1076.54,4493.95L1076.39,4493.87L1076.23,4493.8L1076.08,4493.73L1075.91,4493.66L1075.75,4493.59L1075.59,4493.53L1075.42,4493.47L1075.25,4493.42L1075.16,4493.39L1075.08,4493.36L1074.99,4493.34L1074.91,4493.32L1074.82,4493.29L1074.73,4493.27L1074.64,4493.25L1074.55,4493.23L1074.46,4493.21L1074.38,4493.19L1074.29,4493.17L1074.27,4493.17L1073.69,4495.12ZM937.4,4493L937.304,4493L937.208,4493L937.112,4493.01L937.016,4493.01L936.921,4493.02L936.826,4493.02L936.731,4493.03L936.637,4493.04L936.543,4493.05L936.449,4493.06L936.356,4493.07L936.263,4493.08L936.171,4493.09L936.079,4493.11L935.987,4493.12L935.896,4493.14L935.805,4493.15L935.715,4493.17L935.624,4493.19L935.535,4493.21L935.446,4493.23L935.357,4493.25L935.269,4493.27L935.181,4493.29L935.094,4493.32L935.007,4493.34L934.921,4493.36L934.835,4493.39L934.749,4493.42L934.58,4493.47L934.428,4493.53L935.429,4495.36L935.554,4495.32L935.673,4495.28L935.724,4495.27L935.782,4495.25L935.839,4495.23L935.894,4495.22L935.951,4495.2L936.012,4495.19L936.071,4495.17L936.13,4495.16L936.19,4495.14L936.247,4495.13L936.307,4495.12L936.368,4495.11L936.427,4495.1L936.489,4495.09L936.551,4495.08L936.611,4495.07L936.672,4495.06L936.733,4495.05L936.794,4495.04L936.859,4495.04L936.921,4495.03L936.984,4495.03L937.047,4495.02L937.111,4495.02L937.175,4495.01L937.237,4495.01L937.302,4495.01L937.368,4495.01L937.434,4495.01L937.506,4495.01L944.331,4495.01L944.331,4493L937.497,4493L937.4,4493ZM1056.79,4495.01L1066.79,4495.01L1066.79,4493L1056.79,4493L1056.79,4495.01ZM1039.3,4495.01L1049.29,4495.01L1049.29,4493L1039.3,4493L1039.3,4495.01ZM1021.8,4495.01L1031.8,4495.01L1031.8,4493L1021.8,4493L1021.8,4495.01ZM1004.31,4495.01L1014.31,4495.01L1014.31,4493L1004.31,4493L1004.31,4495.01ZM986.815,4495.01L996.812,4495.01L996.812,4493L986.815,4493L986.815,4495.01ZM969.322,4495.01L979.318,4495.01L979.318,4493L969.322,4493L969.322,4495.01ZM951.828,4495.01L961.825,4495.01L961.825,4493L951.828,4493L951.828,4495.01Z" style="fill:rgb(201,211,223);"/>
        </g>
    </g>
</svg>
