<?xml version="1.0" encoding="UTF-8" standalone="no"?>
<!DOCTYPE svg PUBLIC "-//W3C//DTD SVG 1.1//EN" "http://www.w3.org/Graphics/SVG/1.1/DTD/svg11.dtd">
<svg width="100%" height="100%" viewBox="0 0 450 115" version="1.1" xmlns="http://www.w3.org/2000/svg" xmlns:xlink="http://www.w3.org/1999/xlink" xml:space="preserve" xmlns:serif="http://www.serif.com/" style="fill-rule:evenodd;clip-rule:evenodd;stroke-linejoin:round;stroke-miterlimit:2;">
    <g transform="matrix(1,0,0,1,-930,-1486.58)">
        <g id="Upload-Video" serif:id="Upload Video" transform="matrix(-0.802249,0,0,1,2125.58,-3006.43)">
            <path d="M1080,4498C1080,4495.24 1077.21,4493 1073.77,4493L936.232,4493C932.793,4493 930,4495.24 930,4498L930,4602C930,4604.76 932.793,4607 936.232,4607L1073.77,4607C1077.21,4607 1080,4604.76 1080,4602L1080,4498Z" style="fill:rgb(235,239,243);"/>
            <path d="M1061.42,4607L1069.73,4607L1069.73,4605.33L1061.42,4605.33L1061.42,4607ZM1046.88,4607L1055.19,4607L1055.19,4605.33L1046.88,4605.33L1046.88,4607ZM1032.34,4607L1040.65,4607L1040.65,4605.33L1032.34,4605.33L1032.34,4607ZM1017.8,4607L1026.11,4607L1026.11,4605.33L1017.8,4605.33L1017.8,4607ZM1003.25,4607L1011.56,4607L1011.56,4605.33L1003.25,4605.33L1003.25,4607ZM988.71,4607L997.02,4607L997.02,4605.33L988.71,4605.33L988.71,4607ZM974.167,4607L982.477,4607L982.477,4605.33L974.167,4605.33L974.167,4607ZM959.625,4607L967.935,4607L967.935,4605.33L959.625,4605.33L959.625,4607ZM945.082,4607L953.392,4607L953.392,4605.33L945.082,4605.33L945.082,4607ZM931.3,4605.06L931.33,4605.09L931.424,4605.18L931.521,4605.27L931.62,4605.36L931.722,4605.45L931.826,4605.53L931.933,4605.62L932.043,4605.7L932.155,4605.78L932.269,4605.86L932.386,4605.93L932.504,4606.01L932.626,4606.08L932.749,4606.15L932.874,4606.21L933.002,4606.28L933.131,4606.34L933.263,4606.4L933.396,4606.45L933.531,4606.51L933.669,4606.56L933.807,4606.61L933.948,4606.65L934.019,4606.68L934.09,4606.7L934.162,4606.72L934.234,4606.74L934.307,4606.76L934.38,4606.78L934.453,4606.79L934.527,4606.81L934.601,4606.83L934.676,4606.84L934.75,4606.86L934.826,4606.87L934.901,4606.89L934.977,4606.9L935.053,4606.91L935.13,4606.92L935.207,4606.93L935.284,4606.94L935.361,4606.95L935.439,4606.96L935.517,4606.97L935.596,4606.97L935.674,4606.98L935.753,4606.98L935.832,4606.99L935.912,4606.99L935.992,4607L936.072,4607L936.152,4607L936.232,4607L938.85,4607L938.85,4605.33L936.242,4605.33L936.179,4605.33L936.123,4605.33L936.071,4605.33L936.016,4605.33L935.964,4605.33L935.913,4605.32L935.859,4605.32L935.805,4605.32L935.752,4605.31L935.703,4605.31L935.65,4605.3L935.595,4605.29L935.546,4605.29L935.498,4605.28L935.445,4605.27L935.391,4605.27L935.344,4605.26L935.294,4605.25L935.242,4605.24L935.194,4605.23L935.145,4605.22L935.094,4605.21L935.047,4605.2L934.999,4605.18L934.95,4605.17L934.901,4605.16L934.851,4605.15L934.806,4605.13L934.758,4605.12L934.716,4605.1L934.617,4605.07L934.525,4605.04L934.433,4605.01L934.344,4604.97L934.256,4604.93L934.167,4604.89L934.08,4604.85L933.996,4604.81L933.912,4604.77L933.83,4604.72L933.749,4604.67L933.67,4604.62L933.592,4604.57L933.515,4604.52L933.441,4604.47L933.367,4604.41L933.295,4604.36L933.225,4604.3L933.158,4604.24L933.091,4604.18L933.026,4604.12L932.963,4604.06L932.948,4604.04L931.3,4605.06ZM1077.92,4601.99L1077.92,4602.04L1077.92,4602.09L1077.92,4602.13L1077.92,4602.17L1077.91,4602.22L1077.91,4602.26L1077.91,4602.3L1077.9,4602.34L1077.89,4602.38L1077.89,4602.43L1077.88,4602.47L1077.88,4602.51L1077.87,4602.55L1077.86,4602.59L1077.85,4602.63L1077.84,4602.67L1077.83,4602.71L1077.82,4602.75L1077.8,4602.79L1077.79,4602.83L1077.78,4602.87L1077.77,4602.91L1077.75,4602.95L1077.74,4602.99L1077.72,4603.03L1077.7,4603.07L1077.69,4603.11L1077.67,4603.15L1077.65,4603.18L1077.64,4603.22L1077.6,4603.3L1077.56,4603.37L1077.51,4603.44L1077.47,4603.52L1077.42,4603.59L1077.37,4603.66L1077.32,4603.73L1077.27,4603.79L1077.21,4603.86L1077.16,4603.93L1077.1,4603.99L1077.04,4604.06L1076.97,4604.12L1076.91,4604.18L1076.84,4604.24L1076.78,4604.3L1076.7,4604.36L1076.63,4604.41L1076.56,4604.47L1076.49,4604.52L1076.41,4604.57L1076.33,4604.62L1076.25,4604.67L1076.17,4604.72L1076.09,4604.77L1076,4604.81L1075.92,4604.85L1075.83,4604.89L1075.74,4604.93L1075.66,4604.97L1075.57,4605.01L1075.47,4605.04L1075.38,4605.07L1075.28,4605.1L1075.24,4605.12L1075.19,4605.13L1075.92,4606.69L1075.98,4606.68L1076.05,4606.65L1076.19,4606.61L1076.33,4606.56L1076.47,4606.51L1076.6,4606.45L1076.74,4606.4L1076.87,4606.34L1077,4606.28L1077.13,4606.21L1077.25,4606.15L1077.37,4606.08L1077.5,4606.01L1077.61,4605.93L1077.73,4605.86L1077.85,4605.78L1077.96,4605.7L1078.07,4605.62L1078.17,4605.53L1078.28,4605.45L1078.38,4605.36L1078.48,4605.27L1078.58,4605.18L1078.67,4605.09L1078.76,4604.99L1078.85,4604.89L1078.93,4604.8L1079.02,4604.69L1079.1,4604.59L1079.17,4604.49L1079.25,4604.38L1079.32,4604.28L1079.38,4604.17L1079.45,4604.06L1079.51,4603.94L1079.57,4603.83L1079.6,4603.78L1079.62,4603.72L1079.65,4603.66L1079.67,4603.6L1079.7,4603.55L1079.72,4603.49L1079.74,4603.43L1079.76,4603.37L1079.78,4603.31L1079.8,4603.25L1079.82,4603.19L1079.84,4603.13L1079.86,4603.07L1079.87,4603.01L1079.89,4602.95L1079.9,4602.89L1079.92,4602.82L1079.93,4602.76L1079.94,4602.7L1079.95,4602.64L1079.96,4602.57L1079.97,4602.51L1079.97,4602.45L1079.98,4602.38L1079.99,4602.32L1079.99,4602.26L1080,4602.19L1080,4602.13L1080,4602.07L1080,4602L1080,4601.43L1077.92,4601.43L1077.92,4601.99ZM930,4600.29L932.077,4600.29L932.077,4593.62L930,4593.62L930,4600.29ZM1077.92,4596.43L1080,4596.43L1080,4589.76L1077.92,4589.76L1077.92,4596.43ZM930,4588.62L932.077,4588.62L932.077,4581.95L930,4581.95L930,4588.62ZM1077.92,4584.76L1080,4584.76L1080,4578.09L1077.92,4578.09L1077.92,4584.76ZM930,4576.95L932.077,4576.95L932.077,4570.29L930,4570.29L930,4576.95ZM1077.92,4573.09L1080,4573.09L1080,4566.43L1077.92,4566.43L1077.92,4573.09ZM930,4565.29L932.077,4565.29L932.077,4558.62L930,4558.62L930,4565.29ZM1077.92,4561.43L1080,4561.43L1080,4554.76L1077.92,4554.76L1077.92,4561.43ZM930,4553.62L932.077,4553.62L932.077,4546.95L930,4546.95L930,4553.62ZM1077.92,4549.76L1080,4549.76L1080,4543.09L1077.92,4543.09L1077.92,4549.76ZM930,4541.95L932.077,4541.95L932.077,4535.29L930,4535.29L930,4541.95ZM1077.92,4538.09L1080,4538.09L1080,4531.43L1077.92,4531.43L1077.92,4538.09ZM930,4530.29L932.077,4530.29L932.077,4523.62L930,4523.62L930,4530.29ZM1077.92,4526.43L1080,4526.43L1080,4519.76L1077.92,4519.76L1077.92,4526.43ZM930,4518.62L932.077,4518.62L932.077,4511.95L930,4511.95L930,4518.62ZM1077.92,4514.76L1080,4514.76L1080,4508.09L1077.92,4508.09L1077.92,4514.76ZM930,4506.95L932.077,4506.95L932.077,4500.29L930,4500.29L930,4506.95ZM1074.75,4494.76L1074.76,4494.76L1074.81,4494.77L1074.86,4494.78L1074.91,4494.79L1074.95,4494.8L1075,4494.82L1075.05,4494.83L1075.1,4494.84L1075.15,4494.86L1075.19,4494.87L1075.24,4494.88L1075.28,4494.9L1075.38,4494.93L1075.47,4494.96L1075.57,4494.99L1075.66,4495.03L1075.75,4495.07L1075.83,4495.11L1075.92,4495.15L1076,4495.19L1076.09,4495.23L1076.17,4495.28L1076.25,4495.33L1076.33,4495.38L1076.41,4495.43L1076.49,4495.48L1076.56,4495.53L1076.63,4495.59L1076.7,4495.64L1076.78,4495.7L1076.84,4495.76L1076.91,4495.82L1076.97,4495.88L1077.04,4495.94L1077.1,4496.01L1077.16,4496.07L1077.21,4496.14L1077.27,4496.21L1077.32,4496.27L1077.37,4496.34L1077.42,4496.41L1077.47,4496.48L1077.51,4496.56L1077.56,4496.63L1077.6,4496.7L1077.64,4496.78L1077.65,4496.82L1077.67,4496.86L1077.69,4496.89L1077.7,4496.93L1077.72,4496.97L1077.74,4497.01L1077.75,4497.05L1077.77,4497.09L1077.78,4497.13L1077.79,4497.17L1077.8,4497.21L1077.82,4497.25L1077.83,4497.29L1077.84,4497.33L1077.85,4497.37L1077.86,4497.41L1077.87,4497.45L1077.88,4497.49L1077.88,4497.53L1077.89,4497.57L1077.89,4497.62L1077.9,4497.66L1077.91,4497.7L1077.91,4497.74L1077.91,4497.78L1077.92,4497.83L1077.92,4497.87L1077.92,4497.91L1077.92,4497.96L1077.92,4498.01L1077.92,4503.09L1080,4503.09L1080,4498L1080,4497.94L1080,4497.87L1080,4497.81L1079.99,4497.74L1079.99,4497.68L1079.98,4497.62L1079.97,4497.55L1079.97,4497.49L1079.96,4497.43L1079.95,4497.36L1079.94,4497.3L1079.93,4497.24L1079.92,4497.18L1079.9,4497.11L1079.89,4497.05L1079.87,4496.99L1079.86,4496.93L1079.84,4496.87L1079.82,4496.81L1079.8,4496.75L1079.78,4496.69L1079.76,4496.63L1079.74,4496.57L1079.72,4496.51L1079.7,4496.45L1079.67,4496.4L1079.65,4496.34L1079.62,4496.28L1079.6,4496.22L1079.57,4496.17L1079.51,4496.06L1079.45,4495.94L1079.38,4495.83L1079.32,4495.73L1079.25,4495.62L1079.17,4495.51L1079.1,4495.41L1079.02,4495.31L1078.93,4495.2L1078.85,4495.11L1078.76,4495.01L1078.67,4494.91L1078.58,4494.82L1078.48,4494.73L1078.38,4494.64L1078.28,4494.55L1078.17,4494.47L1078.07,4494.38L1077.96,4494.3L1077.85,4494.22L1077.73,4494.14L1077.61,4494.07L1077.5,4493.99L1077.37,4493.92L1077.25,4493.85L1077.13,4493.79L1077,4493.72L1076.87,4493.66L1076.74,4493.6L1076.6,4493.55L1076.47,4493.49L1076.33,4493.44L1076.19,4493.39L1076.05,4493.35L1075.98,4493.32L1075.91,4493.3L1075.84,4493.28L1075.77,4493.26L1075.69,4493.24L1075.62,4493.23L1075.55,4493.21L1075.47,4493.19L1075.4,4493.17L1075.32,4493.16L1075.25,4493.14L1075.23,4493.14L1074.75,4494.76ZM936.152,4493L936.072,4493L935.992,4493L935.912,4493.01L935.832,4493.01L935.753,4493.02L935.674,4493.02L935.596,4493.03L935.517,4493.03L935.439,4493.04L935.361,4493.05L935.284,4493.06L935.207,4493.07L935.13,4493.08L935.053,4493.09L934.977,4493.1L934.901,4493.11L934.826,4493.13L934.75,4493.14L934.676,4493.16L934.601,4493.17L934.527,4493.19L934.453,4493.21L934.38,4493.23L934.307,4493.24L934.234,4493.26L934.162,4493.28L934.09,4493.3L934.019,4493.32L933.948,4493.35L933.807,4493.39L933.669,4493.44L933.531,4493.49L933.396,4493.55L933.263,4493.6L933.131,4493.66L933.002,4493.72L932.874,4493.79L932.749,4493.85L932.626,4493.92L932.504,4493.99L932.386,4494.07L932.269,4494.14L932.155,4494.22L932.043,4494.3L931.933,4494.38L931.826,4494.47L931.722,4494.55L931.62,4494.64L931.521,4494.73L931.424,4494.82L931.33,4494.91L931.239,4495.01L931.151,4495.11L931.065,4495.2L930.982,4495.31L930.903,4495.41L930.895,4495.42L932.683,4496.27L932.678,4496.27L932.731,4496.21L932.786,4496.14L932.844,4496.07L932.903,4496.01L932.963,4495.94L933.026,4495.88L933.091,4495.82L933.157,4495.76L933.226,4495.7L933.295,4495.64L933.367,4495.59L933.44,4495.53L933.515,4495.48L933.592,4495.43L933.669,4495.38L933.749,4495.33L933.83,4495.28L933.912,4495.23L933.996,4495.19L934.081,4495.15L934.167,4495.11L934.255,4495.07L934.344,4495.03L934.434,4494.99L934.525,4494.96L934.617,4494.93L934.717,4494.9L934.758,4494.88L934.806,4494.87L934.853,4494.86L934.901,4494.84L934.95,4494.83L934.998,4494.82L935.047,4494.8L935.094,4494.79L935.144,4494.78L935.194,4494.77L935.244,4494.76L935.294,4494.75L935.343,4494.74L935.393,4494.73L935.445,4494.73L935.497,4494.72L935.548,4494.71L935.597,4494.7L935.649,4494.7L935.703,4494.69L935.754,4494.69L935.805,4494.68L935.859,4494.68L935.911,4494.68L935.964,4494.67L936.017,4494.67L936.069,4494.67L936.123,4494.67L936.179,4494.67L936.24,4494.67L938.133,4494.67L938.133,4493L936.232,4493L936.152,4493ZM1060.7,4494.67L1069.02,4494.67L1069.02,4493L1060.7,4493L1060.7,4494.67ZM1046.16,4494.67L1054.47,4494.67L1054.47,4493L1046.16,4493L1046.16,4494.67ZM1031.62,4494.67L1039.93,4494.67L1039.93,4493L1031.62,4493L1031.62,4494.67ZM1017.08,4494.67L1025.39,4494.67L1025.39,4493L1017.08,4493L1017.08,4494.67ZM1002.54,4494.67L1010.85,4494.67L1010.85,4493L1002.54,4493L1002.54,4494.67ZM987.993,4494.67L996.303,4494.67L996.303,4493L987.993,4493L987.993,4494.67ZM973.451,4494.67L981.761,4494.67L981.761,4493L973.451,4493L973.451,4494.67ZM958.908,4494.67L967.218,4494.67L967.218,4493L958.908,4493L958.908,4494.67ZM944.366,4494.67L952.676,4494.67L952.676,4493L944.366,4493L944.366,4494.67Z" style="fill:rgb(201,211,223);"/>
        </g>
        <g id="Upload-Video1" serif:id="Upload Video" transform="matrix(-2.06244,0,0,1,3157.44,-3006.43)">
            <path d="M1080,4498C1080,4495.24 1078.91,4493 1077.58,4493L932.424,4493C931.086,4493 930,4495.24 930,4498L930,4602C930,4604.76 931.086,4607 932.424,4607L1077.58,4607C1078.91,4607 1080,4604.76 1080,4602L1080,4498Z" style="fill:rgb(235,239,243);"/>
            <path d="M1078.63,4604.52L1078.6,4604.57L1078.57,4604.62L1078.54,4604.67L1078.51,4604.72L1078.48,4604.76L1078.44,4604.81L1078.41,4604.85L1078.38,4604.89L1078.35,4604.93L1078.31,4604.97L1078.28,4605.01L1078.24,4605.04L1078.2,4605.07L1078.17,4605.1L1078.15,4605.12L1078.13,4605.13L1078.11,4605.15L1078.09,4605.16L1078.08,4605.17L1078.06,4605.18L1078.04,4605.2L1078.02,4605.21L1078,4605.22L1077.98,4605.23L1077.96,4605.24L1077.94,4605.25L1077.92,4605.26L1077.9,4605.27L1077.88,4605.27L1077.86,4605.28L1077.84,4605.29L1077.82,4605.3L1077.8,4605.3L1077.78,4605.31L1077.76,4605.31L1077.74,4605.32L1077.72,4605.32L1077.7,4605.32L1077.68,4605.33L1077.66,4605.33L1077.64,4605.33L1077.62,4605.33L1077.6,4605.33L1077.57,4605.33L1076.14,4605.33L1076.14,4607L1077.58,4607L1077.61,4607L1077.64,4607L1077.67,4607L1077.7,4606.99L1077.73,4606.99L1077.76,4606.98L1077.79,4606.98L1077.82,4606.97L1077.85,4606.97L1077.88,4606.96L1077.91,4606.95L1077.94,4606.94L1077.97,4606.93L1078.01,4606.92L1078.03,4606.91L1078.06,4606.9L1078.09,4606.89L1078.12,4606.87L1078.15,4606.86L1078.18,4606.84L1078.21,4606.83L1078.24,4606.81L1078.27,4606.79L1078.3,4606.78L1078.33,4606.76L1078.35,4606.74L1078.38,4606.72L1078.41,4606.7L1078.44,4606.68L1078.46,4606.65L1078.52,4606.61L1078.57,4606.56L1078.63,4606.51L1078.68,4606.45L1078.73,4606.4L1078.78,4606.34L1078.83,4606.28L1078.88,4606.21L1078.93,4606.15L1078.98,4606.08L1079.03,4606.01L1079.07,4605.93L1079.12,4605.86L1079.16,4605.78L1079.2,4605.7L1079.21,4605.69L1078.66,4604.47L1078.66,4604.47L1078.63,4604.52ZM1070.48,4607L1073.71,4607L1073.71,4605.33L1070.48,4605.33L1070.48,4607ZM1064.83,4607L1068.06,4607L1068.06,4605.33L1064.83,4605.33L1064.83,4607ZM1059.17,4607L1062.4,4607L1062.4,4605.33L1059.17,4605.33L1059.17,4607ZM1053.51,4607L1056.75,4607L1056.75,4605.33L1053.51,4605.33L1053.51,4607ZM1047.86,4607L1051.09,4607L1051.09,4605.33L1047.86,4605.33L1047.86,4607ZM1042.2,4607L1045.43,4607L1045.43,4605.33L1042.2,4605.33L1042.2,4607ZM1036.54,4607L1039.78,4607L1039.78,4605.33L1036.54,4605.33L1036.54,4607ZM1030.89,4607L1034.12,4607L1034.12,4605.33L1030.89,4605.33L1030.89,4607ZM1025.23,4607L1028.46,4607L1028.46,4605.33L1025.23,4605.33L1025.23,4607ZM1019.57,4607L1022.81,4607L1022.81,4605.33L1019.57,4605.33L1019.57,4607ZM1013.92,4607L1017.15,4607L1017.15,4605.33L1013.92,4605.33L1013.92,4607ZM1008.26,4607L1011.49,4607L1011.49,4605.33L1008.26,4605.33L1008.26,4607ZM1002.6,4607L1005.84,4607L1005.84,4605.33L1002.6,4605.33L1002.6,4607ZM996.945,4607L1000.18,4607L1000.18,4605.33L996.945,4605.33L996.945,4607ZM991.289,4607L994.521,4607L994.521,4605.33L991.289,4605.33L991.289,4607ZM985.632,4607L988.864,4607L988.864,4605.33L985.632,4605.33L985.632,4607ZM979.975,4607L983.208,4607L983.208,4605.33L979.975,4605.33L979.975,4607ZM974.319,4607L977.551,4607L977.551,4605.33L974.319,4605.33L974.319,4607ZM968.662,4607L971.894,4607L971.894,4605.33L968.662,4605.33L968.662,4607ZM963.005,4607L966.237,4607L966.237,4605.33L963.005,4605.33L963.005,4607ZM957.348,4607L960.581,4607L960.581,4605.33L957.348,4605.33L957.348,4607ZM951.692,4607L954.924,4607L954.924,4605.33L951.692,4605.33L951.692,4607ZM946.035,4607L949.267,4607L949.267,4605.33L946.035,4605.33L946.035,4607ZM940.378,4607L943.611,4607L943.611,4605.33L940.378,4605.33L940.378,4607ZM934.721,4607L937.954,4607L937.954,4605.33L934.721,4605.33L934.721,4607ZM930.041,4602.92L930.043,4602.95L930.049,4603.01L930.056,4603.07L930.062,4603.13L930.069,4603.19L930.076,4603.25L930.084,4603.31L930.092,4603.37L930.1,4603.43L930.109,4603.49L930.118,4603.55L930.127,4603.6L930.137,4603.66L930.147,4603.72L930.158,4603.78L930.168,4603.83L930.191,4603.94L930.214,4604.06L930.239,4604.17L930.265,4604.28L930.293,4604.38L930.321,4604.49L930.351,4604.59L930.382,4604.69L930.414,4604.8L930.448,4604.89L930.482,4604.99L930.517,4605.09L930.554,4605.18L930.591,4605.27L930.63,4605.36L930.67,4605.45L930.71,4605.53L930.752,4605.62L930.795,4605.7L930.838,4605.78L930.883,4605.86L930.928,4605.93L930.974,4606.01L931.021,4606.08L931.069,4606.15L931.118,4606.21L931.168,4606.28L931.218,4606.34L931.269,4606.4L931.321,4606.45L931.374,4606.51L931.427,4606.56L931.481,4606.61L931.536,4606.65L931.563,4606.68L931.591,4606.7L931.619,4606.72L931.647,4606.74L931.675,4606.76L931.704,4606.78L931.732,4606.79L931.761,4606.81L931.79,4606.83L931.819,4606.84L931.848,4606.86L931.877,4606.87L931.906,4606.89L931.936,4606.9L931.966,4606.91L931.995,4606.92L932.025,4606.93L932.055,4606.94L932.085,4606.95L932.116,4606.96L932.146,4606.97L932.177,4606.97L932.207,4606.98L932.238,4606.98L932.269,4606.99L932.297,4606.99L932.342,4605.33L932.32,4605.33L932.3,4605.32L932.279,4605.32L932.259,4605.32L932.238,4605.31L932.217,4605.31L932.197,4605.3L932.178,4605.3L932.158,4605.29L932.137,4605.28L932.119,4605.27L932.099,4605.27L932.078,4605.26L932.058,4605.25L932.04,4605.24L932.021,4605.23L932.001,4605.22L931.982,4605.21L931.963,4605.2L931.944,4605.18L931.925,4605.17L931.906,4605.16L931.887,4605.15L931.87,4605.13L931.851,4605.12L931.834,4605.1L931.796,4605.07L931.76,4605.04L931.725,4605.01L931.69,4604.97L931.655,4604.93L931.621,4604.89L931.587,4604.85L931.555,4604.81L931.522,4604.76L931.489,4604.72L931.458,4604.67L931.428,4604.62L931.397,4604.57L931.367,4604.52L931.338,4604.47L931.309,4604.41L931.282,4604.36L931.255,4604.3L931.228,4604.24L931.202,4604.18L931.177,4604.12L931.153,4604.06L931.129,4603.99L931.106,4603.93L931.084,4603.86L931.063,4603.8L931.042,4603.73L931.022,4603.66L931.003,4603.59L930.985,4603.52L930.967,4603.44L930.951,4603.37L930.935,4603.3L930.919,4603.22L930.913,4603.18L930.906,4603.15L930.899,4603.11L930.893,4603.07L930.887,4603.03L930.881,4602.99L930.875,4602.95L930.869,4602.91L930.864,4602.87L930.859,4602.83L930.854,4602.79L930.85,4602.75L930.845,4602.71L930.841,4602.67L930.837,4602.63L930.836,4602.62L930.041,4602.92ZM1079.19,4601.15L1080,4601.15L1080,4594.48L1079.19,4594.48L1079.19,4601.15ZM930,4597.93L930.808,4597.93L930.808,4591.26L930,4591.26L930,4597.93ZM1079.19,4589.48L1080,4589.48L1080,4582.82L1079.19,4582.82L1079.19,4589.48ZM930,4586.26L930.808,4586.26L930.808,4579.59L930,4579.59L930,4586.26ZM1079.19,4577.82L1080,4577.82L1080,4571.15L1079.19,4571.15L1079.19,4577.82ZM930,4574.59L930.808,4574.59L930.808,4567.93L930,4567.93L930,4574.59ZM1079.19,4566.15L1080,4566.15L1080,4559.48L1079.19,4559.48L1079.19,4566.15ZM930,4562.93L930.808,4562.93L930.808,4556.26L930,4556.26L930,4562.93ZM1079.19,4554.48L1080,4554.48L1080,4547.82L1079.19,4547.82L1079.19,4554.48ZM930,4551.26L930.808,4551.26L930.808,4544.59L930,4544.59L930,4551.26ZM1079.19,4542.82L1080,4542.82L1080,4536.15L1079.19,4536.15L1079.19,4542.82ZM930,4539.59L930.808,4539.59L930.808,4532.93L930,4532.93L930,4539.59ZM1079.19,4531.15L1080,4531.15L1080,4524.48L1079.19,4524.48L1079.19,4531.15ZM930,4527.93L930.808,4527.93L930.808,4521.26L930,4521.26L930,4527.93ZM1079.19,4519.48L1080,4519.48L1080,4512.82L1079.19,4512.82L1079.19,4519.48ZM930,4516.26L930.808,4516.26L930.808,4509.59L930,4509.59L930,4516.26ZM1079.19,4507.82L1080,4507.82L1080,4501.15L1079.19,4501.15L1079.19,4507.82ZM930,4497.94L930,4498L930,4504.59L930.808,4504.59L930.808,4498.01L930.808,4497.96L930.808,4497.96L930,4497.93L930,4497.94ZM1077.96,4494.76L1077.98,4494.77L1078,4494.78L1078.02,4494.79L1078.04,4494.8L1078.06,4494.82L1078.08,4494.83L1078.09,4494.84L1078.11,4494.86L1078.13,4494.87L1078.15,4494.88L1078.16,4494.9L1078.2,4494.93L1078.24,4494.96L1078.28,4494.99L1078.31,4495.03L1078.35,4495.07L1078.38,4495.11L1078.41,4495.15L1078.45,4495.19L1078.48,4495.24L1078.51,4495.28L1078.54,4495.33L1078.57,4495.38L1078.6,4495.43L1078.63,4495.48L1078.66,4495.53L1078.69,4495.59L1078.72,4495.64L1078.75,4495.7L1078.77,4495.76L1078.8,4495.82L1078.82,4495.88L1078.85,4495.94L1078.87,4496.01L1078.89,4496.07L1078.92,4496.14L1078.94,4496.21L1078.96,4496.27L1078.98,4496.34L1079,4496.41L1079.02,4496.48L1079.03,4496.56L1079.05,4496.63L1079.07,4496.7L1079.08,4496.78L1079.09,4496.82L1079.09,4496.86L1079.1,4496.89L1079.11,4496.93L1079.11,4496.97L1079.12,4497.01L1079.13,4497.05L1079.13,4497.09L1079.14,4497.13L1079.14,4497.17L1079.15,4497.21L1079.15,4497.25L1079.15,4497.29L1079.16,4497.33L1079.16,4497.37L1079.17,4497.41L1079.17,4497.45L1079.17,4497.49L1079.18,4497.53L1079.18,4497.57L1079.18,4497.62L1079.18,4497.66L1079.18,4497.7L1079.19,4497.74L1079.19,4497.78L1079.19,4497.83L1079.19,4497.87L1079.19,4497.91L1079.19,4497.96L1079.19,4498.01L1080,4498L1080,4498L1080,4497.94L1080,4497.87L1080,4497.81L1080,4497.74L1080,4497.68L1079.99,4497.62L1079.99,4497.55L1079.99,4497.49L1079.98,4497.43L1079.98,4497.36L1079.98,4497.3L1079.97,4497.24L1079.97,4497.18L1079.96,4497.11L1079.96,4497.05L1079.95,4496.99L1079.94,4496.93L1079.94,4496.87L1079.93,4496.81L1079.92,4496.75L1079.92,4496.69L1079.91,4496.63L1079.9,4496.57L1079.89,4496.51L1079.88,4496.45L1079.87,4496.4L1079.86,4496.34L1079.85,4496.28L1079.84,4496.22L1079.83,4496.17L1079.81,4496.06L1079.79,4495.94L1079.76,4495.83L1079.74,4495.73L1079.71,4495.62L1079.68,4495.51L1079.65,4495.41L1079.62,4495.31L1079.59,4495.2L1079.55,4495.11L1079.52,4495.01L1079.48,4494.91L1079.45,4494.82L1079.41,4494.73L1079.37,4494.64L1079.33,4494.55L1079.29,4494.47L1079.25,4494.38L1079.2,4494.3L1079.16,4494.22L1079.12,4494.14L1079.07,4494.07L1079.03,4493.99L1078.98,4493.92L1078.93,4493.85L1078.88,4493.79L1078.83,4493.72L1078.78,4493.66L1078.73,4493.6L1078.68,4493.55L1078.63,4493.49L1078.57,4493.44L1078.52,4493.39L1078.46,4493.35L1078.44,4493.32L1078.41,4493.3L1078.38,4493.28L1078.35,4493.26L1078.33,4493.24L1078.3,4493.23L1078.27,4493.21L1078.24,4493.19L1078.21,4493.17L1078.18,4493.16L1078.15,4493.14L1078.15,4493.14L1077.96,4494.76ZM932.393,4493L932.362,4493L932.331,4493L932.3,4493.01L932.269,4493.01L932.238,4493.02L932.207,4493.02L932.177,4493.03L932.146,4493.03L932.116,4493.04L932.085,4493.05L932.055,4493.06L932.025,4493.07L931.995,4493.08L931.966,4493.09L931.936,4493.1L931.906,4493.11L931.877,4493.13L931.848,4493.14L931.819,4493.16L931.79,4493.17L931.761,4493.19L931.732,4493.21L931.704,4493.23L931.675,4493.24L931.647,4493.26L931.619,4493.28L931.591,4493.3L931.563,4493.32L931.536,4493.35L931.481,4493.39L931.427,4493.44L931.374,4493.49L931.321,4493.55L931.269,4493.6L931.218,4493.66L931.168,4493.72L931.145,4493.75L931.573,4495.17L931.587,4495.15L931.621,4495.11L931.655,4495.07L931.69,4495.03L931.725,4494.99L931.76,4494.96L931.796,4494.93L931.835,4494.9L931.851,4494.88L931.869,4494.87L931.887,4494.86L931.907,4494.84L931.925,4494.83L931.944,4494.82L931.963,4494.8L931.982,4494.79L932.002,4494.78L932.02,4494.77L932.039,4494.76L932.059,4494.75L932.079,4494.74L932.098,4494.73L932.118,4494.73L932.138,4494.72L932.158,4494.71L932.177,4494.7L932.197,4494.7L932.218,4494.69L932.239,4494.69L932.259,4494.68L932.279,4494.68L932.299,4494.68L932.319,4494.67L932.341,4494.67L932.361,4494.67L932.382,4494.67L932.403,4494.67L932.426,4494.67L934.309,4494.67L934.309,4493L932.424,4493L932.393,4493ZM970.674,4494.67L973.906,4494.67L973.906,4493L970.674,4493L970.674,4494.67ZM965.017,4494.67L968.249,4494.67L968.249,4493L965.017,4493L965.017,4494.67ZM959.36,4494.67L962.593,4494.67L962.593,4493L959.36,4493L959.36,4494.67ZM953.704,4494.67L956.936,4494.67L956.936,4493L953.704,4493L953.704,4494.67ZM948.047,4494.67L951.279,4494.67L951.279,4493L948.047,4493L948.047,4494.67ZM942.39,4494.67L945.622,4494.67L945.622,4493L942.39,4493L942.39,4494.67ZM936.733,4494.67L939.966,4494.67L939.966,4493L936.733,4493L936.733,4494.67ZM981.987,4494.67L985.22,4494.67L985.22,4493L981.987,4493L981.987,4494.67ZM987.644,4494.67L990.876,4494.67L990.876,4493L987.644,4493L987.644,4494.67ZM993.301,4494.67L996.533,4494.67L996.533,4493L993.301,4493L993.301,4494.67ZM998.957,4494.67L1002.19,4494.67L1002.19,4493L998.957,4493L998.957,4494.67ZM1004.61,4494.67L1007.85,4494.67L1007.85,4493L1004.61,4493L1004.61,4494.67ZM1010.27,4494.67L1013.5,4494.67L1013.5,4493L1010.27,4493L1010.27,4494.67ZM1015.93,4494.67L1019.16,4494.67L1019.16,4493L1015.93,4493L1015.93,4494.67ZM1021.58,4494.67L1024.82,4494.67L1024.82,4493L1021.58,4493L1021.58,4494.67ZM976.33,4494.67L979.563,4494.67L979.563,4493L976.33,4493L976.33,4494.67ZM1032.9,4494.67L1036.13,4494.67L1036.13,4493L1032.9,4493L1032.9,4494.67ZM1038.55,4494.67L1041.79,4494.67L1041.79,4493L1038.55,4493L1038.55,4494.67ZM1044.21,4494.67L1047.44,4494.67L1047.44,4493L1044.21,4493L1044.21,4494.67ZM1049.87,4494.67L1053.1,4494.67L1053.1,4493L1049.87,4493L1049.87,4494.67ZM1055.53,4494.67L1058.76,4494.67L1058.76,4493L1055.53,4493L1055.53,4494.67ZM1061.18,4494.67L1064.41,4494.67L1064.41,4493L1061.18,4493L1061.18,4494.67ZM1066.84,4494.67L1070.07,4494.67L1070.07,4493L1066.84,4493L1066.84,4494.67ZM1072.5,4494.67L1075.73,4494.67L1075.73,4493L1072.5,4493L1072.5,4494.67ZM1027.24,4494.67L1030.47,4494.67L1030.47,4493L1027.24,4493L1027.24,4494.67Z" style="fill:rgb(201,211,223);"/>
        </g>
    </g>
</svg>
