<?xml version="1.0" encoding="UTF-8" standalone="no"?>
<!DOCTYPE svg PUBLIC "-//W3C//DTD SVG 1.1//EN" "http://www.w3.org/Graphics/SVG/1.1/DTD/svg11.dtd">
<svg width="100%" height="100%" viewBox="0 0 450 127" version="1.1" xmlns="http://www.w3.org/2000/svg" xmlns:xlink="http://www.w3.org/1999/xlink" xml:space="preserve" xmlns:serif="http://www.serif.com/" style="fill-rule:evenodd;clip-rule:evenodd;stroke-linejoin:round;stroke-miterlimit:2;">
    <g transform="matrix(1,0,0,1,-930.141,-1923.94)">
        <g id="Upload-Video" serif:id="Upload Video" transform="matrix(-0.890157,0,0,1.10958,2207.33,-3061.4)">
            <path d="M1080,4497.51C1080,4495.02 1077.48,4493 1074.38,4493L935.617,4493C932.517,4493 930,4495.02 930,4497.51L930,4602.49C930,4604.98 932.517,4607 935.617,4607L1074.38,4607C1077.48,4607 1080,4604.98 1080,4602.49L1080,4497.51Z" style="fill:rgb(235,239,243);"/>
            <path d="M1059.36,4607L1069.36,4607L1069.36,4604.99L1059.36,4604.99L1059.36,4607ZM1041.87,4607L1051.86,4607L1051.86,4604.99L1041.87,4604.99L1041.87,4607ZM1024.37,4607L1034.37,4607L1034.37,4604.99L1024.37,4604.99L1024.37,4607ZM1006.88,4607L1016.88,4607L1016.88,4604.99L1006.88,4604.99L1006.88,4607ZM989.386,4607L999.382,4607L999.382,4604.99L989.386,4604.99L989.386,4607ZM971.893,4607L981.889,4607L981.889,4604.99L971.893,4604.99L971.893,4607ZM954.399,4607L964.395,4607L964.395,4604.99L954.399,4604.99L954.399,4607ZM936.905,4607L946.902,4607L946.902,4604.99L936.905,4604.99L936.905,4607ZM1077.5,4602.49L1077.5,4602.53L1077.5,4602.56L1077.5,4602.59L1077.5,4602.62L1077.5,4602.65L1077.49,4602.69L1077.49,4602.72L1077.49,4602.75L1077.48,4602.78L1077.48,4602.81L1077.47,4602.85L1077.46,4602.88L1077.46,4602.91L1077.45,4602.94L1077.44,4602.97L1077.44,4603L1077.43,4603.03L1077.42,4603.06L1077.41,4603.09L1077.4,4603.12L1077.39,4603.15L1077.38,4603.18L1077.37,4603.21L1077.36,4603.24L1077.35,4603.27L1077.34,4603.3L1077.33,4603.32L1077.31,4603.35L1077.3,4603.38L1077.29,4603.4L1077.26,4603.47L1077.23,4603.52L1077.19,4603.58L1077.16,4603.63L1077.13,4603.68L1077.09,4603.74L1077.05,4603.79L1077.01,4603.84L1076.97,4603.89L1076.93,4603.94L1076.88,4603.99L1076.84,4604.03L1076.79,4604.08L1076.74,4604.13L1076.69,4604.18L1076.64,4604.22L1076.59,4604.26L1076.53,4604.3L1076.48,4604.35L1076.42,4604.39L1076.36,4604.43L1076.31,4604.46L1076.25,4604.5L1076.18,4604.53L1076.12,4604.57L1076.06,4604.6L1076,4604.63L1075.93,4604.66L1075.87,4604.69L1075.8,4604.72L1075.73,4604.75L1075.71,4604.76L1076.78,4606.57L1076.82,4606.56L1076.94,4606.51L1077.06,4606.46L1077.18,4606.4L1077.3,4606.35L1077.41,4606.29L1077.52,4606.23L1077.63,4606.17L1077.74,4606.1L1077.85,4606.04L1077.95,4605.97L1078.06,4605.9L1078.16,4605.83L1078.26,4605.76L1078.35,4605.68L1078.45,4605.6L1078.54,4605.52L1078.63,4605.44L1078.72,4605.36L1078.8,4605.28L1078.88,4605.19L1078.96,4605.1L1079.04,4605.01L1079.12,4604.92L1079.19,4604.83L1079.26,4604.74L1079.32,4604.64L1079.38,4604.55L1079.45,4604.45L1079.5,4604.35L1079.56,4604.25L1079.61,4604.15L1079.63,4604.09L1079.66,4604.04L1079.68,4603.99L1079.7,4603.94L1079.73,4603.89L1079.75,4603.83L1079.77,4603.78L1079.79,4603.73L1079.81,4603.67L1079.82,4603.62L1079.84,4603.57L1079.86,4603.51L1079.87,4603.46L1079.89,4603.4L1079.9,4603.35L1079.91,4603.29L1079.92,4603.23L1079.93,4603.18L1079.94,4603.12L1079.95,4603.07L1079.96,4603.01L1079.97,4602.95L1079.98,4602.9L1079.98,4602.84L1079.99,4602.78L1079.99,4602.73L1080,4602.67L1080,4602.61L1080,4602.55L1080,4602.49L1080,4599.57L1077.5,4599.57L1077.5,4602.49ZM930,4602.49L930,4602.55L930.002,4602.61L930.004,4602.67L930.007,4602.73L930.011,4602.78L930.016,4602.84L930.022,4602.9L930.029,4602.95L930.037,4603.01L930.045,4603.07L930.055,4603.12L930.065,4603.18L930.076,4603.23L930.088,4603.29L930.101,4603.35L930.114,4603.4L930.129,4603.46L930.144,4603.51L930.16,4603.57L930.177,4603.62L930.195,4603.67L930.213,4603.73L930.233,4603.78L930.253,4603.83L930.274,4603.89L930.295,4603.94L930.318,4603.99L930.341,4604.04L930.365,4604.09L930.39,4604.15L930.442,4604.25L930.497,4604.35L930.554,4604.45L930.597,4604.52L932.835,4603.62L932.806,4603.58L932.774,4603.52L932.743,4603.47L932.712,4603.4L932.701,4603.38L932.687,4603.35L932.675,4603.32L932.663,4603.3L932.65,4603.27L932.639,4603.24L932.628,4603.21L932.617,4603.18L932.607,4603.15L932.597,4603.12L932.588,4603.09L932.579,4603.06L932.57,4603.03L932.563,4603L932.555,4602.97L932.548,4602.94L932.541,4602.91L932.535,4602.88L932.53,4602.85L932.524,4602.81L932.52,4602.78L932.515,4602.75L932.511,4602.72L932.508,4602.69L932.506,4602.66L932.503,4602.62L932.501,4602.59L932.5,4602.56L932.499,4602.53L932.499,4602.49L932.499,4596.57L930,4596.57L930,4602.49ZM1077.5,4593.56L1080,4593.56L1080,4585.54L1077.5,4585.54L1077.5,4593.56ZM930,4590.56L932.499,4590.56L932.499,4582.54L930,4582.54L930,4590.56ZM1077.5,4579.52L1080,4579.52L1080,4571.5L1077.5,4571.5L1077.5,4579.52ZM930,4576.52L932.499,4576.52L932.499,4568.5L930,4568.5L930,4576.52ZM1077.5,4565.49L1080,4565.49L1080,4557.47L1077.5,4557.47L1077.5,4565.49ZM930,4562.49L932.499,4562.49L932.499,4554.47L930,4554.47L930,4562.49ZM1077.5,4551.45L1080,4551.45L1080,4543.43L1077.5,4543.43L1077.5,4551.45ZM930,4548.45L932.499,4548.45L932.499,4540.44L930,4540.44L930,4548.45ZM1077.5,4537.42L1080,4537.42L1080,4529.4L1077.5,4529.4L1077.5,4537.42ZM930,4534.42L932.499,4534.42L932.499,4526.4L930,4526.4L930,4534.42ZM1077.5,4523.39L1080,4523.39L1080,4515.36L1077.5,4515.36L1077.5,4523.39ZM930,4520.39L932.499,4520.39L932.499,4512.37L930,4512.37L930,4520.39ZM1077.5,4509.35L1080,4509.35L1080,4501.33L1077.5,4501.33L1077.5,4509.35ZM930,4506.35L932.499,4506.35L932.499,4498.33L930,4498.33L930,4506.35ZM1073.21,4495.01L1074.38,4495.01L1074.42,4495.01L1074.46,4495.01L1074.5,4495.01L1074.55,4495.01L1074.59,4495.01L1074.63,4495.01L1074.66,4495.02L1074.7,4495.02L1074.74,4495.02L1074.78,4495.03L1074.82,4495.03L1074.86,4495.03L1074.9,4495.04L1074.93,4495.04L1074.97,4495.05L1075.02,4495.06L1075.05,4495.06L1075.09,4495.07L1075.13,4495.08L1075.16,4495.08L1075.2,4495.09L1075.24,4495.1L1075.27,4495.11L1075.31,4495.12L1075.35,4495.13L1075.38,4495.14L1075.42,4495.15L1075.45,4495.16L1075.49,4495.17L1075.52,4495.18L1075.59,4495.2L1075.66,4495.23L1075.73,4495.25L1075.8,4495.28L1075.87,4495.31L1075.93,4495.34L1076,4495.37L1076.06,4495.4L1076.12,4495.43L1076.18,4495.47L1076.25,4495.5L1076.31,4495.54L1076.36,4495.57L1076.42,4495.62L1076.48,4495.66L1076.53,4495.7L1076.59,4495.74L1076.64,4495.78L1076.69,4495.83L1076.74,4495.87L1076.79,4495.92L1076.84,4495.96L1076.88,4496.01L1076.93,4496.06L1076.97,4496.11L1077.01,4496.16L1077.05,4496.21L1077.09,4496.26L1077.13,4496.32L1077.16,4496.37L1077.19,4496.42L1077.23,4496.48L1077.26,4496.53L1077.29,4496.6L1077.3,4496.62L1077.31,4496.65L1077.33,4496.68L1077.34,4496.7L1077.35,4496.73L1077.36,4496.76L1077.37,4496.79L1077.38,4496.82L1077.39,4496.85L1077.4,4496.88L1077.41,4496.91L1077.42,4496.94L1077.43,4496.97L1077.44,4497L1077.44,4497.03L1077.45,4497.06L1077.46,4497.09L1077.46,4497.12L1077.47,4497.15L1077.48,4497.19L1077.48,4497.22L1077.49,4497.25L1077.49,4497.28L1077.49,4497.31L1077.5,4497.35L1077.5,4497.38L1077.5,4497.41L1077.5,4497.44L1077.5,4497.47L1077.5,4497.52L1080,4497.51L1080,4497.45L1080,4497.39L1080,4497.33L1079.99,4497.27L1079.99,4497.22L1079.98,4497.16L1079.98,4497.1L1079.97,4497.05L1079.96,4496.99L1079.95,4496.93L1079.94,4496.88L1079.93,4496.82L1079.92,4496.77L1079.91,4496.71L1079.9,4496.65L1079.89,4496.6L1079.87,4496.54L1079.86,4496.49L1079.84,4496.44L1079.82,4496.38L1079.81,4496.33L1079.79,4496.27L1079.77,4496.22L1079.75,4496.17L1079.73,4496.11L1079.7,4496.06L1079.68,4496.01L1079.66,4495.96L1079.63,4495.91L1079.61,4495.86L1079.56,4495.75L1079.5,4495.65L1079.45,4495.55L1079.38,4495.45L1079.32,4495.36L1079.26,4495.26L1079.19,4495.17L1079.12,4495.08L1079.04,4494.99L1078.96,4494.9L1078.88,4494.81L1078.8,4494.73L1078.72,4494.64L1078.63,4494.56L1078.54,4494.48L1078.45,4494.4L1078.35,4494.32L1078.26,4494.24L1078.16,4494.17L1078.06,4494.1L1077.95,4494.03L1077.85,4493.96L1077.74,4493.9L1077.63,4493.83L1077.52,4493.77L1077.41,4493.71L1077.3,4493.65L1077.18,4493.6L1077.06,4493.54L1076.94,4493.49L1076.82,4493.44L1076.69,4493.4L1076.57,4493.35L1076.44,4493.31L1076.38,4493.29L1076.31,4493.27L1076.25,4493.26L1076.18,4493.24L1076.12,4493.22L1076.05,4493.2L1075.99,4493.19L1075.92,4493.17L1075.85,4493.16L1075.79,4493.14L1075.72,4493.13L1075.65,4493.11L1075.58,4493.1L1075.51,4493.09L1075.45,4493.08L1075.38,4493.07L1075.31,4493.06L1075.24,4493.05L1075.17,4493.04L1075.1,4493.04L1075.03,4493.03L1074.96,4493.02L1074.89,4493.02L1074.82,4493.01L1074.74,4493.01L1074.67,4493.01L1074.6,4493L1074.53,4493L1074.46,4493L1074.38,4493L1073.21,4493L1073.21,4495.01ZM935.544,4493L935.472,4493L935.4,4493L935.328,4493.01L935.256,4493.01L935.185,4493.01L935.114,4493.02L935.043,4493.02L934.972,4493.03L934.902,4493.04L934.832,4493.04L934.762,4493.05L934.692,4493.06L934.623,4493.07L934.554,4493.08L934.486,4493.09L934.417,4493.1L934.349,4493.11L934.281,4493.13L934.214,4493.14L934.147,4493.16L934.08,4493.17L934.014,4493.19L933.947,4493.2L933.882,4493.22L933.816,4493.24L933.751,4493.26L933.687,4493.27L933.622,4493.29L933.558,4493.31L933.431,4493.35L933.33,4493.39L934.333,4495.23L934.406,4495.2L934.483,4495.18L934.51,4495.17L934.547,4495.16L934.582,4495.15L934.616,4495.14L934.655,4495.13L934.69,4495.12L934.729,4495.11L934.765,4495.1L934.797,4495.09L934.837,4495.08L934.875,4495.08L934.912,4495.07L934.95,4495.06L934.984,4495.06L935.026,4495.05L935.065,4495.04L935.1,4495.04L935.14,4495.03L935.18,4495.03L935.216,4495.03L935.257,4495.02L935.298,4495.02L935.336,4495.02L935.373,4495.01L935.412,4495.01L935.455,4495.01L935.498,4495.01L935.537,4495.01L935.577,4495.01L935.625,4495.01L943.258,4495.01L943.258,4493L935.617,4493L935.544,4493ZM1055.72,4495.01L1065.71,4495.01L1065.71,4493L1055.72,4493L1055.72,4495.01ZM1038.22,4495.01L1048.22,4495.01L1048.22,4493L1038.22,4493L1038.22,4495.01ZM1020.73,4495.01L1030.72,4495.01L1030.72,4493L1020.73,4493L1020.73,4495.01ZM1003.24,4495.01L1013.23,4495.01L1013.23,4493L1003.24,4493L1003.24,4495.01ZM985.742,4495.01L995.738,4495.01L995.738,4493L985.742,4493L985.742,4495.01ZM968.248,4495.01L978.245,4495.01L978.245,4493L968.248,4493L968.248,4495.01ZM950.755,4495.01L960.751,4495.01L960.751,4493L950.755,4493L950.755,4495.01Z" style="fill:rgb(201,211,223);"/>
        </g>
        <g id="Upload-Video1" serif:id="Upload Video" transform="matrix(-0.890157,0,0,1.10958,2049.42,-3061.4)">
            <path d="M1080,4497.51C1080,4495.02 1077.48,4493 1074.38,4493L935.617,4493C932.517,4493 930,4495.02 930,4497.51L930,4602.49C930,4604.98 932.517,4607 935.617,4607L1074.38,4607C1077.48,4607 1080,4604.98 1080,4602.49L1080,4497.51Z" style="fill:rgb(235,239,243);"/>
            <path d="M1059.36,4607L1069.36,4607L1069.36,4604.99L1059.36,4604.99L1059.36,4607ZM1041.87,4607L1051.86,4607L1051.86,4604.99L1041.87,4604.99L1041.87,4607ZM1024.37,4607L1034.37,4607L1034.37,4604.99L1024.37,4604.99L1024.37,4607ZM1006.88,4607L1016.88,4607L1016.88,4604.99L1006.88,4604.99L1006.88,4607ZM989.386,4607L999.382,4607L999.382,4604.99L989.386,4604.99L989.386,4607ZM971.893,4607L981.889,4607L981.889,4604.99L971.893,4604.99L971.893,4607ZM954.399,4607L964.395,4607L964.395,4604.99L954.399,4604.99L954.399,4607ZM936.905,4607L946.902,4607L946.902,4604.99L936.905,4604.99L936.905,4607ZM1077.5,4602.49L1077.5,4602.53L1077.5,4602.56L1077.5,4602.59L1077.5,4602.62L1077.49,4602.66L1077.49,4602.69L1077.49,4602.72L1077.49,4602.75L1077.48,4602.78L1077.48,4602.81L1077.47,4602.85L1077.46,4602.88L1077.46,4602.91L1077.45,4602.94L1077.44,4602.97L1077.44,4603L1077.43,4603.03L1077.42,4603.06L1077.41,4603.09L1077.4,4603.12L1077.39,4603.15L1077.38,4603.18L1077.37,4603.21L1077.36,4603.24L1077.35,4603.27L1077.34,4603.3L1077.33,4603.32L1077.31,4603.35L1077.3,4603.38L1077.29,4603.4L1077.26,4603.47L1077.23,4603.52L1077.19,4603.58L1077.16,4603.63L1077.13,4603.68L1077.09,4603.74L1077.05,4603.79L1077.01,4603.84L1076.97,4603.89L1076.93,4603.94L1076.88,4603.99L1076.84,4604.04L1076.79,4604.08L1076.74,4604.13L1076.69,4604.18L1076.64,4604.22L1076.59,4604.26L1076.53,4604.3L1076.48,4604.35L1076.42,4604.39L1076.36,4604.42L1076.31,4604.46L1076.25,4604.5L1076.18,4604.53L1076.12,4604.57L1076.06,4604.6L1076,4604.63L1075.93,4604.66L1075.87,4604.69L1075.8,4604.72L1075.73,4604.75L1075.71,4604.76L1076.78,4606.57L1076.82,4606.56L1076.94,4606.51L1077.06,4606.46L1077.18,4606.4L1077.3,4606.35L1077.41,4606.29L1077.52,4606.23L1077.63,4606.17L1077.74,4606.1L1077.85,4606.04L1077.95,4605.97L1078.06,4605.9L1078.16,4605.83L1078.26,4605.76L1078.35,4605.68L1078.45,4605.6L1078.54,4605.52L1078.63,4605.44L1078.72,4605.36L1078.8,4605.28L1078.88,4605.19L1078.96,4605.1L1079.04,4605.01L1079.12,4604.92L1079.19,4604.83L1079.26,4604.74L1079.32,4604.64L1079.38,4604.55L1079.45,4604.45L1079.5,4604.35L1079.56,4604.25L1079.61,4604.15L1079.63,4604.09L1079.66,4604.04L1079.68,4603.99L1079.7,4603.94L1079.73,4603.89L1079.75,4603.83L1079.77,4603.78L1079.79,4603.73L1079.81,4603.67L1079.82,4603.62L1079.84,4603.57L1079.86,4603.51L1079.87,4603.46L1079.89,4603.4L1079.9,4603.35L1079.91,4603.29L1079.92,4603.23L1079.93,4603.18L1079.94,4603.12L1079.95,4603.07L1079.96,4603.01L1079.97,4602.95L1079.98,4602.9L1079.98,4602.84L1079.99,4602.78L1079.99,4602.73L1080,4602.67L1080,4602.61L1080,4602.55L1080,4602.49L1080,4599.57L1077.5,4599.57L1077.5,4602.49ZM930,4602.49L930,4602.55L930.002,4602.61L930.004,4602.67L930.007,4602.73L930.011,4602.78L930.016,4602.84L930.022,4602.9L930.029,4602.95L930.037,4603.01L930.045,4603.07L930.055,4603.12L930.065,4603.18L930.076,4603.23L930.088,4603.29L930.101,4603.35L930.114,4603.4L930.129,4603.46L930.144,4603.51L930.16,4603.57L930.177,4603.62L930.195,4603.67L930.213,4603.73L930.233,4603.78L930.253,4603.83L930.274,4603.89L930.295,4603.94L930.318,4603.99L930.341,4604.04L930.365,4604.09L930.39,4604.15L930.442,4604.25L930.497,4604.35L930.554,4604.45L930.597,4604.52L932.834,4603.62L932.806,4603.58L932.774,4603.52L932.743,4603.47L932.712,4603.4L932.7,4603.38L932.688,4603.35L932.675,4603.32L932.663,4603.3L932.65,4603.27L932.638,4603.24L932.628,4603.21L932.617,4603.18L932.607,4603.15L932.597,4603.12L932.588,4603.09L932.579,4603.06L932.57,4603.03L932.562,4603L932.555,4602.97L932.548,4602.94L932.541,4602.91L932.535,4602.88L932.529,4602.84L932.524,4602.82L932.52,4602.78L932.515,4602.75L932.512,4602.72L932.508,4602.69L932.505,4602.65L932.503,4602.62L932.502,4602.59L932.5,4602.56L932.499,4602.53L932.499,4602.49L932.499,4596.57L930,4596.57L930,4602.49ZM1077.5,4593.56L1080,4593.56L1080,4585.54L1077.5,4585.54L1077.5,4593.56ZM930,4590.56L932.499,4590.56L932.499,4582.54L930,4582.54L930,4590.56ZM1077.5,4579.52L1080,4579.52L1080,4571.5L1077.5,4571.5L1077.5,4579.52ZM930,4576.52L932.499,4576.52L932.499,4568.5L930,4568.5L930,4576.52ZM1077.5,4565.49L1080,4565.49L1080,4557.47L1077.5,4557.47L1077.5,4565.49ZM930,4562.49L932.499,4562.49L932.499,4554.47L930,4554.47L930,4562.49ZM1077.5,4551.45L1080,4551.45L1080,4543.43L1077.5,4543.43L1077.5,4551.45ZM930,4548.45L932.499,4548.45L932.499,4540.44L930,4540.44L930,4548.45ZM1077.5,4537.42L1080,4537.42L1080,4529.4L1077.5,4529.4L1077.5,4537.42ZM930,4534.42L932.499,4534.42L932.499,4526.4L930,4526.4L930,4534.42ZM1077.5,4523.39L1080,4523.39L1080,4515.36L1077.5,4515.36L1077.5,4523.39ZM930,4520.39L932.499,4520.39L932.499,4512.37L930,4512.37L930,4520.39ZM1077.5,4509.35L1080,4509.35L1080,4501.33L1077.5,4501.33L1077.5,4509.35ZM930,4506.35L932.499,4506.35L932.499,4498.33L930,4498.33L930,4506.35ZM1073.21,4495.01L1074.38,4495.01L1074.42,4495.01L1074.46,4495.01L1074.5,4495.01L1074.55,4495.01L1074.59,4495.01L1074.63,4495.01L1074.66,4495.02L1074.7,4495.02L1074.74,4495.02L1074.78,4495.03L1074.82,4495.03L1074.86,4495.03L1074.9,4495.04L1074.93,4495.04L1074.97,4495.05L1075.02,4495.06L1075.05,4495.06L1075.09,4495.07L1075.13,4495.08L1075.16,4495.08L1075.2,4495.09L1075.24,4495.1L1075.27,4495.11L1075.31,4495.12L1075.35,4495.13L1075.38,4495.14L1075.42,4495.15L1075.45,4495.16L1075.49,4495.17L1075.52,4495.18L1075.59,4495.2L1075.66,4495.23L1075.73,4495.25L1075.8,4495.28L1075.87,4495.31L1075.93,4495.34L1076,4495.37L1076.06,4495.4L1076.12,4495.43L1076.19,4495.47L1076.25,4495.5L1076.31,4495.54L1076.36,4495.58L1076.42,4495.61L1076.48,4495.65L1076.53,4495.7L1076.59,4495.74L1076.64,4495.78L1076.69,4495.83L1076.74,4495.87L1076.79,4495.92L1076.84,4495.96L1076.88,4496.01L1076.93,4496.06L1076.97,4496.11L1077.01,4496.16L1077.05,4496.21L1077.09,4496.26L1077.13,4496.32L1077.16,4496.37L1077.19,4496.42L1077.23,4496.48L1077.26,4496.53L1077.29,4496.6L1077.3,4496.62L1077.31,4496.65L1077.33,4496.68L1077.34,4496.7L1077.35,4496.73L1077.36,4496.76L1077.37,4496.79L1077.38,4496.82L1077.39,4496.85L1077.4,4496.88L1077.41,4496.91L1077.42,4496.94L1077.43,4496.97L1077.44,4497L1077.44,4497.03L1077.45,4497.06L1077.46,4497.09L1077.46,4497.12L1077.47,4497.15L1077.48,4497.19L1077.48,4497.22L1077.49,4497.25L1077.49,4497.28L1077.49,4497.31L1077.49,4497.34L1077.5,4497.38L1077.5,4497.41L1077.5,4497.44L1077.5,4497.47L1077.5,4497.52L1080,4497.51L1080,4497.45L1080,4497.39L1080,4497.33L1079.99,4497.27L1079.99,4497.22L1079.98,4497.16L1079.98,4497.1L1079.97,4497.05L1079.96,4496.99L1079.95,4496.93L1079.94,4496.88L1079.93,4496.82L1079.92,4496.77L1079.91,4496.71L1079.9,4496.65L1079.89,4496.6L1079.87,4496.54L1079.86,4496.49L1079.84,4496.44L1079.82,4496.38L1079.81,4496.33L1079.79,4496.27L1079.77,4496.22L1079.75,4496.17L1079.73,4496.11L1079.7,4496.06L1079.68,4496.01L1079.66,4495.96L1079.63,4495.91L1079.61,4495.86L1079.56,4495.75L1079.5,4495.65L1079.45,4495.55L1079.38,4495.45L1079.32,4495.36L1079.26,4495.26L1079.19,4495.17L1079.12,4495.08L1079.04,4494.99L1078.96,4494.9L1078.88,4494.81L1078.8,4494.73L1078.72,4494.64L1078.63,4494.56L1078.54,4494.48L1078.45,4494.4L1078.35,4494.32L1078.26,4494.24L1078.16,4494.17L1078.06,4494.1L1077.95,4494.03L1077.85,4493.96L1077.74,4493.9L1077.63,4493.83L1077.52,4493.77L1077.41,4493.71L1077.3,4493.65L1077.18,4493.6L1077.06,4493.54L1076.94,4493.49L1076.82,4493.44L1076.69,4493.4L1076.57,4493.35L1076.44,4493.31L1076.38,4493.29L1076.31,4493.27L1076.25,4493.26L1076.18,4493.24L1076.12,4493.22L1076.05,4493.2L1075.99,4493.19L1075.92,4493.17L1075.85,4493.16L1075.79,4493.14L1075.72,4493.13L1075.65,4493.11L1075.58,4493.1L1075.51,4493.09L1075.45,4493.08L1075.38,4493.07L1075.31,4493.06L1075.24,4493.05L1075.17,4493.04L1075.1,4493.04L1075.03,4493.03L1074.96,4493.02L1074.89,4493.02L1074.82,4493.01L1074.74,4493.01L1074.67,4493.01L1074.6,4493L1074.53,4493L1074.46,4493L1074.38,4493L1073.21,4493L1073.21,4495.01ZM935.544,4493L935.472,4493L935.4,4493L935.328,4493.01L935.256,4493.01L935.185,4493.01L935.114,4493.02L935.043,4493.02L934.972,4493.03L934.902,4493.04L934.832,4493.04L934.762,4493.05L934.692,4493.06L934.623,4493.07L934.554,4493.08L934.486,4493.09L934.417,4493.1L934.349,4493.11L934.281,4493.13L934.214,4493.14L934.147,4493.16L934.08,4493.17L934.014,4493.19L933.947,4493.2L933.882,4493.22L933.816,4493.24L933.751,4493.26L933.687,4493.27L933.622,4493.29L933.558,4493.31L933.431,4493.35L933.33,4493.39L934.332,4495.23L934.406,4495.2L934.483,4495.18L934.51,4495.17L934.547,4495.16L934.582,4495.15L934.616,4495.14L934.654,4495.13L934.689,4495.12L934.729,4495.11L934.765,4495.1L934.797,4495.09L934.838,4495.08L934.875,4495.08L934.912,4495.07L934.95,4495.06L934.984,4495.06L935.027,4495.05L935.065,4495.04L935.1,4495.04L935.14,4495.03L935.18,4495.03L935.216,4495.03L935.257,4495.02L935.298,4495.02L935.336,4495.02L935.374,4495.01L935.412,4495.01L935.454,4495.01L935.498,4495.01L935.537,4495.01L935.577,4495.01L935.625,4495.01L943.258,4495.01L943.258,4493L935.617,4493L935.544,4493ZM1055.72,4495.01L1065.71,4495.01L1065.71,4493L1055.72,4493L1055.72,4495.01ZM1038.22,4495.01L1048.22,4495.01L1048.22,4493L1038.22,4493L1038.22,4495.01ZM1020.73,4495.01L1030.73,4495.01L1030.73,4493L1020.73,4493L1020.73,4495.01ZM1003.24,4495.01L1013.23,4495.01L1013.23,4493L1003.24,4493L1003.24,4495.01ZM985.742,4495.01L995.738,4495.01L995.738,4493L985.742,4493L985.742,4495.01ZM968.248,4495.01L978.245,4495.01L978.245,4493L968.248,4493L968.248,4495.01ZM950.755,4495.01L960.751,4495.01L960.751,4493L950.755,4493L950.755,4495.01Z" style="fill:rgb(201,211,223);"/>
        </g>
        <g id="Upload-Video2" serif:id="Upload Video" transform="matrix(-0.890157,0,0,1.10958,1891.51,-3061.4)">
            <path d="M1080,4497.51C1080,4495.02 1077.48,4493 1074.38,4493L935.617,4493C932.517,4493 930,4495.02 930,4497.51L930,4602.49C930,4604.98 932.517,4607 935.617,4607L1074.38,4607C1077.48,4607 1080,4604.98 1080,4602.49L1080,4497.51Z" style="fill:rgb(235,239,243);"/>
            <path d="M1059.36,4607L1069.36,4607L1069.36,4604.99L1059.36,4604.99L1059.36,4607ZM1041.87,4607L1051.86,4607L1051.86,4604.99L1041.87,4604.99L1041.87,4607ZM1024.37,4607L1034.37,4607L1034.37,4604.99L1024.37,4604.99L1024.37,4607ZM1006.88,4607L1016.88,4607L1016.88,4604.99L1006.88,4604.99L1006.88,4607ZM989.386,4607L999.382,4607L999.382,4604.99L989.386,4604.99L989.386,4607ZM971.893,4607L981.889,4607L981.889,4604.99L971.893,4604.99L971.893,4607ZM954.399,4607L964.395,4607L964.395,4604.99L954.399,4604.99L954.399,4607ZM936.905,4607L946.902,4607L946.902,4604.99L936.905,4604.99L936.905,4607ZM1077.5,4602.49L1077.5,4602.53L1077.5,4602.56L1077.5,4602.59L1077.5,4602.62L1077.5,4602.65L1077.49,4602.69L1077.49,4602.72L1077.49,4602.75L1077.48,4602.78L1077.48,4602.82L1077.47,4602.85L1077.46,4602.88L1077.46,4602.91L1077.45,4602.94L1077.44,4602.97L1077.44,4603L1077.43,4603.03L1077.42,4603.06L1077.41,4603.09L1077.4,4603.12L1077.39,4603.15L1077.38,4603.18L1077.37,4603.21L1077.36,4603.24L1077.35,4603.27L1077.34,4603.3L1077.33,4603.32L1077.31,4603.35L1077.3,4603.38L1077.29,4603.4L1077.26,4603.47L1077.23,4603.52L1077.19,4603.58L1077.16,4603.63L1077.13,4603.68L1077.09,4603.74L1077.05,4603.79L1077.01,4603.84L1076.97,4603.89L1076.93,4603.94L1076.88,4603.99L1076.84,4604.03L1076.79,4604.08L1076.74,4604.13L1076.69,4604.18L1076.64,4604.22L1076.59,4604.26L1076.53,4604.3L1076.48,4604.35L1076.42,4604.39L1076.36,4604.43L1076.31,4604.46L1076.25,4604.5L1076.18,4604.53L1076.12,4604.57L1076.06,4604.6L1076,4604.63L1075.93,4604.66L1075.87,4604.69L1075.8,4604.72L1075.73,4604.75L1075.71,4604.76L1076.78,4606.57L1076.82,4606.56L1076.94,4606.51L1077.06,4606.46L1077.18,4606.4L1077.3,4606.35L1077.41,4606.29L1077.52,4606.23L1077.63,4606.17L1077.74,4606.1L1077.85,4606.04L1077.95,4605.97L1078.06,4605.9L1078.16,4605.83L1078.26,4605.76L1078.35,4605.68L1078.45,4605.6L1078.54,4605.52L1078.63,4605.44L1078.72,4605.36L1078.8,4605.28L1078.88,4605.19L1078.96,4605.1L1079.04,4605.01L1079.12,4604.92L1079.19,4604.83L1079.26,4604.74L1079.32,4604.64L1079.38,4604.55L1079.45,4604.45L1079.5,4604.35L1079.56,4604.25L1079.61,4604.15L1079.63,4604.09L1079.66,4604.04L1079.68,4603.99L1079.7,4603.94L1079.73,4603.89L1079.75,4603.83L1079.77,4603.78L1079.79,4603.73L1079.81,4603.67L1079.82,4603.62L1079.84,4603.57L1079.86,4603.51L1079.87,4603.46L1079.89,4603.4L1079.9,4603.35L1079.91,4603.29L1079.92,4603.23L1079.93,4603.18L1079.94,4603.12L1079.95,4603.07L1079.96,4603.01L1079.97,4602.95L1079.98,4602.9L1079.98,4602.84L1079.99,4602.78L1079.99,4602.73L1080,4602.67L1080,4602.61L1080,4602.55L1080,4602.49L1080,4599.57L1077.5,4599.57L1077.5,4602.49ZM930,4602.49L930,4602.55L930.002,4602.61L930.004,4602.67L930.007,4602.73L930.011,4602.78L930.016,4602.84L930.022,4602.9L930.029,4602.95L930.037,4603.01L930.045,4603.07L930.055,4603.12L930.065,4603.18L930.076,4603.23L930.088,4603.29L930.101,4603.35L930.114,4603.4L930.129,4603.46L930.144,4603.51L930.16,4603.57L930.177,4603.62L930.195,4603.67L930.213,4603.73L930.233,4603.78L930.253,4603.83L930.274,4603.89L930.295,4603.94L930.318,4603.99L930.341,4604.04L930.365,4604.09L930.39,4604.15L930.442,4604.25L930.497,4604.35L930.554,4604.45L930.597,4604.52L932.835,4603.62L932.806,4603.58L932.774,4603.52L932.743,4603.47L932.712,4603.4L932.701,4603.38L932.687,4603.35L932.674,4603.32L932.663,4603.3L932.651,4603.27L932.639,4603.24L932.628,4603.21L932.617,4603.18L932.607,4603.15L932.597,4603.12L932.588,4603.09L932.579,4603.06L932.57,4603.03L932.563,4603L932.555,4602.97L932.548,4602.94L932.541,4602.91L932.535,4602.88L932.53,4602.85L932.524,4602.81L932.52,4602.78L932.515,4602.75L932.512,4602.72L932.508,4602.69L932.506,4602.66L932.503,4602.62L932.501,4602.59L932.5,4602.56L932.499,4602.53L932.499,4602.49L932.499,4596.57L930,4596.57L930,4602.49ZM1077.5,4593.56L1080,4593.56L1080,4585.54L1077.5,4585.54L1077.5,4593.56ZM930,4590.56L932.499,4590.56L932.499,4582.54L930,4582.54L930,4590.56ZM1077.5,4579.52L1080,4579.52L1080,4571.5L1077.5,4571.5L1077.5,4579.52ZM930,4576.52L932.499,4576.52L932.499,4568.5L930,4568.5L930,4576.52ZM1077.5,4565.49L1080,4565.49L1080,4557.47L1077.5,4557.47L1077.5,4565.49ZM930,4562.49L932.499,4562.49L932.499,4554.47L930,4554.47L930,4562.49ZM1077.5,4551.45L1080,4551.45L1080,4543.43L1077.5,4543.43L1077.5,4551.45ZM930,4548.45L932.499,4548.45L932.499,4540.44L930,4540.44L930,4548.45ZM1077.5,4537.42L1080,4537.42L1080,4529.4L1077.5,4529.4L1077.5,4537.42ZM930,4534.42L932.499,4534.42L932.499,4526.4L930,4526.4L930,4534.42ZM1077.5,4523.39L1080,4523.39L1080,4515.36L1077.5,4515.36L1077.5,4523.39ZM930,4520.39L932.499,4520.39L932.499,4512.37L930,4512.37L930,4520.39ZM1077.5,4509.35L1080,4509.35L1080,4501.33L1077.5,4501.33L1077.5,4509.35ZM930,4506.35L932.499,4506.35L932.499,4498.33L930,4498.33L930,4506.35ZM1073.21,4495.01L1074.38,4495.01L1074.42,4495.01L1074.46,4495.01L1074.5,4495.01L1074.55,4495.01L1074.59,4495.01L1074.63,4495.01L1074.66,4495.02L1074.7,4495.02L1074.74,4495.02L1074.78,4495.03L1074.82,4495.03L1074.86,4495.03L1074.9,4495.04L1074.93,4495.04L1074.97,4495.05L1075.02,4495.06L1075.05,4495.06L1075.09,4495.07L1075.13,4495.08L1075.16,4495.08L1075.2,4495.09L1075.24,4495.1L1075.27,4495.11L1075.31,4495.12L1075.35,4495.13L1075.38,4495.14L1075.42,4495.15L1075.45,4495.16L1075.49,4495.17L1075.52,4495.18L1075.59,4495.2L1075.66,4495.23L1075.73,4495.25L1075.8,4495.28L1075.87,4495.31L1075.93,4495.34L1076,4495.37L1076.06,4495.4L1076.12,4495.43L1076.18,4495.47L1076.25,4495.5L1076.31,4495.54L1076.36,4495.57L1076.42,4495.62L1076.48,4495.66L1076.53,4495.7L1076.59,4495.74L1076.64,4495.78L1076.69,4495.83L1076.74,4495.87L1076.79,4495.92L1076.84,4495.96L1076.88,4496.01L1076.93,4496.06L1076.97,4496.11L1077.01,4496.16L1077.05,4496.21L1077.09,4496.26L1077.13,4496.32L1077.16,4496.37L1077.19,4496.42L1077.23,4496.48L1077.26,4496.53L1077.29,4496.6L1077.3,4496.62L1077.31,4496.65L1077.33,4496.68L1077.34,4496.7L1077.35,4496.73L1077.36,4496.76L1077.37,4496.79L1077.38,4496.82L1077.39,4496.85L1077.4,4496.88L1077.41,4496.91L1077.42,4496.94L1077.43,4496.97L1077.44,4497L1077.44,4497.03L1077.45,4497.06L1077.46,4497.09L1077.46,4497.12L1077.47,4497.15L1077.48,4497.19L1077.48,4497.22L1077.49,4497.25L1077.49,4497.28L1077.49,4497.31L1077.5,4497.35L1077.5,4497.38L1077.5,4497.41L1077.5,4497.44L1077.5,4497.47L1077.5,4497.52L1080,4497.51L1080,4497.45L1080,4497.39L1080,4497.33L1079.99,4497.27L1079.99,4497.22L1079.98,4497.16L1079.98,4497.1L1079.97,4497.05L1079.96,4496.99L1079.95,4496.93L1079.94,4496.88L1079.93,4496.82L1079.92,4496.77L1079.91,4496.71L1079.9,4496.65L1079.89,4496.6L1079.87,4496.54L1079.86,4496.49L1079.84,4496.44L1079.82,4496.38L1079.81,4496.33L1079.79,4496.27L1079.77,4496.22L1079.75,4496.17L1079.73,4496.11L1079.7,4496.06L1079.68,4496.01L1079.66,4495.96L1079.63,4495.91L1079.61,4495.86L1079.56,4495.75L1079.5,4495.65L1079.45,4495.55L1079.38,4495.45L1079.32,4495.36L1079.26,4495.26L1079.19,4495.17L1079.12,4495.08L1079.04,4494.99L1078.96,4494.9L1078.88,4494.81L1078.8,4494.73L1078.72,4494.64L1078.63,4494.56L1078.54,4494.48L1078.45,4494.4L1078.35,4494.32L1078.26,4494.24L1078.16,4494.17L1078.06,4494.1L1077.95,4494.03L1077.85,4493.96L1077.74,4493.9L1077.63,4493.83L1077.52,4493.77L1077.41,4493.71L1077.3,4493.65L1077.18,4493.6L1077.06,4493.54L1076.94,4493.49L1076.82,4493.44L1076.69,4493.4L1076.57,4493.35L1076.44,4493.31L1076.38,4493.29L1076.31,4493.27L1076.25,4493.26L1076.18,4493.24L1076.12,4493.22L1076.05,4493.2L1075.99,4493.19L1075.92,4493.17L1075.85,4493.16L1075.79,4493.14L1075.72,4493.13L1075.65,4493.11L1075.58,4493.1L1075.51,4493.09L1075.45,4493.08L1075.38,4493.07L1075.31,4493.06L1075.24,4493.05L1075.17,4493.04L1075.1,4493.04L1075.03,4493.03L1074.96,4493.02L1074.89,4493.02L1074.82,4493.01L1074.74,4493.01L1074.67,4493.01L1074.6,4493L1074.53,4493L1074.46,4493L1074.38,4493L1073.21,4493L1073.21,4495.01ZM935.544,4493L935.472,4493L935.4,4493L935.328,4493.01L935.256,4493.01L935.185,4493.01L935.114,4493.02L935.043,4493.02L934.972,4493.03L934.902,4493.04L934.832,4493.04L934.762,4493.05L934.692,4493.06L934.623,4493.07L934.554,4493.08L934.486,4493.09L934.417,4493.1L934.349,4493.11L934.281,4493.13L934.214,4493.14L934.147,4493.16L934.08,4493.17L934.014,4493.19L933.947,4493.2L933.882,4493.22L933.816,4493.24L933.751,4493.26L933.687,4493.27L933.622,4493.29L933.558,4493.31L933.431,4493.35L933.33,4493.39L934.333,4495.23L934.406,4495.2L934.483,4495.18L934.51,4495.17L934.547,4495.16L934.582,4495.15L934.616,4495.14L934.655,4495.13L934.69,4495.12L934.729,4495.11L934.765,4495.1L934.797,4495.09L934.838,4495.08L934.875,4495.08L934.912,4495.07L934.95,4495.06L934.984,4495.06L935.026,4495.05L935.065,4495.04L935.101,4495.04L935.14,4495.03L935.18,4495.03L935.216,4495.03L935.257,4495.02L935.298,4495.02L935.336,4495.02L935.373,4495.01L935.412,4495.01L935.455,4495.01L935.498,4495.01L935.537,4495.01L935.577,4495.01L935.625,4495.01L943.258,4495.01L943.258,4493L935.617,4493L935.544,4493ZM1055.72,4495.01L1065.71,4495.01L1065.71,4493L1055.72,4493L1055.72,4495.01ZM1038.22,4495.01L1048.22,4495.01L1048.22,4493L1038.22,4493L1038.22,4495.01ZM1020.73,4495.01L1030.73,4495.01L1030.73,4493L1020.73,4493L1020.73,4495.01ZM1003.24,4495.01L1013.23,4495.01L1013.23,4493L1003.24,4493L1003.24,4495.01ZM985.742,4495.01L995.738,4495.01L995.738,4493L985.742,4493L985.742,4495.01ZM968.248,4495.01L978.245,4495.01L978.245,4493L968.248,4493L968.248,4495.01ZM950.755,4495.01L960.751,4495.01L960.751,4493L950.755,4493L950.755,4495.01Z" style="fill:rgb(201,211,223);"/>
        </g>
    </g>
</svg>
