<?xml version="1.0" encoding="UTF-8" standalone="no"?>
<!DOCTYPE svg PUBLIC "-//W3C//DTD SVG 1.1//EN" "http://www.w3.org/Graphics/SVG/1.1/DTD/svg11.dtd">
<svg width="100%" height="100%" viewBox="0 0 167 181" version="1.1" xmlns="http://www.w3.org/2000/svg" xmlns:xlink="http://www.w3.org/1999/xlink" xml:space="preserve" xmlns:serif="http://www.serif.com/" style="fill-rule:evenodd;clip-rule:evenodd;stroke-linejoin:round;stroke-miterlimit:1.41421;">
    <g transform="matrix(1,0,0,1,-521.032,-224.91)">
        <g transform="matrix(0.45488,0,0,0.460633,260.867,129.034)">
            <text x="589.102px" y="595.24px" style="font-family:'CaviarDreams-Bold', 'Caviar Dreams', sans-serif;font-weight:700;font-size:288px;fill:white;">ee</text>
        </g>
        <g transform="matrix(0.225788,0,0,0.225788,398.102,215.348)">
            <path d="M580.294,595.146C580.294,595.146 557.777,374.574 580.353,308.324C580.353,308.324 544.449,293.548 544.449,258.454L588.234,262.148C588.234,262.148 572.471,231.672 583.855,188.266C583.855,188.266 618.008,253.837 681.058,263.995C681.058,263.995 752.075,174.414 929.842,185.496C1107.61,196.578 1143.51,156.867 1150.52,42.35C1150.52,42.35 1251.67,96.78 1258.52,273.548C1258.52,273.548 1296.73,352.945 1279.02,550.431C1269.47,539.669 1263.68,533.266 1261.63,531.221C1256.68,526.267 1251.62,521.624 1246.46,517.29C1236,508.891 1224.96,501.893 1213.35,496.296C1216.12,467.475 1216.96,417.313 1191.81,403.418C1191.81,403.418 1138.79,462.942 972.888,421.456C972.888,421.456 945.909,433.858 936.941,458.092C936.941,458.092 862.402,375.935 712.202,403.124C712.202,403.124 634.12,404.207 657.957,502.846L657.935,502.859C645.115,510.458 633.05,519.911 621.741,531.221C602.623,550.338 588.808,571.647 580.294,595.146ZM1176.35,122.47C1180.53,257.61 957.82,257.157 881.023,252.997C865.055,252.132 855.395,251.107 855.395,251.107L864.152,239.633C753.595,228.089 679.161,299.592 679.161,299.592C577.361,262.651 595.969,476.216 595.969,476.216C599.514,369.218 678.243,347.715 678.243,347.715C696.633,345.868 698.384,321.857 698.384,321.857C783.327,322.78 772.818,331.092 942.704,359.721C1112.59,388.35 1149.95,319.027 1149.95,319.027C1131.01,329.013 1103.65,329.423 1103.65,329.423C1242.61,268.546 1176.34,121.99 1176.34,121.99L1176.35,122.47Z" style="fill:white;"/>
        </g>
    </g>
</svg>
