<?xml version="1.0" encoding="UTF-8" standalone="no"?>
<!DOCTYPE svg PUBLIC "-//W3C//DTD SVG 1.1//EN" "http://www.w3.org/Graphics/SVG/1.1/DTD/svg11.dtd">
<svg width="100%" height="100%" viewBox="0 0 1660 767" version="1.1" xmlns="http://www.w3.org/2000/svg" xmlns:xlink="http://www.w3.org/1999/xlink" xml:space="preserve" xmlns:serif="http://www.serif.com/" style="fill-rule:evenodd;clip-rule:evenodd;stroke-linejoin:round;stroke-miterlimit:1.41421;">
    <g transform="matrix(1,0,0,1,-383.665,-1543.12)">
        <g transform="matrix(6.7142,0,0,6.74527,-5606.3,-18040.3)">
            <path d="M961.135,2928.28L961.135,2983.66C960.885,2988.32 959.843,2992.68 958.01,2996.72C956.177,3000.76 953.739,3004.26 950.697,3007.22C947.656,3010.18 944.093,3012.51 940.01,3014.22C935.927,3015.93 931.593,3016.78 927.01,3016.78C920.843,3016.78 915.114,3015.26 909.822,3012.22C904.531,3009.18 900.343,3005.03 897.26,2999.78L897.135,2999.53L897.26,2999.41L911.01,2993.41C911.843,2994.91 912.906,2996.22 914.197,2997.34C915.489,2998.47 916.864,2999.39 918.322,3000.09C919.781,3000.8 921.281,3001.34 922.822,3001.72C924.364,3002.09 925.843,3002.28 927.26,3002.28C929.427,3002.28 931.552,3001.82 933.635,3000.9C935.718,2999.98 937.572,2998.65 939.197,2996.89C940.822,2995.14 942.114,2993.05 943.072,2990.63C944.031,2988.21 944.51,2985.5 944.51,2982.49L944.51,2959.57C944.51,2957.15 944.031,2954.87 943.072,2952.74C942.114,2950.61 940.822,2948.77 939.197,2947.23C937.572,2945.68 935.697,2944.45 933.572,2943.53C931.447,2942.62 929.177,2942.16 926.76,2942.16C924.343,2942.16 922.072,2942.62 919.947,2943.54C917.822,2944.46 915.968,2945.7 914.385,2947.26C912.802,2948.81 911.552,2950.65 910.635,2952.8C909.718,2954.93 909.26,2957.22 909.26,2959.66C909.26,2962.09 909.718,2964.36 910.635,2966.45C911.552,2968.55 912.802,2970.4 914.385,2971.99C915.968,2973.59 917.822,2974.85 919.947,2975.77C922.072,2976.69 924.343,2977.16 926.76,2977.16C929.343,2977.16 931.593,2976.7 933.51,2975.78L933.635,2975.78L933.76,2975.91L940.01,2986.95L939.885,2987.07C935.802,2990.38 930.76,2992.03 924.76,2992.03C920.26,2992.03 916.01,2991.18 912.01,2989.47C908.01,2987.76 904.552,2985.45 901.635,2982.53C898.718,2979.61 896.406,2976.18 894.697,2972.22C892.989,2968.26 892.135,2964.07 892.135,2959.66C892.135,2955.16 892.989,2950.95 894.697,2947.03C896.406,2943.11 898.718,2939.7 901.635,2936.78C904.552,2933.86 908.01,2931.55 912.01,2929.84C916.01,2928.14 920.26,2927.28 924.76,2927.28C933.26,2927.28 939.843,2930.46 944.51,2936.83L944.51,2928.28L961.135,2928.28Z" style="fill:white;fill-rule:nonzero;"/>
        </g>
        <g transform="matrix(6.48541,-1.73776,1.7458,6.51543,-10547,-15642.7)">
            <path d="M988.378,2927.28C992.794,2927.28 996.961,2928.14 1000.88,2929.84C1004.79,2931.55 1008.21,2933.86 1011.13,2936.78C1014.04,2939.7 1016.36,2943.11 1018.07,2947.03C1019.77,2950.95 1020.63,2955.16 1020.63,2959.66C1020.63,2962.07 1020.38,2964.41 1019.88,2966.66L1019.75,2966.91L988.003,2966.91L980.003,2954.16L1003.75,2954.16C1002.59,2950.66 1000.65,2947.78 997.94,2945.53C995.232,2943.28 992.044,2942.16 988.378,2942.16C986.128,2942.16 984.003,2942.61 982.003,2943.53C980.003,2944.44 978.274,2945.66 976.815,2947.2C975.357,2948.74 974.211,2950.56 973.378,2952.68C972.544,2954.8 972.128,2957.1 972.128,2959.59C972.128,2961.5 972.503,2963.48 973.253,2965.51C974.003,2967.54 975.086,2969.39 976.503,2971.05C977.919,2972.71 979.628,2974.1 981.628,2975.22C983.628,2976.35 985.878,2976.91 988.378,2976.91C990.628,2976.91 992.69,2976.59 994.565,2975.97C996.44,2975.34 998.211,2973.95 999.878,2971.78L1000,2971.66L1000.25,2971.78L1014.75,2978.17L1014.5,2978.42C1011.5,2982.62 1007.69,2985.9 1003.07,2988.25C998.44,2990.6 993.544,2991.78 988.378,2991.78C983.878,2991.78 979.649,2990.95 975.69,2989.28C971.732,2987.61 968.294,2985.32 965.378,2982.41C962.461,2979.49 960.149,2976.07 958.44,2972.16C956.732,2968.24 955.878,2964.07 955.878,2959.66C955.878,2955.16 956.732,2950.95 958.44,2947.03C960.149,2943.11 962.461,2939.7 965.378,2936.78C968.294,2933.86 971.732,2931.55 975.69,2929.84C979.649,2928.14 983.878,2927.28 988.378,2927.28Z" style="fill:white;fill-rule:nonzero;"/>
        </g>
        <g transform="matrix(6.48541,-1.73776,1.7458,6.51543,-10533.4,-15539.8)">
            <path d="M1047.62,2927.28C1052.04,2927.28 1056.2,2928.14 1060.12,2929.84C1064.04,2931.55 1067.45,2933.86 1070.37,2936.78C1073.29,2939.7 1075.6,2943.11 1077.31,2947.03C1079.02,2950.95 1079.87,2955.16 1079.87,2959.66C1079.87,2962.07 1079.62,2964.41 1079.12,2966.66L1079,2966.91L1047.25,2966.91L1039.25,2954.16L1063,2954.16C1061.83,2950.66 1059.89,2947.78 1057.18,2945.53C1054.47,2943.28 1051.29,2942.16 1047.62,2942.16C1045.37,2942.16 1043.25,2942.61 1041.25,2943.53C1039.25,2944.44 1037.52,2945.66 1036.06,2947.2C1034.6,2948.74 1033.45,2950.56 1032.62,2952.68C1031.79,2954.8 1031.37,2957.1 1031.37,2959.59C1031.37,2961.5 1031.75,2963.48 1032.5,2965.51C1033.25,2967.54 1034.33,2969.39 1035.75,2971.05C1037.16,2972.71 1038.87,2974.1 1040.87,2975.22C1042.87,2976.35 1045.12,2976.91 1047.62,2976.91C1049.87,2976.91 1051.93,2976.59 1053.81,2975.97C1055.68,2975.34 1057.45,2973.95 1059.12,2971.78L1059.25,2971.66L1059.5,2971.78L1074,2978.17L1073.75,2978.42C1070.75,2982.62 1066.93,2985.9 1062.31,2988.25C1057.68,2990.6 1052.79,2991.78 1047.62,2991.78C1043.12,2991.78 1038.89,2990.95 1034.93,2989.28C1030.97,2987.61 1027.54,2985.32 1024.62,2982.41C1021.7,2979.49 1019.39,2976.07 1017.68,2972.16C1015.98,2968.24 1015.12,2964.07 1015.12,2959.66C1015.12,2955.16 1015.98,2950.95 1017.68,2947.03C1019.39,2943.11 1021.7,2939.7 1024.62,2936.78C1027.54,2933.86 1030.97,2931.55 1034.93,2929.84C1038.89,2928.14 1043.12,2927.28 1047.62,2927.28Z" style="fill:white;fill-rule:nonzero;"/>
        </g>
        <g transform="matrix(6.7142,0,0,6.74527,-5606.3,-18040.3)">
            <path d="M1139.36,2928.28C1131.53,2936.03 1124.4,2943.11 1117.99,2949.53L1092.24,2975.28L1092.24,2990.78L1075.61,2990.78L1075.61,2903.28L1092.24,2903.28L1092.24,2953.66L1118.74,2928.28L1139.36,2928.28Z" style="fill:white;"/>
        </g>
        <g transform="matrix(6.7142,-2.46519e-32,4.31408e-32,6.74527,-5606.3,-18040.3)">
            <path d="M1112.38,2964.53C1112.59,2964.75 1114.28,2966.43 1114.47,2966.61C1117.54,2969.68 1116.31,2968.45 1118.55,2970.66C1120.93,2972.99 1122.86,2974.91 1124.36,2976.41C1125.86,2977.91 1127.05,2979.09 1127.93,2979.97C1128.8,2980.84 1129.7,2981.72 1130.61,2982.59C1131.53,2983.47 1132.59,2984.53 1133.8,2985.78C1135.01,2987.03 1136.7,2988.7 1138.86,2990.78L1118.36,2990.78L1118.24,2990.66L1102.22,2974.64L1112.38,2964.53Z" style="fill:white;"/>
        </g>
        <g transform="matrix(1.69304,-1.32545e-17,1.32545e-17,1.69304,-505.732,-2756.25)">
            <path d="M1049.06,2903.28L1062.56,2903.28L1062.56,2914.53L1022.19,2975.41L999.311,2941.03L999.311,2990.78L981.686,2990.78L981.686,2903.28L995.186,2903.28L1022.19,2943.91L1049.06,2903.28Z" style="fill:white;"/>
        </g>
        <g transform="matrix(1.69304,-1.32545e-17,1.32545e-17,1.69304,-505.732,-2756.25)">
            <path d="M975.635,2970.66C973.635,2973.82 971.281,2976.7 968.572,2979.28C965.864,2981.86 962.885,2984.09 959.635,2985.97C956.385,2987.84 952.885,2989.28 949.135,2990.28C945.385,2991.28 941.51,2991.78 937.51,2991.78C931.343,2991.78 925.531,2990.61 920.072,2988.28C914.614,2985.95 909.864,2982.76 905.822,2978.72C901.781,2974.68 898.593,2969.93 896.26,2964.47C893.927,2959.01 892.76,2953.2 892.76,2947.03C892.76,2940.86 893.927,2935.05 896.26,2929.59C898.593,2924.14 901.781,2919.39 905.822,2915.34C909.864,2911.3 914.614,2908.11 920.072,2905.78C925.531,2903.45 931.343,2902.28 937.51,2902.28C941.51,2902.28 945.385,2902.78 949.135,2903.78C952.885,2904.78 956.385,2906.22 959.635,2908.09C962.885,2909.97 965.864,2912.2 968.572,2914.78C971.281,2917.36 973.635,2920.24 975.635,2923.41L961.01,2932.78C958.677,2928.28 955.468,2924.68 951.385,2921.97C947.302,2919.26 942.677,2917.91 937.51,2917.91C933.843,2917.91 930.385,2918.68 927.135,2920.22C923.885,2921.76 921.052,2923.84 918.635,2926.47C916.218,2929.09 914.302,2932.18 912.885,2935.72C911.468,2939.26 910.76,2943.03 910.76,2947.03C910.76,2951.03 911.468,2954.8 912.885,2958.34C914.302,2961.89 916.218,2964.97 918.635,2967.59C921.052,2970.22 923.885,2972.3 927.135,2973.84C930.385,2975.39 933.843,2976.16 937.51,2976.16C942.677,2976.16 947.302,2974.8 951.385,2972.09C955.468,2969.39 958.677,2965.78 961.01,2961.28L975.635,2970.66Z" style="fill:white;fill-rule:nonzero;"/>
        </g>
        <g transform="matrix(1.69304,-1.32545e-17,1.32545e-17,1.69304,-505.732,-2756.25)">
            <path d="M1044.94,2990.78L1044.94,2958.71L1062.56,2932.66L1062.56,2990.78L1044.94,2990.78Z" style="fill:white;"/>
        </g>
        <g transform="matrix(1.69304,-1.32545e-17,1.32545e-17,1.69304,-505.732,-2756.25)">
            <path d="M1109.49,2939.66C1113.49,2940.74 1117.17,2941.95 1120.55,2943.28C1123.92,2944.61 1126.84,2946.24 1129.3,2948.16C1131.76,2950.07 1133.67,2952.36 1135.05,2955.03C1136.42,2957.7 1137.11,2960.86 1137.11,2964.53L1137.11,2964.91C1137.11,2968.91 1136.3,2972.57 1134.67,2975.91C1133.05,2979.24 1130.8,2982.09 1127.92,2984.47C1125.05,2986.84 1121.67,2988.68 1117.8,2989.97C1113.92,2991.26 1109.69,2991.91 1105.11,2991.91C1100.86,2991.91 1096.8,2991.39 1092.92,2990.36C1089.05,2989.32 1085.53,2987.96 1082.36,2986.26C1079.19,2984.57 1076.42,2982.64 1074.05,2980.49C1071.67,2978.34 1069.86,2976.11 1068.61,2973.78L1083.24,2964.53C1084.82,2966.28 1086.4,2967.84 1087.99,2969.22C1089.57,2970.59 1091.24,2971.76 1092.99,2972.72C1094.74,2973.68 1096.65,2974.41 1098.74,2974.91C1100.82,2975.41 1103.11,2975.66 1105.61,2975.66C1107.19,2975.66 1108.8,2975.49 1110.42,2975.16C1112.05,2974.82 1113.53,2974.28 1114.86,2973.53C1116.19,2972.78 1117.28,2971.84 1118.11,2970.71C1118.94,2969.58 1119.36,2968.18 1119.36,2966.51C1119.36,2965.35 1119.07,2964.22 1118.49,2963.14C1117.9,2962.05 1116.9,2960.99 1115.49,2959.94C1114.07,2958.9 1112.15,2957.9 1109.74,2956.94C1107.32,2955.98 1104.28,2955.04 1100.61,2954.12C1096.11,2953.03 1092.07,2951.8 1088.49,2950.43C1084.9,2949.05 1081.86,2947.38 1079.36,2945.42C1076.86,2943.45 1074.94,2941.1 1073.61,2938.34C1072.28,2935.59 1071.61,2932.33 1071.61,2928.58C1071.61,2924.49 1072.38,2920.79 1073.92,2917.49C1075.47,2914.2 1077.61,2911.42 1080.36,2909.17C1083.11,2906.91 1086.34,2905.18 1090.05,2903.97C1093.76,2902.76 1097.74,2902.16 1101.99,2902.16C1106.4,2902.16 1110.4,2902.66 1113.99,2903.66C1117.57,2904.66 1120.78,2905.93 1123.61,2907.47C1126.44,2909.01 1128.92,2910.76 1131.05,2912.72C1133.17,2914.68 1134.94,2916.57 1136.36,2918.41L1121.99,2927.66C1118.4,2924.24 1115.01,2921.84 1111.8,2920.47C1108.59,2919.09 1105.24,2918.41 1101.74,2918.41C1099.57,2918.41 1097.72,2918.68 1096.17,2919.22C1094.63,2919.76 1093.36,2920.43 1092.36,2921.22C1091.36,2922.01 1090.59,2922.91 1090.05,2923.91C1089.51,2924.91 1089.24,2925.86 1089.24,2926.78C1089.24,2928.45 1089.67,2929.89 1090.55,2931.09C1091.42,2932.3 1092.72,2933.41 1094.42,2934.41C1096.13,2935.41 1098.26,2936.32 1100.8,2937.16C1103.34,2937.99 1106.24,2938.82 1109.49,2939.66Z" style="fill:white;fill-rule:nonzero;"/>
        </g>
    </g>
</svg>
