<?xml version="1.0" encoding="UTF-8" standalone="no"?><!DOCTYPE svg PUBLIC "-//W3C//DTD SVG 1.1//EN" "http://www.w3.org/Graphics/SVG/1.1/DTD/svg11.dtd"><svg width="100%" height="100%" viewBox="0 0 512 235" version="1.1" xmlns="http://www.w3.org/2000/svg" xmlns:xlink="http://www.w3.org/1999/xlink" xml:space="preserve" xmlns:serif="http://www.serif.com/" style="fill-rule:evenodd;clip-rule:evenodd;stroke-linejoin:round;stroke-miterlimit:2;"><path d="M155.019,22.914l0,36.524c84.785,0 153.785,69.072 153.785,153.952l36.619,0c0.001,-105 -85.428,-190.476 -190.404,-190.476Z" style="fill:#377fc1;fill-rule:nonzero;"/><path d="M154.972,87.616l0,36.512c23.773,0 46.119,9.298 62.952,26.143c16.809,16.798 26.095,39.25 26.095,63.119l36.679,0c0,-69.357 -56.417,-125.774 -125.726,-125.774Z" style="fill:#377fc1;fill-rule:nonzero;"/><path d="M180.305,162.581c-13.989,0 -25.357,11.392 -25.357,25.297c0,13.988 11.368,25.274 25.357,25.274c14.035,0 25.393,-11.286 25.393,-25.274c-0.012,-13.881 -11.358,-25.297 -25.393,-25.297Z" style="fill:#377fc1;fill-rule:nonzero;"/></svg>