<?xml version="1.0" encoding="UTF-8" standalone="no"?>
<!DOCTYPE svg PUBLIC "-//W3C//DTD SVG 1.1//EN" "http://www.w3.org/Graphics/SVG/1.1/DTD/svg11.dtd">
<svg width="100%" height="100%" viewBox="0 0 512 480" version="1.1" xmlns="http://www.w3.org/2000/svg" xmlns:xlink="http://www.w3.org/1999/xlink" xml:space="preserve" xmlns:serif="http://www.serif.com/" style="fill-rule:evenodd;clip-rule:evenodd;stroke-linejoin:round;stroke-miterlimit:1.41421;">
    <g>
        <path d="M496,0L16,0C7.2,0 0,7.2 0,16L0,464C0,472.8 7.2,480 16,480L496,480C504.8,480 512,472.8 512,464L512,16C512,7.2 504.8,0 496,0ZM496,456C496,460.4 492.4,464 488,464L24,464C19.6,464 16,460.4 16,456L16,72C16,67.6 19.6,64 24,64L488,64C492.4,64 496,67.6 496,72L496,456Z" style="fill:rgb(202,208,215);fill-rule:nonzero;"/>
        <path d="M490,40L118,40C114.7,40 112,37.3 112,34L112,30C112,26.7 114.7,24 118,24L490,24C493.3,24 496,26.7 496,30L496,34C496,37.3 493.3,40 490,40Z" style="fill:rgb(225,230,233);fill-rule:nonzero;"/>
        <path d="M24,40C19.6,40 16,36.4 16,32C16,27.6 19.6,24 24,24C28.4,24 32,27.6 32,32C32,36.4 28.4,40 24,40Z" style="fill:rgb(237,63,60);"/>
        <path d="M64,32C64,27.6 60.4,24 56,24C51.6,24 48,27.6 48,32C48,36.4 51.6,40 56,40C60.4,40 64,36.4 64,32Z" style="fill:rgb(255,184,17);"/>
        <path d="M96,32C96,27.6 92.4,24 88,24C83.6,24 80,27.6 80,32C80,36.4 83.6,40 88,40C92.4,40 96,36.4 96,32Z" style="fill:rgb(58,167,90);"/>
    </g>
    <g>
        <path d="M389.8,183.3L402.5,197.3L434.2,166.3C437.3,163.2 442.4,163.2 445.5,166.3L463.9,184.3L463.9,104C463.9,99.6 460.3,96 455.9,96L344,96C339.6,96 336,99.6 336,104L336,224.7L378.5,183.3C381.6,180.2 386.7,180.2 389.8,183.3Z" style="fill:rgb(182,218,240);fill-rule:nonzero;"/>
        <path d="M445.6,166.3C442.5,163.2 437.4,163.2 434.3,166.3L403,197L402.3,197L389.9,183.3C386.8,180.2 381.7,180.2 378.6,183.3L336,224.7L336,232C336,236.4 339.6,240 344,240L457,240L457,239.9C460.9,239.4 464,236 464,232L464,184.4L445.6,166.3Z" style="fill:rgb(90,91,103);fill-rule:nonzero;"/>
        <path d="M377.5,188.9L366.2,200.2C364.6,201.8 364.6,204.3 366.2,205.9C367.8,207.5 370.3,207.5 371.9,205.9L383.2,194.6C384.8,193 384.8,190.5 383.2,188.9C381.6,187.3 379,187.3 377.5,188.9Z" style="fill:rgb(209,211,212);fill-rule:nonzero;"/>
        <path d="M427.5,177.9L416.2,189.2C414.6,190.8 414.6,193.3 416.2,194.9C417.8,196.5 420.3,196.5 421.9,194.9L433.2,183.6C434.8,182 434.8,179.5 433.2,177.9C431.6,176.3 429,176.3 427.5,177.9Z" style="fill:rgb(209,211,212);fill-rule:nonzero;"/>
        <path d="M418.1,199C414.2,196.3 407.6,196.9 403.1,197.8L403,197.9L403.5,198.4L440,240L456,240C456.3,240 456.6,240 456.9,239.9C455.8,238.7 422.6,201.9 418.1,199Z" style="fill:rgb(54,55,63);fill-rule:nonzero;"/>
        <path d="M376,144C367.2,144 360,136.8 360,128C360,119.2 367.2,112 376,112C384.8,112 392,119.2 392,128C392,136.8 384.8,144 376,144Z" style="fill:rgb(252,179,59);fill-rule:nonzero;"/>
        <path d="M448,140C448,133.4 442.6,128 436,128C430.7,128 426.2,131.4 424.6,136.2C422.9,134.2 420.3,133 417.5,133C412.3,133 408,137.3 408,142.5C408,147.6 412,151.7 417,152L437,152L437,151.9C443.2,151.4 448,146.3 448,140Z" style="fill:white;fill-rule:nonzero;"/>
    </g>
    <g transform="matrix(1,0,0,1,-293.097,0)">
        <path d="M389.8,183.3L402.5,197.3L434.2,166.3C437.3,163.2 442.4,163.2 445.5,166.3L463.9,184.3L463.9,104C463.9,99.6 460.3,96 455.9,96L344,96C339.6,96 336,99.6 336,104L336,224.7L378.5,183.3C381.6,180.2 386.7,180.2 389.8,183.3Z" style="fill:rgb(182,218,240);fill-rule:nonzero;"/>
        <path d="M445.6,166.3C442.5,163.2 437.4,163.2 434.3,166.3L403,197L402.3,197L389.9,183.3C386.8,180.2 381.7,180.2 378.6,183.3L336,224.7L336,232C336,236.4 339.6,240 344,240L457,240L457,239.9C460.9,239.4 464,236 464,232L464,184.4L445.6,166.3Z" style="fill:rgb(90,91,103);fill-rule:nonzero;"/>
        <path d="M377.5,188.9L366.2,200.2C364.6,201.8 364.6,204.3 366.2,205.9C367.8,207.5 370.3,207.5 371.9,205.9L383.2,194.6C384.8,193 384.8,190.5 383.2,188.9C381.6,187.3 379,187.3 377.5,188.9Z" style="fill:rgb(209,211,212);fill-rule:nonzero;"/>
        <path d="M427.5,177.9L416.2,189.2C414.6,190.8 414.6,193.3 416.2,194.9C417.8,196.5 420.3,196.5 421.9,194.9L433.2,183.6C434.8,182 434.8,179.5 433.2,177.9C431.6,176.3 429,176.3 427.5,177.9Z" style="fill:rgb(209,211,212);fill-rule:nonzero;"/>
        <path d="M418.1,199C414.2,196.3 407.6,196.9 403.1,197.8L403,197.9L403.5,198.4L440,240L456,240C456.3,240 456.6,240 456.9,239.9C455.8,238.7 422.6,201.9 418.1,199Z" style="fill:rgb(54,55,63);fill-rule:nonzero;"/>
        <path d="M376,144C367.2,144 360,136.8 360,128C360,119.2 367.2,112 376,112C384.8,112 392,119.2 392,128C392,136.8 384.8,144 376,144Z" style="fill:rgb(252,179,59);fill-rule:nonzero;"/>
        <path d="M448,140C448,133.4 442.6,128 436,128C430.7,128 426.2,131.4 424.6,136.2C422.9,134.2 420.3,133 417.5,133C412.3,133 408,137.3 408,142.5C408,147.6 412,151.7 417,152L437,152L437,151.9C443.2,151.4 448,146.3 448,140Z" style="fill:white;fill-rule:nonzero;"/>
    </g>
    <g transform="matrix(1,0,0,1,-144.425,0)">
        <path d="M389.8,183.3L402.5,197.3L434.2,166.3C437.3,163.2 442.4,163.2 445.5,166.3L463.9,184.3L463.9,104C463.9,99.6 460.3,96 455.9,96L344,96C339.6,96 336,99.6 336,104L336,224.7L378.5,183.3C381.6,180.2 386.7,180.2 389.8,183.3Z" style="fill:rgb(182,218,240);fill-rule:nonzero;"/>
        <path d="M445.6,166.3C442.5,163.2 437.4,163.2 434.3,166.3L403,197L402.3,197L389.9,183.3C386.8,180.2 381.7,180.2 378.6,183.3L336,224.7L336,232C336,236.4 339.6,240 344,240L457,240L457,239.9C460.9,239.4 464,236 464,232L464,184.4L445.6,166.3Z" style="fill:rgb(90,91,103);fill-rule:nonzero;"/>
        <path d="M377.5,188.9L366.2,200.2C364.6,201.8 364.6,204.3 366.2,205.9C367.8,207.5 370.3,207.5 371.9,205.9L383.2,194.6C384.8,193 384.8,190.5 383.2,188.9C381.6,187.3 379,187.3 377.5,188.9Z" style="fill:rgb(209,211,212);fill-rule:nonzero;"/>
        <path d="M427.5,177.9L416.2,189.2C414.6,190.8 414.6,193.3 416.2,194.9C417.8,196.5 420.3,196.5 421.9,194.9L433.2,183.6C434.8,182 434.8,179.5 433.2,177.9C431.6,176.3 429,176.3 427.5,177.9Z" style="fill:rgb(209,211,212);fill-rule:nonzero;"/>
        <path d="M418.1,199C414.2,196.3 407.6,196.9 403.1,197.8L403,197.9L403.5,198.4L440,240L456,240C456.3,240 456.6,240 456.9,239.9C455.8,238.7 422.6,201.9 418.1,199Z" style="fill:rgb(54,55,63);fill-rule:nonzero;"/>
        <path d="M376,144C367.2,144 360,136.8 360,128C360,119.2 367.2,112 376,112C384.8,112 392,119.2 392,128C392,136.8 384.8,144 376,144Z" style="fill:rgb(252,179,59);fill-rule:nonzero;"/>
        <path d="M448,140C448,133.4 442.6,128 436,128C430.7,128 426.2,131.4 424.6,136.2C422.9,134.2 420.3,133 417.5,133C412.3,133 408,137.3 408,142.5C408,147.6 412,151.7 417,152L437,152L437,151.9C443.2,151.4 448,146.3 448,140Z" style="fill:white;fill-rule:nonzero;"/>
    </g>
    <g transform="matrix(1,0,0,1,0,177.193)">
        <path d="M389.8,183.3L402.5,197.3L434.2,166.3C437.3,163.2 442.4,163.2 445.5,166.3L463.9,184.3L463.9,104C463.9,99.6 460.3,96 455.9,96L344,96C339.6,96 336,99.6 336,104L336,224.7L378.5,183.3C381.6,180.2 386.7,180.2 389.8,183.3Z" style="fill:rgb(182,218,240);fill-rule:nonzero;"/>
        <path d="M445.6,166.3C442.5,163.2 437.4,163.2 434.3,166.3L403,197L402.3,197L389.9,183.3C386.8,180.2 381.7,180.2 378.6,183.3L336,224.7L336,232C336,236.4 339.6,240 344,240L457,240L457,239.9C460.9,239.4 464,236 464,232L464,184.4L445.6,166.3Z" style="fill:rgb(90,91,103);fill-rule:nonzero;"/>
        <path d="M377.5,188.9L366.2,200.2C364.6,201.8 364.6,204.3 366.2,205.9C367.8,207.5 370.3,207.5 371.9,205.9L383.2,194.6C384.8,193 384.8,190.5 383.2,188.9C381.6,187.3 379,187.3 377.5,188.9Z" style="fill:rgb(209,211,212);fill-rule:nonzero;"/>
        <path d="M427.5,177.9L416.2,189.2C414.6,190.8 414.6,193.3 416.2,194.9C417.8,196.5 420.3,196.5 421.9,194.9L433.2,183.6C434.8,182 434.8,179.5 433.2,177.9C431.6,176.3 429,176.3 427.5,177.9Z" style="fill:rgb(209,211,212);fill-rule:nonzero;"/>
        <path d="M418.1,199C414.2,196.3 407.6,196.9 403.1,197.8L403,197.9L403.5,198.4L440,240L456,240C456.3,240 456.6,240 456.9,239.9C455.8,238.7 422.6,201.9 418.1,199Z" style="fill:rgb(54,55,63);fill-rule:nonzero;"/>
        <path d="M376,144C367.2,144 360,136.8 360,128C360,119.2 367.2,112 376,112C384.8,112 392,119.2 392,128C392,136.8 384.8,144 376,144Z" style="fill:rgb(252,179,59);fill-rule:nonzero;"/>
        <path d="M448,140C448,133.4 442.6,128 436,128C430.7,128 426.2,131.4 424.6,136.2C422.9,134.2 420.3,133 417.5,133C412.3,133 408,137.3 408,142.5C408,147.6 412,151.7 417,152L437,152L437,151.9C443.2,151.4 448,146.3 448,140Z" style="fill:white;fill-rule:nonzero;"/>
    </g>
    <g transform="matrix(1,0,0,1,-293.097,177.193)">
        <path d="M389.8,183.3L402.5,197.3L434.2,166.3C437.3,163.2 442.4,163.2 445.5,166.3L463.9,184.3L463.9,104C463.9,99.6 460.3,96 455.9,96L344,96C339.6,96 336,99.6 336,104L336,224.7L378.5,183.3C381.6,180.2 386.7,180.2 389.8,183.3Z" style="fill:rgb(182,218,240);fill-rule:nonzero;"/>
        <path d="M445.6,166.3C442.5,163.2 437.4,163.2 434.3,166.3L403,197L402.3,197L389.9,183.3C386.8,180.2 381.7,180.2 378.6,183.3L336,224.7L336,232C336,236.4 339.6,240 344,240L457,240L457,239.9C460.9,239.4 464,236 464,232L464,184.4L445.6,166.3Z" style="fill:rgb(90,91,103);fill-rule:nonzero;"/>
        <path d="M377.5,188.9L366.2,200.2C364.6,201.8 364.6,204.3 366.2,205.9C367.8,207.5 370.3,207.5 371.9,205.9L383.2,194.6C384.8,193 384.8,190.5 383.2,188.9C381.6,187.3 379,187.3 377.5,188.9Z" style="fill:rgb(209,211,212);fill-rule:nonzero;"/>
        <path d="M427.5,177.9L416.2,189.2C414.6,190.8 414.6,193.3 416.2,194.9C417.8,196.5 420.3,196.5 421.9,194.9L433.2,183.6C434.8,182 434.8,179.5 433.2,177.9C431.6,176.3 429,176.3 427.5,177.9Z" style="fill:rgb(209,211,212);fill-rule:nonzero;"/>
        <path d="M418.1,199C414.2,196.3 407.6,196.9 403.1,197.8L403,197.9L403.5,198.4L440,240L456,240C456.3,240 456.6,240 456.9,239.9C455.8,238.7 422.6,201.9 418.1,199Z" style="fill:rgb(54,55,63);fill-rule:nonzero;"/>
        <path d="M376,144C367.2,144 360,136.8 360,128C360,119.2 367.2,112 376,112C384.8,112 392,119.2 392,128C392,136.8 384.8,144 376,144Z" style="fill:rgb(252,179,59);fill-rule:nonzero;"/>
        <path d="M448,140C448,133.4 442.6,128 436,128C430.7,128 426.2,131.4 424.6,136.2C422.9,134.2 420.3,133 417.5,133C412.3,133 408,137.3 408,142.5C408,147.6 412,151.7 417,152L437,152L437,151.9C443.2,151.4 448,146.3 448,140Z" style="fill:white;fill-rule:nonzero;"/>
    </g>
    <g transform="matrix(1,0,0,1,-144.425,177.193)">
        <path d="M389.8,183.3L402.5,197.3L434.2,166.3C437.3,163.2 442.4,163.2 445.5,166.3L463.9,184.3L463.9,104C463.9,99.6 460.3,96 455.9,96L344,96C339.6,96 336,99.6 336,104L336,224.7L378.5,183.3C381.6,180.2 386.7,180.2 389.8,183.3Z" style="fill:rgb(182,218,240);fill-rule:nonzero;"/>
        <path d="M445.6,166.3C442.5,163.2 437.4,163.2 434.3,166.3L403,197L402.3,197L389.9,183.3C386.8,180.2 381.7,180.2 378.6,183.3L336,224.7L336,232C336,236.4 339.6,240 344,240L457,240L457,239.9C460.9,239.4 464,236 464,232L464,184.4L445.6,166.3Z" style="fill:rgb(90,91,103);fill-rule:nonzero;"/>
        <path d="M377.5,188.9L366.2,200.2C364.6,201.8 364.6,204.3 366.2,205.9C367.8,207.5 370.3,207.5 371.9,205.9L383.2,194.6C384.8,193 384.8,190.5 383.2,188.9C381.6,187.3 379,187.3 377.5,188.9Z" style="fill:rgb(209,211,212);fill-rule:nonzero;"/>
        <path d="M427.5,177.9L416.2,189.2C414.6,190.8 414.6,193.3 416.2,194.9C417.8,196.5 420.3,196.5 421.9,194.9L433.2,183.6C434.8,182 434.8,179.5 433.2,177.9C431.6,176.3 429,176.3 427.5,177.9Z" style="fill:rgb(209,211,212);fill-rule:nonzero;"/>
        <path d="M418.1,199C414.2,196.3 407.6,196.9 403.1,197.8L403,197.9L403.5,198.4L440,240L456,240C456.3,240 456.6,240 456.9,239.9C455.8,238.7 422.6,201.9 418.1,199Z" style="fill:rgb(54,55,63);fill-rule:nonzero;"/>
        <path d="M376,144C367.2,144 360,136.8 360,128C360,119.2 367.2,112 376,112C384.8,112 392,119.2 392,128C392,136.8 384.8,144 376,144Z" style="fill:rgb(252,179,59);fill-rule:nonzero;"/>
        <path d="M448,140C448,133.4 442.6,128 436,128C430.7,128 426.2,131.4 424.6,136.2C422.9,134.2 420.3,133 417.5,133C412.3,133 408,137.3 408,142.5C408,147.6 412,151.7 417,152L437,152L437,151.9C443.2,151.4 448,146.3 448,140Z" style="fill:white;fill-rule:nonzero;"/>
    </g>
</svg>
