<?xml version="1.0" encoding="UTF-8" standalone="no"?><!DOCTYPE svg PUBLIC "-//W3C//DTD SVG 1.1//EN" "http://www.w3.org/Graphics/SVG/1.1/DTD/svg11.dtd"><svg width="100%" height="100%" viewBox="0 0 656 369" version="1.1" xmlns="http://www.w3.org/2000/svg" xmlns:xlink="http://www.w3.org/1999/xlink" xml:space="preserve" xmlns:serif="http://www.serif.com/" style="fill-rule:evenodd;clip-rule:evenodd;stroke-linejoin:round;stroke-miterlimit:2;"><g><path d="M480.223,359.63l-297.176,0c-3.892,0 -7.047,-3.155 -7.047,-7.047l0,-287.815c0,-3.891 3.155,-7.047 7.047,-7.047l297.176,0c3.892,0 7.047,3.156 7.047,7.047l0,287.815c0,3.892 -3.155,7.047 -7.047,7.047Z" style="fill:#cfd0d0;fill-rule:nonzero;"/><path d="M480.223,358.45l-297.176,0c-3.892,0 -7.047,-3.155 -7.047,-7.047l0,-287.815c0,-3.892 3.155,-7.047 7.047,-7.047l297.176,0c3.892,0 7.047,3.155 7.047,7.047l0,287.815c0,3.892 -3.155,7.047 -7.047,7.047Z" style="fill:#fff;fill-rule:nonzero;"/><path d="M480.223,357.068l-297.176,0c-3.892,0 -7.047,-3.155 -7.047,-7.047l0,-287.815c0,-3.892 3.155,-7.047 7.047,-7.047l297.176,0c3.892,0 7.047,3.155 7.047,7.047l0,287.815c0,3.892 -3.155,7.047 -7.047,7.047Z" style="fill:#cfd0d0;fill-rule:nonzero;"/><path d="M480.223,355.887l-297.176,0c-3.892,0 -7.047,-3.155 -7.047,-7.047l0,-287.814c0,-3.892 3.155,-7.047 7.047,-7.047l297.176,0c3.892,0 7.047,3.155 7.047,7.047l0,287.814c0,3.892 -3.155,7.047 -7.047,7.047Z" style="fill:#fff;fill-rule:nonzero;"/><path d="M480.223,354.309l-297.176,0c-3.892,0 -7.047,-3.155 -7.047,-7.047l0,-287.815c0,-3.892 3.155,-7.047 7.047,-7.047l297.176,0c3.892,0 7.047,3.155 7.047,7.047l0,287.815c0,3.892 -3.155,7.047 -7.047,7.047Z" style="fill:#cfd0d0;fill-rule:nonzero;"/><path d="M480.223,353.325l-297.176,0c-3.892,0 -7.047,-3.155 -7.047,-7.047l0,-287.815c0,-3.892 3.155,-7.047 7.047,-7.047l297.176,0c3.892,0 7.047,3.155 7.047,7.047l0,287.815c0,3.892 -3.155,7.047 -7.047,7.047Z" style="fill:#ddd;fill-rule:nonzero;"/><path d="M213.33,183.414l236.61,0c2.65,0 4.8,-2.149 4.8,-4.8l0,-25.039c0,-2.65 -2.15,-4.799 -4.8,-4.799l-236.61,0c-2.65,0 -4.8,2.149 -4.8,4.799l0,25.039c0,2.651 2.15,4.8 4.8,4.8Z" style="fill:#f4f5f6;fill-rule:nonzero;"/><g><path d="M220.811,169.769l0,-10.324l2.101,0l0,8.571l5.226,0l0,1.753l-7.327,0Z" style="fill:#7e7e77;fill-rule:nonzero;"/><path d="M229.161,165.893c0,-0.663 0.163,-1.305 0.49,-1.925c0.326,-0.62 0.789,-1.093 1.388,-1.42c0.599,-0.326 1.267,-0.49 2.006,-0.49c1.141,0 2.076,0.371 2.805,1.111c0.729,0.741 1.093,1.677 1.093,2.809c0,1.141 -0.368,2.086 -1.104,2.836c-0.736,0.751 -1.663,1.126 -2.78,1.126c-0.691,0 -1.35,-0.156 -1.977,-0.469c-0.628,-0.312 -1.105,-0.77 -1.431,-1.374c-0.327,-0.603 -0.49,-1.338 -0.49,-2.204Zm2.045,0.106c0,0.748 0.177,1.321 0.532,1.718c0.355,0.398 0.793,0.597 1.314,0.597c0.521,0 0.957,-0.199 1.31,-0.597c0.353,-0.397 0.529,-0.975 0.529,-1.732c0,-0.739 -0.176,-1.307 -0.529,-1.704c-0.353,-0.398 -0.789,-0.597 -1.31,-0.597c-0.521,0 -0.959,0.199 -1.314,0.597c-0.355,0.397 -0.532,0.97 -0.532,1.718Z" style="fill:#7e7e77;fill-rule:nonzero;"/><path d="M238.321,170.267l2.279,0.276c0.038,0.266 0.125,0.448 0.263,0.547c0.189,0.142 0.487,0.213 0.894,0.213c0.521,0 0.912,-0.078 1.172,-0.234c0.175,-0.104 0.308,-0.272 0.398,-0.504c0.061,-0.166 0.092,-0.471 0.092,-0.916l0,-1.101c-0.597,0.814 -1.349,1.221 -2.258,1.221c-1.013,0 -1.815,-0.428 -2.407,-1.285c-0.464,-0.677 -0.696,-1.519 -0.696,-2.528c0,-1.263 0.304,-2.229 0.912,-2.897c0.609,-0.667 1.365,-1.001 2.269,-1.001c0.933,0 1.702,0.41 2.308,1.229l0,-1.058l1.867,0l0,6.766c0,0.89 -0.073,1.556 -0.22,1.996c-0.147,0.44 -0.353,0.786 -0.618,1.036c-0.265,0.251 -0.619,0.448 -1.061,0.59c-0.443,0.142 -1.003,0.213 -1.679,0.213c-1.279,0 -2.185,-0.219 -2.72,-0.657c-0.535,-0.438 -0.802,-0.993 -0.802,-1.665c0,-0.066 0.002,-0.147 0.007,-0.241Zm1.782,-4.424c0,0.8 0.155,1.386 0.465,1.757c0.31,0.372 0.692,0.558 1.147,0.558c0.487,0 0.899,-0.191 1.235,-0.572c0.336,-0.381 0.504,-0.946 0.504,-1.693c0,-0.782 -0.161,-1.361 -0.482,-1.74c-0.322,-0.379 -0.729,-0.568 -1.222,-0.568c-0.478,0 -0.872,0.186 -1.182,0.557c-0.31,0.372 -0.465,0.939 -0.465,1.701Z" style="fill:#7e7e77;fill-rule:nonzero;"/><path d="M247.388,161.206l0,-1.846l1.995,0l0,1.846l-1.995,0Zm0,8.563l0,-7.54l1.995,0l0,7.54l-1.995,0Z" style="fill:#7e7e77;fill-rule:nonzero;"/><path d="M258.288,169.769l-1.996,0l0,-3.848c0,-0.814 -0.042,-1.341 -0.127,-1.58c-0.086,-0.239 -0.224,-0.425 -0.416,-0.557c-0.192,-0.133 -0.422,-0.199 -0.692,-0.199c-0.346,0 -0.656,0.094 -0.93,0.284c-0.275,0.189 -0.463,0.44 -0.565,0.753c-0.102,0.312 -0.152,0.889 -0.152,1.732l0,3.415l-1.996,0l0,-7.54l1.854,0l0,1.107c0.657,-0.852 1.486,-1.278 2.485,-1.278c0.44,0 0.842,0.079 1.207,0.238c0.364,0.159 0.64,0.361 0.827,0.607c0.187,0.246 0.317,0.526 0.391,0.838c0.073,0.312 0.11,0.76 0.11,1.342l0,4.686Z" style="fill:#7e7e77;fill-rule:nonzero;"/></g><g><path d="M263.231,306.583l5.702,0l0,1.945l-3.728,0l0,1.889l3.728,0l0,1.91l-3.728,0l0,2.748l3.728,0l0,1.953l-5.702,0l0,-10.445Z" style="fill:#7e7e77;fill-rule:nonzero;"/><path d="M275.302,310.382l-1.2,1.2c-0.487,-0.483 -0.93,-0.725 -1.327,-0.725c-0.218,0 -0.389,0.047 -0.512,0.139c-0.123,0.092 -0.184,0.207 -0.184,0.344c0,0.104 0.039,0.2 0.117,0.288c0.078,0.087 0.271,0.207 0.579,0.358l0.71,0.355c0.748,0.37 1.261,0.746 1.54,1.129c0.28,0.384 0.419,0.834 0.419,1.35c0,0.686 -0.252,1.259 -0.756,1.718c-0.504,0.459 -1.18,0.689 -2.027,0.689c-1.127,0 -2.026,-0.441 -2.698,-1.321l1.193,-1.299c0.227,0.265 0.493,0.479 0.798,0.642c0.306,0.163 0.577,0.245 0.813,0.245c0.256,0 0.462,-0.061 0.618,-0.184c0.156,-0.124 0.234,-0.266 0.234,-0.427c0,-0.298 -0.281,-0.589 -0.844,-0.873l-0.654,-0.327c-1.249,-0.629 -1.874,-1.417 -1.874,-2.364c0,-0.611 0.235,-1.133 0.706,-1.566c0.471,-0.433 1.074,-0.649 1.807,-0.649c0.502,0 0.974,0.11 1.417,0.33c0.442,0.22 0.818,0.536 1.125,0.948Z" style="fill:#7e7e77;fill-rule:nonzero;"/><path d="M282.673,309.302l1.938,0l0,10.552l-1.938,0l0,-3.643c-0.378,0.36 -0.758,0.619 -1.139,0.778c-0.38,0.158 -0.793,0.238 -1.237,0.238c-0.998,0 -1.861,-0.387 -2.589,-1.161c-0.728,-0.774 -1.092,-1.736 -1.092,-2.887c0,-1.193 0.352,-2.17 1.057,-2.932c0.704,-0.762 1.56,-1.143 2.567,-1.143c0.463,0 0.898,0.087 1.305,0.262c0.407,0.175 0.783,0.438 1.128,0.788l0,-0.852Zm-2.038,1.591c-0.599,0 -1.097,0.212 -1.493,0.635c-0.397,0.424 -0.595,0.967 -0.595,1.63c0,0.667 0.202,1.217 0.605,1.647c0.404,0.431 0.9,0.647 1.49,0.647c0.609,0 1.113,-0.212 1.514,-0.636c0.401,-0.424 0.602,-0.979 0.602,-1.665c0,-0.672 -0.201,-1.217 -0.602,-1.633c-0.401,-0.417 -0.908,-0.625 -1.521,-0.625Z" style="fill:#7e7e77;fill-rule:nonzero;"/><path d="M286.564,309.302l1.96,0l0,3.721c0,0.724 0.05,1.227 0.149,1.509c0.1,0.282 0.26,0.501 0.481,0.657c0.22,0.156 0.492,0.234 0.815,0.234c0.322,0 0.596,-0.077 0.822,-0.231c0.225,-0.154 0.393,-0.38 0.502,-0.678c0.08,-0.222 0.121,-0.698 0.121,-1.427l0,-3.785l1.938,0l0,3.274c0,1.349 -0.106,2.272 -0.319,2.769c-0.261,0.606 -0.644,1.071 -1.151,1.395c-0.506,0.325 -1.15,0.487 -1.931,0.487c-0.847,0 -1.533,-0.19 -2.056,-0.568c-0.523,-0.379 -0.891,-0.907 -1.104,-1.584c-0.151,-0.468 -0.227,-1.321 -0.227,-2.556l0,-3.217Z" style="fill:#7e7e77;fill-rule:nonzero;"/><path d="M303.037,313.726l-6.227,0c0.09,0.549 0.33,0.986 0.721,1.31c0.39,0.324 0.889,0.487 1.495,0.487c0.724,0 1.346,-0.254 1.867,-0.76l1.633,0.767c-0.407,0.577 -0.895,1.004 -1.463,1.281c-0.568,0.277 -1.242,0.416 -2.023,0.416c-1.212,0 -2.199,-0.383 -2.961,-1.147c-0.762,-0.765 -1.143,-1.722 -1.143,-2.872c0,-1.179 0.379,-2.158 1.139,-2.936c0.76,-0.779 1.713,-1.168 2.858,-1.168c1.217,0 2.206,0.389 2.968,1.168c0.762,0.778 1.143,1.807 1.143,3.085l-0.007,0.369Zm-1.938,-1.527c-0.128,-0.43 -0.381,-0.781 -0.758,-1.05c-0.377,-0.27 -0.814,-0.405 -1.312,-0.405c-0.54,0 -1.015,0.151 -1.422,0.454c-0.256,0.19 -0.494,0.523 -0.712,1.001l4.204,0Z" style="fill:#7e7e77;fill-rule:nonzero;"/><path d="M312.169,310.865l-1.614,0.887c-0.303,-0.317 -0.603,-0.537 -0.899,-0.66c-0.297,-0.123 -0.644,-0.185 -1.042,-0.185c-0.725,0 -1.311,0.216 -1.759,0.649c-0.448,0.432 -0.672,0.986 -0.672,1.662c0,0.657 0.216,1.194 0.647,1.61c0.431,0.416 0.998,0.624 1.699,0.624c0.867,0 1.543,-0.296 2.026,-0.888l1.529,1.047c-0.829,1.077 -1.998,1.616 -3.508,1.616c-1.359,0 -2.423,-0.403 -3.192,-1.207c-0.769,-0.805 -1.154,-1.747 -1.154,-2.826c0,-0.748 0.187,-1.437 0.561,-2.067c0.374,-0.629 0.896,-1.124 1.566,-1.484c0.67,-0.36 1.419,-0.539 2.247,-0.539c0.767,0 1.456,0.152 2.067,0.458c0.61,0.305 1.11,0.739 1.498,1.303Z" style="fill:#7e7e77;fill-rule:nonzero;"/><path d="M321.655,313.726l-6.227,0c0.09,0.549 0.33,0.986 0.721,1.31c0.39,0.324 0.888,0.487 1.494,0.487c0.725,0 1.347,-0.254 1.868,-0.76l1.633,0.767c-0.407,0.577 -0.895,1.004 -1.463,1.281c-0.568,0.277 -1.242,0.416 -2.023,0.416c-1.212,0 -2.199,-0.383 -2.961,-1.147c-0.763,-0.765 -1.144,-1.722 -1.144,-2.872c0,-1.179 0.38,-2.158 1.14,-2.936c0.76,-0.779 1.712,-1.168 2.858,-1.168c1.217,0 2.206,0.389 2.968,1.168c0.762,0.778 1.143,1.807 1.143,3.085l-0.007,0.369Zm-1.938,-1.527c-0.128,-0.43 -0.381,-0.781 -0.758,-1.05c-0.377,-0.27 -0.814,-0.405 -1.312,-0.405c-0.541,0 -1.015,0.151 -1.423,0.454c-0.256,0.19 -0.493,0.523 -0.711,1.001l4.204,0Z" style="fill:#7e7e77;fill-rule:nonzero;"/><path d="M323.217,309.302l1.96,0l0,3.721c0,0.724 0.05,1.227 0.15,1.509c0.099,0.282 0.259,0.501 0.48,0.657c0.221,0.156 0.492,0.234 0.815,0.234c0.323,0 0.597,-0.077 0.822,-0.231c0.226,-0.154 0.393,-0.38 0.502,-0.678c0.081,-0.222 0.121,-0.698 0.121,-1.427l0,-3.785l1.939,0l0,3.274c0,1.349 -0.107,2.272 -0.32,2.769c-0.26,0.606 -0.644,1.071 -1.15,1.395c-0.507,0.325 -1.151,0.487 -1.932,0.487c-0.847,0 -1.532,-0.19 -2.055,-0.568c-0.523,-0.379 -0.891,-0.907 -1.104,-1.584c-0.152,-0.468 -0.228,-1.321 -0.228,-2.556l0,-3.217Z" style="fill:#7e7e77;fill-rule:nonzero;"/><path d="M341.722,309.302l1.938,0l0,7.726l-1.938,0l0,-0.817c-0.379,0.36 -0.758,0.619 -1.139,0.778c-0.38,0.158 -0.793,0.238 -1.237,0.238c-0.998,0 -1.861,-0.387 -2.589,-1.161c-0.728,-0.774 -1.092,-1.736 -1.092,-2.887c0,-1.193 0.352,-2.17 1.056,-2.932c0.705,-0.762 1.561,-1.143 2.568,-1.143c0.463,0 0.898,0.087 1.305,0.262c0.406,0.175 0.782,0.438 1.128,0.788l0,-0.852Zm-2.038,1.591c-0.599,0 -1.097,0.212 -1.493,0.635c-0.397,0.424 -0.595,0.967 -0.595,1.63c0,0.667 0.202,1.217 0.605,1.647c0.404,0.431 0.9,0.647 1.49,0.647c0.608,0 1.113,-0.212 1.514,-0.636c0.401,-0.424 0.602,-0.979 0.602,-1.665c0,-0.672 -0.201,-1.217 -0.602,-1.633c-0.401,-0.417 -0.908,-0.625 -1.521,-0.625Z" style="fill:#7e7e77;fill-rule:nonzero;"/><path d="M355.383,308.003l-1.472,1.299c-0.517,-0.719 -1.044,-1.079 -1.58,-1.079c-0.26,0 -0.474,0.07 -0.64,0.21c-0.166,0.139 -0.249,0.297 -0.249,0.472c0,0.175 0.06,0.341 0.178,0.497c0.161,0.208 0.647,0.655 1.458,1.342c0.759,0.634 1.219,1.034 1.38,1.2c0.403,0.407 0.689,0.796 0.857,1.168c0.169,0.371 0.253,0.777 0.253,1.218c0,0.856 -0.296,1.564 -0.889,2.123c-0.592,0.558 -1.365,0.838 -2.317,0.838c-0.744,0 -1.392,-0.183 -1.944,-0.547c-0.552,-0.365 -1.025,-0.937 -1.418,-1.719l1.671,-1.008c0.502,0.923 1.081,1.385 1.735,1.385c0.341,0 0.628,-0.1 0.861,-0.298c0.232,-0.199 0.348,-0.429 0.348,-0.689c0,-0.237 -0.088,-0.474 -0.263,-0.71c-0.176,-0.237 -0.562,-0.599 -1.159,-1.087c-1.139,-0.927 -1.874,-1.643 -2.205,-2.148c-0.332,-0.504 -0.498,-1.007 -0.498,-1.508c0,-0.725 0.276,-1.346 0.828,-1.864c0.552,-0.519 1.233,-0.778 2.044,-0.778c0.521,0 1.018,0.121 1.489,0.362c0.472,0.242 0.982,0.682 1.532,1.321Z" style="fill:#377fc1;fill-rule:nonzero;"/><path d="M364.99,313.726l-6.227,0c0.09,0.549 0.33,0.986 0.721,1.31c0.39,0.324 0.889,0.487 1.494,0.487c0.725,0 1.347,-0.254 1.868,-0.76l1.633,0.767c-0.407,0.577 -0.895,1.004 -1.463,1.281c-0.568,0.277 -1.242,0.416 -2.023,0.416c-1.212,0 -2.199,-0.383 -2.961,-1.147c-0.762,-0.765 -1.144,-1.722 -1.144,-2.872c0,-1.179 0.38,-2.158 1.14,-2.936c0.76,-0.779 1.713,-1.168 2.858,-1.168c1.217,0 2.206,0.389 2.968,1.168c0.762,0.778 1.143,1.807 1.143,3.085l-0.007,0.369Zm-1.938,-1.527c-0.128,-0.43 -0.381,-0.781 -0.758,-1.05c-0.377,-0.27 -0.814,-0.405 -1.312,-0.405c-0.541,0 -1.015,0.151 -1.422,0.454c-0.257,0.19 -0.494,0.523 -0.712,1.001l4.204,0Z" style="fill:#377fc1;fill-rule:nonzero;"/><path d="M366.56,309.302l1.938,0l0,0.792c0.44,-0.37 0.838,-0.628 1.195,-0.773c0.357,-0.145 0.722,-0.217 1.095,-0.217c0.766,0 1.416,0.267 1.95,0.802c0.449,0.454 0.674,1.127 0.674,2.017l0,5.105l-1.918,0l0,-3.383c0,-0.922 -0.041,-1.535 -0.124,-1.837c-0.082,-0.303 -0.226,-0.533 -0.432,-0.692c-0.205,-0.158 -0.459,-0.237 -0.761,-0.237c-0.392,0 -0.729,0.131 -1.01,0.393c-0.281,0.263 -0.475,0.626 -0.584,1.089c-0.057,0.241 -0.085,0.764 -0.085,1.567l0,3.1l-1.938,0l0,-7.726Z" style="fill:#377fc1;fill-rule:nonzero;"/><path d="M375.293,306.32l1.925,0l0,3.763c0.378,-0.326 0.759,-0.571 1.143,-0.734c0.383,-0.164 0.771,-0.245 1.164,-0.245c0.767,0 1.413,0.265 1.939,0.795c0.449,0.459 0.674,1.134 0.674,2.024l0,5.105l-1.91,0l0,-3.387c0,-0.895 -0.042,-1.501 -0.128,-1.818c-0.085,-0.317 -0.23,-0.554 -0.436,-0.71c-0.206,-0.156 -0.461,-0.234 -0.764,-0.234c-0.393,0 -0.73,0.13 -1.011,0.39c-0.282,0.261 -0.477,0.616 -0.586,1.065c-0.057,0.232 -0.085,0.762 -0.085,1.591l0,3.103l-1.925,0l0,-10.708Z" style="fill:#377fc1;fill-rule:nonzero;"/><path d="M389.715,309.302l1.938,0l0,7.726l-1.938,0l0,-0.817c-0.379,0.36 -0.758,0.619 -1.139,0.778c-0.38,0.158 -0.793,0.238 -1.237,0.238c-0.998,0 -1.861,-0.387 -2.589,-1.161c-0.728,-0.774 -1.092,-1.736 -1.092,-2.887c0,-1.193 0.352,-2.17 1.057,-2.932c0.704,-0.762 1.56,-1.143 2.567,-1.143c0.463,0 0.898,0.087 1.305,0.262c0.407,0.175 0.782,0.438 1.128,0.788l0,-0.852Zm-2.038,1.591c-0.599,0 -1.097,0.212 -1.493,0.635c-0.397,0.424 -0.595,0.967 -0.595,1.63c0,0.667 0.202,1.217 0.605,1.647c0.404,0.431 0.9,0.647 1.49,0.647c0.609,0 1.113,-0.212 1.514,-0.636c0.401,-0.424 0.602,-0.979 0.602,-1.665c0,-0.672 -0.201,-1.217 -0.602,-1.633c-0.401,-0.417 -0.908,-0.625 -1.521,-0.625Z" style="fill:#377fc1;fill-rule:nonzero;"/><path d="M395.203,309.274l-1.86,0c-0.009,-0.912 0.303,-1.665 0.937,-2.26c0.635,-0.595 1.47,-0.893 2.507,-0.893c0.667,0 1.235,0.123 1.704,0.37c0.469,0.246 0.844,0.601 1.125,1.065c0.282,0.464 0.423,0.951 0.423,1.462c0,0.28 -0.045,0.554 -0.135,0.824c-0.09,0.27 -0.232,0.547 -0.426,0.831c-0.114,0.165 -0.386,0.445 -0.817,0.838c-0.411,0.374 -0.669,0.638 -0.774,0.791c-0.104,0.154 -0.191,0.359 -0.262,0.615c-0.071,0.255 -0.116,0.61 -0.135,1.065l-1.924,0l-0.008,-0.32c0,-0.634 0.116,-1.21 0.348,-1.729c0.232,-0.518 0.609,-1.005 1.129,-1.459c0.502,-0.44 0.805,-0.743 0.909,-0.909c0.104,-0.166 0.156,-0.36 0.156,-0.582c0,-0.303 -0.126,-0.56 -0.379,-0.771c-0.254,-0.21 -0.593,-0.316 -1.019,-0.316c-0.436,0 -0.793,0.129 -1.073,0.385c-0.279,0.257 -0.421,0.588 -0.426,0.993Zm1.357,5.517c0.345,0 0.64,0.119 0.884,0.355c0.243,0.237 0.365,0.523 0.365,0.859c0,0.336 -0.12,0.624 -0.362,0.863c-0.241,0.239 -0.532,0.359 -0.873,0.359c-0.341,0 -0.631,-0.12 -0.87,-0.359c-0.239,-0.239 -0.359,-0.527 -0.359,-0.863c0,-0.336 0.119,-0.622 0.355,-0.859c0.237,-0.236 0.524,-0.355 0.86,-0.355Z" style="fill:#377fc1;fill-rule:nonzero;"/></g><text x="244.605px" y="127.499px" style="font-family:'CenturyGothic-Bold', 'Century Gothic', sans-serif;font-weight:700;font-size:21.702px;fill:#7e7e77;">Login do Usuário</text><path d="M213.33,232.351l236.61,0c2.65,0 4.8,-2.149 4.8,-4.8l0,-25.038c0,-2.651 -2.15,-4.8 -4.8,-4.8l-236.61,0c-2.65,0 -4.8,2.149 -4.8,4.8l0,25.038c0,2.651 2.15,4.8 4.8,4.8Z" style="fill:#f4f5f6;fill-rule:nonzero;"/><path d="M213.33,281.288l236.61,0c2.65,0 4.8,-2.148 4.8,-4.8l0,-25.038c0,-2.651 -2.15,-4.799 -4.8,-4.799l-236.61,0c-2.65,0 -4.8,2.148 -4.8,4.799l0,25.038c0,2.652 2.15,4.8 4.8,4.8Z" style="fill:#377fc1;fill-rule:nonzero;"/><path d="M314.98,269.552l0,-1.138l-5.638,0l0,-8.968l-1.28,0l0,10.106l6.918,0Z" style="fill:#eeefee;fill-rule:nonzero;"/><path d="M322.069,269.198c0.584,-0.271 1.082,-0.656 1.509,-1.125c0.414,-0.471 0.755,-1.011 0.997,-1.624c0.243,-0.611 0.356,-1.266 0.356,-1.936c0,-0.641 -0.113,-1.266 -0.342,-1.879c-0.227,-0.612 -0.554,-1.153 -0.967,-1.636c-0.414,-0.485 -0.912,-0.884 -1.495,-1.183c-0.584,-0.298 -1.225,-0.441 -1.937,-0.441c-0.682,0 -1.309,0.143 -1.893,0.413c-0.583,0.285 -1.096,0.669 -1.523,1.139c-0.427,0.47 -0.755,1.025 -0.996,1.637c-0.242,0.612 -0.37,1.267 -0.37,1.936c0,0.641 0.113,1.281 0.342,1.894c0.227,0.612 0.554,1.167 0.967,1.636c0.413,0.485 0.926,0.869 1.509,1.154c0.584,0.298 1.224,0.442 1.936,0.442c0.683,0 1.324,-0.144 1.907,-0.427Zm-5.124,-6.151c0.156,-0.469 0.399,-0.896 0.698,-1.266c0.298,-0.371 0.654,-0.67 1.081,-0.898c0.428,-0.227 0.912,-0.342 1.452,-0.342c0.513,0 0.983,0.115 1.41,0.328c0.412,0.214 0.782,0.513 1.096,0.869c0.299,0.37 0.54,0.797 0.712,1.266c0.156,0.484 0.242,0.983 0.242,1.495c0,0.484 -0.072,0.969 -0.228,1.438c-0.156,0.47 -0.384,0.897 -0.684,1.267c-0.299,0.384 -0.669,0.683 -1.096,0.912c-0.427,0.241 -0.91,0.356 -1.452,0.356c-0.526,0 -0.996,-0.115 -1.423,-0.328c-0.428,-0.214 -0.798,-0.513 -1.096,-0.883c-0.299,-0.371 -0.542,-0.797 -0.698,-1.281c-0.171,-0.47 -0.256,-0.969 -0.256,-1.481c0,-0.498 0.085,-0.982 0.242,-1.452Z" style="fill:#eeefee;fill-rule:nonzero;"/><path d="M333.843,269.552l1.082,0l0,-5.039l-3.26,0l0,0.969l2.178,0l0,1.394c-0.883,1.068 -1.879,1.596 -2.975,1.596c-0.498,0 -0.969,-0.101 -1.396,-0.314c-0.427,-0.214 -0.797,-0.499 -1.11,-0.869c-0.314,-0.356 -0.555,-0.783 -0.741,-1.267c-0.184,-0.469 -0.27,-0.982 -0.27,-1.523c0,-0.512 0.086,-1.011 0.242,-1.495c0.157,-0.469 0.384,-0.896 0.684,-1.266c0.299,-0.356 0.655,-0.655 1.067,-0.883c0.413,-0.213 0.883,-0.328 1.396,-0.328c0.625,0 1.195,0.143 1.693,0.428c0.498,0.284 0.911,0.725 1.21,1.309l0.983,-0.683c-0.328,-0.655 -0.811,-1.182 -1.438,-1.594c-0.641,-0.413 -1.438,-0.613 -2.42,-0.613c-0.669,0 -1.296,0.143 -1.879,0.413c-0.584,0.271 -1.082,0.641 -1.495,1.11c-0.412,0.471 -0.74,1.011 -0.982,1.624c-0.243,0.611 -0.356,1.266 -0.356,1.95c0,0.655 0.127,1.295 0.37,1.907c0.242,0.613 0.57,1.168 0.983,1.637c0.412,0.485 0.91,0.869 1.494,1.168c0.569,0.298 1.196,0.442 1.865,0.442c1.153,0 2.177,-0.485 3.075,-1.438l0,1.365Z" style="fill:#eeefee;fill-rule:nonzero;"/><rect x="336.875" y="259.446" width="1.281" height="10.106" style="fill:#eeefee;fill-rule:nonzero;"/><path d="M348.035,269.552l1.082,0l0,-10.092l-1.281,0l0,7.859l-6.264,-7.873l-0.997,0l0,10.106l1.282,0l0,-7.715l6.178,7.715Z" style="fill:#eeefee;fill-rule:nonzero;"/><path d="M223.346,215.396c0,0.845 0.678,1.524 1.523,1.524c0.844,0 1.545,-0.679 1.545,-1.524c0,-0.844 -0.701,-1.545 -1.545,-1.545c-0.845,0 -1.523,0.701 -1.523,1.545Z" style="fill:#7e7e77;fill-rule:nonzero;"/><path d="M228.082,215.396c0,0.845 0.68,1.524 1.524,1.524c0.845,0 1.545,-0.679 1.545,-1.524c0,-0.844 -0.7,-1.545 -1.545,-1.545c-0.844,0 -1.524,0.701 -1.524,1.545Z" style="fill:#7e7e77;fill-rule:nonzero;"/><path d="M232.819,215.396c0,0.845 0.68,1.524 1.525,1.524c0.844,0 1.544,-0.679 1.544,-1.524c0,-0.844 -0.7,-1.545 -1.544,-1.545c-0.845,0 -1.525,0.701 -1.525,1.545Z" style="fill:#7e7e77;fill-rule:nonzero;"/><path d="M237.555,215.396c0,0.845 0.68,1.524 1.525,1.524c0.844,0 1.544,-0.679 1.544,-1.524c0,-0.844 -0.7,-1.545 -1.544,-1.545c-0.845,0 -1.525,0.701 -1.525,1.545Z" style="fill:#7e7e77;fill-rule:nonzero;"/><path d="M242.293,215.396c0,0.845 0.679,1.524 1.523,1.524c0.844,0 1.546,-0.679 1.546,-1.524c0,-0.844 -0.702,-1.545 -1.546,-1.545c-0.844,0 -1.523,0.701 -1.523,1.545Z" style="fill:#7e7e77;fill-rule:nonzero;"/><path d="M247.029,215.396c0,0.845 0.68,1.524 1.524,1.524c0.845,0 1.545,-0.679 1.545,-1.524c0,-0.844 -0.7,-1.545 -1.545,-1.545c-0.844,0 -1.524,0.701 -1.524,1.545Z" style="fill:#7e7e77;fill-rule:nonzero;"/><path d="M251.766,215.396c0,0.845 0.68,1.524 1.525,1.524c0.844,0 1.544,-0.679 1.544,-1.524c0,-0.844 -0.7,-1.545 -1.544,-1.545c-0.845,0 -1.525,0.701 -1.525,1.545Z" style="fill:#7e7e77;fill-rule:nonzero;"/><path d="M256.503,215.396c0,0.845 0.68,1.524 1.524,1.524c0.844,0 1.544,-0.679 1.544,-1.524c0,-0.844 -0.7,-1.545 -1.544,-1.545c-0.844,0 -1.524,0.701 -1.524,1.545Z" style="fill:#7e7e77;fill-rule:nonzero;"/><path d="M375.758,50.334c0,24.299 -19.7,43.999 -44,43.999c-24.299,0 -44,-19.7 -44,-43.999c0,-24.301 19.701,-43.999 44,-43.999c24.3,0 44,19.698 44,43.999Z" style="fill:#377fc1;fill-rule:nonzero;"/><path d="M313.939,71.431c-0.767,0 -1.385,-0.648 -1.328,-1.414c0.724,-9.943 9.02,-17.785 19.147,-17.785c10.128,0 18.423,7.842 19.148,17.785c0.056,0.766 -0.561,1.414 -1.329,1.414l-35.638,0Z" style="fill:#fff;fill-rule:nonzero;"/><path d="M341.498,38.976c0,5.379 -4.362,9.739 -9.74,9.739c-5.379,0 -9.74,-4.36 -9.74,-9.739c0,-5.379 4.361,-9.74 9.74,-9.74c5.378,0 9.74,4.361 9.74,9.74Z" style="fill:#fff;fill-rule:nonzero;"/><path d="M433.898,215.875c-1.017,0.169 -1.886,-0.701 -1.718,-1.717c0.102,-0.615 0.597,-1.111 1.213,-1.213c1.016,-0.168 1.886,0.702 1.719,1.718c-0.102,0.615 -0.599,1.111 -1.214,1.212Zm8.194,-2.273l-5.453,0c-0.389,-1.436 -1.781,-2.464 -3.376,-2.272c-1.408,0.169 -2.542,1.311 -2.702,2.721c-0.21,1.872 1.255,3.463 3.085,3.463c1.431,0 2.635,-0.974 2.993,-2.294l1.977,0l0,1.555l2.426,0l0,-1.555l1.05,0l0,-1.618Z" style="fill:#7e7e77;fill-rule:nonzero;"/><path d="M432.264,170.767c-0.176,0 -0.316,-0.148 -0.303,-0.321c0.166,-2.263 2.052,-4.046 4.357,-4.046c2.303,0 4.19,1.783 4.355,4.046c0.013,0.173 -0.126,0.321 -0.303,0.321l-8.106,0Z" style="fill:#7e7e77;fill-rule:nonzero;"/><path d="M438.534,163.383c0,1.224 -0.992,2.216 -2.216,2.216c-1.225,0 -2.218,-0.992 -2.218,-2.216c0,-1.223 0.993,-2.215 2.218,-2.215c1.224,0 2.216,0.992 2.216,2.215Z" style="fill:#7e7e77;fill-rule:nonzero;"/></g></svg>