<?xml version="1.0" encoding="UTF-8" standalone="no"?>
<!DOCTYPE svg PUBLIC "-//W3C//DTD SVG 1.1//EN" "http://www.w3.org/Graphics/SVG/1.1/DTD/svg11.dtd">
<svg width="100%" height="100%" viewBox="0 0 521 381" version="1.1" xmlns="http://www.w3.org/2000/svg" xmlns:xlink="http://www.w3.org/1999/xlink" xml:space="preserve" xmlns:serif="http://www.serif.com/" style="fill-rule:evenodd;clip-rule:evenodd;stroke-linejoin:round;stroke-miterlimit:2;">
    <g transform="matrix(1,0,0,1,-1302.01,-1121.43)">
        <g id="Input" transform="matrix(2.08333,0,0,2.08333,1010.34,-1232.74)">
            <g id="Base">
                <path d="M390,1135C390,1132.24 387.76,1130 385,1130L145,1130C142.24,1130 140,1132.24 140,1135L140,1170C140,1172.76 142.24,1175 145,1175L385,1175C387.76,1175 390,1172.76 390,1170L390,1135Z" style="fill:rgb(236,239,244);"/>
                <path d="M385.065,1130L385.129,1130L385.193,1130L385.257,1130.01L385.321,1130.01L385.384,1130.02L385.448,1130.02L385.511,1130.03L385.574,1130.03L385.636,1130.04L385.699,1130.05L385.761,1130.06L385.823,1130.07L385.885,1130.08L385.946,1130.09L386.007,1130.1L386.068,1130.12L386.129,1130.13L386.189,1130.14L386.249,1130.16L386.309,1130.17L386.368,1130.19L386.427,1130.21L386.486,1130.23L386.545,1130.24L386.603,1130.26L386.661,1130.28L386.718,1130.3L386.776,1130.33L386.833,1130.35L386.889,1130.37L386.945,1130.39L387.001,1130.42L387.057,1130.44L387.112,1130.47L387.167,1130.49L387.221,1130.52L387.275,1130.55L387.329,1130.58L387.382,1130.6L387.435,1130.63L387.488,1130.66L387.54,1130.69L387.592,1130.72L387.643,1130.76L387.694,1130.79L387.745,1130.82L387.795,1130.85L387.844,1130.89L387.894,1130.92L387.942,1130.96L387.991,1130.99L388.039,1131.03L388.086,1131.07L388.133,1131.1L388.18,1131.14L388.226,1131.18L388.271,1131.22L388.317,1131.26L388.361,1131.3L388.405,1131.34L388.449,1131.38L388.492,1131.42L388.535,1131.46L388.577,1131.51L388.619,1131.55L388.66,1131.6L388.7,1131.64L388.741,1131.68L388.78,1131.73L388.819,1131.77L388.858,1131.82L388.896,1131.87L388.933,1131.91L388.97,1131.96L389.006,1132.01L389.042,1132.06L389.077,1132.11L389.112,1132.16L389.146,1132.2L389.179,1132.26L389.212,1132.31L389.244,1132.36L389.276,1132.41L389.307,1132.46L389.337,1132.51L389.367,1132.57L389.396,1132.62L389.425,1132.67L389.453,1132.73L389.48,1132.78L389.507,1132.83L389.533,1132.89L389.558,1132.94L389.583,1133L389.607,1133.06L389.63,1133.11L389.653,1133.17L389.675,1133.22L389.696,1133.28L389.717,1133.34L389.737,1133.4L389.756,1133.45L389.775,1133.51L389.793,1133.57L389.81,1133.63L389.827,1133.69L389.842,1133.75L389.858,1133.81L389.872,1133.87L389.885,1133.93L389.898,1133.99L389.91,1134.05L389.922,1134.12L389.932,1134.18L389.942,1134.24L389.951,1134.3L389.96,1134.36L389.967,1134.43L389.974,1134.49L389.98,1134.55L389.985,1134.62L389.99,1134.68L389.993,1134.74L389.996,1134.81L389.998,1134.87L390,1134.93L390,1135L390,1170L390,1170.07L389.998,1170.13L389.996,1170.19L389.993,1170.26L389.99,1170.32L389.985,1170.38L389.98,1170.45L389.974,1170.51L389.967,1170.57L389.96,1170.64L389.951,1170.7L389.942,1170.76L389.932,1170.82L389.922,1170.88L389.91,1170.95L389.898,1171.01L389.885,1171.07L389.872,1171.13L389.858,1171.19L389.842,1171.25L389.827,1171.31L389.81,1171.37L389.793,1171.43L389.775,1171.49L389.756,1171.55L389.737,1171.6L389.717,1171.66L389.696,1171.72L389.675,1171.78L389.653,1171.83L389.63,1171.89L389.607,1171.94L389.583,1172L389.558,1172.06L389.533,1172.11L389.507,1172.17L389.48,1172.22L389.453,1172.28L389.425,1172.33L389.396,1172.38L389.367,1172.43L389.337,1172.49L389.307,1172.54L389.276,1172.59L389.244,1172.64L389.212,1172.69L389.179,1172.75L389.146,1172.8L389.112,1172.84L389.077,1172.89L389.042,1172.94L389.006,1172.99L388.97,1173.04L388.933,1173.09L388.896,1173.13L388.858,1173.18L388.819,1173.23L388.78,1173.27L388.741,1173.32L388.7,1173.36L388.66,1173.4L388.619,1173.45L388.577,1173.49L388.535,1173.54L388.492,1173.58L388.449,1173.62L388.405,1173.66L388.361,1173.7L388.317,1173.74L388.271,1173.78L388.226,1173.82L388.18,1173.86L388.133,1173.9L388.086,1173.93L388.039,1173.97L387.991,1174.01L387.942,1174.04L387.894,1174.08L387.844,1174.11L387.795,1174.15L387.745,1174.18L387.694,1174.21L387.643,1174.24L387.592,1174.28L387.54,1174.31L387.488,1174.34L387.435,1174.37L387.382,1174.4L387.329,1174.42L387.275,1174.45L387.221,1174.48L387.167,1174.51L387.112,1174.53L387.057,1174.56L387.001,1174.58L386.945,1174.61L386.889,1174.63L386.833,1174.65L386.776,1174.67L386.718,1174.7L386.661,1174.72L386.603,1174.74L386.545,1174.76L386.486,1174.78L386.427,1174.79L386.368,1174.81L386.309,1174.83L386.249,1174.84L386.189,1174.86L386.129,1174.87L386.068,1174.88L386.007,1174.9L385.946,1174.91L385.885,1174.92L385.823,1174.93L385.761,1174.94L385.699,1174.95L385.636,1174.96L385.574,1174.97L385.511,1174.97L385.448,1174.98L385.384,1174.99L385.321,1174.99L385.257,1174.99L385.193,1175L385.129,1175L385.065,1175L385,1175L145,1175L144.935,1175L144.871,1175L144.807,1175L144.743,1174.99L144.679,1174.99L144.616,1174.99L144.552,1174.98L144.489,1174.97L144.426,1174.97L144.364,1174.96L144.301,1174.95L144.239,1174.94L144.177,1174.93L144.115,1174.92L144.054,1174.91L143.993,1174.9L143.932,1174.88L143.871,1174.87L143.811,1174.86L143.751,1174.84L143.691,1174.83L143.632,1174.81L143.573,1174.79L143.514,1174.78L143.455,1174.76L143.397,1174.74L143.339,1174.72L143.282,1174.7L143.224,1174.67L143.167,1174.65L143.111,1174.63L143.055,1174.61L142.999,1174.58L142.943,1174.56L142.888,1174.53L142.833,1174.51L142.779,1174.48L142.725,1174.45L142.671,1174.42L142.618,1174.4L142.565,1174.37L142.512,1174.34L142.46,1174.31L142.408,1174.28L142.357,1174.24L142.306,1174.21L142.255,1174.18L142.205,1174.15L142.156,1174.11L142.106,1174.08L142.058,1174.04L142.009,1174.01L141.961,1173.97L141.914,1173.93L141.867,1173.9L141.82,1173.86L141.774,1173.82L141.729,1173.78L141.683,1173.74L141.639,1173.7L141.595,1173.66L141.551,1173.62L141.508,1173.58L141.465,1173.54L141.423,1173.49L141.381,1173.45L141.34,1173.4L141.3,1173.36L141.259,1173.32L141.22,1173.27L141.181,1173.23L141.142,1173.18L141.104,1173.13L141.067,1173.09L141.03,1173.04L140.994,1172.99L140.958,1172.94L140.923,1172.89L140.888,1172.84L140.854,1172.8L140.821,1172.75L140.788,1172.69L140.756,1172.64L140.724,1172.59L140.693,1172.54L140.663,1172.49L140.633,1172.43L140.604,1172.38L140.575,1172.33L140.547,1172.28L140.52,1172.22L140.493,1172.17L140.467,1172.11L140.442,1172.06L140.417,1172L140.393,1171.94L140.37,1171.89L140.347,1171.83L140.325,1171.78L140.304,1171.72L140.283,1171.66L140.263,1171.6L140.244,1171.55L140.225,1171.49L140.207,1171.43L140.19,1171.37L140.173,1171.31L140.158,1171.25L140.142,1171.19L140.128,1171.13L140.115,1171.07L140.102,1171.01L140.09,1170.95L140.078,1170.88L140.068,1170.82L140.058,1170.76L140.049,1170.7L140.04,1170.64L140.033,1170.57L140.026,1170.51L140.02,1170.45L140.015,1170.38L140.01,1170.32L140.007,1170.26L140.004,1170.19L140.002,1170.13L140,1170.07L140,1170L140,1135L140,1134.93L140.002,1134.87L140.004,1134.81L140.007,1134.74L140.01,1134.68L140.015,1134.62L140.02,1134.55L140.026,1134.49L140.033,1134.43L140.04,1134.36L140.049,1134.3L140.058,1134.24L140.068,1134.18L140.078,1134.12L140.09,1134.05L140.102,1133.99L140.115,1133.93L140.128,1133.87L140.142,1133.81L140.158,1133.75L140.173,1133.69L140.19,1133.63L140.207,1133.57L140.225,1133.51L140.244,1133.45L140.263,1133.4L140.283,1133.34L140.304,1133.28L140.325,1133.22L140.347,1133.17L140.37,1133.11L140.393,1133.06L140.417,1133L140.442,1132.94L140.467,1132.89L140.493,1132.83L140.52,1132.78L140.547,1132.73L140.575,1132.67L140.604,1132.62L140.633,1132.57L140.663,1132.51L140.693,1132.46L140.724,1132.41L140.756,1132.36L140.788,1132.31L140.821,1132.26L140.854,1132.2L140.888,1132.16L140.923,1132.11L140.958,1132.06L140.994,1132.01L141.03,1131.96L141.067,1131.91L141.104,1131.87L141.142,1131.82L141.181,1131.77L141.22,1131.73L141.259,1131.68L141.3,1131.64L141.34,1131.6L141.381,1131.55L141.423,1131.51L141.465,1131.46L141.508,1131.42L141.551,1131.38L141.595,1131.34L141.639,1131.3L141.683,1131.26L141.729,1131.22L141.774,1131.18L141.82,1131.14L141.867,1131.1L141.914,1131.07L141.961,1131.03L142.009,1130.99L142.058,1130.96L142.106,1130.92L142.156,1130.89L142.205,1130.85L142.255,1130.82L142.306,1130.79L142.357,1130.76L142.408,1130.72L142.46,1130.69L142.512,1130.66L142.565,1130.63L142.618,1130.6L142.671,1130.58L142.725,1130.55L142.779,1130.52L142.833,1130.49L142.888,1130.47L142.943,1130.44L142.999,1130.42L143.055,1130.39L143.111,1130.37L143.167,1130.35L143.224,1130.33L143.282,1130.3L143.339,1130.28L143.397,1130.26L143.455,1130.24L143.514,1130.23L143.573,1130.21L143.632,1130.19L143.691,1130.17L143.751,1130.16L143.811,1130.14L143.871,1130.13L143.932,1130.12L143.993,1130.1L144.054,1130.09L144.115,1130.08L144.177,1130.07L144.239,1130.06L144.301,1130.05L144.364,1130.04L144.426,1130.03L144.489,1130.03L144.552,1130.02L144.616,1130.02L144.679,1130.01L144.743,1130.01L144.807,1130L144.871,1130L144.935,1130L145,1130L385,1130L385.065,1130ZM145.001,1130.48L144.942,1130.48L144.883,1130.48L144.825,1130.48L144.767,1130.49L144.709,1130.49L144.652,1130.49L144.595,1130.5L144.538,1130.5L144.481,1130.51L144.424,1130.52L144.368,1130.52L144.312,1130.53L144.256,1130.54L144.2,1130.55L144.144,1130.56L144.089,1130.57L144.034,1130.58L143.979,1130.6L143.925,1130.61L143.871,1130.62L143.817,1130.64L143.763,1130.65L143.71,1130.67L143.657,1130.68L143.604,1130.7L143.551,1130.72L143.499,1130.74L143.447,1130.75L143.395,1130.77L143.343,1130.79L143.293,1130.81L143.242,1130.84L143.191,1130.86L143.141,1130.88L143.091,1130.9L143.042,1130.93L142.992,1130.95L142.943,1130.98L142.895,1131L142.847,1131.03L142.799,1131.05L142.751,1131.08L142.704,1131.11L142.658,1131.13L142.611,1131.16L142.565,1131.19L142.519,1131.22L142.474,1131.25L142.429,1131.28L142.385,1131.31L142.341,1131.35L142.297,1131.38L142.253,1131.41L142.21,1131.44L142.168,1131.48L142.126,1131.51L142.084,1131.55L142.043,1131.58L142.002,1131.62L141.962,1131.65L141.922,1131.69L141.882,1131.73L141.843,1131.77L141.805,1131.81L141.767,1131.84L141.729,1131.88L141.691,1131.92L141.655,1131.96L141.619,1132L141.583,1132.04L141.547,1132.08L141.513,1132.13L141.478,1132.17L141.444,1132.21L141.411,1132.25L141.378,1132.3L141.346,1132.34L141.314,1132.38L141.283,1132.43L141.252,1132.47L141.222,1132.52L141.192,1132.57L141.163,1132.61L141.134,1132.66L141.106,1132.7L141.079,1132.75L141.052,1132.8L141.026,1132.85L141,1132.89L140.975,1132.94L140.95,1132.99L140.926,1133.04L140.902,1133.09L140.879,1133.14L140.857,1133.19L140.835,1133.24L140.814,1133.29L140.794,1133.34L140.774,1133.39L140.754,1133.45L140.736,1133.5L140.718,1133.55L140.7,1133.6L140.683,1133.66L140.667,1133.71L140.652,1133.76L140.637,1133.82L140.622,1133.87L140.609,1133.92L140.596,1133.98L140.584,1134.03L140.572,1134.09L140.561,1134.14L140.551,1134.2L140.541,1134.26L140.532,1134.31L140.524,1134.37L140.516,1134.42L140.51,1134.48L140.503,1134.54L140.498,1134.6L140.493,1134.65L140.489,1134.71L140.486,1134.77L140.483,1134.83L140.481,1134.88L140.48,1134.94L140.48,1135L140.48,1170L140.48,1170.06L140.481,1170.12L140.483,1170.17L140.486,1170.23L140.489,1170.29L140.493,1170.35L140.498,1170.4L140.503,1170.46L140.51,1170.52L140.516,1170.58L140.524,1170.63L140.532,1170.69L140.541,1170.74L140.551,1170.8L140.561,1170.86L140.572,1170.91L140.584,1170.97L140.596,1171.02L140.609,1171.08L140.622,1171.13L140.637,1171.18L140.652,1171.24L140.667,1171.29L140.683,1171.34L140.7,1171.4L140.718,1171.45L140.736,1171.5L140.754,1171.55L140.774,1171.61L140.794,1171.66L140.814,1171.71L140.835,1171.76L140.857,1171.81L140.879,1171.86L140.902,1171.91L140.926,1171.96L140.95,1172.01L140.975,1172.06L141,1172.11L141.026,1172.15L141.052,1172.2L141.079,1172.25L141.106,1172.3L141.134,1172.34L141.163,1172.39L141.192,1172.43L141.222,1172.48L141.252,1172.53L141.283,1172.57L141.314,1172.62L141.346,1172.66L141.378,1172.7L141.411,1172.75L141.444,1172.79L141.478,1172.83L141.512,1172.87L141.547,1172.92L141.583,1172.96L141.619,1173L141.655,1173.04L141.691,1173.08L141.729,1173.12L141.767,1173.16L141.805,1173.19L141.843,1173.23L141.882,1173.27L141.922,1173.31L141.962,1173.35L142.002,1173.38L142.043,1173.42L142.084,1173.45L142.126,1173.49L142.168,1173.52L142.21,1173.56L142.253,1173.59L142.297,1173.62L142.341,1173.65L142.385,1173.69L142.429,1173.72L142.474,1173.75L142.519,1173.78L142.565,1173.81L142.611,1173.84L142.658,1173.87L142.704,1173.89L142.751,1173.92L142.799,1173.95L142.847,1173.97L142.895,1174L142.944,1174.03L142.992,1174.05L143.042,1174.07L143.091,1174.1L143.141,1174.12L143.191,1174.14L143.242,1174.16L143.292,1174.19L143.344,1174.21L143.395,1174.23L143.447,1174.25L143.499,1174.26L143.551,1174.28L143.604,1174.3L143.657,1174.32L143.71,1174.33L143.763,1174.35L143.817,1174.36L143.871,1174.38L143.925,1174.39L143.979,1174.4L144.034,1174.42L144.089,1174.43L144.144,1174.44L144.2,1174.45L144.256,1174.46L144.312,1174.47L144.368,1174.48L144.424,1174.48L144.481,1174.49L144.538,1174.5L144.595,1174.5L144.652,1174.51L144.71,1174.51L144.767,1174.51L144.825,1174.52L144.883,1174.52L144.942,1174.52L145.002,1174.52L384.998,1174.52L385.058,1174.52L385.117,1174.52L385.175,1174.52L385.233,1174.51L385.29,1174.51L385.348,1174.51L385.405,1174.5L385.462,1174.5L385.519,1174.49L385.576,1174.48L385.632,1174.48L385.688,1174.47L385.744,1174.46L385.8,1174.45L385.856,1174.44L385.911,1174.43L385.966,1174.42L386.021,1174.4L386.075,1174.39L386.129,1174.38L386.183,1174.36L386.237,1174.35L386.29,1174.33L386.343,1174.32L386.396,1174.3L386.449,1174.28L386.501,1174.26L386.553,1174.25L386.605,1174.23L386.656,1174.21L386.708,1174.19L386.758,1174.16L386.809,1174.14L386.859,1174.12L386.909,1174.1L386.959,1174.07L387.008,1174.05L387.056,1174.03L387.105,1174L387.153,1173.97L387.201,1173.95L387.249,1173.92L387.296,1173.89L387.342,1173.87L387.389,1173.84L387.435,1173.81L387.481,1173.78L387.526,1173.75L387.571,1173.72L387.615,1173.69L387.66,1173.65L387.703,1173.62L387.747,1173.59L387.789,1173.56L387.832,1173.52L387.874,1173.49L387.916,1173.45L387.957,1173.42L387.998,1173.38L388.038,1173.35L388.078,1173.31L388.118,1173.27L388.157,1173.23L388.195,1173.19L388.234,1173.16L388.271,1173.12L388.309,1173.08L388.345,1173.04L388.381,1173L388.417,1172.96L388.453,1172.92L388.487,1172.87L388.522,1172.83L388.556,1172.79L388.589,1172.75L388.622,1172.7L388.654,1172.66L388.686,1172.62L388.717,1172.57L388.748,1172.53L388.778,1172.48L388.808,1172.43L388.837,1172.39L388.866,1172.34L388.894,1172.3L388.921,1172.25L388.948,1172.2L388.974,1172.15L389,1172.11L389.025,1172.06L389.05,1172.01L389.074,1171.96L389.098,1171.91L389.121,1171.86L389.143,1171.81L389.165,1171.76L389.186,1171.71L389.207,1171.66L389.226,1171.61L389.246,1171.55L389.264,1171.5L389.282,1171.45L389.3,1171.4L389.317,1171.34L389.333,1171.29L389.349,1171.24L389.363,1171.18L389.378,1171.13L389.391,1171.08L389.404,1171.02L389.416,1170.97L389.428,1170.91L389.439,1170.86L389.449,1170.8L389.459,1170.75L389.468,1170.69L389.476,1170.63L389.484,1170.58L389.49,1170.52L389.497,1170.46L389.502,1170.4L389.507,1170.35L389.511,1170.29L389.514,1170.23L389.517,1170.17L389.519,1170.12L389.52,1170.06L389.52,1170L389.52,1135L389.52,1134.94L389.519,1134.88L389.517,1134.83L389.514,1134.77L389.511,1134.71L389.507,1134.65L389.502,1134.6L389.497,1134.54L389.49,1134.48L389.484,1134.42L389.476,1134.37L389.468,1134.31L389.459,1134.26L389.449,1134.2L389.439,1134.14L389.428,1134.09L389.416,1134.03L389.404,1133.98L389.391,1133.92L389.378,1133.87L389.363,1133.82L389.349,1133.76L389.333,1133.71L389.317,1133.66L389.3,1133.6L389.282,1133.55L389.264,1133.5L389.246,1133.45L389.226,1133.39L389.207,1133.34L389.186,1133.29L389.165,1133.24L389.143,1133.19L389.121,1133.14L389.098,1133.09L389.074,1133.04L389.05,1132.99L389.025,1132.94L389,1132.89L388.974,1132.85L388.948,1132.8L388.921,1132.75L388.894,1132.7L388.866,1132.66L388.837,1132.61L388.808,1132.57L388.778,1132.52L388.748,1132.47L388.717,1132.43L388.686,1132.38L388.654,1132.34L388.622,1132.3L388.589,1132.25L388.556,1132.21L388.522,1132.17L388.487,1132.13L388.453,1132.08L388.417,1132.04L388.382,1132L388.345,1131.96L388.308,1131.92L388.271,1131.88L388.234,1131.84L388.195,1131.81L388.157,1131.77L388.118,1131.73L388.078,1131.69L388.038,1131.65L387.998,1131.62L387.957,1131.58L387.916,1131.55L387.874,1131.51L387.832,1131.48L387.789,1131.44L387.747,1131.41L387.703,1131.38L387.66,1131.35L387.615,1131.31L387.571,1131.28L387.526,1131.25L387.481,1131.22L387.435,1131.19L387.389,1131.16L387.342,1131.13L387.296,1131.11L387.249,1131.08L387.201,1131.05L387.153,1131.03L387.105,1131L387.056,1130.97L387.008,1130.95L386.959,1130.93L386.909,1130.9L386.859,1130.88L386.809,1130.86L386.758,1130.84L386.708,1130.81L386.657,1130.79L386.605,1130.77L386.553,1130.75L386.501,1130.74L386.449,1130.72L386.396,1130.7L386.343,1130.68L386.29,1130.67L386.237,1130.65L386.183,1130.64L386.129,1130.62L386.075,1130.61L386.021,1130.6L385.966,1130.58L385.911,1130.57L385.856,1130.56L385.8,1130.55L385.744,1130.54L385.688,1130.53L385.632,1130.52L385.576,1130.52L385.519,1130.51L385.462,1130.5L385.405,1130.5L385.348,1130.49L385.291,1130.49L385.233,1130.49L385.175,1130.48L385.117,1130.48L385.058,1130.48L384.999,1130.48L145.001,1130.48Z" style="fill:rgb(201,211,223);"/>
            </g>
            <g id="Grade-UI-Kit" serif:id="Grade UI Kit" transform="matrix(1,0,0,1,154.871,1157.68)">
                <text x="0px" y="0px" style="font-family:'ArialMT', 'Arial', sans-serif;font-size:15px;fill:rgb(132,147,168);">Grade UI Kit</text>
            </g>
        </g>
        <g id="Input1" serif:id="Input" transform="matrix(2.08333,0,0,2.08333,1010.34,-1232.74)">
            <g id="Base1" serif:id="Base">
                <path d="M390,1135C390,1132.24 387.76,1130 385,1130L145,1130C142.24,1130 140,1132.24 140,1135L140,1170C140,1172.76 142.24,1175 145,1175L385,1175C387.76,1175 390,1172.76 390,1170L390,1135Z" style="fill:rgb(236,239,244);"/>
                <path d="M385.065,1130L385.129,1130L385.193,1130L385.257,1130.01L385.321,1130.01L385.384,1130.02L385.448,1130.02L385.511,1130.03L385.574,1130.03L385.636,1130.04L385.699,1130.05L385.761,1130.06L385.823,1130.07L385.885,1130.08L385.946,1130.09L386.007,1130.1L386.068,1130.12L386.129,1130.13L386.189,1130.14L386.249,1130.16L386.309,1130.17L386.368,1130.19L386.427,1130.21L386.486,1130.23L386.545,1130.24L386.603,1130.26L386.661,1130.28L386.718,1130.3L386.776,1130.33L386.833,1130.35L386.889,1130.37L386.945,1130.39L387.001,1130.42L387.057,1130.44L387.112,1130.47L387.167,1130.49L387.221,1130.52L387.275,1130.55L387.329,1130.58L387.382,1130.6L387.435,1130.63L387.488,1130.66L387.54,1130.69L387.592,1130.72L387.643,1130.76L387.694,1130.79L387.745,1130.82L387.795,1130.85L387.844,1130.89L387.894,1130.92L387.942,1130.96L387.991,1130.99L388.039,1131.03L388.086,1131.07L388.133,1131.1L388.18,1131.14L388.226,1131.18L388.271,1131.22L388.317,1131.26L388.361,1131.3L388.405,1131.34L388.449,1131.38L388.492,1131.42L388.535,1131.46L388.577,1131.51L388.619,1131.55L388.66,1131.6L388.7,1131.64L388.741,1131.68L388.78,1131.73L388.819,1131.77L388.858,1131.82L388.896,1131.87L388.933,1131.91L388.97,1131.96L389.006,1132.01L389.042,1132.06L389.077,1132.11L389.112,1132.16L389.146,1132.2L389.179,1132.26L389.212,1132.31L389.244,1132.36L389.276,1132.41L389.307,1132.46L389.337,1132.51L389.367,1132.57L389.396,1132.62L389.425,1132.67L389.453,1132.73L389.48,1132.78L389.507,1132.83L389.533,1132.89L389.558,1132.94L389.583,1133L389.607,1133.06L389.63,1133.11L389.653,1133.17L389.675,1133.22L389.696,1133.28L389.717,1133.34L389.737,1133.4L389.756,1133.45L389.775,1133.51L389.793,1133.57L389.81,1133.63L389.827,1133.69L389.842,1133.75L389.858,1133.81L389.872,1133.87L389.885,1133.93L389.898,1133.99L389.91,1134.05L389.922,1134.12L389.932,1134.18L389.942,1134.24L389.951,1134.3L389.96,1134.36L389.967,1134.43L389.974,1134.49L389.98,1134.55L389.985,1134.62L389.99,1134.68L389.993,1134.74L389.996,1134.81L389.998,1134.87L390,1134.93L390,1135L390,1170L390,1170.07L389.998,1170.13L389.996,1170.19L389.993,1170.26L389.99,1170.32L389.985,1170.38L389.98,1170.45L389.974,1170.51L389.967,1170.57L389.96,1170.64L389.951,1170.7L389.942,1170.76L389.932,1170.82L389.922,1170.88L389.91,1170.95L389.898,1171.01L389.885,1171.07L389.872,1171.13L389.858,1171.19L389.842,1171.25L389.827,1171.31L389.81,1171.37L389.793,1171.43L389.775,1171.49L389.756,1171.55L389.737,1171.6L389.717,1171.66L389.696,1171.72L389.675,1171.78L389.653,1171.83L389.63,1171.89L389.607,1171.94L389.583,1172L389.558,1172.06L389.533,1172.11L389.507,1172.17L389.48,1172.22L389.453,1172.28L389.425,1172.33L389.396,1172.38L389.367,1172.43L389.337,1172.49L389.307,1172.54L389.276,1172.59L389.244,1172.64L389.212,1172.69L389.179,1172.75L389.146,1172.8L389.112,1172.84L389.077,1172.89L389.042,1172.94L389.006,1172.99L388.97,1173.04L388.933,1173.09L388.896,1173.13L388.858,1173.18L388.819,1173.23L388.78,1173.27L388.741,1173.32L388.7,1173.36L388.66,1173.4L388.619,1173.45L388.577,1173.49L388.535,1173.54L388.492,1173.58L388.449,1173.62L388.405,1173.66L388.361,1173.7L388.317,1173.74L388.271,1173.78L388.226,1173.82L388.18,1173.86L388.133,1173.9L388.086,1173.93L388.039,1173.97L387.991,1174.01L387.942,1174.04L387.894,1174.08L387.844,1174.11L387.795,1174.15L387.745,1174.18L387.694,1174.21L387.643,1174.24L387.592,1174.28L387.54,1174.31L387.488,1174.34L387.435,1174.37L387.382,1174.4L387.329,1174.42L387.275,1174.45L387.221,1174.48L387.167,1174.51L387.112,1174.53L387.057,1174.56L387.001,1174.58L386.945,1174.61L386.889,1174.63L386.833,1174.65L386.776,1174.67L386.718,1174.7L386.661,1174.72L386.603,1174.74L386.545,1174.76L386.486,1174.78L386.427,1174.79L386.368,1174.81L386.309,1174.83L386.249,1174.84L386.189,1174.86L386.129,1174.87L386.068,1174.88L386.007,1174.9L385.946,1174.91L385.885,1174.92L385.823,1174.93L385.761,1174.94L385.699,1174.95L385.636,1174.96L385.574,1174.97L385.511,1174.97L385.448,1174.98L385.384,1174.99L385.321,1174.99L385.257,1174.99L385.193,1175L385.129,1175L385.065,1175L385,1175L145,1175L144.935,1175L144.871,1175L144.807,1175L144.743,1174.99L144.679,1174.99L144.616,1174.99L144.552,1174.98L144.489,1174.97L144.426,1174.97L144.364,1174.96L144.301,1174.95L144.239,1174.94L144.177,1174.93L144.115,1174.92L144.054,1174.91L143.993,1174.9L143.932,1174.88L143.871,1174.87L143.811,1174.86L143.751,1174.84L143.691,1174.83L143.632,1174.81L143.573,1174.79L143.514,1174.78L143.455,1174.76L143.397,1174.74L143.339,1174.72L143.282,1174.7L143.224,1174.67L143.167,1174.65L143.111,1174.63L143.055,1174.61L142.999,1174.58L142.943,1174.56L142.888,1174.53L142.833,1174.51L142.779,1174.48L142.725,1174.45L142.671,1174.42L142.618,1174.4L142.565,1174.37L142.512,1174.34L142.46,1174.31L142.408,1174.28L142.357,1174.24L142.306,1174.21L142.255,1174.18L142.205,1174.15L142.156,1174.11L142.106,1174.08L142.058,1174.04L142.009,1174.01L141.961,1173.97L141.914,1173.93L141.867,1173.9L141.82,1173.86L141.774,1173.82L141.729,1173.78L141.683,1173.74L141.639,1173.7L141.595,1173.66L141.551,1173.62L141.508,1173.58L141.465,1173.54L141.423,1173.49L141.381,1173.45L141.34,1173.4L141.3,1173.36L141.259,1173.32L141.22,1173.27L141.181,1173.23L141.142,1173.18L141.104,1173.13L141.067,1173.09L141.03,1173.04L140.994,1172.99L140.958,1172.94L140.923,1172.89L140.888,1172.84L140.854,1172.8L140.821,1172.75L140.788,1172.69L140.756,1172.64L140.724,1172.59L140.693,1172.54L140.663,1172.49L140.633,1172.43L140.604,1172.38L140.575,1172.33L140.547,1172.28L140.52,1172.22L140.493,1172.17L140.467,1172.11L140.442,1172.06L140.417,1172L140.393,1171.94L140.37,1171.89L140.347,1171.83L140.325,1171.78L140.304,1171.72L140.283,1171.66L140.263,1171.6L140.244,1171.55L140.225,1171.49L140.207,1171.43L140.19,1171.37L140.173,1171.31L140.158,1171.25L140.142,1171.19L140.128,1171.13L140.115,1171.07L140.102,1171.01L140.09,1170.95L140.078,1170.88L140.068,1170.82L140.058,1170.76L140.049,1170.7L140.04,1170.64L140.033,1170.57L140.026,1170.51L140.02,1170.45L140.015,1170.38L140.01,1170.32L140.007,1170.26L140.004,1170.19L140.002,1170.13L140,1170.07L140,1170L140,1135L140,1134.93L140.002,1134.87L140.004,1134.81L140.007,1134.74L140.01,1134.68L140.015,1134.62L140.02,1134.55L140.026,1134.49L140.033,1134.43L140.04,1134.36L140.049,1134.3L140.058,1134.24L140.068,1134.18L140.078,1134.12L140.09,1134.05L140.102,1133.99L140.115,1133.93L140.128,1133.87L140.142,1133.81L140.158,1133.75L140.173,1133.69L140.19,1133.63L140.207,1133.57L140.225,1133.51L140.244,1133.45L140.263,1133.4L140.283,1133.34L140.304,1133.28L140.325,1133.22L140.347,1133.17L140.37,1133.11L140.393,1133.06L140.417,1133L140.442,1132.94L140.467,1132.89L140.493,1132.83L140.52,1132.78L140.547,1132.73L140.575,1132.67L140.604,1132.62L140.633,1132.57L140.663,1132.51L140.693,1132.46L140.724,1132.41L140.756,1132.36L140.788,1132.31L140.821,1132.26L140.854,1132.2L140.888,1132.16L140.923,1132.11L140.958,1132.06L140.994,1132.01L141.03,1131.96L141.067,1131.91L141.104,1131.87L141.142,1131.82L141.181,1131.77L141.22,1131.73L141.259,1131.68L141.3,1131.64L141.34,1131.6L141.381,1131.55L141.423,1131.51L141.465,1131.46L141.508,1131.42L141.551,1131.38L141.595,1131.34L141.639,1131.3L141.683,1131.26L141.729,1131.22L141.774,1131.18L141.82,1131.14L141.867,1131.1L141.914,1131.07L141.961,1131.03L142.009,1130.99L142.058,1130.96L142.106,1130.92L142.156,1130.89L142.205,1130.85L142.255,1130.82L142.306,1130.79L142.357,1130.76L142.408,1130.72L142.46,1130.69L142.512,1130.66L142.565,1130.63L142.618,1130.6L142.671,1130.58L142.725,1130.55L142.779,1130.52L142.833,1130.49L142.888,1130.47L142.943,1130.44L142.999,1130.42L143.055,1130.39L143.111,1130.37L143.167,1130.35L143.224,1130.33L143.282,1130.3L143.339,1130.28L143.397,1130.26L143.455,1130.24L143.514,1130.23L143.573,1130.21L143.632,1130.19L143.691,1130.17L143.751,1130.16L143.811,1130.14L143.871,1130.13L143.932,1130.12L143.993,1130.1L144.054,1130.09L144.115,1130.08L144.177,1130.07L144.239,1130.06L144.301,1130.05L144.364,1130.04L144.426,1130.03L144.489,1130.03L144.552,1130.02L144.616,1130.02L144.679,1130.01L144.743,1130.01L144.807,1130L144.871,1130L144.935,1130L145,1130L385,1130L385.065,1130ZM145.001,1130.48L144.942,1130.48L144.883,1130.48L144.825,1130.48L144.767,1130.49L144.709,1130.49L144.652,1130.49L144.595,1130.5L144.538,1130.5L144.481,1130.51L144.424,1130.52L144.368,1130.52L144.312,1130.53L144.256,1130.54L144.2,1130.55L144.144,1130.56L144.089,1130.57L144.034,1130.58L143.979,1130.6L143.925,1130.61L143.871,1130.62L143.817,1130.64L143.763,1130.65L143.71,1130.67L143.657,1130.68L143.604,1130.7L143.551,1130.72L143.499,1130.74L143.447,1130.75L143.395,1130.77L143.343,1130.79L143.293,1130.81L143.242,1130.84L143.191,1130.86L143.141,1130.88L143.091,1130.9L143.042,1130.93L142.992,1130.95L142.943,1130.98L142.895,1131L142.847,1131.03L142.799,1131.05L142.751,1131.08L142.704,1131.11L142.658,1131.13L142.611,1131.16L142.565,1131.19L142.519,1131.22L142.474,1131.25L142.429,1131.28L142.385,1131.31L142.341,1131.35L142.297,1131.38L142.253,1131.41L142.21,1131.44L142.168,1131.48L142.126,1131.51L142.084,1131.55L142.043,1131.58L142.002,1131.62L141.962,1131.65L141.922,1131.69L141.882,1131.73L141.843,1131.77L141.805,1131.81L141.767,1131.84L141.729,1131.88L141.691,1131.92L141.655,1131.96L141.619,1132L141.583,1132.04L141.547,1132.08L141.513,1132.13L141.478,1132.17L141.444,1132.21L141.411,1132.25L141.378,1132.3L141.346,1132.34L141.314,1132.38L141.283,1132.43L141.252,1132.47L141.222,1132.52L141.192,1132.57L141.163,1132.61L141.134,1132.66L141.106,1132.7L141.079,1132.75L141.052,1132.8L141.026,1132.85L141,1132.89L140.975,1132.94L140.95,1132.99L140.926,1133.04L140.902,1133.09L140.879,1133.14L140.857,1133.19L140.835,1133.24L140.814,1133.29L140.794,1133.34L140.774,1133.39L140.754,1133.45L140.736,1133.5L140.718,1133.55L140.7,1133.6L140.683,1133.66L140.667,1133.71L140.652,1133.76L140.637,1133.82L140.622,1133.87L140.609,1133.92L140.596,1133.98L140.584,1134.03L140.572,1134.09L140.561,1134.14L140.551,1134.2L140.541,1134.26L140.532,1134.31L140.524,1134.37L140.516,1134.42L140.51,1134.48L140.503,1134.54L140.498,1134.6L140.493,1134.65L140.489,1134.71L140.486,1134.77L140.483,1134.83L140.481,1134.88L140.48,1134.94L140.48,1135L140.48,1170L140.48,1170.06L140.481,1170.12L140.483,1170.17L140.486,1170.23L140.489,1170.29L140.493,1170.35L140.498,1170.4L140.503,1170.46L140.51,1170.52L140.516,1170.58L140.524,1170.63L140.532,1170.69L140.541,1170.74L140.551,1170.8L140.561,1170.86L140.572,1170.91L140.584,1170.97L140.596,1171.02L140.609,1171.08L140.622,1171.13L140.637,1171.18L140.652,1171.24L140.667,1171.29L140.683,1171.34L140.7,1171.4L140.718,1171.45L140.736,1171.5L140.754,1171.55L140.774,1171.61L140.794,1171.66L140.814,1171.71L140.835,1171.76L140.857,1171.81L140.879,1171.86L140.902,1171.91L140.926,1171.96L140.95,1172.01L140.975,1172.06L141,1172.11L141.026,1172.15L141.052,1172.2L141.079,1172.25L141.106,1172.3L141.134,1172.34L141.163,1172.39L141.192,1172.43L141.222,1172.48L141.252,1172.53L141.283,1172.57L141.314,1172.62L141.346,1172.66L141.378,1172.7L141.411,1172.75L141.444,1172.79L141.478,1172.83L141.512,1172.87L141.547,1172.92L141.583,1172.96L141.619,1173L141.655,1173.04L141.691,1173.08L141.729,1173.12L141.767,1173.16L141.805,1173.19L141.843,1173.23L141.882,1173.27L141.922,1173.31L141.962,1173.35L142.002,1173.38L142.043,1173.42L142.084,1173.45L142.126,1173.49L142.168,1173.52L142.21,1173.56L142.253,1173.59L142.297,1173.62L142.341,1173.65L142.385,1173.69L142.429,1173.72L142.474,1173.75L142.519,1173.78L142.565,1173.81L142.611,1173.84L142.658,1173.87L142.704,1173.89L142.751,1173.92L142.799,1173.95L142.847,1173.97L142.895,1174L142.944,1174.03L142.992,1174.05L143.042,1174.07L143.091,1174.1L143.141,1174.12L143.191,1174.14L143.242,1174.16L143.292,1174.19L143.344,1174.21L143.395,1174.23L143.447,1174.25L143.499,1174.26L143.551,1174.28L143.604,1174.3L143.657,1174.32L143.71,1174.33L143.763,1174.35L143.817,1174.36L143.871,1174.38L143.925,1174.39L143.979,1174.4L144.034,1174.42L144.089,1174.43L144.144,1174.44L144.2,1174.45L144.256,1174.46L144.312,1174.47L144.368,1174.48L144.424,1174.48L144.481,1174.49L144.538,1174.5L144.595,1174.5L144.652,1174.51L144.71,1174.51L144.767,1174.51L144.825,1174.52L144.883,1174.52L144.942,1174.52L145.002,1174.52L384.998,1174.52L385.058,1174.52L385.117,1174.52L385.175,1174.52L385.233,1174.51L385.29,1174.51L385.348,1174.51L385.405,1174.5L385.462,1174.5L385.519,1174.49L385.576,1174.48L385.632,1174.48L385.688,1174.47L385.744,1174.46L385.8,1174.45L385.856,1174.44L385.911,1174.43L385.966,1174.42L386.021,1174.4L386.075,1174.39L386.129,1174.38L386.183,1174.36L386.237,1174.35L386.29,1174.33L386.343,1174.32L386.396,1174.3L386.449,1174.28L386.501,1174.26L386.553,1174.25L386.605,1174.23L386.656,1174.21L386.708,1174.19L386.758,1174.16L386.809,1174.14L386.859,1174.12L386.909,1174.1L386.959,1174.07L387.008,1174.05L387.056,1174.03L387.105,1174L387.153,1173.97L387.201,1173.95L387.249,1173.92L387.296,1173.89L387.342,1173.87L387.389,1173.84L387.435,1173.81L387.481,1173.78L387.526,1173.75L387.571,1173.72L387.615,1173.69L387.66,1173.65L387.703,1173.62L387.747,1173.59L387.789,1173.56L387.832,1173.52L387.874,1173.49L387.916,1173.45L387.957,1173.42L387.998,1173.38L388.038,1173.35L388.078,1173.31L388.118,1173.27L388.157,1173.23L388.195,1173.19L388.234,1173.16L388.271,1173.12L388.309,1173.08L388.345,1173.04L388.381,1173L388.417,1172.96L388.453,1172.92L388.487,1172.87L388.522,1172.83L388.556,1172.79L388.589,1172.75L388.622,1172.7L388.654,1172.66L388.686,1172.62L388.717,1172.57L388.748,1172.53L388.778,1172.48L388.808,1172.43L388.837,1172.39L388.866,1172.34L388.894,1172.3L388.921,1172.25L388.948,1172.2L388.974,1172.15L389,1172.11L389.025,1172.06L389.05,1172.01L389.074,1171.96L389.098,1171.91L389.121,1171.86L389.143,1171.81L389.165,1171.76L389.186,1171.71L389.207,1171.66L389.226,1171.61L389.246,1171.55L389.264,1171.5L389.282,1171.45L389.3,1171.4L389.317,1171.34L389.333,1171.29L389.349,1171.24L389.363,1171.18L389.378,1171.13L389.391,1171.08L389.404,1171.02L389.416,1170.97L389.428,1170.91L389.439,1170.86L389.449,1170.8L389.459,1170.75L389.468,1170.69L389.476,1170.63L389.484,1170.58L389.49,1170.52L389.497,1170.46L389.502,1170.4L389.507,1170.35L389.511,1170.29L389.514,1170.23L389.517,1170.17L389.519,1170.12L389.52,1170.06L389.52,1170L389.52,1135L389.52,1134.94L389.519,1134.88L389.517,1134.83L389.514,1134.77L389.511,1134.71L389.507,1134.65L389.502,1134.6L389.497,1134.54L389.49,1134.48L389.484,1134.42L389.476,1134.37L389.468,1134.31L389.459,1134.26L389.449,1134.2L389.439,1134.14L389.428,1134.09L389.416,1134.03L389.404,1133.98L389.391,1133.92L389.378,1133.87L389.363,1133.82L389.349,1133.76L389.333,1133.71L389.317,1133.66L389.3,1133.6L389.282,1133.55L389.264,1133.5L389.246,1133.45L389.226,1133.39L389.207,1133.34L389.186,1133.29L389.165,1133.24L389.143,1133.19L389.121,1133.14L389.098,1133.09L389.074,1133.04L389.05,1132.99L389.025,1132.94L389,1132.89L388.974,1132.85L388.948,1132.8L388.921,1132.75L388.894,1132.7L388.866,1132.66L388.837,1132.61L388.808,1132.57L388.778,1132.52L388.748,1132.47L388.717,1132.43L388.686,1132.38L388.654,1132.34L388.622,1132.3L388.589,1132.25L388.556,1132.21L388.522,1132.17L388.487,1132.13L388.453,1132.08L388.417,1132.04L388.382,1132L388.345,1131.96L388.308,1131.92L388.271,1131.88L388.234,1131.84L388.195,1131.81L388.157,1131.77L388.118,1131.73L388.078,1131.69L388.038,1131.65L387.998,1131.62L387.957,1131.58L387.916,1131.55L387.874,1131.51L387.832,1131.48L387.789,1131.44L387.747,1131.41L387.703,1131.38L387.66,1131.35L387.615,1131.31L387.571,1131.28L387.526,1131.25L387.481,1131.22L387.435,1131.19L387.389,1131.16L387.342,1131.13L387.296,1131.11L387.249,1131.08L387.201,1131.05L387.153,1131.03L387.105,1131L387.056,1130.97L387.008,1130.95L386.959,1130.93L386.909,1130.9L386.859,1130.88L386.809,1130.86L386.758,1130.84L386.708,1130.81L386.657,1130.79L386.605,1130.77L386.553,1130.75L386.501,1130.74L386.449,1130.72L386.396,1130.7L386.343,1130.68L386.29,1130.67L386.237,1130.65L386.183,1130.64L386.129,1130.62L386.075,1130.61L386.021,1130.6L385.966,1130.58L385.911,1130.57L385.856,1130.56L385.8,1130.55L385.744,1130.54L385.688,1130.53L385.632,1130.52L385.576,1130.52L385.519,1130.51L385.462,1130.5L385.405,1130.5L385.348,1130.49L385.291,1130.49L385.233,1130.49L385.175,1130.48L385.117,1130.48L385.058,1130.48L384.999,1130.48L145.001,1130.48Z" style="fill:rgb(201,211,223);"/>
            </g>
            <g id="Grade-UI-Kit1" serif:id="Grade UI Kit" transform="matrix(1,0,0,1,185.078,1157.68)">
                <g transform="matrix(15,0,0,15,0,0)">
                    <path d="M0.073,0L0.073,-0.716L0.168,-0.716L0.168,-0.084L0.521,-0.084L0.521,0L0.073,0Z" style="fill:rgb(132,147,168);fill-rule:nonzero;"/>
                </g>
                <g transform="matrix(15,0,0,15,8.34229,0)">
                    <path d="M0.033,-0.259C0.033,-0.355 0.06,-0.426 0.113,-0.473C0.158,-0.511 0.212,-0.53 0.276,-0.53C0.348,-0.53 0.406,-0.507 0.451,-0.46C0.496,-0.413 0.519,-0.349 0.519,-0.267C0.519,-0.2 0.509,-0.147 0.489,-0.109C0.469,-0.071 0.44,-0.041 0.402,-0.02C0.363,0.001 0.322,0.012 0.276,0.012C0.204,0.012 0.145,-0.012 0.1,-0.058C0.056,-0.105 0.033,-0.172 0.033,-0.259ZM0.124,-0.259C0.124,-0.193 0.138,-0.143 0.167,-0.11C0.196,-0.077 0.232,-0.061 0.276,-0.061C0.32,-0.061 0.356,-0.077 0.385,-0.11C0.414,-0.144 0.429,-0.194 0.429,-0.262C0.429,-0.326 0.414,-0.375 0.385,-0.408C0.356,-0.441 0.32,-0.458 0.276,-0.458C0.232,-0.458 0.196,-0.441 0.167,-0.408C0.138,-0.375 0.124,-0.326 0.124,-0.259Z" style="fill:rgb(132,147,168);fill-rule:nonzero;"/>
                </g>
                <g transform="matrix(15,0,0,15,16.6846,0)">
                    <path d="M0.05,0.043L0.135,0.056C0.139,0.082 0.149,0.101 0.165,0.113C0.187,0.13 0.217,0.138 0.254,0.138C0.295,0.138 0.326,0.13 0.349,0.113C0.371,0.097 0.386,0.074 0.394,0.045C0.398,0.027 0.4,-0.011 0.4,-0.068C0.361,-0.023 0.314,0 0.256,0C0.185,0 0.13,-0.026 0.091,-0.077C0.052,-0.129 0.032,-0.19 0.032,-0.262C0.032,-0.312 0.041,-0.357 0.059,-0.399C0.077,-0.441 0.103,-0.473 0.137,-0.496C0.171,-0.519 0.211,-0.53 0.257,-0.53C0.318,-0.53 0.368,-0.506 0.408,-0.456L0.408,-0.519L0.489,-0.519L0.489,-0.07C0.489,0.01 0.481,0.068 0.465,0.101C0.448,0.135 0.422,0.162 0.386,0.181C0.351,0.201 0.307,0.21 0.255,0.21C0.193,0.21 0.143,0.197 0.105,0.169C0.067,0.141 0.049,0.099 0.05,0.043ZM0.123,-0.269C0.123,-0.201 0.136,-0.151 0.163,-0.12C0.19,-0.088 0.224,-0.073 0.265,-0.073C0.305,-0.073 0.339,-0.088 0.366,-0.119C0.394,-0.15 0.407,-0.199 0.407,-0.266C0.407,-0.329 0.393,-0.377 0.365,-0.409C0.337,-0.441 0.303,-0.458 0.263,-0.458C0.224,-0.458 0.191,-0.442 0.164,-0.41C0.136,-0.378 0.123,-0.331 0.123,-0.269Z" style="fill:rgb(132,147,168);fill-rule:nonzero;"/>
                </g>
                <g transform="matrix(15,0,0,15,25.0269,0)">
                    <path d="M0.066,-0.615L0.066,-0.716L0.154,-0.716L0.154,-0.615L0.066,-0.615ZM0.066,0L0.066,-0.519L0.154,-0.519L0.154,0L0.066,0Z" style="fill:rgb(132,147,168);fill-rule:nonzero;"/>
                </g>
                <g transform="matrix(15,0,0,15,28.3594,0)">
                    <path d="M0.066,0L0.066,-0.519L0.145,-0.519L0.145,-0.445C0.183,-0.502 0.238,-0.53 0.31,-0.53C0.341,-0.53 0.37,-0.525 0.396,-0.513C0.422,-0.502 0.442,-0.487 0.455,-0.469C0.468,-0.451 0.477,-0.429 0.482,-0.404C0.486,-0.388 0.487,-0.36 0.487,-0.319L0.487,0L0.399,0L0.399,-0.315C0.399,-0.351 0.396,-0.378 0.389,-0.396C0.382,-0.413 0.37,-0.428 0.353,-0.438C0.335,-0.449 0.315,-0.454 0.292,-0.454C0.254,-0.454 0.222,-0.442 0.195,-0.418C0.167,-0.395 0.154,-0.35 0.154,-0.283L0.154,0L0.066,0Z" style="fill:rgb(132,147,168);fill-rule:nonzero;"/>
                </g>
            </g>
        </g>
        <g id="Input2" serif:id="Input" transform="matrix(2.08333,0,0,2.08333,1010.34,-1102.74)">
            <g id="Base2" serif:id="Base">
                <path d="M390,1135C390,1132.24 387.76,1130 385,1130L145,1130C142.24,1130 140,1132.24 140,1135L140,1170C140,1172.76 142.24,1175 145,1175L385,1175C387.76,1175 390,1172.76 390,1170L390,1135Z" style="fill:rgb(236,239,244);"/>
                <path d="M385.065,1130L385.129,1130L385.193,1130L385.257,1130.01L385.321,1130.01L385.384,1130.02L385.448,1130.02L385.511,1130.03L385.574,1130.03L385.636,1130.04L385.699,1130.05L385.761,1130.06L385.823,1130.07L385.885,1130.08L385.946,1130.09L386.007,1130.1L386.068,1130.12L386.129,1130.13L386.189,1130.14L386.249,1130.16L386.309,1130.17L386.368,1130.19L386.427,1130.21L386.486,1130.23L386.545,1130.24L386.603,1130.26L386.661,1130.28L386.718,1130.3L386.776,1130.33L386.833,1130.35L386.889,1130.37L386.945,1130.39L387.001,1130.42L387.057,1130.44L387.112,1130.47L387.167,1130.49L387.221,1130.52L387.275,1130.55L387.329,1130.58L387.382,1130.6L387.435,1130.63L387.488,1130.66L387.54,1130.69L387.592,1130.72L387.643,1130.76L387.694,1130.79L387.745,1130.82L387.795,1130.85L387.844,1130.89L387.894,1130.92L387.942,1130.96L387.991,1130.99L388.039,1131.03L388.086,1131.07L388.133,1131.1L388.18,1131.14L388.226,1131.18L388.271,1131.22L388.317,1131.26L388.361,1131.3L388.405,1131.34L388.449,1131.38L388.492,1131.42L388.535,1131.46L388.577,1131.51L388.619,1131.55L388.66,1131.6L388.7,1131.64L388.741,1131.68L388.78,1131.73L388.819,1131.77L388.858,1131.82L388.896,1131.87L388.933,1131.91L388.97,1131.96L389.006,1132.01L389.042,1132.06L389.077,1132.11L389.112,1132.16L389.146,1132.2L389.179,1132.26L389.212,1132.31L389.244,1132.36L389.276,1132.41L389.307,1132.46L389.337,1132.51L389.367,1132.57L389.396,1132.62L389.425,1132.67L389.453,1132.73L389.48,1132.78L389.507,1132.83L389.533,1132.89L389.558,1132.94L389.583,1133L389.607,1133.06L389.63,1133.11L389.653,1133.17L389.675,1133.22L389.696,1133.28L389.717,1133.34L389.737,1133.4L389.756,1133.45L389.775,1133.51L389.793,1133.57L389.81,1133.63L389.827,1133.69L389.842,1133.75L389.858,1133.81L389.872,1133.87L389.885,1133.93L389.898,1133.99L389.91,1134.05L389.922,1134.12L389.932,1134.18L389.942,1134.24L389.951,1134.3L389.96,1134.36L389.967,1134.43L389.974,1134.49L389.98,1134.55L389.985,1134.62L389.99,1134.68L389.993,1134.74L389.996,1134.81L389.998,1134.87L390,1134.93L390,1135L390,1170L390,1170.07L389.998,1170.13L389.996,1170.19L389.993,1170.26L389.99,1170.32L389.985,1170.38L389.98,1170.45L389.974,1170.51L389.967,1170.57L389.96,1170.64L389.951,1170.7L389.942,1170.76L389.932,1170.82L389.922,1170.88L389.91,1170.95L389.898,1171.01L389.885,1171.07L389.872,1171.13L389.858,1171.19L389.842,1171.25L389.827,1171.31L389.81,1171.37L389.793,1171.43L389.775,1171.49L389.756,1171.55L389.737,1171.6L389.717,1171.66L389.696,1171.72L389.675,1171.78L389.653,1171.83L389.63,1171.89L389.607,1171.94L389.583,1172L389.558,1172.06L389.533,1172.11L389.507,1172.17L389.48,1172.22L389.453,1172.28L389.425,1172.33L389.396,1172.38L389.367,1172.43L389.337,1172.49L389.307,1172.54L389.276,1172.59L389.244,1172.64L389.212,1172.69L389.179,1172.75L389.146,1172.8L389.112,1172.84L389.077,1172.89L389.042,1172.94L389.006,1172.99L388.97,1173.04L388.933,1173.09L388.896,1173.13L388.858,1173.18L388.819,1173.23L388.78,1173.27L388.741,1173.32L388.7,1173.36L388.66,1173.4L388.619,1173.45L388.577,1173.49L388.535,1173.54L388.492,1173.58L388.449,1173.62L388.405,1173.66L388.361,1173.7L388.317,1173.74L388.271,1173.78L388.226,1173.82L388.18,1173.86L388.133,1173.9L388.086,1173.93L388.039,1173.97L387.991,1174.01L387.942,1174.04L387.894,1174.08L387.844,1174.11L387.795,1174.15L387.745,1174.18L387.694,1174.21L387.643,1174.24L387.592,1174.28L387.54,1174.31L387.488,1174.34L387.435,1174.37L387.382,1174.4L387.329,1174.42L387.275,1174.45L387.221,1174.48L387.167,1174.51L387.112,1174.53L387.057,1174.56L387.001,1174.58L386.945,1174.61L386.889,1174.63L386.833,1174.65L386.776,1174.67L386.718,1174.7L386.661,1174.72L386.603,1174.74L386.545,1174.76L386.486,1174.78L386.427,1174.79L386.368,1174.81L386.309,1174.83L386.249,1174.84L386.189,1174.86L386.129,1174.87L386.068,1174.88L386.007,1174.9L385.946,1174.91L385.885,1174.92L385.823,1174.93L385.761,1174.94L385.699,1174.95L385.636,1174.96L385.574,1174.97L385.511,1174.97L385.448,1174.98L385.384,1174.99L385.321,1174.99L385.257,1174.99L385.193,1175L385.129,1175L385.065,1175L385,1175L145,1175L144.935,1175L144.871,1175L144.807,1175L144.743,1174.99L144.679,1174.99L144.616,1174.99L144.552,1174.98L144.489,1174.97L144.426,1174.97L144.364,1174.96L144.301,1174.95L144.239,1174.94L144.177,1174.93L144.115,1174.92L144.054,1174.91L143.993,1174.9L143.932,1174.88L143.871,1174.87L143.811,1174.86L143.751,1174.84L143.691,1174.83L143.632,1174.81L143.573,1174.79L143.514,1174.78L143.455,1174.76L143.397,1174.74L143.339,1174.72L143.282,1174.7L143.224,1174.67L143.167,1174.65L143.111,1174.63L143.055,1174.61L142.999,1174.58L142.943,1174.56L142.888,1174.53L142.833,1174.51L142.779,1174.48L142.725,1174.45L142.671,1174.42L142.618,1174.4L142.565,1174.37L142.512,1174.34L142.46,1174.31L142.408,1174.28L142.357,1174.24L142.306,1174.21L142.255,1174.18L142.205,1174.15L142.156,1174.11L142.106,1174.08L142.058,1174.04L142.009,1174.01L141.961,1173.97L141.914,1173.93L141.867,1173.9L141.82,1173.86L141.774,1173.82L141.729,1173.78L141.683,1173.74L141.639,1173.7L141.595,1173.66L141.551,1173.62L141.508,1173.58L141.465,1173.54L141.423,1173.49L141.381,1173.45L141.34,1173.4L141.3,1173.36L141.259,1173.32L141.22,1173.27L141.181,1173.23L141.142,1173.18L141.104,1173.13L141.067,1173.09L141.03,1173.04L140.994,1172.99L140.958,1172.94L140.923,1172.89L140.888,1172.84L140.854,1172.8L140.821,1172.75L140.788,1172.69L140.756,1172.64L140.724,1172.59L140.693,1172.54L140.663,1172.49L140.633,1172.43L140.604,1172.38L140.575,1172.33L140.547,1172.28L140.52,1172.22L140.493,1172.17L140.467,1172.11L140.442,1172.06L140.417,1172L140.393,1171.94L140.37,1171.89L140.347,1171.83L140.325,1171.78L140.304,1171.72L140.283,1171.66L140.263,1171.6L140.244,1171.55L140.225,1171.49L140.207,1171.43L140.19,1171.37L140.173,1171.31L140.158,1171.25L140.142,1171.19L140.128,1171.13L140.115,1171.07L140.102,1171.01L140.09,1170.95L140.078,1170.88L140.068,1170.82L140.058,1170.76L140.049,1170.7L140.04,1170.64L140.033,1170.57L140.026,1170.51L140.02,1170.45L140.015,1170.38L140.01,1170.32L140.007,1170.26L140.004,1170.19L140.002,1170.13L140,1170.07L140,1170L140,1135L140,1134.93L140.002,1134.87L140.004,1134.81L140.007,1134.74L140.01,1134.68L140.015,1134.62L140.02,1134.55L140.026,1134.49L140.033,1134.43L140.04,1134.36L140.049,1134.3L140.058,1134.24L140.068,1134.18L140.078,1134.12L140.09,1134.05L140.102,1133.99L140.115,1133.93L140.128,1133.87L140.142,1133.81L140.158,1133.75L140.173,1133.69L140.19,1133.63L140.207,1133.57L140.225,1133.51L140.244,1133.45L140.263,1133.4L140.283,1133.34L140.304,1133.28L140.325,1133.22L140.347,1133.17L140.37,1133.11L140.393,1133.06L140.417,1133L140.442,1132.94L140.467,1132.89L140.493,1132.83L140.52,1132.78L140.547,1132.73L140.575,1132.67L140.604,1132.62L140.633,1132.57L140.663,1132.51L140.693,1132.46L140.724,1132.41L140.756,1132.36L140.788,1132.31L140.821,1132.26L140.854,1132.2L140.888,1132.16L140.923,1132.11L140.958,1132.06L140.994,1132.01L141.03,1131.96L141.067,1131.91L141.104,1131.87L141.142,1131.82L141.181,1131.77L141.22,1131.73L141.259,1131.68L141.3,1131.64L141.34,1131.6L141.381,1131.55L141.423,1131.51L141.465,1131.46L141.508,1131.42L141.551,1131.38L141.595,1131.34L141.639,1131.3L141.683,1131.26L141.729,1131.22L141.774,1131.18L141.82,1131.14L141.867,1131.1L141.914,1131.07L141.961,1131.03L142.009,1130.99L142.058,1130.96L142.106,1130.92L142.156,1130.89L142.205,1130.85L142.255,1130.82L142.306,1130.79L142.357,1130.76L142.408,1130.72L142.46,1130.69L142.512,1130.66L142.565,1130.63L142.618,1130.6L142.671,1130.58L142.725,1130.55L142.779,1130.52L142.833,1130.49L142.888,1130.47L142.943,1130.44L142.999,1130.42L143.055,1130.39L143.111,1130.37L143.167,1130.35L143.224,1130.33L143.282,1130.3L143.339,1130.28L143.397,1130.26L143.455,1130.24L143.514,1130.23L143.573,1130.21L143.632,1130.19L143.691,1130.17L143.751,1130.16L143.811,1130.14L143.871,1130.13L143.932,1130.12L143.993,1130.1L144.054,1130.09L144.115,1130.08L144.177,1130.07L144.239,1130.06L144.301,1130.05L144.364,1130.04L144.426,1130.03L144.489,1130.03L144.552,1130.02L144.616,1130.02L144.679,1130.01L144.743,1130.01L144.807,1130L144.871,1130L144.935,1130L145,1130L385,1130L385.065,1130ZM145.001,1130.48L144.942,1130.48L144.883,1130.48L144.825,1130.48L144.767,1130.49L144.709,1130.49L144.652,1130.49L144.595,1130.5L144.538,1130.5L144.481,1130.51L144.424,1130.52L144.368,1130.52L144.312,1130.53L144.256,1130.54L144.2,1130.55L144.144,1130.56L144.089,1130.57L144.034,1130.58L143.979,1130.6L143.925,1130.61L143.871,1130.62L143.817,1130.64L143.763,1130.65L143.71,1130.67L143.657,1130.68L143.604,1130.7L143.551,1130.72L143.499,1130.74L143.447,1130.75L143.395,1130.77L143.343,1130.79L143.293,1130.81L143.242,1130.84L143.191,1130.86L143.141,1130.88L143.091,1130.9L143.042,1130.93L142.992,1130.95L142.943,1130.98L142.895,1131L142.847,1131.03L142.799,1131.05L142.751,1131.08L142.704,1131.11L142.658,1131.13L142.611,1131.16L142.565,1131.19L142.519,1131.22L142.474,1131.25L142.429,1131.28L142.385,1131.31L142.341,1131.35L142.297,1131.38L142.253,1131.41L142.21,1131.44L142.168,1131.48L142.126,1131.51L142.084,1131.55L142.043,1131.58L142.002,1131.62L141.962,1131.65L141.922,1131.69L141.882,1131.73L141.843,1131.77L141.805,1131.81L141.767,1131.84L141.729,1131.88L141.691,1131.92L141.655,1131.96L141.619,1132L141.583,1132.04L141.547,1132.08L141.513,1132.13L141.478,1132.17L141.444,1132.21L141.411,1132.25L141.378,1132.3L141.346,1132.34L141.314,1132.38L141.283,1132.43L141.252,1132.47L141.222,1132.52L141.192,1132.57L141.163,1132.61L141.134,1132.66L141.106,1132.7L141.079,1132.75L141.052,1132.8L141.026,1132.85L141,1132.89L140.975,1132.94L140.95,1132.99L140.926,1133.04L140.902,1133.09L140.879,1133.14L140.857,1133.19L140.835,1133.24L140.814,1133.29L140.794,1133.34L140.774,1133.39L140.754,1133.45L140.736,1133.5L140.718,1133.55L140.7,1133.6L140.683,1133.66L140.667,1133.71L140.652,1133.76L140.637,1133.82L140.622,1133.87L140.609,1133.92L140.596,1133.98L140.584,1134.03L140.572,1134.09L140.561,1134.14L140.551,1134.2L140.541,1134.26L140.532,1134.31L140.524,1134.37L140.516,1134.42L140.51,1134.48L140.503,1134.54L140.498,1134.6L140.493,1134.65L140.489,1134.71L140.486,1134.77L140.483,1134.83L140.481,1134.88L140.48,1134.94L140.48,1135L140.48,1170L140.48,1170.06L140.481,1170.12L140.483,1170.17L140.486,1170.23L140.489,1170.29L140.493,1170.35L140.498,1170.4L140.503,1170.46L140.51,1170.52L140.516,1170.58L140.524,1170.63L140.532,1170.69L140.541,1170.74L140.551,1170.8L140.561,1170.86L140.572,1170.91L140.584,1170.97L140.596,1171.02L140.609,1171.08L140.622,1171.13L140.637,1171.18L140.652,1171.24L140.667,1171.29L140.683,1171.34L140.7,1171.4L140.718,1171.45L140.736,1171.5L140.754,1171.55L140.774,1171.61L140.794,1171.66L140.814,1171.71L140.835,1171.76L140.857,1171.81L140.879,1171.86L140.902,1171.91L140.926,1171.96L140.95,1172.01L140.975,1172.06L141,1172.11L141.026,1172.15L141.052,1172.2L141.079,1172.25L141.106,1172.3L141.134,1172.34L141.163,1172.39L141.192,1172.43L141.222,1172.48L141.252,1172.53L141.283,1172.57L141.314,1172.62L141.346,1172.66L141.378,1172.7L141.411,1172.75L141.444,1172.79L141.478,1172.83L141.512,1172.87L141.547,1172.92L141.583,1172.96L141.619,1173L141.655,1173.04L141.691,1173.08L141.729,1173.12L141.767,1173.16L141.805,1173.19L141.843,1173.23L141.882,1173.27L141.922,1173.31L141.962,1173.35L142.002,1173.38L142.043,1173.42L142.084,1173.45L142.126,1173.49L142.168,1173.52L142.21,1173.56L142.253,1173.59L142.297,1173.62L142.341,1173.65L142.385,1173.69L142.429,1173.72L142.474,1173.75L142.519,1173.78L142.565,1173.81L142.611,1173.84L142.658,1173.87L142.704,1173.89L142.751,1173.92L142.799,1173.95L142.847,1173.97L142.895,1174L142.944,1174.03L142.992,1174.05L143.042,1174.07L143.091,1174.1L143.141,1174.12L143.191,1174.14L143.242,1174.16L143.292,1174.19L143.344,1174.21L143.395,1174.23L143.447,1174.25L143.499,1174.26L143.551,1174.28L143.604,1174.3L143.657,1174.32L143.71,1174.33L143.763,1174.35L143.817,1174.36L143.871,1174.38L143.925,1174.39L143.979,1174.4L144.034,1174.42L144.089,1174.43L144.144,1174.44L144.2,1174.45L144.256,1174.46L144.312,1174.47L144.368,1174.48L144.424,1174.48L144.481,1174.49L144.538,1174.5L144.595,1174.5L144.652,1174.51L144.71,1174.51L144.767,1174.51L144.825,1174.52L144.883,1174.52L144.942,1174.52L145.002,1174.52L384.998,1174.52L385.058,1174.52L385.117,1174.52L385.175,1174.52L385.233,1174.51L385.29,1174.51L385.348,1174.51L385.405,1174.5L385.462,1174.5L385.519,1174.49L385.576,1174.48L385.632,1174.48L385.688,1174.47L385.744,1174.46L385.8,1174.45L385.856,1174.44L385.911,1174.43L385.966,1174.42L386.021,1174.4L386.075,1174.39L386.129,1174.38L386.183,1174.36L386.237,1174.35L386.29,1174.33L386.343,1174.32L386.396,1174.3L386.449,1174.28L386.501,1174.26L386.553,1174.25L386.605,1174.23L386.656,1174.21L386.708,1174.19L386.758,1174.16L386.809,1174.14L386.859,1174.12L386.909,1174.1L386.959,1174.07L387.008,1174.05L387.056,1174.03L387.105,1174L387.153,1173.97L387.201,1173.95L387.249,1173.92L387.296,1173.89L387.342,1173.87L387.389,1173.84L387.435,1173.81L387.481,1173.78L387.526,1173.75L387.571,1173.72L387.615,1173.69L387.66,1173.65L387.703,1173.62L387.747,1173.59L387.789,1173.56L387.832,1173.52L387.874,1173.49L387.916,1173.45L387.957,1173.42L387.998,1173.38L388.038,1173.35L388.078,1173.31L388.118,1173.27L388.157,1173.23L388.195,1173.19L388.234,1173.16L388.271,1173.12L388.309,1173.08L388.345,1173.04L388.381,1173L388.417,1172.96L388.453,1172.92L388.487,1172.87L388.522,1172.83L388.556,1172.79L388.589,1172.75L388.622,1172.7L388.654,1172.66L388.686,1172.62L388.717,1172.57L388.748,1172.53L388.778,1172.48L388.808,1172.43L388.837,1172.39L388.866,1172.34L388.894,1172.3L388.921,1172.25L388.948,1172.2L388.974,1172.15L389,1172.11L389.025,1172.06L389.05,1172.01L389.074,1171.96L389.098,1171.91L389.121,1171.86L389.143,1171.81L389.165,1171.76L389.186,1171.71L389.207,1171.66L389.226,1171.61L389.246,1171.55L389.264,1171.5L389.282,1171.45L389.3,1171.4L389.317,1171.34L389.333,1171.29L389.349,1171.24L389.363,1171.18L389.378,1171.13L389.391,1171.08L389.404,1171.02L389.416,1170.97L389.428,1170.91L389.439,1170.86L389.449,1170.8L389.459,1170.75L389.468,1170.69L389.476,1170.63L389.484,1170.58L389.49,1170.52L389.497,1170.46L389.502,1170.4L389.507,1170.35L389.511,1170.29L389.514,1170.23L389.517,1170.17L389.519,1170.12L389.52,1170.06L389.52,1170L389.52,1135L389.52,1134.94L389.519,1134.88L389.517,1134.83L389.514,1134.77L389.511,1134.71L389.507,1134.65L389.502,1134.6L389.497,1134.54L389.49,1134.48L389.484,1134.42L389.476,1134.37L389.468,1134.31L389.459,1134.26L389.449,1134.2L389.439,1134.14L389.428,1134.09L389.416,1134.03L389.404,1133.98L389.391,1133.92L389.378,1133.87L389.363,1133.82L389.349,1133.76L389.333,1133.71L389.317,1133.66L389.3,1133.6L389.282,1133.55L389.264,1133.5L389.246,1133.45L389.226,1133.39L389.207,1133.34L389.186,1133.29L389.165,1133.24L389.143,1133.19L389.121,1133.14L389.098,1133.09L389.074,1133.04L389.05,1132.99L389.025,1132.94L389,1132.89L388.974,1132.85L388.948,1132.8L388.921,1132.75L388.894,1132.7L388.866,1132.66L388.837,1132.61L388.808,1132.57L388.778,1132.52L388.748,1132.47L388.717,1132.43L388.686,1132.38L388.654,1132.34L388.622,1132.3L388.589,1132.25L388.556,1132.21L388.522,1132.17L388.487,1132.13L388.453,1132.08L388.417,1132.04L388.382,1132L388.345,1131.96L388.308,1131.92L388.271,1131.88L388.234,1131.84L388.195,1131.81L388.157,1131.77L388.118,1131.73L388.078,1131.69L388.038,1131.65L387.998,1131.62L387.957,1131.58L387.916,1131.55L387.874,1131.51L387.832,1131.48L387.789,1131.44L387.747,1131.41L387.703,1131.38L387.66,1131.35L387.615,1131.31L387.571,1131.28L387.526,1131.25L387.481,1131.22L387.435,1131.19L387.389,1131.16L387.342,1131.13L387.296,1131.11L387.249,1131.08L387.201,1131.05L387.153,1131.03L387.105,1131L387.056,1130.97L387.008,1130.95L386.959,1130.93L386.909,1130.9L386.859,1130.88L386.809,1130.86L386.758,1130.84L386.708,1130.81L386.657,1130.79L386.605,1130.77L386.553,1130.75L386.501,1130.74L386.449,1130.72L386.396,1130.7L386.343,1130.68L386.29,1130.67L386.237,1130.65L386.183,1130.64L386.129,1130.62L386.075,1130.61L386.021,1130.6L385.966,1130.58L385.911,1130.57L385.856,1130.56L385.8,1130.55L385.744,1130.54L385.688,1130.53L385.632,1130.52L385.576,1130.52L385.519,1130.51L385.462,1130.5L385.405,1130.5L385.348,1130.49L385.291,1130.49L385.233,1130.49L385.175,1130.48L385.117,1130.48L385.058,1130.48L384.999,1130.48L145.001,1130.48Z" style="fill:rgb(201,211,223);"/>
            </g>
            <g id="Grade-UI-Kit2" serif:id="Grade UI Kit" transform="matrix(1,0,0,1,182.754,1157.68)">
                <g transform="matrix(15,0,0,15,0,0)">
                    <path d="M0.045,-0.23L0.134,-0.238C0.139,-0.202 0.148,-0.173 0.164,-0.15C0.179,-0.127 0.203,-0.108 0.236,-0.094C0.268,-0.08 0.305,-0.073 0.346,-0.073C0.382,-0.073 0.414,-0.078 0.441,-0.089C0.469,-0.1 0.49,-0.114 0.503,-0.133C0.517,-0.152 0.523,-0.172 0.523,-0.194C0.523,-0.217 0.517,-0.236 0.504,-0.253C0.491,-0.27 0.469,-0.284 0.439,-0.295C0.42,-0.303 0.378,-0.315 0.312,-0.33C0.246,-0.346 0.2,-0.361 0.174,-0.375C0.14,-0.393 0.114,-0.415 0.097,-0.442C0.081,-0.468 0.072,-0.498 0.072,-0.531C0.072,-0.567 0.083,-0.601 0.103,-0.632C0.124,-0.663 0.153,-0.687 0.193,-0.704C0.232,-0.72 0.276,-0.728 0.324,-0.728C0.377,-0.728 0.424,-0.719 0.465,-0.702C0.505,-0.685 0.536,-0.66 0.558,-0.627C0.58,-0.594 0.592,-0.556 0.593,-0.514L0.502,-0.507C0.498,-0.553 0.481,-0.587 0.453,-0.61C0.425,-0.633 0.383,-0.645 0.328,-0.645C0.271,-0.645 0.229,-0.634 0.203,-0.613C0.177,-0.592 0.164,-0.567 0.164,-0.537C0.164,-0.511 0.173,-0.49 0.191,-0.474C0.21,-0.457 0.257,-0.44 0.334,-0.423C0.411,-0.405 0.464,-0.39 0.493,-0.377C0.534,-0.358 0.565,-0.333 0.585,-0.304C0.605,-0.274 0.615,-0.241 0.615,-0.202C0.615,-0.164 0.604,-0.128 0.582,-0.094C0.56,-0.061 0.529,-0.035 0.488,-0.016C0.447,0.003 0.401,0.012 0.35,0.012C0.285,0.012 0.231,0.003 0.187,-0.016C0.143,-0.035 0.109,-0.063 0.084,-0.101C0.059,-0.139 0.046,-0.182 0.045,-0.23Z" style="fill:rgb(132,147,168);fill-rule:nonzero;"/>
                </g>
                <g transform="matrix(15,0,0,15,10.0049,0)">
                    <path d="M0.421,-0.167L0.512,-0.156C0.497,-0.103 0.471,-0.062 0.432,-0.032C0.393,-0.003 0.344,0.012 0.284,0.012C0.208,0.012 0.148,-0.012 0.103,-0.058C0.059,-0.105 0.037,-0.171 0.037,-0.255C0.037,-0.342 0.059,-0.41 0.104,-0.458C0.149,-0.506 0.207,-0.53 0.279,-0.53C0.348,-0.53 0.405,-0.507 0.449,-0.459C0.493,-0.412 0.515,-0.346 0.515,-0.26C0.515,-0.255 0.514,-0.247 0.514,-0.237L0.127,-0.237C0.131,-0.18 0.147,-0.136 0.176,-0.106C0.205,-0.076 0.241,-0.061 0.284,-0.061C0.316,-0.061 0.344,-0.069 0.367,-0.086C0.389,-0.103 0.408,-0.13 0.421,-0.167ZM0.132,-0.309L0.422,-0.309C0.418,-0.353 0.407,-0.385 0.389,-0.407C0.361,-0.441 0.324,-0.458 0.28,-0.458C0.239,-0.458 0.205,-0.444 0.178,-0.417C0.15,-0.39 0.135,-0.354 0.132,-0.309Z" style="fill:rgb(132,147,168);fill-rule:nonzero;"/>
                </g>
                <g transform="matrix(15,0,0,15,18.3472,0)">
                    <path d="M0.066,0L0.066,-0.519L0.145,-0.519L0.145,-0.445C0.183,-0.502 0.238,-0.53 0.31,-0.53C0.341,-0.53 0.37,-0.525 0.396,-0.513C0.422,-0.502 0.442,-0.487 0.455,-0.469C0.468,-0.451 0.477,-0.429 0.482,-0.404C0.486,-0.388 0.487,-0.36 0.487,-0.319L0.487,0L0.399,0L0.399,-0.315C0.399,-0.351 0.396,-0.378 0.389,-0.396C0.382,-0.413 0.37,-0.428 0.353,-0.438C0.335,-0.449 0.315,-0.454 0.292,-0.454C0.254,-0.454 0.222,-0.442 0.195,-0.418C0.167,-0.395 0.154,-0.35 0.154,-0.283L0.154,0L0.066,0Z" style="fill:rgb(132,147,168);fill-rule:nonzero;"/>
                </g>
                <g transform="matrix(15,0,0,15,26.6895,0)">
                    <path d="M0.066,0L0.066,-0.716L0.154,-0.716L0.154,-0.459C0.195,-0.507 0.247,-0.53 0.309,-0.53C0.347,-0.53 0.381,-0.523 0.409,-0.508C0.438,-0.492 0.458,-0.472 0.47,-0.445C0.482,-0.418 0.488,-0.379 0.488,-0.329L0.488,0L0.4,0L0.4,-0.329C0.4,-0.373 0.391,-0.405 0.372,-0.425C0.353,-0.445 0.326,-0.455 0.291,-0.455C0.265,-0.455 0.24,-0.448 0.218,-0.434C0.195,-0.421 0.178,-0.403 0.168,-0.379C0.159,-0.356 0.154,-0.324 0.154,-0.284L0.154,0L0.066,0Z" style="fill:rgb(132,147,168);fill-rule:nonzero;"/>
                </g>
                <g transform="matrix(15,0,0,15,35.0317,0)">
                    <path d="M0.404,-0.064C0.372,-0.036 0.34,-0.017 0.31,-0.005C0.28,0.006 0.248,0.012 0.213,0.012C0.156,0.012 0.113,-0.002 0.082,-0.03C0.051,-0.058 0.036,-0.093 0.036,-0.137C0.036,-0.162 0.042,-0.185 0.053,-0.206C0.065,-0.227 0.08,-0.244 0.099,-0.257C0.118,-0.27 0.139,-0.279 0.162,-0.286C0.179,-0.29 0.205,-0.295 0.24,-0.299C0.311,-0.307 0.363,-0.317 0.397,-0.329C0.397,-0.341 0.397,-0.349 0.397,-0.352C0.397,-0.388 0.389,-0.413 0.373,-0.428C0.35,-0.448 0.317,-0.458 0.272,-0.458C0.231,-0.458 0.201,-0.45 0.181,-0.436C0.161,-0.421 0.147,-0.396 0.137,-0.359L0.051,-0.371C0.059,-0.407 0.072,-0.437 0.09,-0.46C0.108,-0.482 0.134,-0.5 0.167,-0.512C0.201,-0.524 0.241,-0.53 0.285,-0.53C0.329,-0.53 0.365,-0.525 0.393,-0.515C0.421,-0.504 0.441,-0.491 0.454,-0.475C0.467,-0.46 0.476,-0.44 0.481,-0.416C0.484,-0.401 0.486,-0.374 0.486,-0.334L0.486,-0.217C0.486,-0.136 0.488,-0.084 0.491,-0.062C0.495,-0.041 0.503,-0.02 0.514,0L0.422,0C0.413,-0.018 0.407,-0.04 0.404,-0.064ZM0.397,-0.26C0.365,-0.247 0.317,-0.236 0.253,-0.227C0.217,-0.222 0.192,-0.216 0.177,-0.209C0.162,-0.203 0.15,-0.193 0.142,-0.181C0.134,-0.168 0.13,-0.154 0.13,-0.139C0.13,-0.116 0.139,-0.096 0.156,-0.081C0.174,-0.065 0.2,-0.057 0.234,-0.057C0.268,-0.057 0.298,-0.065 0.325,-0.079C0.351,-0.094 0.37,-0.114 0.383,-0.14C0.392,-0.16 0.397,-0.189 0.397,-0.228L0.397,-0.26Z" style="fill:rgb(132,147,168);fill-rule:nonzero;"/>
                </g>
            </g>
        </g>
        <g transform="matrix(2.08333,0,0,2.08333,1561.38,1419.52)">
            <g id="Button-Hover" serif:id="Button Hover">
                <text id="Hover" x="-26.671px" y="0px" style="font-family:'ArialMT', 'Arial', sans-serif;font-size:15px;fill:white;">HOVER</text>
            </g>
        </g>
        <g id="Button-Hover1" serif:id="Button Hover" transform="matrix(1.64903,0,0,1.64903,1202.94,454.601)">
            <path id="Base3" serif:id="Base" d="M296,595C296,592.24 293.76,590 291,590L145,590C142.24,590 140,592.24 140,595L140,630C140,632.76 142.24,635 145,635L291,635C293.76,635 296,632.76 296,630L296,595Z" style="fill:rgb(0,129,213);"/>
            <g id="Hover1" serif:id="Hover" transform="matrix(1,0,0,1,217.871,617.676)">
                <g transform="matrix(15,0,0,15,-27.9895,0)">
                    <path d="M0.472,-0.313L0.208,-0.313L0.208,-0.109L0.521,-0.109L0.521,0L0.065,0L0.065,-0.711L0.521,-0.711L0.521,-0.601L0.208,-0.601L0.208,-0.422L0.472,-0.422L0.472,-0.313Z" style="fill:white;fill-rule:nonzero;"/>
                </g>
                <g transform="matrix(15,0,0,15,-19.6472,0)">
                    <path d="M0.64,0L0.498,0L0.211,-0.479L0.208,-0.479L0.208,0L0.065,0L0.065,-0.711L0.208,-0.711L0.495,-0.232L0.498,-0.232L0.498,-0.711L0.64,-0.711L0.64,0Z" style="fill:white;fill-rule:nonzero;"/>
                </g>
                <g transform="matrix(15,0,0,15,-9.27612,0)">
                    <path d="M0.561,-0.601L0.358,-0.601L0.358,0L0.215,0L0.215,-0.601L0.015,-0.601L0.015,-0.711L0.561,-0.711L0.561,-0.601Z" style="fill:white;fill-rule:nonzero;"/>
                </g>
                <g transform="matrix(15,0,0,15,-0.670166,0)">
                    <path d="M0.208,-0.284L0.208,0L0.065,0L0.065,-0.711L0.312,-0.711C0.393,-0.711 0.456,-0.692 0.502,-0.656C0.547,-0.619 0.57,-0.567 0.57,-0.501C0.57,-0.465 0.561,-0.433 0.541,-0.406C0.522,-0.38 0.494,-0.359 0.457,-0.342C0.499,-0.33 0.529,-0.309 0.547,-0.28C0.566,-0.251 0.575,-0.215 0.575,-0.173L0.575,-0.121C0.575,-0.101 0.577,-0.08 0.583,-0.058C0.588,-0.037 0.597,-0.021 0.61,-0.01L0.61,0L0.463,0C0.45,-0.01 0.442,-0.028 0.438,-0.052C0.434,-0.076 0.433,-0.099 0.433,-0.122L0.433,-0.172C0.433,-0.207 0.423,-0.235 0.404,-0.255C0.384,-0.274 0.357,-0.284 0.321,-0.284L0.208,-0.284ZM0.208,-0.394L0.309,-0.394C0.349,-0.394 0.379,-0.403 0.398,-0.419C0.418,-0.436 0.428,-0.461 0.428,-0.495C0.428,-0.527 0.418,-0.553 0.398,-0.572C0.378,-0.591 0.35,-0.601 0.312,-0.601L0.208,-0.601L0.208,-0.394Z" style="fill:white;fill-rule:nonzero;"/>
                </g>
                <g transform="matrix(15,0,0,15,8.88794,0)">
                    <path d="M0.436,-0.153L0.206,-0.153L0.158,0L0.009,0L0.249,-0.711L0.395,-0.711L0.633,0L0.484,0L0.436,-0.153ZM0.241,-0.265L0.401,-0.265L0.323,-0.516L0.32,-0.516L0.241,-0.265Z" style="fill:white;fill-rule:nonzero;"/>
                </g>
                <g transform="matrix(15,0,0,15,18.4314,0)">
                    <path d="M0.208,-0.284L0.208,0L0.065,0L0.065,-0.711L0.312,-0.711C0.393,-0.711 0.456,-0.692 0.502,-0.656C0.547,-0.619 0.57,-0.567 0.57,-0.501C0.57,-0.465 0.561,-0.433 0.541,-0.406C0.522,-0.38 0.494,-0.359 0.457,-0.342C0.499,-0.33 0.529,-0.309 0.547,-0.28C0.566,-0.251 0.575,-0.215 0.575,-0.173L0.575,-0.121C0.575,-0.101 0.577,-0.08 0.583,-0.058C0.588,-0.037 0.597,-0.021 0.61,-0.01L0.61,0L0.463,0C0.45,-0.01 0.442,-0.028 0.438,-0.052C0.434,-0.076 0.433,-0.099 0.433,-0.122L0.433,-0.172C0.433,-0.207 0.423,-0.235 0.404,-0.255C0.384,-0.274 0.357,-0.284 0.321,-0.284L0.208,-0.284ZM0.208,-0.394L0.309,-0.394C0.349,-0.394 0.379,-0.403 0.398,-0.419C0.418,-0.436 0.428,-0.461 0.428,-0.495C0.428,-0.527 0.418,-0.553 0.398,-0.572C0.378,-0.591 0.35,-0.601 0.312,-0.601L0.208,-0.601L0.208,-0.394Z" style="fill:white;fill-rule:nonzero;"/>
                </g>
            </g>
        </g>
        <g transform="matrix(1,0,0,1,23.0171,-4.15346)">
            <g transform="matrix(31.25,0,0,31.25,1417.45,1397.06)">
                <path d="M0.471,-0.33L0.179,-0.33L0.179,-0.075L0.521,-0.075L0.521,0L0.083,0L0.083,-0.711L0.516,-0.711L0.516,-0.635L0.179,-0.635L0.179,-0.405L0.471,-0.405L0.471,-0.33Z" style="fill:rgb(132,147,168);fill-rule:nonzero;"/>
            </g>
            <g transform="matrix(31.25,0,0,31.25,1434.69,1397.06)">
                <path d="M0.377,-0.142C0.377,-0.163 0.369,-0.181 0.353,-0.194C0.337,-0.207 0.306,-0.219 0.261,-0.229C0.199,-0.242 0.151,-0.261 0.118,-0.285C0.085,-0.309 0.068,-0.341 0.068,-0.382C0.068,-0.425 0.086,-0.462 0.123,-0.492C0.159,-0.523 0.207,-0.538 0.265,-0.538C0.325,-0.538 0.374,-0.522 0.411,-0.489C0.448,-0.457 0.465,-0.419 0.464,-0.375L0.463,-0.373L0.371,-0.373C0.371,-0.395 0.361,-0.416 0.341,-0.435C0.321,-0.453 0.296,-0.462 0.265,-0.462C0.231,-0.462 0.206,-0.455 0.189,-0.439C0.172,-0.424 0.164,-0.406 0.164,-0.385C0.164,-0.364 0.171,-0.348 0.186,-0.336C0.2,-0.325 0.23,-0.315 0.275,-0.305C0.34,-0.292 0.389,-0.272 0.423,-0.247C0.456,-0.222 0.473,-0.189 0.473,-0.149C0.473,-0.102 0.454,-0.064 0.416,-0.034C0.378,-0.005 0.329,0.01 0.268,0.01C0.2,0.01 0.147,-0.007 0.108,-0.041C0.07,-0.075 0.051,-0.115 0.053,-0.161L0.054,-0.164L0.146,-0.164C0.148,-0.129 0.16,-0.104 0.184,-0.089C0.208,-0.073 0.236,-0.065 0.268,-0.065C0.302,-0.065 0.329,-0.072 0.348,-0.087C0.367,-0.101 0.377,-0.12 0.377,-0.142Z" style="fill:rgb(132,147,168);fill-rule:nonzero;"/>
            </g>
            <g transform="matrix(31.25,0,0,31.25,1451.03,1397.06)">
                <path d="M0.048,-0.254C0.048,-0.339 0.066,-0.408 0.102,-0.46C0.139,-0.512 0.189,-0.538 0.255,-0.538C0.287,-0.538 0.315,-0.532 0.339,-0.52C0.364,-0.508 0.385,-0.49 0.402,-0.467L0.416,-0.528L0.489,-0.528L0.489,0.203L0.393,0.203L0.393,-0.05C0.376,-0.03 0.356,-0.015 0.333,-0.005C0.31,0.005 0.284,0.01 0.254,0.01C0.189,0.01 0.139,-0.013 0.103,-0.06C0.066,-0.107 0.048,-0.168 0.048,-0.244L0.048,-0.254ZM0.144,-0.244C0.144,-0.191 0.155,-0.148 0.177,-0.115C0.199,-0.081 0.233,-0.065 0.278,-0.065C0.305,-0.065 0.327,-0.071 0.346,-0.083C0.365,-0.094 0.38,-0.111 0.393,-0.132L0.393,-0.398C0.38,-0.418 0.365,-0.434 0.346,-0.445C0.327,-0.457 0.305,-0.462 0.279,-0.462C0.233,-0.462 0.199,-0.443 0.177,-0.404C0.155,-0.365 0.144,-0.315 0.144,-0.254L0.144,-0.244Z" style="fill:rgb(132,147,168);fill-rule:nonzero;"/>
            </g>
            <g transform="matrix(31.25,0,0,31.25,1468.79,1397.06)">
                <path d="M0.405,-0.078C0.389,-0.05 0.367,-0.028 0.341,-0.013C0.315,0.003 0.285,0.01 0.251,0.01C0.193,0.01 0.148,-0.008 0.116,-0.045C0.084,-0.082 0.068,-0.139 0.068,-0.217L0.068,-0.528L0.164,-0.528L0.164,-0.216C0.164,-0.16 0.172,-0.121 0.189,-0.1C0.206,-0.078 0.231,-0.068 0.267,-0.068C0.301,-0.068 0.329,-0.075 0.351,-0.089C0.374,-0.102 0.39,-0.122 0.402,-0.147L0.402,-0.528L0.498,-0.528L0.498,0L0.412,0L0.405,-0.078Z" style="fill:rgb(132,147,168);fill-rule:nonzero;"/>
            </g>
            <g transform="matrix(31.25,0,0,31.25,1486.55,1397.06)">
                <path d="M0.289,0.01C0.213,0.01 0.154,-0.014 0.111,-0.063C0.069,-0.111 0.047,-0.175 0.047,-0.254L0.047,-0.275C0.047,-0.351 0.069,-0.414 0.113,-0.464C0.157,-0.513 0.21,-0.538 0.273,-0.538C0.344,-0.538 0.397,-0.516 0.432,-0.472C0.468,-0.428 0.485,-0.37 0.485,-0.297L0.485,-0.246L0.147,-0.246L0.146,-0.244C0.146,-0.191 0.158,-0.148 0.181,-0.115C0.205,-0.081 0.24,-0.065 0.289,-0.065C0.321,-0.065 0.35,-0.07 0.374,-0.079C0.399,-0.088 0.42,-0.101 0.438,-0.117L0.475,-0.055C0.456,-0.036 0.431,-0.021 0.4,-0.009C0.369,0.004 0.332,0.01 0.289,0.01ZM0.273,-0.462C0.24,-0.462 0.212,-0.449 0.19,-0.424C0.168,-0.398 0.155,-0.365 0.15,-0.324L0.151,-0.322L0.389,-0.322L0.389,-0.33C0.389,-0.368 0.38,-0.4 0.361,-0.425C0.342,-0.45 0.313,-0.462 0.273,-0.462Z" style="fill:rgb(132,147,168);fill-rule:nonzero;"/>
            </g>
            <g transform="matrix(31.25,0,0,31.25,1502.91,1397.06)">
                <path d="M0.28,-0.065C0.309,-0.065 0.335,-0.075 0.357,-0.094C0.38,-0.114 0.391,-0.138 0.391,-0.167L0.478,-0.167L0.479,-0.164C0.48,-0.118 0.461,-0.078 0.42,-0.043C0.38,-0.007 0.333,0.01 0.28,0.01C0.206,0.01 0.148,-0.015 0.108,-0.065C0.068,-0.116 0.047,-0.179 0.047,-0.254L0.047,-0.274C0.047,-0.349 0.068,-0.412 0.108,-0.462C0.149,-0.513 0.206,-0.538 0.28,-0.538C0.339,-0.538 0.387,-0.52 0.425,-0.483C0.462,-0.447 0.48,-0.402 0.479,-0.349L0.478,-0.346L0.391,-0.346C0.391,-0.378 0.38,-0.406 0.359,-0.428C0.338,-0.451 0.312,-0.462 0.28,-0.462C0.233,-0.462 0.198,-0.444 0.177,-0.407C0.155,-0.371 0.144,-0.326 0.144,-0.274L0.144,-0.254C0.144,-0.201 0.155,-0.156 0.176,-0.12C0.197,-0.083 0.232,-0.065 0.28,-0.065Z" style="fill:rgb(132,147,168);fill-rule:nonzero;"/>
            </g>
            <g transform="matrix(31.25,0,0,31.25,1519.27,1397.06)">
                <path d="M0.174,0L0.078,0L0.078,-0.528L0.174,-0.528L0.174,0ZM0.174,-0.664L0.078,-0.664L0.078,-0.762L0.174,-0.762L0.174,-0.664Z" style="fill:rgb(132,147,168);fill-rule:nonzero;"/>
            </g>
            <g transform="matrix(31.25,0,0,31.25,1534.91,1397.06)">
                <path d="M0.395,0C0.391,-0.016 0.389,-0.03 0.387,-0.042C0.385,-0.054 0.384,-0.067 0.384,-0.079C0.366,-0.054 0.343,-0.032 0.314,-0.015C0.285,0.002 0.254,0.01 0.221,0.01C0.166,0.01 0.124,-0.004 0.095,-0.032C0.066,-0.06 0.052,-0.099 0.052,-0.148C0.052,-0.199 0.072,-0.238 0.113,-0.267C0.154,-0.295 0.209,-0.31 0.279,-0.31L0.384,-0.31L0.384,-0.362C0.384,-0.393 0.374,-0.417 0.355,-0.435C0.337,-0.453 0.31,-0.462 0.275,-0.462C0.244,-0.462 0.219,-0.455 0.2,-0.439C0.181,-0.423 0.171,-0.405 0.171,-0.383L0.08,-0.382L0.079,-0.385C0.076,-0.423 0.094,-0.458 0.133,-0.49C0.171,-0.522 0.22,-0.538 0.281,-0.538C0.341,-0.538 0.389,-0.523 0.425,-0.492C0.462,-0.462 0.48,-0.418 0.48,-0.361L0.48,-0.106C0.48,-0.088 0.481,-0.069 0.483,-0.052C0.485,-0.034 0.488,-0.017 0.494,0L0.395,0ZM0.235,-0.07C0.27,-0.07 0.301,-0.079 0.329,-0.097C0.357,-0.115 0.375,-0.136 0.384,-0.159L0.384,-0.245L0.276,-0.245C0.237,-0.245 0.206,-0.235 0.183,-0.215C0.16,-0.196 0.148,-0.173 0.148,-0.146C0.148,-0.123 0.155,-0.104 0.17,-0.091C0.185,-0.077 0.206,-0.07 0.235,-0.07Z" style="fill:rgb(132,147,168);fill-rule:nonzero;"/>
            </g>
            <g transform="matrix(31.25,0,0,31.25,1559.86,1397.06)">
                <path d="M0.377,-0.142C0.377,-0.163 0.369,-0.181 0.353,-0.194C0.337,-0.207 0.306,-0.219 0.261,-0.229C0.199,-0.242 0.151,-0.261 0.118,-0.285C0.085,-0.309 0.068,-0.341 0.068,-0.382C0.068,-0.425 0.086,-0.462 0.123,-0.492C0.159,-0.523 0.207,-0.538 0.265,-0.538C0.325,-0.538 0.374,-0.522 0.411,-0.489C0.448,-0.457 0.465,-0.419 0.464,-0.375L0.463,-0.373L0.371,-0.373C0.371,-0.395 0.361,-0.416 0.341,-0.435C0.321,-0.453 0.296,-0.462 0.265,-0.462C0.231,-0.462 0.206,-0.455 0.189,-0.439C0.172,-0.424 0.164,-0.406 0.164,-0.385C0.164,-0.364 0.171,-0.348 0.186,-0.336C0.2,-0.325 0.23,-0.315 0.275,-0.305C0.34,-0.292 0.389,-0.272 0.423,-0.247C0.456,-0.222 0.473,-0.189 0.473,-0.149C0.473,-0.102 0.454,-0.064 0.416,-0.034C0.378,-0.005 0.329,0.01 0.268,0.01C0.2,0.01 0.147,-0.007 0.108,-0.041C0.07,-0.075 0.051,-0.115 0.053,-0.161L0.054,-0.164L0.146,-0.164C0.148,-0.129 0.16,-0.104 0.184,-0.089C0.208,-0.073 0.236,-0.065 0.268,-0.065C0.302,-0.065 0.329,-0.072 0.348,-0.087C0.367,-0.101 0.377,-0.12 0.377,-0.142Z" style="fill:rgb(0,129,213);fill-rule:nonzero;"/>
            </g>
            <g transform="matrix(31.25,0,0,31.25,1576.2,1397.06)">
                <path d="M0.289,0.01C0.213,0.01 0.154,-0.014 0.111,-0.063C0.069,-0.111 0.047,-0.175 0.047,-0.254L0.047,-0.275C0.047,-0.351 0.069,-0.414 0.113,-0.464C0.157,-0.513 0.21,-0.538 0.273,-0.538C0.344,-0.538 0.397,-0.516 0.432,-0.472C0.468,-0.428 0.485,-0.37 0.485,-0.297L0.485,-0.246L0.147,-0.246L0.146,-0.244C0.146,-0.191 0.158,-0.148 0.181,-0.115C0.205,-0.081 0.24,-0.065 0.289,-0.065C0.321,-0.065 0.35,-0.07 0.374,-0.079C0.399,-0.088 0.42,-0.101 0.438,-0.117L0.475,-0.055C0.456,-0.036 0.431,-0.021 0.4,-0.009C0.369,0.004 0.332,0.01 0.289,0.01ZM0.273,-0.462C0.24,-0.462 0.212,-0.449 0.19,-0.424C0.168,-0.398 0.155,-0.365 0.15,-0.324L0.151,-0.322L0.389,-0.322L0.389,-0.33C0.389,-0.368 0.38,-0.4 0.361,-0.425C0.342,-0.45 0.313,-0.462 0.273,-0.462Z" style="fill:rgb(0,129,213);fill-rule:nonzero;"/>
            </g>
            <g transform="matrix(31.25,0,0,31.25,1592.56,1397.06)">
                <path d="M0.156,-0.528L0.163,-0.45C0.18,-0.478 0.202,-0.499 0.229,-0.515C0.255,-0.53 0.285,-0.538 0.319,-0.538C0.376,-0.538 0.42,-0.521 0.452,-0.488C0.483,-0.455 0.499,-0.403 0.499,-0.333L0.499,0L0.402,0L0.402,-0.332C0.402,-0.378 0.393,-0.411 0.375,-0.431C0.356,-0.45 0.328,-0.46 0.291,-0.46C0.261,-0.46 0.236,-0.454 0.215,-0.442C0.194,-0.43 0.178,-0.414 0.166,-0.392L0.166,0L0.07,0L0.07,-0.528L0.156,-0.528Z" style="fill:rgb(0,129,213);fill-rule:nonzero;"/>
            </g>
            <g transform="matrix(31.25,0,0,31.25,1610.32,1397.06)">
                <path d="M0.166,-0.458C0.184,-0.483 0.207,-0.503 0.233,-0.517C0.26,-0.531 0.289,-0.538 0.321,-0.538C0.378,-0.538 0.421,-0.521 0.453,-0.487C0.484,-0.453 0.5,-0.401 0.5,-0.331L0.5,0L0.404,0L0.404,-0.332C0.404,-0.376 0.394,-0.408 0.376,-0.429C0.357,-0.45 0.329,-0.46 0.292,-0.46C0.263,-0.46 0.238,-0.454 0.217,-0.443C0.196,-0.432 0.179,-0.416 0.166,-0.396L0.166,0L0.07,0L0.07,-0.762L0.166,-0.762L0.166,-0.458Z" style="fill:rgb(0,129,213);fill-rule:nonzero;"/>
            </g>
            <g transform="matrix(31.25,0,0,31.25,1628.08,1397.06)">
                <path d="M0.395,0C0.391,-0.016 0.389,-0.03 0.387,-0.042C0.385,-0.054 0.384,-0.067 0.384,-0.079C0.366,-0.054 0.343,-0.032 0.314,-0.015C0.285,0.002 0.254,0.01 0.221,0.01C0.166,0.01 0.124,-0.004 0.095,-0.032C0.066,-0.06 0.052,-0.099 0.052,-0.148C0.052,-0.199 0.072,-0.238 0.113,-0.267C0.154,-0.295 0.209,-0.31 0.279,-0.31L0.384,-0.31L0.384,-0.362C0.384,-0.393 0.374,-0.417 0.355,-0.435C0.337,-0.453 0.31,-0.462 0.275,-0.462C0.244,-0.462 0.219,-0.455 0.2,-0.439C0.181,-0.423 0.171,-0.405 0.171,-0.383L0.08,-0.382L0.079,-0.385C0.076,-0.423 0.094,-0.458 0.133,-0.49C0.171,-0.522 0.22,-0.538 0.281,-0.538C0.341,-0.538 0.389,-0.523 0.425,-0.492C0.462,-0.462 0.48,-0.418 0.48,-0.361L0.48,-0.106C0.48,-0.088 0.481,-0.069 0.483,-0.052C0.485,-0.034 0.488,-0.017 0.494,0L0.395,0ZM0.235,-0.07C0.27,-0.07 0.301,-0.079 0.329,-0.097C0.357,-0.115 0.375,-0.136 0.384,-0.159L0.384,-0.245L0.276,-0.245C0.237,-0.245 0.206,-0.235 0.183,-0.215C0.16,-0.196 0.148,-0.173 0.148,-0.146C0.148,-0.123 0.155,-0.104 0.17,-0.091C0.185,-0.077 0.206,-0.07 0.235,-0.07Z" style="fill:rgb(0,129,213);fill-rule:nonzero;"/>
            </g>
            <g transform="matrix(31.25,0,0,31.25,1645.26,1397.06)">
                <path d="M0.173,-0.2C0.174,-0.247 0.178,-0.28 0.186,-0.298C0.193,-0.317 0.214,-0.341 0.247,-0.371C0.279,-0.409 0.302,-0.438 0.316,-0.458C0.33,-0.479 0.336,-0.504 0.336,-0.533C0.336,-0.567 0.327,-0.594 0.309,-0.612C0.29,-0.631 0.264,-0.64 0.23,-0.64C0.2,-0.64 0.175,-0.632 0.154,-0.616C0.133,-0.6 0.123,-0.576 0.123,-0.545L0.031,-0.545L0.03,-0.548C0.029,-0.6 0.047,-0.642 0.085,-0.674C0.123,-0.705 0.171,-0.721 0.23,-0.721C0.294,-0.721 0.344,-0.705 0.379,-0.672C0.415,-0.639 0.433,-0.594 0.433,-0.535C0.433,-0.493 0.421,-0.455 0.398,-0.42C0.375,-0.385 0.345,-0.349 0.307,-0.313C0.29,-0.295 0.279,-0.28 0.275,-0.266C0.271,-0.252 0.27,-0.23 0.27,-0.2L0.173,-0.2ZM0.273,0L0.172,0L0.172,-0.102L0.273,-0.102L0.273,0Z" style="fill:rgb(0,129,213);fill-rule:nonzero;"/>
            </g>
        </g>
        <g id="User-Icon" serif:id="User Icon" transform="matrix(1.4178,0,0,1.4178,1072.56,-3012.78)">
            <path d="M203.004,2959.62C201.186,2959.92 199.049,2960 195,2960C190.951,2960 188.814,2959.92 186.996,2959.62C184.451,2959.19 183,2958.28 183,2956.76C183,2954.75 185.592,2951.94 189.196,2950.31C190.652,2952.52 192.709,2954 195,2954C197.291,2954 199.348,2952.52 200.804,2950.31C204.408,2951.94 207,2954.75 207,2956.76C207,2958.28 205.549,2959.19 203.004,2959.62ZM195,2952C191.678,2952 189,2947.59 189,2943.06C189,2938.84 191.505,2936 195,2936C198.495,2936 201,2938.84 201,2943.06C201,2947.59 198.322,2952 195,2952Z" style="fill:rgb(131,147,167);"/>
        </g>
        <g id="Lock-Icon" serif:id="Lock Icon" transform="matrix(1.39937,0,0,1.39937,160.696,-2673.98)">
            <path d="M857.5,2850L840.5,2850C839.672,2850 839,2849.33 839,2848.5L839,2836.5C839,2835.67 839.672,2835 840.5,2835L843,2835L843,2832C843,2828.69 845.686,2826 849,2826C852.314,2826 855,2828.69 855,2832L855,2835L857.5,2835C858.328,2835 859,2835.67 859,2836.5L859,2848.5C859,2849.33 858.328,2850 857.5,2850ZM847.5,2846L850.5,2846L849.716,2842.86C850.466,2842.57 851,2841.85 851,2841C851,2839.9 850.105,2839 849,2839C847.895,2839 847,2839.9 847,2841C847,2841.85 847.535,2842.57 848.284,2842.86L847.5,2846ZM853,2832C853,2829.79 851.209,2828 849,2828C846.791,2828 845,2829.79 845,2832L845,2835L853,2835L853,2832Z" style="fill:rgb(131,147,167);"/>
        </g>
    </g>
</svg>
