<?xml version="1.0" encoding="UTF-8" standalone="no"?>
<!DOCTYPE svg PUBLIC "-//W3C//DTD SVG 1.1//EN" "http://www.w3.org/Graphics/SVG/1.1/DTD/svg11.dtd">
<svg width="100%" height="100%" viewBox="0 0 504 512" version="1.1" xmlns="http://www.w3.org/2000/svg" xmlns:xlink="http://www.w3.org/1999/xlink" xml:space="preserve" xmlns:serif="http://www.serif.com/" style="fill-rule:evenodd;clip-rule:evenodd;stroke-linejoin:round;stroke-miterlimit:2;">
    <g transform="matrix(1,0,0,1,-8,-0.000352302)">
        <path d="M349.565,98.783C295.978,98.783 251.721,64 184.348,64C159.393,64 137.039,68.384 116.303,76.013C119.177,68.508 120.4,60.471 119.889,52.451C118.117,24.015 94.806,1.206 66.338,0.048C34.345,-1.254 8,24.296 8,56C8,75.026 17.497,91.825 32,101.945L32,488C32,501.255 42.745,512 56,512L72,512C85.255,512 96,501.255 96,488L96,393.6C124.311,381.536 159.582,371.478 210.435,371.478C264.023,371.478 308.279,406.261 375.652,406.261C423.821,406.261 462.319,389.967 498.157,365.403C506.84,359.452 512,349.571 512,339.045L512,95.945C512,72.552 487.731,57.075 466.515,66.929C432.177,82.877 390.061,98.783 349.565,98.783Z" style="fill:white;fill-rule:nonzero;"/>
    </g>
</svg>
