<?xml version="1.0" encoding="UTF-8" standalone="no"?>
<!DOCTYPE svg PUBLIC "-//W3C//DTD SVG 1.1//EN" "http://www.w3.org/Graphics/SVG/1.1/DTD/svg11.dtd">
<svg width="100%" height="100%" viewBox="0 0 512 235" version="1.1" xmlns="http://www.w3.org/2000/svg" xmlns:xlink="http://www.w3.org/1999/xlink" xml:space="preserve" xmlns:serif="http://www.serif.com/" style="fill-rule:evenodd;clip-rule:evenodd;stroke-linejoin:round;stroke-miterlimit:2;">
    <g id="Input" transform="matrix(1.70334,0,0,1.70334,-1625.14,-1843.59)">
        <g id="Base">
            <path d="M1186,1130L985,1130C982.24,1130 980,1132.24 980,1135L980,1170C980,1172.76 982.24,1175 985,1175L1186,1175L1186,1130Z" style="fill:rgb(236,239,244);"/>
            <path d="M1186,1175L985,1175L984.935,1175L984.871,1175L984.807,1175L984.743,1174.99L984.679,1174.99L984.616,1174.99L984.552,1174.98L984.489,1174.97L984.426,1174.97L984.364,1174.96L984.301,1174.95L984.239,1174.94L984.177,1174.93L984.115,1174.92L984.054,1174.91L983.993,1174.9L983.932,1174.88L983.871,1174.87L983.811,1174.86L983.751,1174.84L983.691,1174.83L983.632,1174.81L983.573,1174.79L983.514,1174.78L983.455,1174.76L983.397,1174.74L983.339,1174.72L983.282,1174.7L983.224,1174.67L983.167,1174.65L983.111,1174.63L983.055,1174.61L982.999,1174.58L982.943,1174.56L982.888,1174.53L982.833,1174.51L982.779,1174.48L982.725,1174.45L982.671,1174.42L982.618,1174.4L982.565,1174.37L982.512,1174.34L982.46,1174.31L982.408,1174.28L982.357,1174.24L982.306,1174.21L982.255,1174.18L982.205,1174.15L982.156,1174.11L982.106,1174.08L982.058,1174.04L982.009,1174.01L981.961,1173.97L981.914,1173.93L981.867,1173.9L981.82,1173.86L981.774,1173.82L981.729,1173.78L981.683,1173.74L981.639,1173.7L981.595,1173.66L981.551,1173.62L981.508,1173.58L981.465,1173.54L981.423,1173.49L981.381,1173.45L981.34,1173.4L981.3,1173.36L981.259,1173.32L981.22,1173.27L981.181,1173.23L981.142,1173.18L981.104,1173.13L981.067,1173.09L981.03,1173.04L980.994,1172.99L980.958,1172.94L980.923,1172.89L980.888,1172.84L980.854,1172.8L980.821,1172.75L980.788,1172.69L980.756,1172.64L980.724,1172.59L980.693,1172.54L980.663,1172.49L980.633,1172.43L980.604,1172.38L980.575,1172.33L980.547,1172.28L980.52,1172.22L980.493,1172.17L980.467,1172.11L980.442,1172.06L980.417,1172L980.393,1171.94L980.37,1171.89L980.347,1171.83L980.325,1171.78L980.304,1171.72L980.283,1171.66L980.263,1171.6L980.244,1171.55L980.225,1171.49L980.207,1171.43L980.19,1171.37L980.173,1171.31L980.158,1171.25L980.142,1171.19L980.128,1171.13L980.115,1171.07L980.102,1171.01L980.09,1170.95L980.078,1170.88L980.068,1170.82L980.058,1170.76L980.049,1170.7L980.04,1170.64L980.033,1170.57L980.026,1170.51L980.02,1170.45L980.015,1170.38L980.01,1170.32L980.007,1170.26L980.004,1170.19L980.002,1170.13L980,1170.07L980,1170L980,1135L980,1134.93L980.002,1134.87L980.004,1134.81L980.007,1134.74L980.01,1134.68L980.015,1134.62L980.02,1134.55L980.026,1134.49L980.033,1134.43L980.04,1134.36L980.049,1134.3L980.058,1134.24L980.068,1134.18L980.078,1134.12L980.09,1134.05L980.102,1133.99L980.115,1133.93L980.128,1133.87L980.142,1133.81L980.158,1133.75L980.173,1133.69L980.19,1133.63L980.207,1133.57L980.225,1133.51L980.244,1133.45L980.263,1133.4L980.283,1133.34L980.304,1133.28L980.325,1133.22L980.347,1133.17L980.37,1133.11L980.393,1133.06L980.417,1133L980.442,1132.94L980.467,1132.89L980.493,1132.83L980.52,1132.78L980.547,1132.73L980.575,1132.67L980.604,1132.62L980.633,1132.57L980.663,1132.51L980.693,1132.46L980.724,1132.41L980.756,1132.36L980.788,1132.31L980.821,1132.26L980.854,1132.2L980.888,1132.16L980.923,1132.11L980.958,1132.06L980.994,1132.01L981.03,1131.96L981.067,1131.91L981.104,1131.87L981.142,1131.82L981.181,1131.77L981.22,1131.73L981.259,1131.68L981.3,1131.64L981.34,1131.6L981.381,1131.55L981.423,1131.51L981.465,1131.46L981.508,1131.42L981.551,1131.38L981.595,1131.34L981.639,1131.3L981.683,1131.26L981.729,1131.22L981.774,1131.18L981.82,1131.14L981.867,1131.1L981.914,1131.07L981.961,1131.03L982.009,1130.99L982.058,1130.96L982.106,1130.92L982.156,1130.89L982.205,1130.85L982.255,1130.82L982.306,1130.79L982.357,1130.76L982.408,1130.72L982.46,1130.69L982.512,1130.66L982.565,1130.63L982.618,1130.6L982.671,1130.58L982.725,1130.55L982.779,1130.52L982.833,1130.49L982.888,1130.47L982.943,1130.44L982.999,1130.42L983.055,1130.39L983.111,1130.37L983.167,1130.35L983.224,1130.33L983.282,1130.3L983.339,1130.28L983.397,1130.26L983.455,1130.24L983.514,1130.23L983.573,1130.21L983.632,1130.19L983.691,1130.17L983.751,1130.16L983.811,1130.14L983.871,1130.13L983.932,1130.12L983.993,1130.1L984.054,1130.09L984.115,1130.08L984.177,1130.07L984.239,1130.06L984.301,1130.05L984.364,1130.04L984.426,1130.03L984.489,1130.03L984.552,1130.02L984.616,1130.02L984.679,1130.01L984.743,1130.01L984.807,1130L984.871,1130L984.935,1130L985,1130L1186,1130L1186,1175ZM985.002,1130.59L984.943,1130.59L984.886,1130.59L984.829,1130.59L984.773,1130.59L984.716,1130.6L984.66,1130.6L984.604,1130.61L984.548,1130.61L984.493,1130.62L984.438,1130.62L984.383,1130.63L984.328,1130.64L984.273,1130.65L984.219,1130.66L984.165,1130.67L984.111,1130.68L984.057,1130.69L984.004,1130.7L983.95,1130.71L983.897,1130.73L983.845,1130.74L983.792,1130.76L983.74,1130.77L983.688,1130.79L983.637,1130.8L983.585,1130.82L983.534,1130.84L983.484,1130.86L983.433,1130.87L983.383,1130.89L983.333,1130.91L983.283,1130.93L983.234,1130.95L983.185,1130.98L983.136,1131L983.088,1131.02L983.04,1131.05L982.992,1131.07L982.945,1131.09L982.898,1131.12L982.851,1131.14L982.805,1131.17L982.759,1131.2L982.713,1131.23L982.668,1131.25L982.623,1131.28L982.578,1131.31L982.534,1131.34L982.49,1131.37L982.447,1131.4L982.404,1131.43L982.361,1131.46L982.319,1131.5L982.277,1131.53L982.235,1131.56L982.194,1131.6L982.153,1131.63L982.113,1131.66L982.073,1131.7L982.034,1131.73L981.995,1131.77L981.956,1131.81L981.918,1131.84L981.88,1131.88L981.843,1131.92L981.806,1131.96L981.77,1132L981.734,1132.03L981.699,1132.07L981.664,1132.11L981.629,1132.15L981.595,1132.19L981.562,1132.24L981.529,1132.28L981.496,1132.32L981.464,1132.36L981.432,1132.4L981.401,1132.45L981.371,1132.49L981.341,1132.53L981.311,1132.58L981.282,1132.62L981.254,1132.67L981.226,1132.71L981.199,1132.76L981.172,1132.81L981.145,1132.85L981.12,1132.9L981.094,1132.94L981.07,1132.99L981.046,1133.04L981.022,1133.09L980.999,1133.14L980.977,1133.18L980.955,1133.23L980.934,1133.28L980.913,1133.33L980.893,1133.38L980.874,1133.43L980.855,1133.48L980.837,1133.53L980.819,1133.59L980.802,1133.64L980.786,1133.69L980.77,1133.74L980.755,1133.79L980.74,1133.85L980.726,1133.9L980.713,1133.95L980.7,1134L980.688,1134.06L980.677,1134.11L980.666,1134.16L980.656,1134.22L980.647,1134.27L980.638,1134.33L980.63,1134.38L980.623,1134.44L980.616,1134.49L980.61,1134.55L980.605,1134.6L980.6,1134.66L980.596,1134.72L980.593,1134.77L980.59,1134.83L980.589,1134.89L980.587,1134.94L980.587,1135L980.587,1170L980.587,1170.06L980.589,1170.11L980.59,1170.17L980.593,1170.23L980.596,1170.28L980.6,1170.34L980.605,1170.4L980.61,1170.45L980.616,1170.51L980.623,1170.56L980.63,1170.62L980.638,1170.67L980.647,1170.73L980.656,1170.78L980.666,1170.84L980.677,1170.89L980.688,1170.94L980.7,1171L980.713,1171.05L980.726,1171.1L980.74,1171.15L980.755,1171.21L980.77,1171.26L980.786,1171.31L980.802,1171.36L980.819,1171.41L980.837,1171.47L980.855,1171.52L980.874,1171.57L980.893,1171.62L980.913,1171.67L980.934,1171.72L980.955,1171.77L980.977,1171.82L980.999,1171.86L981.022,1171.91L981.046,1171.96L981.07,1172.01L981.094,1172.06L981.12,1172.1L981.145,1172.15L981.172,1172.19L981.199,1172.24L981.226,1172.29L981.254,1172.33L981.282,1172.38L981.311,1172.42L981.341,1172.47L981.371,1172.51L981.401,1172.55L981.432,1172.6L981.464,1172.64L981.496,1172.68L981.529,1172.72L981.562,1172.77L981.595,1172.81L981.629,1172.85L981.664,1172.89L981.699,1172.93L981.734,1172.97L981.77,1173.01L981.806,1173.04L981.843,1173.08L981.88,1173.12L981.918,1173.16L981.956,1173.19L981.995,1173.23L982.034,1173.27L982.073,1173.3L982.113,1173.34L982.153,1173.37L982.194,1173.4L982.235,1173.44L982.277,1173.47L982.319,1173.5L982.361,1173.54L982.404,1173.57L982.447,1173.6L982.49,1173.63L982.534,1173.66L982.578,1173.69L982.623,1173.72L982.668,1173.75L982.713,1173.77L982.759,1173.8L982.805,1173.83L982.851,1173.86L982.898,1173.88L982.945,1173.91L982.992,1173.93L983.04,1173.95L983.088,1173.98L983.136,1174L983.185,1174.02L983.234,1174.05L983.283,1174.07L983.333,1174.09L983.383,1174.11L983.433,1174.13L983.484,1174.14L983.534,1174.16L983.585,1174.18L983.637,1174.2L983.688,1174.21L983.74,1174.23L983.792,1174.25L983.845,1174.26L983.897,1174.27L983.95,1174.29L984.004,1174.3L984.057,1174.31L984.111,1174.32L984.165,1174.33L984.219,1174.34L984.273,1174.35L984.328,1174.36L984.383,1174.37L984.438,1174.38L984.493,1174.38L984.548,1174.39L984.604,1174.39L984.66,1174.4L984.716,1174.4L984.773,1174.41L984.829,1174.41L984.886,1174.41L984.943,1174.41L985.002,1174.41L1185.41,1174.41L1185.41,1130.59L985.002,1130.59Z" style="fill:rgb(201,211,223);"/>
        </g>
        <g id="Button">
            <path id="Base1" serif:id="Base" d="M1230,1135C1230,1132.24 1227.76,1130 1225,1130L1185,1130L1185,1175L1225,1175C1227.76,1175 1230,1172.76 1230,1170L1230,1135Z" style="fill:rgb(0,129,213);"/>
            <path id="Loupe-Icon" serif:id="Loupe Icon" d="M1214.7,1160.7C1214.3,1161.09 1213.66,1161.09 1213.27,1160.7L1210.18,1157.61C1209.01,1158.48 1207.57,1159 1206,1159C1202.13,1159 1199,1155.87 1199,1152C1199,1148.13 1202.13,1145 1206,1145C1209.87,1145 1213,1148.13 1213,1152C1213,1153.57 1212.48,1155.01 1211.61,1156.18L1214.7,1159.27C1215.09,1159.66 1215.09,1160.3 1214.7,1160.7ZM1206,1147C1203.24,1147 1201,1149.24 1201,1152C1201,1154.76 1203.24,1157 1206,1157C1208.76,1157 1211,1154.76 1211,1152C1211,1149.24 1208.76,1147 1206,1147Z" style="fill:white;"/>
        </g>
        <g id="Grade-UI-Kit" serif:id="Grade UI Kit" transform="matrix(1,0,0,1,994.871,1157.68)">
            <text x="0px" y="0px" style="font-family:'ArialMT', 'Arial', sans-serif;font-size:15px;fill:rgb(132,147,168);">Pesquisar no Blog</text>
        </g>
    </g>
</svg>
