<?xml version="1.0" encoding="UTF-8" standalone="no"?><!DOCTYPE svg PUBLIC "-//W3C//DTD SVG 1.1//EN" "http://www.w3.org/Graphics/SVG/1.1/DTD/svg11.dtd"><svg width="100%" height="100%" viewBox="0 0 512 235" version="1.1" xmlns="http://www.w3.org/2000/svg" xmlns:xlink="http://www.w3.org/1999/xlink" xml:space="preserve" xmlns:serif="http://www.serif.com/" style="fill-rule:evenodd;clip-rule:evenodd;stroke-linejoin:round;stroke-miterlimit:2;"><g><path d="M437.864,83.5c0,-7.451 -6.05,-13.5 -13.5,-13.5l-397.415,0c-7.451,0 -13.5,6.049 -13.5,13.5l0,63c0,7.451 6.049,13.5 13.5,13.5l397.415,0c7.45,0 13.5,-6.049 13.5,-13.5l0,-63Z" style="fill:#ebebeb;"/></g><path d="M486.208,83.5c0,-7.451 -6.049,-13.5 -13.5,-13.5l-73,0c-7.451,0 -13.5,6.049 -13.5,13.5l0,63c0,7.451 6.049,13.5 13.5,13.5l73,0c7.451,0 13.5,-6.049 13.5,-13.5l0,-63Z" style="fill:#337ab7;"/><clipPath id="_clip1"><rect id="magnifier" x="412.636" y="92.406" width="48.408" height="48.408"/></clipPath><g clip-path="url(#_clip1)"><g><path d="M459.714,133.067l-11.105,-11.106c-1.655,2.573 -3.845,4.762 -6.419,6.417l11.107,11.106c1.773,1.773 4.648,1.773 6.417,0c1.773,-1.769 1.773,-4.644 0,-6.417Z" style="fill:#fff;fill-rule:nonzero;"/><path d="M448.942,110.559c0,-10.025 -8.128,-18.153 -18.153,-18.153c-10.025,0 -18.153,8.128 -18.153,18.153c0,10.024 8.128,18.152 18.153,18.152c10.025,0 18.153,-8.128 18.153,-18.152Zm-18.153,13.614c-7.507,0 -13.615,-6.107 -13.615,-13.614c0,-7.508 6.108,-13.615 13.615,-13.615c7.508,0 13.615,6.107 13.615,13.615c0,7.507 -6.107,13.614 -13.615,13.614Z" style="fill:#fff;fill-rule:nonzero;"/><path d="M420.2,110.559l3.025,0c0,-4.171 3.394,-7.564 7.564,-7.564l0,-3.025c-5.838,0 -10.589,4.751 -10.589,10.589Z" style="fill:#fff;fill-rule:nonzero;"/></g></g></svg>