<?xml version="1.0" encoding="UTF-8" standalone="no"?>
<!DOCTYPE svg PUBLIC "-//W3C//DTD SVG 1.1//EN" "http://www.w3.org/Graphics/SVG/1.1/DTD/svg11.dtd">
<svg width="100%" height="100%" viewBox="0 0 512 480" version="1.1" xmlns="http://www.w3.org/2000/svg" xmlns:xlink="http://www.w3.org/1999/xlink" xml:space="preserve" xmlns:serif="http://www.serif.com/" style="fill-rule:evenodd;clip-rule:evenodd;stroke-linejoin:round;stroke-miterlimit:2;">
    <g>
        <path d="M496,0L16,0C7.2,0 0,7.2 0,16L0,464C0,472.8 7.2,480 16,480L496,480C504.8,480 512,472.8 512,464L512,16C512,7.2 504.8,0 496,0ZM496,456C496,460.4 492.4,464 488,464L24,464C19.6,464 16,460.4 16,456L16,72C16,67.6 19.6,64 24,64L488,64C492.4,64 496,67.6 496,72L496,456Z" style="fill:rgb(202,208,215);fill-rule:nonzero;"/>
        <path d="M490,40L118,40C114.7,40 112,37.3 112,34L112,30C112,26.7 114.7,24 118,24L490,24C493.3,24 496,26.7 496,30L496,34C496,37.3 493.3,40 490,40Z" style="fill:rgb(225,230,233);fill-rule:nonzero;"/>
        <path d="M24,40C19.6,40 16,36.4 16,32C16,27.6 19.6,24 24,24C28.4,24 32,27.6 32,32C32,36.4 28.4,40 24,40Z" style="fill:rgb(225,230,233);"/>
        <path d="M64,32C64,27.6 60.4,24 56,24C51.6,24 48,27.6 48,32C48,36.4 51.6,40 56,40C60.4,40 64,36.4 64,32Z" style="fill:rgb(225,230,233);"/>
        <path d="M96,32C96,27.6 92.4,24 88,24C83.6,24 80,27.6 80,32C80,36.4 83.6,40 88,40C92.4,40 96,36.4 96,32Z" style="fill:rgb(225,230,233);"/>
    </g>
    <path d="M98.5,175.3L56,216.7L56,128C56,123.6 59.6,120 64,120L176,120C180.4,120 184,123.6 184,128L184,176.4L165.6,158.4C162.5,155.3 157.4,155.3 154.3,158.4L122.6,189.4L109.9,175.4C106.7,172.2 101.6,172.2 98.5,175.3Z" style="fill:rgb(182,218,240);fill-rule:nonzero;"/>
    <path d="M184,176.4L184,224C184,228.1 180.9,231.5 176.9,231.9L64,232C59.6,232 56,228.4 56,224L56,216.7L98.5,175.3C101.6,172.2 106.7,172.2 109.8,175.3L122.2,189L122.9,189L154.2,158.3C157.3,155.2 162.4,155.2 165.5,158.3L184,176.4Z" style="fill:rgb(90,91,103);fill-rule:nonzero;"/>
    <path d="M103.1,180.9C104.7,182.5 104.7,185 103.1,186.6L91.8,197.9C90.2,199.5 87.7,199.5 86.1,197.9C84.5,196.3 84.5,193.8 86.1,192.2L97.4,180.9C99,179.3 101.6,179.3 103.1,180.9ZM147.5,169.9L136.2,181.2C134.6,182.8 134.6,185.3 136.2,186.9C137.8,188.5 140.3,188.5 141.9,186.9L153.2,175.6C154.8,174 154.8,171.5 153.2,169.9C151.6,168.3 149,168.3 147.5,169.9Z" style="fill:rgb(188,190,192);fill-rule:nonzero;"/>
    <path d="M176.9,231.9C176.6,231.9 176.3,232 176,232L161.2,232L160,232L123.5,190.4L123,189.9L123.1,189.8C127.6,188.9 134.2,188.3 138.1,191C142.6,193.9 175.8,230.7 176.9,231.9Z" style="fill:rgb(54,55,63);fill-rule:nonzero;"/>
    <path d="M96,152C91.6,152 88,148.4 88,144C88,139.6 91.6,136 96,136C100.4,136 104,139.6 104,144C104,148.4 100.4,152 96,152Z" style="fill:rgb(252,179,59);fill-rule:nonzero;"/>
    <path d="M264,136L224,136C219.6,136 216,132.4 216,128C216,123.6 219.6,120 224,120L264,120C268.4,120 272,123.6 272,128C272,132.4 268.4,136 264,136Z" style="fill:rgb(252,179,59);fill-rule:nonzero;"/>
    <path d="M448,168L224,168C219.6,168 216,164.4 216,160C216,155.6 219.6,152 224,152L448,152C452.4,152 456,155.6 456,160C456,164.4 452.4,168 448,168ZM224,200L360,200C364.4,200 368,196.4 368,192C368,187.6 364.4,184 360,184L224,184C219.6,184 216,187.6 216,192C216,196.4 219.6,200 224,200ZM408,224C408,219.6 404.4,216 400,216L224,216C219.6,216 216,219.6 216,224C216,228.4 219.6,232 224,232L400,232C404.4,232 408,228.4 408,224Z" style="fill:rgb(225,230,233);fill-rule:nonzero;"/>
    <g transform="matrix(1,0,0,1,0,170)">
        <path d="M98.5,175.3L56,216.7L56,128C56,123.6 59.6,120 64,120L176,120C180.4,120 184,123.6 184,128L184,176.4L165.6,158.4C162.5,155.3 157.4,155.3 154.3,158.4L122.6,189.4L109.9,175.4C106.7,172.2 101.6,172.2 98.5,175.3Z" style="fill:rgb(182,218,240);fill-rule:nonzero;"/>
    </g>
    <g transform="matrix(1,0,0,1,0,170)">
        <path d="M184,176.4L184,224C184,228.1 180.9,231.5 176.9,231.9L64,232C59.6,232 56,228.4 56,224L56,216.7L98.5,175.3C101.6,172.2 106.7,172.2 109.8,175.3L122.2,189L122.9,189L154.2,158.3C157.3,155.2 162.4,155.2 165.5,158.3L184,176.4Z" style="fill:rgb(90,91,103);fill-rule:nonzero;"/>
    </g>
    <g transform="matrix(1,0,0,1,0,170)">
        <path d="M103.1,180.9C104.7,182.5 104.7,185 103.1,186.6L91.8,197.9C90.2,199.5 87.7,199.5 86.1,197.9C84.5,196.3 84.5,193.8 86.1,192.2L97.4,180.9C99,179.3 101.6,179.3 103.1,180.9ZM147.5,169.9L136.2,181.2C134.6,182.8 134.6,185.3 136.2,186.9C137.8,188.5 140.3,188.5 141.9,186.9L153.2,175.6C154.8,174 154.8,171.5 153.2,169.9C151.6,168.3 149,168.3 147.5,169.9Z" style="fill:rgb(188,190,192);fill-rule:nonzero;"/>
    </g>
    <g transform="matrix(1,0,0,1,0,170)">
        <path d="M176.9,231.9C176.6,231.9 176.3,232 176,232L161.2,232L160,232L123.5,190.4L123,189.9L123.1,189.8C127.6,188.9 134.2,188.3 138.1,191C142.6,193.9 175.8,230.7 176.9,231.9Z" style="fill:rgb(54,55,63);fill-rule:nonzero;"/>
    </g>
    <g transform="matrix(1,0,0,1,0,170)">
        <path d="M96,152C91.6,152 88,148.4 88,144C88,139.6 91.6,136 96,136C100.4,136 104,139.6 104,144C104,148.4 100.4,152 96,152Z" style="fill:rgb(252,179,59);fill-rule:nonzero;"/>
    </g>
    <g transform="matrix(1,0,0,1,0,170)">
        <path d="M264,136L224,136C219.6,136 216,132.4 216,128C216,123.6 219.6,120 224,120L264,120C268.4,120 272,123.6 272,128C272,132.4 268.4,136 264,136Z" style="fill:rgb(252,179,59);fill-rule:nonzero;"/>
    </g>
    <g transform="matrix(1,0,0,1,0,170)">
        <path d="M448,168L224,168C219.6,168 216,164.4 216,160C216,155.6 219.6,152 224,152L448,152C452.4,152 456,155.6 456,160C456,164.4 452.4,168 448,168ZM224,200L360,200C364.4,200 368,196.4 368,192C368,187.6 364.4,184 360,184L224,184C219.6,184 216,187.6 216,192C216,196.4 219.6,200 224,200ZM408,224C408,219.6 404.4,216 400,216L224,216C219.6,216 216,219.6 216,224C216,228.4 219.6,232 224,232L400,232C404.4,232 408,228.4 408,224Z" style="fill:rgb(225,230,233);fill-rule:nonzero;"/>
    </g>
</svg>
