<?xml version="1.0" encoding="UTF-8" standalone="no"?><!DOCTYPE svg PUBLIC "-//W3C//DTD SVG 1.1//EN" "http://www.w3.org/Graphics/SVG/1.1/DTD/svg11.dtd"><svg width="100%" height="100%" viewBox="0 0 656 369" version="1.1" xmlns="http://www.w3.org/2000/svg" xmlns:xlink="http://www.w3.org/1999/xlink" xml:space="preserve" xmlns:serif="http://www.serif.com/" style="fill-rule:evenodd;clip-rule:evenodd;stroke-linejoin:round;stroke-miterlimit:2;"><g><rect x="375.762" y="305.507" width="39.601" height="0.252" style="fill:#c5daf1;"/><path d="M186.343,238.196l18.3,0c0.883,0 1.605,-0.721 1.605,-1.604l0,-0.182c0,-0.882 -0.722,-1.605 -1.605,-1.605l-18.3,0c-0.884,0 -1.606,0.723 -1.606,1.605l0,0.182c0,0.883 0.722,1.604 1.606,1.604Z" style="fill:#edf5fc;fill-rule:nonzero;"/><path d="M214.749,124.01c0,3.931 3.186,7.118 7.117,7.118c3.931,0 7.117,-3.187 7.117,-7.118c0,-3.93 -3.186,-7.116 -7.117,-7.116c-3.931,0 -7.117,3.186 -7.117,7.116Z" style="fill:#edf5fc;fill-rule:nonzero;"/><path d="M202.567,127.402c0,3.931 3.187,7.117 7.117,7.117c3.931,0 7.117,-3.186 7.117,-7.117c0,-3.93 -3.186,-7.117 -7.117,-7.117c-3.93,0 -7.117,3.187 -7.117,7.117Z" style="fill:#edf5fc;fill-rule:nonzero;"/><path d="M192.159,124.662c0,3.931 3.186,7.117 7.117,7.117c3.93,0 7.117,-3.186 7.117,-7.117c0,-3.93 -3.187,-7.117 -7.117,-7.117c-3.931,0 -7.117,3.187 -7.117,7.117Z" style="fill:#edf5fc;fill-rule:nonzero;"/><path d="M143.995,329.437c0,6.311 87.607,11.427 195.676,11.427c108.069,0 195.676,-5.116 195.676,-11.427c0,-6.312 -87.607,-11.429 -195.676,-11.429c-108.069,0 -195.676,5.117 -195.676,11.429Z" style="fill:#bfbfbf;fill-rule:nonzero;"/><path d="M404.752,211.206l9.281,-71.931c0.639,-4.953 -3.218,-9.34 -8.212,-9.34l-108.227,0c-4.163,0 -7.68,3.092 -8.212,7.22l-9.281,71.932c-0.64,4.953 3.217,9.34 8.211,9.34l108.228,0c4.164,0 7.68,-3.092 8.212,-7.221Zm-217.767,27.858l1.732,-13.416c0.532,-4.13 4.049,-7.221 8.212,-7.221l44.708,0c4.163,0 7.68,-3.092 8.212,-7.221l9.28,-71.931c0.64,-4.953 -3.217,-9.34 -8.211,-9.34l-40.434,0c-4.994,0 -8.851,-4.387 -8.213,-9.34l1.732,-13.416c0.533,-4.13 4.049,-7.221 8.212,-7.221l44.708,0c4.163,0 7.679,-3.092 8.212,-7.221l8.592,-66.59c0.534,-4.129 4.049,-7.221 8.213,-7.221l13.279,0c4.994,0 8.852,4.387 8.213,9.341l-8.045,62.35c-0.64,4.953 3.218,9.341 8.212,9.341l108.227,0c4.164,0 7.679,-3.092 8.212,-7.221l8.593,-66.59c0.532,-4.129 4.049,-7.221 8.212,-7.221l13.279,0c4.995,0 8.852,4.387 8.213,9.341l-8.046,62.35c-0.638,4.953 3.219,9.341 8.212,9.341l40.435,0c4.993,0 8.852,4.387 8.212,9.339l-1.731,13.417c-0.533,4.129 -4.049,7.221 -8.212,7.221l-44.708,0c-4.163,0 -7.68,3.092 -8.212,7.22l-9.282,71.932c-0.639,4.953 3.218,9.34 8.213,9.34l40.433,0c4.994,0 8.852,4.387 8.213,9.339l-1.732,13.417c-0.533,4.129 -4.049,7.221 -8.212,7.221l-44.708,0c-4.163,0 -7.678,3.092 -8.212,7.221l-8.592,66.59c-0.532,4.129 -4.049,7.222 -8.213,7.222l-13.279,0c-4.993,0 -8.851,-4.388 -8.212,-9.341l8.046,-62.351c0.638,-4.953 -3.219,-9.341 -8.213,-9.341l-108.228,0c-4.163,0 -7.679,3.092 -8.212,7.221l-8.591,66.59c-0.534,4.129 -4.049,7.222 -8.213,7.222l-13.28,0c-4.993,0 -8.852,-4.388 -8.213,-9.341l8.046,-62.351c0.64,-4.953 -3.219,-9.341 -8.212,-9.341l-40.434,0c-4.994,0 -8.851,-4.387 -8.213,-9.34Z" style="fill:#377fc1;fill-rule:nonzero;"/></g></svg>