<?xml version="1.0" encoding="UTF-8" standalone="no"?>
<!DOCTYPE svg PUBLIC "-//W3C//DTD SVG 1.1//EN" "http://www.w3.org/Graphics/SVG/1.1/DTD/svg11.dtd">
<svg width="100%" height="100%" viewBox="0 0 512 480" version="1.1" xmlns="http://www.w3.org/2000/svg" xmlns:xlink="http://www.w3.org/1999/xlink" xml:space="preserve" xmlns:serif="http://www.serif.com/" style="fill-rule:evenodd;clip-rule:evenodd;stroke-linejoin:round;stroke-miterlimit:1.41421;">
    <g>
        <path d="M496,0L16,0C7.2,0 0,7.2 0,16L0,464C0,472.8 7.2,480 16,480L496,480C504.8,480 512,472.8 512,464L512,16C512,7.2 504.8,0 496,0ZM496,456C496,460.4 492.4,464 488,464L24,464C19.6,464 16,460.4 16,456L16,72C16,67.6 19.6,64 24,64L488,64C492.4,64 496,67.6 496,72L496,456Z" style="fill:rgb(202,208,215);fill-rule:nonzero;"/>
        <path d="M490,40L118,40C114.7,40 112,37.3 112,34L112,30C112,26.7 114.7,24 118,24L490,24C493.3,24 496,26.7 496,30L496,34C496,37.3 493.3,40 490,40Z" style="fill:rgb(225,230,233);fill-rule:nonzero;"/>
        <path d="M24,40C19.6,40 16,36.4 16,32C16,27.6 19.6,24 24,24C28.4,24 32,27.6 32,32C32,36.4 28.4,40 24,40Z" style="fill:rgb(237,63,60);"/>
        <path d="M64,32C64,27.6 60.4,24 56,24C51.6,24 48,27.6 48,32C48,36.4 51.6,40 56,40C60.4,40 64,36.4 64,32Z" style="fill:rgb(255,184,17);"/>
        <path d="M96,32C96,27.6 92.4,24 88,24C83.6,24 80,27.6 80,32C80,36.4 83.6,40 88,40C92.4,40 96,36.4 96,32Z" style="fill:rgb(58,167,90);"/>
    </g>
    <g transform="matrix(1.02753,0,0,1.02753,-10.3175,-32.8639)">
        <path d="M379.274,171.057L379.147,171.057C379.231,171.778 379.274,172.512 379.274,173.256L379.274,354.13C379.274,364.549 370.815,373.007 360.397,373.007C349.979,373.007 341.52,364.549 341.52,354.13L341.52,173.256C341.52,172.512 341.563,171.778 341.647,171.057L186.645,171.057L186.645,141.025L379.274,141.025L379.274,171.057Z" style="fill:rgb(225,230,233);"/>
    </g>
    <g transform="matrix(1.02753,0,0,1.02753,-10.3175,-32.8639)">
        <path d="M345.94,210.207L345.94,357.76C345.94,364.578 351.718,370.113 358.835,370.113C365.953,370.113 371.731,364.578 371.731,357.76L371.731,141.025L379.629,141.025L379.629,358.909C379.629,369.87 370.339,378.769 358.895,378.769C347.452,378.769 338.161,369.87 338.161,358.909L338.161,350.048L338.159,350.048L338.159,185.231C338.159,178.372 332.59,172.803 325.731,172.803C319.545,172.803 314.408,177.333 313.46,183.254L313.46,396.326C313.5,396.575 313.547,396.823 313.602,397.069L122.155,397.069L122.155,179.963C122.155,171.486 129.037,164.603 137.515,164.603L330.578,164.603C339.056,164.603 345.938,171.486 345.938,179.963L345.938,210.207L345.94,210.207ZM330.463,180.642L330.463,378.868L322.509,378.868L322.509,180.642L330.463,180.642Z" style="fill:rgb(202,208,215);"/>
    </g>
    <g transform="matrix(1.02753,0,0,1.11893,-10.3175,-26.0241)">
        <path d="M122.155,172.623L313.46,173.192L313.46,396.326C313.5,396.575 313.547,396.823 313.602,397.069L122.155,397.069L122.155,172.623Z" style="fill:rgb(225,230,233);"/>
    </g>
    <g transform="matrix(0.560435,0,0,0.560435,55.6334,54.6734)">
        <rect x="130.587" y="167.726" width="12.013" height="12.871" style="fill:rgb(225,230,233);"/>
        <g transform="matrix(1,0,0,1,20,0)">
            <rect x="130.587" y="167.726" width="12.013" height="12.871" style="fill:rgb(225,230,233);"/>
        </g>
        <g transform="matrix(1,0,0,1,40,0)">
            <rect x="130.587" y="167.726" width="12.013" height="12.871" style="fill:rgb(225,230,233);"/>
        </g>
    </g>
    <g id="RSS" transform="matrix(0.141832,0,0,0.141832,126.128,181.865)">
        <path d="M0.182,0L0.182,93.266C216.687,93.266 392.882,269.644 392.882,486.392L486.391,486.392C486.392,218.268 268.245,0 0.182,0Z" style="fill:rgb(252,179,59);fill-rule:nonzero;"/>
        <path d="M0.061,165.221L0.061,258.456C60.769,258.456 117.829,282.198 160.813,325.213C203.737,368.107 227.449,425.44 227.449,486.391L321.11,486.391C321.11,309.284 177.047,165.221 0.061,165.221Z" style="fill:rgb(252,179,59);fill-rule:nonzero;"/>
        <path d="M64.751,356.647C29.031,356.647 0,385.739 0,421.245C0,456.964 29.031,485.783 64.751,485.783C100.592,485.783 129.593,456.964 129.593,421.245C129.563,385.8 100.592,356.647 64.751,356.647Z" style="fill:rgb(252,179,59);fill-rule:nonzero;"/>
    </g>
    <g transform="matrix(1,0,0,1,-4.36915,61.5929)">
        <path d="M264,136L224,136C219.6,136 216,132.4 216,128C216,123.6 219.6,120 224,120L264,120C268.4,120 272,123.6 272,128C272,132.4 268.4,136 264,136Z" style="fill:rgb(255,184,17);fill-rule:nonzero;"/>
    </g>
    <g transform="matrix(0.947408,0,0,1,-78.0865,112.566)">
        <path d="M389.947,168L224,168C219.6,168 216,164.4 216,160C216,155.6 219.6,152 224,152L389.947,152C394.347,152 397.947,155.6 397.947,160C397.947,164.4 394.347,168 389.947,168ZM224,200L360,200C364.4,200 368,196.4 368,192C368,187.6 364.4,184 360,184L224,184C219.6,184 216,187.6 216,192C216,196.4 219.6,200 224,200ZM386.89,224C386.89,219.6 383.29,216 378.89,216L224,216C219.6,216 216,219.6 216,224C216,228.4 219.6,232 224,232L378.89,232C383.29,232 386.89,228.4 386.89,224Z" style="fill:rgb(202,208,215);fill-rule:nonzero;"/>
    </g>
    <g transform="matrix(0.947408,0,0,1,-78.0865,208.571)">
        <path d="M353.004,168L224,168C219.6,168 216,164.4 216,160C216,155.6 219.6,152 224,152L353.004,152C357.404,152 361.004,155.6 361.004,160C361.004,164.4 357.404,168 353.004,168ZM224,200L389.554,200C393.954,200 397.554,196.4 397.554,192C397.554,187.6 393.954,184 389.554,184L224,184C219.6,184 216,187.6 216,192C216,196.4 219.6,200 224,200Z" style="fill:rgb(202,208,215);fill-rule:nonzero;"/>
    </g>
    <g transform="matrix(0.947408,0,0,1,7.47611,54.7042)">
        <path d="M300.228,168L224,168C219.6,168 216,164.4 216,160C216,155.6 219.6,152 224,152L300.228,152C304.628,152 308.228,155.6 308.228,160C308.228,164.4 304.628,168 300.228,168Z" style="fill:rgb(202,208,215);fill-rule:nonzero;"/>
    </g>
    <g transform="matrix(0.947408,0,0,1,7.47611,82.9774)">
        <path d="M299.173,168L224,168C219.6,168 216,164.4 216,160C216,155.6 219.6,152 224,152L299.173,152C303.573,152 307.173,155.6 307.173,160C307.173,164.4 303.573,168 299.173,168Z" style="fill:rgb(202,208,215);fill-rule:nonzero;"/>
    </g>
</svg>
