<?xml version="1.0" encoding="UTF-8" standalone="no"?><!DOCTYPE svg PUBLIC "-//W3C//DTD SVG 1.1//EN" "http://www.w3.org/Graphics/SVG/1.1/DTD/svg11.dtd"><svg width="100%" height="100%" viewBox="0 0 656 369" version="1.1" xmlns="http://www.w3.org/2000/svg" xmlns:xlink="http://www.w3.org/1999/xlink" xml:space="preserve" xmlns:serif="http://www.serif.com/" style="fill-rule:evenodd;clip-rule:evenodd;stroke-linejoin:round;stroke-miterlimit:2;"><g><path d="M505.997,361.504l-345.355,0c-4.522,0 -8.189,-3.666 -8.189,-8.189l0,-334.476c0,-4.523 3.667,-8.189 8.189,-8.189l345.355,0c4.523,0 8.189,3.666 8.189,8.189l0,334.476c0,4.523 -3.666,8.189 -8.189,8.189Z" style="fill:#ddd;fill-rule:nonzero;"/><rect x="173.828" y="115.123" width="251.809" height="21.178" style="fill:#377fc1;"/><rect x="173.828" y="150.744" width="280.424" height="21.178" style="fill:#b8b8b8;"/><rect x="173.828" y="185.708" width="280.424" height="21.178" style="fill:#377fc1;"/><rect x="174.888" y="221.986" width="302.68" height="21.178" style="fill:#b8b8b8;"/><rect x="173.828" y="258.272" width="251.809" height="21.178" style="fill:#377fc1;"/><rect x="173.828" y="293.893" width="280.424" height="21.178" style="fill:#b8b8b8;"/><g><path d="M178.59,75.423l0,-26.748l5.328,0l6.331,18.939c0.584,1.764 1.01,3.083 1.277,3.959c0.305,-0.973 0.779,-2.402 1.424,-4.288l6.404,-18.61l4.762,0l0,26.748l-3.412,0l0,-22.387l-7.773,22.387l-3.193,0l-7.736,-22.771l0,22.771l-3.412,0Z" style="fill:#7e7e77;fill-rule:nonzero;"/><path d="M222.672,69.183l3.393,0.42c-0.535,1.982 -1.526,3.521 -2.974,4.616c-1.447,1.095 -3.296,1.642 -5.546,1.642c-2.834,0 -5.082,-0.873 -6.742,-2.618c-1.66,-1.746 -2.491,-4.194 -2.491,-7.344c0,-3.26 0.84,-5.79 2.518,-7.59c1.679,-1.801 3.856,-2.701 6.532,-2.701c2.591,0 4.708,0.882 6.35,2.646c1.642,1.764 2.463,4.245 2.463,7.444c0,0.195 -0.006,0.487 -0.018,0.876l-14.451,0c0.122,2.129 0.724,3.758 1.806,4.89c1.083,1.131 2.433,1.697 4.051,1.697c1.204,0 2.232,-0.317 3.083,-0.949c0.852,-0.633 1.527,-1.642 2.026,-3.029Zm-10.783,-5.309l10.819,0c-0.146,-1.63 -0.559,-2.853 -1.24,-3.668c-1.047,-1.265 -2.403,-1.897 -4.069,-1.897c-1.509,0 -2.777,0.504 -3.804,1.514c-1.028,1.01 -1.597,2.36 -1.706,4.051Z" style="fill:#7e7e77;fill-rule:nonzero;"/><path d="M230.189,75.423l0,-19.377l2.956,0l0,2.755c1.423,-2.128 3.479,-3.193 6.167,-3.193c1.167,0 2.241,0.21 3.22,0.63c0.979,0.419 1.712,0.97 2.199,1.651c0.486,0.681 0.827,1.49 1.021,2.427c0.122,0.608 0.183,1.672 0.183,3.193l0,11.914l-3.284,0l0,-11.787c0,-1.338 -0.128,-2.338 -0.384,-3.001c-0.255,-0.663 -0.708,-1.192 -1.359,-1.587c-0.651,-0.396 -1.414,-0.593 -2.29,-0.593c-1.398,0 -2.606,0.444 -3.621,1.332c-1.016,0.887 -1.524,2.572 -1.524,5.054l0,10.582l-3.284,0Z" style="fill:#7e7e77;fill-rule:nonzero;"/><path d="M263.67,75.423l0,-2.846c-1.509,2.189 -3.558,3.284 -6.149,3.284c-1.144,0 -2.211,-0.219 -3.202,-0.657c-0.992,-0.438 -1.728,-0.988 -2.208,-1.651c-0.48,-0.663 -0.818,-1.475 -1.013,-2.436c-0.133,-0.645 -0.2,-1.666 -0.2,-3.065l0,-12.006l3.284,0l0,10.747c0,1.715 0.067,2.87 0.201,3.466c0.206,0.864 0.644,1.542 1.313,2.035c0.669,0.493 1.496,0.739 2.482,0.739c0.985,0 1.909,-0.253 2.773,-0.757c0.864,-0.505 1.475,-1.192 1.834,-2.062c0.359,-0.87 0.538,-2.132 0.538,-3.786l0,-10.382l3.284,0l0,19.377l-2.937,0Z" style="fill:#7e7e77;fill-rule:nonzero;"/><path d="M290.199,75.423l-10.364,-26.748l3.832,0l6.951,19.432c0.56,1.556 1.028,3.016 1.405,4.378c0.414,-1.459 0.894,-2.919 1.442,-4.378l7.225,-19.432l3.613,0l-10.473,26.748l-3.631,0Z" style="fill:#7e7e77;fill-rule:nonzero;"/></g><g><path d="M318.262,69.183l3.393,0.42c-0.535,1.982 -1.526,3.521 -2.974,4.616c-1.447,1.095 -3.296,1.642 -5.546,1.642c-2.834,0 -5.082,-0.873 -6.742,-2.618c-1.66,-1.746 -2.491,-4.194 -2.491,-7.344c0,-3.26 0.84,-5.79 2.518,-7.59c1.679,-1.801 3.856,-2.701 6.532,-2.701c2.591,0 4.708,0.882 6.35,2.646c1.642,1.764 2.463,4.245 2.463,7.444c0,0.195 -0.006,0.487 -0.018,0.876l-14.451,0c0.122,2.129 0.724,3.758 1.806,4.89c1.083,1.131 2.433,1.697 4.051,1.697c1.204,0 2.232,-0.317 3.083,-0.949c0.852,-0.633 1.527,-1.642 2.026,-3.029Zm-10.783,-5.309l10.819,0c-0.146,-1.63 -0.559,-2.853 -1.24,-3.668c-1.047,-1.265 -2.403,-1.897 -4.069,-1.897c-1.509,0 -2.777,0.504 -3.804,1.514c-1.028,1.01 -1.597,2.36 -1.706,4.051Z" style="fill:#7e7e77;fill-rule:nonzero;"/><path d="M325.742,75.423l0,-19.377l2.956,0l0,2.938c0.754,-1.375 1.451,-2.281 2.089,-2.719c0.639,-0.438 1.341,-0.657 2.108,-0.657c1.107,0 2.232,0.353 3.375,1.059l-1.131,3.047c-0.803,-0.475 -1.606,-0.712 -2.409,-0.712c-0.717,0 -1.362,0.216 -1.934,0.648c-0.571,0.431 -0.979,1.031 -1.222,1.797c-0.365,1.168 -0.547,2.445 -0.547,3.831l0,10.145l-3.285,0Z" style="fill:#7e7e77;fill-rule:nonzero;"/><path d="M345.393,72.485l0.474,2.902c-0.924,0.194 -1.751,0.291 -2.481,0.291c-1.192,0 -2.117,-0.188 -2.773,-0.565c-0.657,-0.377 -1.119,-0.873 -1.387,-1.487c-0.268,-0.614 -0.401,-1.907 -0.401,-3.877l0,-11.148l-2.409,0l0,-2.555l2.409,0l0,-4.798l3.265,-1.971l0,6.769l3.303,0l0,2.555l-3.303,0l0,11.33c0,0.937 0.058,1.539 0.174,1.806c0.115,0.268 0.304,0.481 0.565,0.639c0.262,0.158 0.636,0.237 1.123,0.237c0.364,0 0.845,-0.042 1.441,-0.128Z" style="fill:#7e7e77;fill-rule:nonzero;"/><path d="M348.622,52.452l0,-3.777l3.285,0l0,3.777l-3.285,0Zm0,22.971l0,-19.377l3.285,0l0,19.377l-3.285,0Z" style="fill:#7e7e77;fill-rule:nonzero;"/><path d="M369.55,68.325l3.23,0.42c-0.353,2.226 -1.256,3.969 -2.71,5.227c-1.453,1.259 -3.238,1.889 -5.355,1.889c-2.652,0 -4.783,-0.867 -6.395,-2.6c-1.612,-1.733 -2.418,-4.218 -2.418,-7.453c0,-2.093 0.347,-3.923 1.04,-5.492c0.694,-1.569 1.749,-2.746 3.166,-3.531c1.417,-0.784 2.959,-1.177 4.625,-1.177c2.105,0 3.826,0.532 5.164,1.597c1.338,1.064 2.195,2.575 2.572,4.534l-3.193,0.492c-0.304,-1.301 -0.842,-2.28 -1.614,-2.937c-0.773,-0.657 -1.706,-0.985 -2.801,-0.985c-1.654,0 -2.998,0.593 -4.032,1.779c-1.034,1.186 -1.551,3.062 -1.551,5.628c0,2.603 0.499,4.495 1.496,5.675c0.997,1.18 2.299,1.77 3.905,1.77c1.289,0 2.365,-0.396 3.229,-1.186c0.864,-0.791 1.411,-2.007 1.642,-3.65Z" style="fill:#7e7e77;fill-rule:nonzero;"/><path d="M388.234,73.033c-1.217,1.034 -2.388,1.764 -3.513,2.189c-1.125,0.426 -2.332,0.639 -3.621,0.639c-2.129,0 -3.765,-0.52 -4.908,-1.56c-1.144,-1.04 -1.716,-2.369 -1.716,-3.987c0,-0.949 0.216,-1.815 0.648,-2.6c0.432,-0.784 0.998,-1.414 1.697,-1.888c0.699,-0.475 1.487,-0.833 2.363,-1.077c0.644,-0.17 1.618,-0.334 2.919,-0.492c2.652,-0.317 4.604,-0.694 5.857,-1.132c0.012,-0.45 0.018,-0.735 0.018,-0.857c0,-1.338 -0.31,-2.281 -0.93,-2.828c-0.84,-0.742 -2.086,-1.113 -3.741,-1.113c-1.544,0 -2.685,0.271 -3.421,0.812c-0.736,0.541 -1.28,1.499 -1.633,2.873l-3.211,-0.437c0.292,-1.375 0.772,-2.485 1.441,-3.33c0.669,-0.846 1.636,-1.496 2.901,-1.953c1.266,-0.456 2.731,-0.684 4.398,-0.684c1.654,0 2.998,0.195 4.032,0.584c1.034,0.389 1.794,0.879 2.281,1.469c0.486,0.59 0.827,1.335 1.021,2.235c0.11,0.56 0.165,1.569 0.165,3.029l0,4.379c0,3.053 0.07,4.984 0.209,5.793c0.14,0.809 0.417,1.584 0.831,2.326l-3.431,0c-0.34,-0.681 -0.559,-1.478 -0.656,-2.39Zm-0.274,-7.335c-1.192,0.487 -2.98,0.9 -5.364,1.241c-1.35,0.194 -2.305,0.413 -2.865,0.657c-0.559,0.243 -0.991,0.599 -1.295,1.067c-0.304,0.468 -0.456,0.988 -0.456,1.56c0,0.876 0.331,1.606 0.994,2.189c0.663,0.584 1.633,0.876 2.91,0.876c1.265,0 2.39,-0.276 3.376,-0.83c0.985,-0.553 1.709,-1.311 2.171,-2.271c0.353,-0.742 0.529,-1.837 0.529,-3.285l0,-1.204Z" style="fill:#7e7e77;fill-rule:nonzero;"/><rect x="396.298" y="48.675" width="3.284" height="26.748" style="fill:#7e7e77;"/></g></g></svg>