<?xml version="1.0" encoding="UTF-8" standalone="no"?>
<!DOCTYPE svg PUBLIC "-//W3C//DTD SVG 1.1//EN" "http://www.w3.org/Graphics/SVG/1.1/DTD/svg11.dtd">
<svg width="100%" height="100%" viewBox="0 0 48 48" version="1.1" xmlns="http://www.w3.org/2000/svg" xmlns:xlink="http://www.w3.org/1999/xlink" xml:space="preserve" xmlns:serif="http://www.serif.com/" style="fill-rule:evenodd;clip-rule:evenodd;stroke-linejoin:round;stroke-miterlimit:1.41421;">
    <path d="M48,24C48,10.766 37.234,0 24,0C10.766,0 0,10.766 0,24C0,28.914 1.488,33.484 4.031,37.293L4.027,37.312L4.195,37.555C4.34,37.766 4.492,37.965 4.645,38.168C4.703,38.25 4.766,38.336 4.828,38.418C5.02,38.672 5.215,38.918 5.414,39.164C5.469,39.234 5.527,39.305 5.586,39.371C6.512,40.48 7.527,41.496 8.621,42.406C8.688,42.465 8.754,42.52 8.82,42.574C9.059,42.77 9.301,42.961 9.547,43.145C9.645,43.219 9.746,43.293 9.844,43.367C10.078,43.535 10.312,43.707 10.555,43.867C10.68,43.957 10.812,44.039 10.941,44.121C11.277,44.34 11.613,44.547 11.953,44.746C12.191,44.887 12.434,45.023 12.676,45.156C12.824,45.234 12.973,45.309 13.121,45.383C13.383,45.516 13.645,45.645 13.906,45.77C14.043,45.828 14.176,45.891 14.309,45.949C14.617,46.086 14.926,46.215 15.238,46.336C15.336,46.375 15.434,46.414 15.531,46.453C16.387,46.777 17.27,47.055 18.172,47.281C18.207,47.293 18.246,47.297 18.281,47.309C18.68,47.406 19.082,47.492 19.488,47.57C19.598,47.59 19.707,47.609 19.812,47.629C20.152,47.688 20.492,47.742 20.836,47.785C20.969,47.805 21.098,47.82 21.23,47.837C21.566,47.875 21.902,47.906 22.242,47.93C22.367,47.941 22.496,47.953 22.621,47.962C23.078,47.985 23.535,48 24,48C24.465,48 24.922,47.985 25.379,47.958C25.504,47.949 25.633,47.938 25.758,47.93C26.098,47.902 26.434,47.875 26.77,47.837C26.902,47.82 27.031,47.801 27.164,47.785C27.508,47.738 27.848,47.688 28.188,47.625C28.293,47.605 28.402,47.59 28.512,47.566C28.918,47.492 29.32,47.402 29.719,47.305C29.754,47.297 29.793,47.29 29.828,47.281C30.73,47.055 31.613,46.777 32.469,46.453C32.566,46.414 32.664,46.375 32.762,46.336C33.074,46.211 33.387,46.086 33.691,45.949C33.824,45.891 33.961,45.828 34.094,45.766C34.359,45.645 34.621,45.516 34.879,45.383C35.027,45.305 35.176,45.23 35.324,45.152C35.57,45.023 35.809,44.883 36.047,44.746C36.391,44.547 36.727,44.336 37.059,44.121C37.188,44.035 37.32,43.957 37.449,43.867C37.688,43.707 37.922,43.535 38.156,43.363C38.254,43.293 38.355,43.219 38.457,43.145C38.699,42.957 38.941,42.77 39.18,42.574C39.246,42.52 39.312,42.461 39.379,42.406C40.473,41.492 41.488,40.48 42.414,39.371C42.473,39.301 42.531,39.234 42.586,39.164C42.785,38.918 42.98,38.672 43.172,38.418C43.234,38.336 43.293,38.25 43.355,38.168C43.504,37.961 43.66,37.762 43.805,37.555L43.973,37.309L43.969,37.293C46.512,33.484 48,28.914 48,24ZM46.398,24C46.398,27.977 45.352,31.715 43.527,34.957C42.156,30.414 37.965,27.199 33.047,27.199L28.293,27.199C28.133,27.199 28,27.07 28,26.906L28,26.391C28,26.246 28.121,26.148 28.223,26.109C33.371,24.172 36.586,16.141 35.91,10.52C35.559,7.594 34.109,4.977 32.004,3.086C40.414,6.312 46.398,14.469 46.398,24ZM42.031,37.273C41.965,37.359 41.902,37.445 41.836,37.531C41.656,37.766 41.477,38 41.289,38.227C41.27,38.25 41.25,38.273 41.23,38.297C40.586,39.074 39.887,39.805 39.141,40.488C39.098,40.531 39.055,40.57 39.008,40.613C38.789,40.812 38.562,41.008 38.332,41.199C38.258,41.262 38.188,41.32 38.113,41.379C37.891,41.559 37.664,41.738 37.438,41.91C37.359,41.969 37.277,42.023 37.199,42.082C37.066,42.18 36.934,42.273 36.801,42.367L36.801,38.398L35.199,38.398L35.199,43.387C35.168,43.406 35.137,43.422 35.105,43.441C34.902,43.559 34.699,43.672 34.492,43.781C34.352,43.859 34.207,43.93 34.062,44.004C33.82,44.125 33.578,44.242 33.332,44.355C33.211,44.41 33.094,44.466 32.973,44.52C32.664,44.652 32.352,44.781 32.039,44.902C31.973,44.926 31.91,44.953 31.848,44.977C31.047,45.277 30.23,45.531 29.395,45.738C29.336,45.754 29.273,45.766 29.215,45.781C28.871,45.863 28.523,45.938 28.172,46.004C28.07,46.023 27.965,46.039 27.859,46.059C27.551,46.113 27.238,46.16 26.926,46.204C26.805,46.22 26.684,46.234 26.562,46.246C26.25,46.286 25.938,46.309 25.625,46.332C25.508,46.34 25.395,46.355 25.277,46.359C24.852,46.387 24.426,46.398 24,46.398C23.574,46.398 23.148,46.387 22.723,46.363C22.605,46.355 22.492,46.344 22.375,46.336C22.062,46.312 21.75,46.286 21.441,46.25C21.32,46.234 21.199,46.22 21.078,46.204C20.762,46.16 20.453,46.113 20.141,46.062C20.035,46.043 19.934,46.023 19.828,46.004C19.477,45.938 19.129,45.863 18.785,45.781C18.727,45.766 18.664,45.754 18.605,45.738C17.773,45.531 16.953,45.277 16.156,44.98C16.09,44.957 16.027,44.93 15.961,44.902C15.648,44.781 15.336,44.656 15.031,44.52C14.91,44.469 14.789,44.41 14.668,44.355C14.422,44.242 14.18,44.125 13.938,44.004C13.793,43.934 13.652,43.859 13.508,43.785C13.301,43.676 13.098,43.559 12.895,43.441C12.863,43.422 12.832,43.406 12.801,43.387L12.801,38.398L11.199,38.398L11.199,42.367C11.066,42.273 10.934,42.18 10.801,42.082C10.723,42.023 10.641,41.969 10.566,41.91C10.336,41.738 10.109,41.559 9.887,41.379C9.812,41.32 9.742,41.262 9.668,41.199C9.438,41.008 9.211,40.812 8.992,40.613C8.945,40.57 8.902,40.531 8.855,40.488C8.113,39.805 7.414,39.074 6.77,38.297C6.75,38.273 6.73,38.25 6.711,38.227C6.523,38 6.344,37.766 6.164,37.531C6.098,37.445 6.035,37.359 5.969,37.273C5.875,37.141 5.781,37.008 5.688,36.875C6.312,32.25 10.242,28.801 14.953,28.801L17.27,28.801L24,35.531L30.73,28.801L33.047,28.801C37.758,28.801 41.688,32.25 42.312,36.875C42.219,37.008 42.129,37.141 42.031,37.273ZM20.395,24.633C16.566,23.219 13.602,16.68 13.602,12C13.602,11.898 13.613,11.797 13.613,11.695L14.199,10.973C15.52,9.402 17.773,8.953 19.809,9.855C20.629,10.219 21.5,10.398 22.398,10.398C24.777,10.398 26.91,9.109 28.023,7.055C30.566,7.891 32.84,9.465 34.375,11.453C34.609,16.332 31.742,23.078 27.66,24.613C26.895,24.902 26.398,25.598 26.398,26.391L26.398,26.906C26.398,27.949 27.25,28.801 28.293,28.801L28.469,28.801L24,33.27L19.531,28.801L19.707,28.801C20.75,28.801 21.602,27.949 21.602,26.906L21.602,26.398C21.602,25.609 21.117,24.902 20.395,24.633ZM24.031,1.602L24.059,1.602C24.449,1.605 24.836,1.625 25.203,1.668C29.168,2.109 32.504,4.871 33.805,8.539C32.112,7.066 30.039,5.93 27.805,5.316L27.117,5.129L26.852,5.789C26.113,7.617 24.367,8.801 22.398,8.801C21.723,8.801 21.07,8.664 20.457,8.391C18.246,7.41 15.828,7.676 14.043,8.977C14.535,7.355 15.422,5.871 16.652,4.641C18.617,2.68 21.223,1.602 24.031,1.602ZM15.984,3.09C15.832,3.227 15.672,3.359 15.523,3.508C13.25,5.773 12,8.789 12,12C12,17.305 15.352,24.473 19.836,26.133C19.934,26.168 20,26.277 20,26.398L20,26.906C20,27.07 19.867,27.199 19.707,27.199L14.953,27.199C10.035,27.199 5.844,30.414 4.473,34.957C2.648,31.715 1.602,27.977 1.602,24C1.602,14.473 7.582,6.32 15.984,3.09Z" style="fill:rgb(57,139,247);fill-rule:nonzero;"/>
</svg>
