<?xml version="1.0" encoding="UTF-8" standalone="no"?>
<!DOCTYPE svg PUBLIC "-//W3C//DTD SVG 1.1//EN" "http://www.w3.org/Graphics/SVG/1.1/DTD/svg11.dtd">
<svg width="100%" height="100%" viewBox="0 0 682 682" version="1.1" xmlns="http://www.w3.org/2000/svg" xmlns:xlink="http://www.w3.org/1999/xlink" xml:space="preserve" xmlns:serif="http://www.serif.com/" style="fill-rule:evenodd;clip-rule:evenodd;stroke-linejoin:round;stroke-miterlimit:1.41421;">
    <g transform="matrix(0.865234,0,0,0.865234,56.3514,56.7779)">
        <path d="M658.134,314.413C651.781,293.944 632.401,280.278 610.977,281.137L606.407,281.324C593.002,281.87 580.394,287.396 570.95,296.84L500.304,366.744C498.63,364.188 496.71,361.757 494.524,359.49C485.237,349.839 472.226,344.309 458.833,344.309L359.184,344.309C340.382,344.309 322.048,341.87 304.683,337.066C259.453,324.547 216.296,333.585 179.875,363.201C164.511,375.7 153.467,389.339 146.693,398.978C139.02,393.644 129.893,390.846 120.425,391.006C108.417,391.213 97.217,396.083 88.894,404.735L24.484,471.595C19.727,476.532 19.824,484.379 24.71,489.199L76.507,540.29C81.428,545.14 89.362,545.09 94.22,540.165C99.071,535.24 99.02,527.314 94.096,522.455L51.11,480.059L106.931,422.108C110.603,418.296 115.547,416.141 120.843,416.056C126.189,415.958 131.149,417.948 134.954,421.636L234.548,518.284C238.345,521.972 240.48,526.912 240.554,532.204C240.628,537.499 238.634,542.498 234.938,546.292L180.086,602.572L165.971,589.129C160.96,584.356 153.034,584.551 148.261,589.562C143.496,594.572 143.692,602.498 148.702,607.263L171.777,629.246C174.205,631.552 177.311,632.699 180.413,632.699C183.676,632.699 186.931,631.431 189.385,628.918L252.878,563.771C261.249,555.185 265.764,543.849 265.6,531.86C265.522,526.377 264.46,521.058 262.517,516.102L284.882,513.499C295.258,512.294 305.814,511.677 316.261,511.677L467.883,511.677C470.204,511.677 472.554,511.579 474.868,511.384L489.397,510.174C504.124,508.953 518.318,503.841 530.45,495.404C536.405,491.259 541.806,486.358 546.505,480.828L648.675,360.625C659.594,347.782 663.125,330.51 658.134,314.413ZM629.592,344.403L527.418,464.606C524.121,468.485 520.327,471.927 516.144,474.838C507.625,480.766 497.654,484.352 487.321,485.215L472.784,486.424C471.164,486.561 469.51,486.631 467.883,486.631L316.261,486.631C304.85,486.631 293.319,487.298 281.99,488.614L245.775,492.828L165.658,415.576C171.114,407.49 181.139,394.456 195.68,382.635C225.971,358.007 260.394,350.795 298.002,361.203C317.541,366.612 338.127,369.351 359.184,369.351L458.833,369.351C465.455,369.351 471.89,372.091 476.487,376.859C479.847,380.348 481.978,384.625 482.856,389.109C482.841,390.241 482.981,391.369 483.274,392.465C483.605,398.338 481.845,404.325 477.935,409.191L477.549,409.675C472.878,415.497 465.912,418.842 458.443,418.842L371.691,418.842C364.772,418.842 359.168,424.446 359.168,431.361C359.168,438.28 364.772,443.888 371.691,443.888L458.443,443.888C473.549,443.888 487.633,437.129 497.088,425.339L497.475,424.859C504.718,415.837 508.308,404.918 508.343,394.022L588.608,314.596C593.642,309.566 600.323,306.635 607.43,306.346L612.003,306.163C622.103,305.734 631.223,312.192 634.212,321.835C636.651,329.695 634.922,338.132 629.592,344.403Z" style="fill:rgb(57,139,247);fill-rule:nonzero;"/>
    </g>
    <g transform="matrix(0.865234,0,0,0.865234,56.3514,56.7779)">
        <path d="M120.562,442.467C101.861,442.467 86.65,457.683 86.65,476.379C86.65,495.084 101.861,510.299 120.562,510.299C139.262,510.299 154.478,495.084 154.478,476.379C154.478,457.683 139.262,442.467 120.562,442.467ZM120.562,485.25C115.672,485.25 111.692,481.273 111.692,476.379C111.692,471.494 115.672,467.517 120.562,467.517C125.448,467.517 129.428,471.494 129.428,476.379C129.428,481.273 125.448,485.25 120.562,485.25Z" style="fill:rgb(57,139,247);fill-rule:nonzero;"/>
    </g>
    <g transform="matrix(0.865234,0,0,0.865234,56.3514,56.7779)">
        <path d="M318.478,420.688L317.834,420.84C311.102,422.42 306.919,429.164 308.507,435.896C309.857,441.663 315.005,445.558 320.687,445.558C321.631,445.558 322.599,445.445 323.559,445.218L324.207,445.07C330.938,443.49 335.114,436.746 333.533,430.015C331.953,423.283 325.213,419.115 318.478,420.688Z" style="fill:rgb(57,139,247);fill-rule:nonzero;"/>
    </g>
    <g transform="matrix(0.865234,0,0,0.865234,56.3514,56.7779)">
        <path d="M118.95,553.23L118.302,553.382C111.571,554.967 107.395,561.702 108.976,568.434C110.33,574.206 115.473,578.096 121.155,578.096C122.107,578.096 123.067,577.991 124.035,577.765L124.679,577.616C131.411,576.036 135.59,569.292 134.006,562.561C132.425,555.825 125.682,551.653 118.95,553.23Z" style="fill:rgb(57,139,247);fill-rule:nonzero;"/>
    </g>
    <g transform="matrix(0.856708,0,0,0.856708,50.3478,52.4708)">
        <path d="M387.512,311.958C460.597,311.958 520.054,252.501 520.054,179.416C520.054,106.331 460.597,46.87 387.512,46.87C357.533,46.87 329.256,56.633 305.736,75.1C300.363,79.314 295.278,83.982 290.618,88.977C283.649,96.442 277.541,104.711 272.472,113.543C261.018,133.504 254.97,156.286 254.97,179.416C254.97,252.501 314.427,311.958 387.512,311.958ZM294.197,126.007C298.31,118.838 303.262,112.13 308.925,106.069C312.706,102.011 316.839,98.226 321.198,94.803C340.273,79.833 363.204,71.919 387.512,71.919C446.782,71.919 495.008,120.138 495.008,179.416C495.008,238.69 446.782,286.912 387.512,286.912C328.238,286.912 280.011,238.69 280.011,179.416C280.011,160.649 284.917,142.183 294.197,126.007Z" style="fill:rgb(57,139,247);fill-rule:nonzero;"/>
    </g>
    <g transform="matrix(0.856708,0,0,0.856708,50.3478,52.4708)">
        <path d="M398.618,222.28C393.568,225.281 387.008,226.346 382.56,226.346C374.115,226.346 366.712,216.395 366.712,205.055C366.712,198.14 361.104,192.532 354.189,192.532C347.27,192.532 341.666,198.14 341.666,205.055C341.666,226.744 354.88,244.992 372.667,250.015C373.073,256.567 378.497,261.761 385.151,261.761C391.984,261.761 397.529,256.286 397.662,249.48C415.75,244.785 431.36,231.318 431.36,207.783C431.36,179.564 402.544,164.169 387.746,164.169C387.559,164.169 369.174,162.534 369.174,150.776C369.174,132.719 387.559,132.212 387.746,132.212C391.227,132.212 395.461,134.28 398.798,137.617C400.402,139.225 400.573,139.392 400.573,146.144C400.573,153.059 406.185,158.639 413.096,158.639C420.011,158.639 425.623,153.012 425.623,146.093C425.623,138.089 425.623,129.02 416.511,119.904C411.032,114.432 404.468,110.538 397.639,108.594C397.256,102.019 391.824,96.797 385.151,96.797C378.236,96.797 372.628,102.409 372.628,109.324L372.628,110.144C358.946,115.228 344.128,127.381 344.128,150.776C344.128,179.47 373.955,189.172 387.656,189.211C391.418,189.515 406.31,196.11 406.31,207.779C406.31,214.647 403.941,219.115 398.618,222.28Z" style="fill:rgb(57,139,247);fill-rule:nonzero;"/>
    </g>
    <path d="M339.705,-0.863C527.67,-0.863 680.273,151.74 680.273,339.705C680.273,527.67 527.67,680.273 339.705,680.273C151.74,680.273 -0.863,527.67 -0.863,339.705C-0.863,151.74 151.74,-0.863 339.705,-0.863ZM339.705,22.887C514.562,22.887 656.523,164.849 656.523,339.705C656.523,514.562 514.562,656.523 339.705,656.523C164.849,656.523 22.887,514.562 22.887,339.705C22.887,164.849 164.849,22.887 339.705,22.887Z" style="fill:rgb(57,139,247);"/>
</svg>
