<?xml version="1.0" encoding="UTF-8" standalone="no"?>
<!DOCTYPE svg PUBLIC "-//W3C//DTD SVG 1.1//EN" "http://www.w3.org/Graphics/SVG/1.1/DTD/svg11.dtd">
<svg width="100%" height="100%" viewBox="0 0 682 682" version="1.1" xmlns="http://www.w3.org/2000/svg" xmlns:xlink="http://www.w3.org/1999/xlink" xml:space="preserve" xmlns:serif="http://www.serif.com/" style="fill-rule:evenodd;clip-rule:evenodd;stroke-linejoin:round;stroke-miterlimit:1.41421;">
    <path d="M339.705,-0.863C527.67,-0.863 680.273,151.74 680.273,339.705C680.273,527.67 527.67,680.273 339.705,680.273C151.74,680.273 -0.863,527.67 -0.863,339.705C-0.863,151.74 151.74,-0.863 339.705,-0.863ZM339.705,22.887C514.562,22.887 656.523,164.849 656.523,339.705C656.523,514.562 514.562,656.523 339.705,656.523C164.849,656.523 22.887,514.562 22.887,339.705C22.887,164.849 164.849,22.887 339.705,22.887Z" style="fill:rgb(57,139,247);"/>
    <g transform="matrix(1,0,0,1,-10.1039,-1.68398)">
        <g transform="matrix(1,0,0,1,110.469,117.205)">
            <path d="M391.2,185.9C391.2,153.8 365.2,127.8 333.1,127.8C301,127.8 275,153.8 275,185.9C275,218 301,244 333.1,244C365.2,244 391.2,218 391.2,185.9ZM329.9,225.6C328.3,225.6 327.5,224.7 327.5,223.1C327.5,221.8 327.5,220.6 327.5,219.3C327.5,216.5 327.4,216.4 324.7,216C321.3,215.5 318,214.7 314.8,213.2C312.4,212 312.1,211.4 312.8,208.8C313.3,206.9 313.8,205 314.4,203.1C315.1,200.9 315.7,200.6 317.7,201.7C321.1,203.5 324.8,204.5 328.6,205C331.1,205.3 333.5,205.1 335.8,204.1C340.1,202.2 340.7,197.3 337.1,194.3C335.9,193.3 334.5,192.5 333,191.9C329.3,190.3 325.3,189 321.8,186.9C316.1,183.5 312.4,178.7 312.8,171.8C313.3,163.9 317.7,159 325,156.3C328,155.2 328,155.3 328,152.1C328,151 328,150 328,148.9C328.1,146.5 328.5,146.1 330.8,146.1C331.5,146.1 332.3,146.1 333,146.1C338,146.1 338,146.1 338,151.1C338,154.6 338,154.6 341.5,155.2C344.2,155.6 346.8,156.4 349.3,157.5C350.7,158.1 351.2,159.1 350.8,160.5C350.2,162.7 349.6,164.8 348.9,167C348.2,169 347.6,169.3 345.7,168.4C341.8,166.5 337.7,165.7 333.4,166C332.3,166.1 331.2,166.2 330.1,166.7C326.4,168.3 325.8,172.4 328.9,175C330.5,176.3 332.3,177.2 334.2,178C337.5,179.4 340.8,180.7 343.9,182.4C353.9,187.9 356.6,200.4 349.5,209C347,212.1 343.7,214.2 339.8,215.2C338.1,215.7 337.4,216.5 337.4,218.3C337.5,220 337.4,221.7 337.4,223.4C337.4,224.9 336.6,225.8 335.1,225.8C333.6,225.7 331.7,225.7 329.9,225.6Z" style="fill:rgb(57,139,247);fill-rule:nonzero;"/>
        </g>
        <g transform="matrix(1,0,0,1,110.469,117.205)">
            <circle cx="248.6" cy="188.8" r="16.1" style="fill:rgb(57,139,247);"/>
        </g>
        <g transform="matrix(1,0,0,1,110.469,117.205)">
            <circle cx="417.7" cy="188.8" r="16.1" style="fill:rgb(57,139,247);"/>
        </g>
        <g transform="matrix(1,0,0,1,110.469,117.205)">
            <path d="M461.5,91.1L208.4,91.1C193.8,91.1 181.9,103 181.9,117.6L181.9,206C185.8,205.8 189.7,205.7 193.7,205.7C197.4,205.7 201,205.8 204.6,206L204.6,146.3C206.7,146.8 208.9,147.1 211.2,147.1C226,147.1 238.1,135.1 238.1,120.2C238.1,117.9 237.8,115.7 237.3,113.6L434.4,113.6C434.1,115.2 433.9,116.9 433.9,118.5C433.9,133.3 445.9,145.4 460.8,145.4C462.4,145.4 464,145.2 465.5,145L465.5,226.5C464,226.2 462.4,226.1 460.8,226.1C446,226.1 433.9,238.1 433.9,253C433.9,254.7 434.1,256.3 434.4,257.9L293.1,257.9L293.1,280.6L461.4,280.6C476,280.6 487.9,268.7 487.9,254.1L487.9,117.6C488,103 476.1,91.1 461.5,91.1Z" style="fill:rgb(57,139,247);fill-rule:nonzero;"/>
        </g>
        <g transform="matrix(1,0,0,1,110.469,117.205)">
            <path d="M27,220.6C41.6,226.1 60.9,229.1 81.3,229.1C92.1,229.1 102.6,228.2 112.2,226.6C117.5,222.6 124.3,218.8 133,215.6C141.7,212.4 151.8,209.9 162.6,208.3L162.6,193.8L162.6,192.8L162.6,158.8L162.6,157.8L162.6,123.8C162.6,123.6 162.6,123.4 162.6,123.2C162.6,115.3 157.9,104.1 135.6,95.7C121,90.1 101.7,87.1 81.3,87.1C60.9,87.1 41.6,90.1 27,95.6C4.7,103.9 0,115.1 0,123.1L0,298.1C0,306 4.7,317.2 27,325.6C41.6,331.1 60.9,334.1 81.3,334.1C85.7,334.1 90,334 94.3,333.7L94.3,330.3L94.3,329.9C94.3,329.8 94.3,329.8 94.3,329.7C94.3,329.6 94.3,329.5 94.3,329.5L94.3,315.8C90.1,316.1 85.7,316.3 81.3,316.3C63,316.3 45.9,313.7 33.3,309C20.8,304.3 17.9,299.6 17.9,298.4L17.9,287.1C20.5,288.5 23.6,289.8 27,291.1C41.6,296.6 60.9,299.6 81.3,299.6C85.7,299.6 90,299.5 94.3,299.2L94.3,294.9C94.3,294.8 94.3,294.8 94.3,294.7C94.3,294.6 94.3,294.5 94.3,294.5L94.3,280.8C90.1,281.1 85.7,281.3 81.3,281.3C63,281.3 45.9,278.7 33.3,274C20.8,269.3 17.9,264.6 17.9,263.4L17.9,252.2C20.5,253.6 23.6,254.9 27,256.2C41.6,261.7 60.9,264.7 81.3,264.7C85.7,264.7 90,264.6 94.3,264.3L94.3,260C94.3,256 94.9,250.8 97.3,245.2C92.1,245.7 86.8,245.9 81.3,245.9C63,245.9 45.9,243.3 33.3,238.6C20.8,233.9 17.9,229.2 17.9,228L17.9,216.8C20.6,217.9 23.6,219.3 27,220.6ZM33.3,112.4C46,107.7 63.1,105.1 81.3,105.1C99.6,105.1 116.7,107.7 129.3,112.4C141.4,116.9 144.4,121.4 144.6,122.9L144.6,123.2C144.4,124.7 141.4,129.2 129.3,133.7C116.6,138.4 99.5,141 81.3,141C63,141 45.9,138.4 33.3,133.7C20.8,129 17.9,124.3 17.9,123.1C17.9,121.9 20.8,117 33.3,112.4ZM17.9,146.4C20.5,147.8 23.6,149.1 27,150.4C41.6,155.9 60.9,158.9 81.3,158.9C101.7,158.9 121,155.9 135.6,150.4C139,149.1 142,147.8 144.7,146.4L144.7,157.7C144.5,159.2 141.5,163.7 129.4,168.2C116.7,172.9 99.6,175.5 81.4,175.5C63.1,175.5 46,172.9 33.4,168.2C20.9,163.5 18,158.8 18,157.6L18,146.4L17.9,146.4ZM17.9,181.5C20.5,182.9 23.6,184.2 27,185.5C41.6,191 60.9,194 81.3,194C101.7,194 121,191 135.6,185.5C139,184.2 142,182.9 144.7,181.5L144.7,192.8C144.5,194.3 141.5,198.8 129.4,203.3C116.7,208 99.6,210.6 81.4,210.6C63.1,210.6 46,208 33.4,203.3C20.9,198.6 18,193.9 18,192.7L18,181.5L17.9,181.5Z" style="fill:rgb(57,139,247);fill-rule:nonzero;"/>
        </g>
        <g transform="matrix(1,0,0,1,110.469,117.205)">
            <path d="M247.9,232.3C233.3,226.8 214,223.8 193.6,223.8C173.2,223.8 153.9,226.8 139.3,232.3C117,240.6 112.3,251.8 112.3,259.8L112.3,364.8C112.3,372.7 117,383.9 139.3,392.3C153.9,397.8 173.2,400.8 193.6,400.8C214,400.8 233.3,397.8 247.9,392.3C270.2,384 274.9,372.8 274.9,364.8L274.9,364.4L274.9,330.4L274.9,329.4L274.9,295.4L274.9,294.4L274.9,260.4C274.9,260.2 274.9,260 274.9,259.8C275,251.9 270.3,240.7 247.9,232.3ZM145.6,249.2C158.3,244.5 175.4,241.9 193.6,241.9C211.9,241.9 229,244.5 241.6,249.2C253.7,253.7 256.8,258.2 256.9,259.7L256.9,260C256.7,261.5 253.7,266 241.6,270.5C228.9,275.2 211.8,277.8 193.6,277.8C175.3,277.8 158.2,275.2 145.6,270.5C133.1,265.8 130.2,261.1 130.2,259.9C130.2,258.7 133,253.8 145.6,249.2ZM241.7,375.2C229,379.9 211.9,382.5 193.7,382.5C175.4,382.5 158.3,379.9 145.7,375.2C133.2,370.5 130.3,365.8 130.3,364.6L130.3,353.4C132.9,354.8 136,356.1 139.4,357.4C154,362.9 173.3,365.9 193.7,365.9C214.1,365.9 233.4,362.9 248,357.4C251.4,356.1 254.4,354.8 257.1,353.4L257.1,364.6C257,365.8 254.2,370.5 241.7,375.2ZM257,329.5L257,329.6C256.8,331.1 253.8,335.6 241.7,340.1C229,344.8 211.9,347.4 193.7,347.4C175.4,347.4 158.3,344.8 145.7,340.1C133.2,335.4 130.3,330.7 130.3,329.5L130.3,318.3C132.9,319.7 136,321 139.4,322.3C154,327.8 173.3,330.8 193.7,330.8C214.1,330.8 233.4,327.8 248,322.3C251.4,321 254.4,319.7 257.1,318.3L257,329.5ZM257,294.4L257,294.5C256.8,296 253.8,300.5 241.7,305C229,309.7 211.9,312.3 193.7,312.3C175.4,312.3 158.3,309.7 145.7,305C133.2,300.3 130.3,295.6 130.3,294.4L130.3,283.2C132.9,284.6 136,285.9 139.4,287.2C154,292.7 173.3,295.7 193.7,295.7C214.1,295.7 233.4,292.7 248,287.2C251.4,285.9 254.4,284.6 257.1,283.2L257,294.4Z" style="fill:rgb(57,139,247);fill-rule:nonzero;"/>
        </g>
    </g>
</svg>
