<?xml version="1.0" encoding="UTF-8" standalone="no"?>
<!DOCTYPE svg PUBLIC "-//W3C//DTD SVG 1.1//EN" "http://www.w3.org/Graphics/SVG/1.1/DTD/svg11.dtd">
<svg width="100%" height="100%" viewBox="0 0 48 48" version="1.1" xmlns="http://www.w3.org/2000/svg" xmlns:xlink="http://www.w3.org/1999/xlink" xml:space="preserve" xmlns:serif="http://www.serif.com/" style="fill-rule:evenodd;clip-rule:evenodd;stroke-linejoin:round;stroke-miterlimit:1.41421;">
    <path d="M24,0C10.766,0 0,10.766 0,24C0,37.234 10.766,48 24,48C37.234,48 48,37.234 48,24C48,10.766 37.234,0 24,0ZM24,46.398C11.648,46.398 1.602,36.352 1.602,24C1.602,11.648 11.648,1.602 24,1.602C36.352,1.602 46.398,11.648 46.398,24C46.398,36.352 36.352,46.398 24,46.398Z" style="fill:rgb(57,139,247);fill-rule:nonzero;"/>
    <g transform="matrix(1.06636,0,0,1.06636,-3.11532,6.81631)">
        <g transform="matrix(1,0,0,1,-3.79707,0.562529)">
            <path d="M44,3.799L39.199,3.799L39.199,8.6L44,8.6L44,3.799ZM42.398,6.998L40.801,6.998L40.801,5.401L42.398,5.401L42.398,6.998Z" style="fill:rgb(57,139,247);fill-rule:nonzero;"/>
        </g>
        <path d="M38.272,22.998L33.898,22.998L33.832,22.94C33.547,22.69 33.246,22.483 32.93,22.319L29.234,19.928L29.156,19.885C28.879,19.745 28.566,19.678 28.293,19.623C28.207,19.604 28.094,19.58 28,19.557L28,18.514C28.035,18.491 28.074,18.463 28.113,18.436C28.652,18.065 28.906,17.877 29.059,17.662C29.613,16.877 30.168,16.034 30.523,15.127C31.293,14.776 32,14.096 32,13.233L32,11.436C32,11.104 31.871,10.784 31.617,10.479C31.426,10.252 31.199,9.881 31.199,9.424L31.199,8.58C31.148,6.651 29.746,2.998 24.801,2.998C19.855,2.998 18.449,6.651 18.398,8.6L18.398,9.42C18.398,9.881 18.176,10.252 17.984,10.475C17.73,10.784 17.602,11.104 17.602,11.436L17.602,13.233C17.602,14.002 18.234,14.549 18.684,14.862C19.215,16.475 20.828,17.674 21.602,18.174L21.602,19.237C21.391,19.44 20.754,19.741 20.469,19.877C20.293,19.963 20.137,20.037 20.004,20.108L16.254,22.284C15.938,22.459 15.633,22.682 15.348,22.948L15.297,22.998L11.199,22.998L11.199,28.6L38.272,28.6L38.272,22.998ZM20.789,21.502C20.883,21.452 21.008,21.393 21.156,21.323C22.066,20.889 23.199,20.35 23.199,19.366L23.199,17.248L22.781,17.022C22.152,16.678 20.453,15.498 20.152,14.182L20.078,13.866L19.805,13.69C19.312,13.37 19.219,13.205 19.199,13.233L19.199,11.518C19.203,11.514 19.207,11.51 19.211,11.502C19.719,10.897 20,10.155 20,9.42L20,8.62C20.004,8.455 20.16,4.6 24.801,4.6C29.324,4.6 29.586,8.213 29.602,8.6L29.602,9.42C29.602,10.147 29.871,10.873 30.398,11.522L30.402,13.221C30.375,13.334 30.051,13.627 29.656,13.748L29.262,13.87L29.133,14.268C28.859,15.108 28.309,15.952 27.793,16.69C27.711,16.768 27.379,16.998 27.203,17.12C26.863,17.354 26.711,17.463 26.598,17.588L26.398,17.815L26.398,19.799C26.398,20.862 27.457,21.08 27.965,21.19C28.129,21.221 28.309,21.26 28.414,21.303L31.035,22.998L18.207,22.998L20.789,21.502ZM36.67,26.998L12.801,26.998L12.801,24.6L36.67,24.6L36.67,26.998Z" style="fill:rgb(57,139,247);fill-rule:nonzero;"/>
    </g>
</svg>
