<?xml version="1.0" encoding="UTF-8" standalone="no"?><!DOCTYPE svg PUBLIC "-//W3C//DTD SVG 1.1//EN" "http://www.w3.org/Graphics/SVG/1.1/DTD/svg11.dtd"><svg width="100%" height="100%" viewBox="0 0 2842 2842" version="1.1" xmlns="http://www.w3.org/2000/svg" xmlns:xlink="http://www.w3.org/1999/xlink" xml:space="preserve" xmlns:serif="http://www.serif.com/" style="fill-rule:evenodd;clip-rule:evenodd;stroke-linejoin:round;stroke-miterlimit:1.41421;"><path d="M1415.44,-3.597c783.186,0 1419.04,635.848 1419.04,1419.04c0,783.186 -635.849,1419.04 -1419.04,1419.04c-783.187,0 -1419.04,-635.849 -1419.04,-1419.04c0,-783.187 635.848,-1419.04 1419.04,-1419.04Zm0,98.96c728.569,0 1320.07,591.506 1320.07,1320.08c0,728.569 -591.505,1320.07 -1320.07,1320.07c-728.569,0 -1320.08,-591.505 -1320.08,-1320.07c0,-728.569 591.506,-1320.08 1320.08,-1320.08Z" style="fill:#398bf7;"/><path d="M1243.44,1465.19c-188.887,0 -341.958,153.111 -341.958,341.958c0,188.868 153.09,341.957 341.958,341.957c188.847,0 341.936,-153.089 341.936,-341.957c0,-188.826 -153.089,-341.958 -341.936,-341.958Zm0,619.797c-153.452,0 -277.839,-124.387 -277.839,-277.839c0,-153.453 124.408,-277.84 277.839,-277.84c153.431,0 277.818,124.387 277.818,277.84c0,153.452 -124.384,277.839 -277.818,277.839Zm134.391,-423.299c-14.535,-8.677 -33.107,-3.527 -41.463,11.54l-114.663,205.966l-63.86,-77.732c-11.562,-13.314 -26.928,-20.217 -41.441,-11.54c-14.534,8.698 -20.54,29.622 -11.134,43.045l88.866,108.165c6.646,8.633 14.233,13.807 22.163,15.282l0.065,0.129l0.813,0.043c1.795,0.277 28.64,5.236 40.202,-15.452l131.612,-236.399c8.351,-15.093 3.374,-34.349 -11.16,-43.047Z" style="fill:#398bf7;fill-rule:nonzero;"/><path d="M2077.08,1308.98c0,-136.787 -110.794,-247.581 -247.582,-247.581c-136.788,0 -247.582,110.794 -247.582,247.581c0,136.788 110.794,247.582 247.582,247.582c136.788,0 247.582,-110.794 247.582,-247.582Zm-261.218,169.174c-6.818,0 -10.227,-3.835 -10.227,-10.653c0,-5.54 0,-10.653 0,-16.193c0,-11.932 -0.427,-12.358 -11.932,-14.062c-14.489,-2.131 -28.551,-5.54 -42.187,-11.932c-10.227,-5.113 -11.506,-7.67 -8.523,-18.75c2.131,-8.096 4.262,-16.193 6.818,-24.289c2.983,-9.375 5.54,-10.653 14.063,-5.966c14.488,7.67 30.255,11.932 46.448,14.062c10.653,1.279 20.88,0.427 30.681,-3.835c18.324,-8.096 20.881,-28.977 5.54,-41.761c-5.113,-4.261 -11.079,-7.67 -17.471,-10.227c-15.767,-6.818 -32.812,-12.358 -47.727,-21.306c-24.289,-14.489 -40.056,-34.943 -38.352,-64.346c2.131,-33.664 20.881,-54.545 51.988,-66.05c12.784,-4.688 12.784,-4.262 12.784,-17.898c0,-4.687 0,-8.948 0,-13.636c0.426,-10.227 2.131,-11.932 11.932,-11.932c2.983,0 6.392,0 9.375,0c21.306,0 21.306,0 21.306,21.307c0,14.915 0,14.915 14.915,17.471c11.505,1.705 22.585,5.114 33.238,9.801c5.966,2.557 8.097,6.818 6.392,12.784c-2.557,9.375 -5.114,18.324 -8.097,27.699c-2.982,8.522 -5.539,9.801 -13.636,5.966c-16.619,-8.097 -34.09,-11.506 -52.414,-10.228c-4.687,0.427 -9.375,0.853 -14.062,2.983c-15.767,6.818 -18.324,24.29 -5.114,35.369c6.818,5.54 14.489,9.375 22.585,12.784c14.063,5.966 28.125,11.506 41.335,18.75c42.613,23.437 54.119,76.703 23.863,113.351c-10.653,13.21 -24.715,22.158 -41.334,26.42c-7.245,2.13 -10.228,5.539 -10.228,13.21c0.427,7.244 0,14.488 0,21.732c0,6.392 -3.409,10.228 -9.801,10.228c-6.391,-0.427 -14.488,-0.427 -22.158,-0.853Z" style="fill:#398bf7;fill-rule:nonzero;"/><circle cx="1469.41" cy="1321.34" r="68.607" style="fill:#398bf7;"/><circle cx="2190" cy="1321.34" r="68.607" style="fill:#398bf7;"/><path d="M2376.65,905.013l-1078.54,0c-62.215,0 -112.925,50.709 -112.925,112.924l0,376.7c16.619,-0.853 33.239,-1.279 50.284,-1.279c15.767,0 31.107,0.426 46.448,1.279l0,-254.4c8.949,2.13 18.324,3.409 28.125,3.409c63.067,0 114.629,-51.136 114.629,-114.629c0,-9.801 -1.279,-19.176 -3.409,-28.125l839.903,0c-1.278,6.818 -2.13,14.062 -2.13,20.88c0,63.068 51.135,114.63 114.629,114.63c6.818,0 13.636,-0.853 20.028,-1.705l0,347.296c-6.392,-1.278 -13.21,-1.704 -20.028,-1.704c-63.068,0 -114.629,51.136 -114.629,114.629c0,7.244 0.852,14.062 2.13,20.88l-602.122,0l0,96.732l717.177,0c62.216,0 112.925,-50.709 112.925,-112.924l0,-581.669c0.426,-62.215 -50.283,-112.924 -112.498,-112.924Z" style="fill:#398bf7;fill-rule:nonzero;"/><path d="M525.109,1456.85c62.215,23.437 144.458,36.221 231.389,36.221c46.022,0 90.766,-3.835 131.674,-10.653c22.585,-17.046 51.562,-33.239 88.636,-46.875c37.073,-13.636 80.112,-24.289 126.134,-31.107l0,-61.789l0,-4.262l0,-144.884l0,-4.261l0,-144.885c0,-0.852 0,-1.704 0,-2.556c0,-33.665 -20.028,-81.391 -115.055,-117.186c-62.215,-23.864 -144.458,-36.648 -231.389,-36.648c-86.931,0 -169.174,12.784 -231.389,36.221c-95.027,35.369 -115.055,83.096 -115.055,117.186l0,745.729c0,33.664 20.028,81.391 115.055,117.186c62.215,23.437 144.458,36.221 231.389,36.221c18.75,0 37.073,-0.426 55.397,-1.705l0,-14.488l0,-1.704c0,-0.427 0,-0.427 0,-0.853c0,-0.426 0,-0.852 0,-0.852l0,-58.38c-17.898,1.278 -36.647,2.131 -55.397,2.131c-77.982,0 -150.85,-11.08 -204.543,-31.108c-53.266,-20.028 -65.624,-40.056 -65.624,-45.17l0,-48.152c11.08,5.965 24.29,11.505 38.778,17.045c62.215,23.437 144.458,36.221 231.389,36.221c18.75,0 37.073,-0.426 55.397,-1.705l0,-18.323c0,-0.426 0,-0.426 0,-0.852c0,-0.427 0,-0.853 0,-0.853l0,-58.38c-17.898,1.279 -36.647,2.131 -55.397,2.131c-77.982,0 -150.85,-11.079 -204.543,-31.108c-53.266,-20.028 -65.624,-40.056 -65.624,-45.169l0,-47.727c11.08,5.966 24.29,11.506 38.778,17.045c62.215,23.437 144.458,36.221 231.389,36.221c18.75,0 37.073,-0.426 55.397,-1.704l0,-18.324c0,-17.045 2.557,-39.204 12.784,-63.067c-22.159,2.131 -44.744,2.983 -68.181,2.983c-77.982,0 -150.85,-11.08 -204.543,-31.108c-53.266,-20.028 -65.624,-40.056 -65.624,-45.17l0,-47.726c11.506,4.687 24.29,10.653 38.778,16.193Zm26.846,-461.074c54.119,-20.028 126.987,-31.107 204.543,-31.107c77.982,0 150.85,11.079 204.543,31.107c51.561,19.176 64.345,38.352 65.198,44.744l0,1.279c-0.853,6.392 -13.637,25.567 -65.198,44.743c-54.119,20.028 -126.987,31.108 -204.543,31.108c-77.982,0 -150.85,-11.08 -204.543,-31.108c-53.266,-20.028 -65.624,-40.056 -65.624,-45.17c0,-5.113 12.358,-25.994 65.624,-45.596Zm-65.624,144.885c11.08,5.966 24.29,11.505 38.778,17.045c62.215,23.437 144.458,36.221 231.389,36.221c86.931,0 169.174,-12.784 231.389,-36.221c14.488,-5.54 27.272,-11.079 38.778,-17.045l0,48.153c-0.852,6.392 -13.636,25.567 -65.198,44.743c-54.119,20.028 -126.987,31.108 -204.543,31.108c-77.982,0 -150.85,-11.08 -204.543,-31.108c-53.266,-20.028 -65.624,-40.056 -65.624,-45.17l0,-47.726l-0.426,0Zm0,149.572c11.08,5.966 24.29,11.505 38.778,17.045c62.215,23.437 144.458,36.221 231.389,36.221c86.931,0 169.174,-12.784 231.389,-36.221c14.488,-5.54 27.272,-11.079 38.778,-17.045l0,48.152c-0.852,6.392 -13.636,25.568 -65.198,44.744c-54.119,20.028 -126.987,31.108 -204.543,31.108c-77.982,0 -150.85,-11.08 -204.543,-31.108c-53.266,-20.028 -65.624,-40.056 -65.624,-45.17l0,-47.726l-0.426,0Z" style="fill:#398bf7;fill-rule:nonzero;"/></svg>