<?xml version="1.0" encoding="UTF-8" standalone="no"?>
<!DOCTYPE svg PUBLIC "-//W3C//DTD SVG 1.1//EN" "http://www.w3.org/Graphics/SVG/1.1/DTD/svg11.dtd">
<svg width="100%" height="100%" viewBox="0 0 682 682" version="1.1" xmlns="http://www.w3.org/2000/svg" xmlns:xlink="http://www.w3.org/1999/xlink" xml:space="preserve" xmlns:serif="http://www.serif.com/" style="fill-rule:evenodd;clip-rule:evenodd;stroke-linejoin:round;stroke-miterlimit:1.41421;">
    <path d="M339.705,-0.863C527.67,-0.863 680.273,151.74 680.273,339.705C680.273,527.67 527.67,680.273 339.705,680.273C151.74,680.273 -0.863,527.67 -0.863,339.705C-0.863,151.74 151.74,-0.863 339.705,-0.863ZM339.705,22.887C514.562,22.887 656.523,164.849 656.523,339.705C656.523,514.562 514.562,656.523 339.705,656.523C164.849,656.523 22.887,514.562 22.887,339.705C22.887,164.849 164.849,22.887 339.705,22.887Z" style="fill:rgb(57,139,247);"/>
    <g transform="matrix(1.43345,0,0,1.43345,-14.3912,-17.5644)">
        <path d="M232,217.473C225.223,219.891 219.891,225.223 217.473,232L176,232L176,248L217.473,248C221.172,258.531 231.66,265.109 242.754,263.855C253.848,262.598 262.598,253.848 263.855,242.754C265.109,231.66 258.531,221.172 248,217.473L248,160L232,160L232,217.473ZM240,248C235.582,248 232,244.418 232,240C232,235.582 235.582,232 240,232C244.418,232 248,235.582 248,240C248,244.418 244.418,248 240,248Z" style="fill:rgb(57,139,247);fill-rule:nonzero;"/>
    </g>
    <g transform="matrix(1.09819,0,0,1.09819,-36.8362,-29.0516)">
        <path d="M208.4,334.171L187.515,334.171L187.515,313.287L208.4,313.287L208.4,334.171ZM479.899,334.171L459.015,334.171L459.015,313.287L479.899,313.287L479.899,334.171ZM344.149,198.421L323.265,198.421L323.265,177.537L344.149,177.537L344.149,198.421Z" style="fill:rgb(57,139,247);fill-rule:nonzero;"/>
    </g>
    <g transform="matrix(1.09819,0,0,1.09819,-36.8362,-29.0516)">
        <path d="M418.187,399.353L418.187,378.229C418.187,373.162 421.202,365.979 435.504,360.591C444.868,357 457.246,355.075 470.33,355.075C483.414,355.075 495.792,357 505.156,360.527C519.458,365.85 522.473,373.034 522.473,378.164L522.473,490.403C522.473,495.47 519.458,502.653 505.156,508.04C495.792,511.568 483.414,513.492 470.33,513.492C467.769,513.492 439.201,513.439 431.872,513.285C413.278,525.795 388.129,533.477 360.462,533.477C303.264,533.477 256.827,500.644 256.827,460.202C256.827,419.761 303.264,386.927 360.462,386.927C381.824,386.927 401.686,391.507 418.187,399.353ZM391.16,441.713L370.275,441.713C370.275,435.946 365.6,431.27 359.833,431.27C354.066,431.27 349.391,435.946 349.391,441.713C349.391,447.479 354.066,452.155 359.833,452.155C375.073,452.124 388.111,463.092 390.696,478.113C393.276,493.134 384.649,507.823 370.275,512.886L370.275,519.717C412.427,516.274 445.198,490.922 445.198,460.202C445.198,429.482 412.427,404.131 370.275,400.688L370.275,412.308C382.746,416.718 391.103,428.486 391.16,441.713ZM349.391,400.797C307.846,404.637 275.725,429.788 275.725,460.202C275.725,490.616 307.846,515.768 349.391,519.607L349.391,512.886C336.919,508.476 328.562,496.708 328.506,483.482L349.391,483.482C349.391,489.249 354.066,493.924 359.833,493.924C365.6,493.924 370.275,489.248 370.275,483.482C370.275,477.715 365.6,473.039 359.833,473.039C344.593,473.07 331.555,462.103 328.97,447.082C326.39,432.061 335.017,417.371 349.391,412.308L349.391,400.797ZM445.614,501.957C456.222,502.032 468.681,502.076 470.33,502.076C482.067,502.076 493.034,500.408 501.115,497.394C509.132,494.379 510.992,491.365 510.992,490.595L510.992,483.348C509.325,484.246 507.336,485.079 505.156,485.913C495.792,489.441 483.414,491.365 470.33,491.365C468.023,491.365 459.074,491.322 454.379,491.201C451.883,494.972 448.945,498.568 445.614,501.957ZM460.447,479.53C464.553,479.592 468.838,479.628 470.33,479.628C482.067,479.628 493.034,477.96 501.115,474.946C509.132,471.932 510.992,468.917 510.992,468.148L510.992,460.964C509.325,461.862 507.336,462.696 505.156,463.53C495.792,467.057 483.414,468.981 470.33,468.981C469.257,468.981 466.509,468.972 463.364,468.95C462.755,472.563 461.773,476.096 460.447,479.53ZM227.061,478.528C151.217,426.255 124.428,326.717 163.79,243.439C203.148,160.16 297.062,117.677 385.597,143.1C474.138,168.522 531.203,254.36 520.384,345.837L499.647,343.4C500.407,336.874 500.784,330.301 500.784,323.729C500.779,244.316 444.876,175.885 367.063,160.028C289.251,144.176 211.031,185.282 179.953,258.358C148.876,331.438 173.534,416.292 238.931,461.34L227.061,478.528ZM463.992,456.88C466.794,456.91 469.177,456.924 470.33,456.924C482.067,456.924 493.034,455.256 501.115,452.242C509.132,449.227 510.992,446.213 510.992,445.443L510.992,438.26C509.261,438.966 507.336,439.863 505.156,440.697C495.792,444.225 483.414,446.149 470.33,446.149C467.552,446.149 464.805,446.056 462.114,445.878C463.119,449.459 463.755,453.133 463.992,456.88ZM510.992,415.62L510.928,415.62L510.928,415.654C509.274,416.539 507.309,417.362 505.156,418.185C495.792,421.713 483.414,423.637 470.33,423.637C462.722,423.637 455.353,422.987 448.676,421.748C451.93,425.47 454.726,429.412 457.009,433.536C461.235,434.028 465.696,434.284 470.266,434.284C482.003,434.284 492.97,432.616 501.051,429.602C509.068,426.587 510.928,423.573 510.928,422.803L510.928,415.654L510.992,415.62ZM510.992,393.108L510.928,393.108L510.928,393.142C509.274,394.027 507.309,394.851 505.156,395.674C495.792,399.201 483.414,401.125 470.33,401.125C457.246,401.125 444.868,399.201 435.504,395.674C433.323,394.84 431.399,394.006 429.668,393.108L429.668,400.356C429.796,401.318 431.72,404.204 439.48,407.09C447.626,410.104 458.593,411.772 470.266,411.772C482.003,411.772 492.97,410.104 501.051,407.09C509.068,404.076 510.928,401.061 510.928,400.291L510.928,393.142L510.992,393.108ZM431.887,407.129C432.553,405.282 432.784,404.273 431.396,406.801L431.497,406.868L431.887,407.129ZM501.115,371.302C492.97,368.288 482.003,366.62 470.33,366.62C458.593,366.62 447.626,368.288 439.544,371.302C431.784,374.188 429.86,377.074 429.732,378.036L429.732,378.229C429.86,379.191 431.784,382.077 439.544,384.963C447.69,387.977 458.657,389.645 470.33,389.645C482.067,389.645 493.034,387.977 501.115,384.963C509.132,381.949 510.992,378.934 510.992,378.164C510.992,377.395 509.132,374.252 501.115,371.302Z" style="fill:rgb(57,139,247);fill-rule:nonzero;"/>
    </g>
</svg>
