<?xml version="1.0" encoding="UTF-8" standalone="no"?>
<!DOCTYPE svg PUBLIC "-//W3C//DTD SVG 1.1//EN" "http://www.w3.org/Graphics/SVG/1.1/DTD/svg11.dtd">
<svg width="100%" height="100%" viewBox="0 0 48 48" version="1.1" xmlns="http://www.w3.org/2000/svg" xmlns:xlink="http://www.w3.org/1999/xlink" xml:space="preserve" xmlns:serif="http://www.serif.com/" style="fill-rule:evenodd;clip-rule:evenodd;stroke-linejoin:round;stroke-miterlimit:1.41421;">
    <path d="M24,0C10.766,0 0,10.766 0,24C0,37.234 10.766,48 24,48C37.234,48 48,37.234 48,24C48,10.766 37.234,0 24,0ZM24,46.398C11.648,46.398 1.602,36.352 1.602,24C1.602,11.648 11.648,1.602 24,1.602C36.352,1.602 46.398,11.648 46.398,24C46.398,36.352 36.352,46.398 24,46.398Z" style="fill:rgb(57,139,247);fill-rule:nonzero;"/>
    <g transform="matrix(0.659081,0,0,0.659081,8.32732,7.85152)">
        <path d="M44.012,34.312L36.367,30.492C35.648,30.129 35.199,29.406 35.199,28.598L35.199,25.895C35.383,25.668 35.574,25.414 35.773,25.133C36.766,23.734 37.562,22.176 38.137,20.492C39.266,19.977 40,18.859 40,17.602L40,14.398C40,13.629 39.711,12.883 39.199,12.301L39.199,8.043C39.246,7.605 39.422,4.984 37.527,2.824C35.883,0.949 33.219,0 29.602,0C25.984,0 23.316,0.949 21.672,2.824C20.527,4.133 20.141,5.609 20.023,6.668C18.652,5.961 17.035,5.602 15.199,5.602C6.891,5.602 6.406,12.684 6.398,12.801L6.398,16.465C5.883,17.027 5.602,17.68 5.602,18.328L5.602,21.09C5.602,21.953 5.988,22.758 6.648,23.301C7.309,25.789 8.934,27.673 9.562,28.332L9.562,30.523C9.562,31.156 9.223,31.73 8.629,32.059L3.305,35.395C1.266,36.508 0,38.641 0,40.961L0,44L48,44L48,40.766C48,38.016 46.473,35.543 44.012,34.312ZM11.199,40.609L11.199,42.398L1.602,42.398L1.602,40.961C1.602,39.227 2.547,37.633 4.113,36.777L9.434,33.438C10.5,32.855 11.164,31.742 11.164,30.523L11.164,27.652L10.91,27.414C10.887,27.395 8.762,25.387 8.133,22.652L8.062,22.332L7.789,22.156C7.422,21.918 7.199,21.52 7.199,21.09L7.199,18.328C7.199,18.039 7.395,17.695 7.738,17.387L8,17.152L8,12.848C8.012,12.617 8.43,7.199 15.199,7.199C17.113,7.199 18.727,7.641 20,8.516L20,12.301C19.488,12.883 19.199,13.629 19.199,14.398L19.199,17.602C19.199,17.844 19.227,18.082 19.281,18.312C19.301,18.406 19.344,18.492 19.375,18.582C19.418,18.715 19.453,18.855 19.516,18.98C19.516,18.984 19.52,18.984 19.52,18.984C19.723,19.406 20.023,19.785 20.398,20.086C20.402,20.102 20.406,20.117 20.41,20.129C20.457,20.312 20.508,20.496 20.562,20.676L20.629,20.883C20.641,20.922 20.652,20.957 20.664,20.996C20.691,21.082 20.719,21.168 20.75,21.25C20.797,21.391 20.848,21.535 20.906,21.695C20.93,21.758 20.957,21.82 20.984,21.883C21.047,22.051 21.113,22.211 21.184,22.371C21.199,22.41 21.215,22.453 21.23,22.488L21.277,22.59C21.297,22.637 21.32,22.68 21.34,22.723C21.418,22.895 21.496,23.062 21.574,23.223C21.586,23.246 21.598,23.273 21.613,23.301C21.664,23.398 21.711,23.496 21.762,23.59C21.848,23.754 21.934,23.91 22.02,24.062C22.062,24.133 22.102,24.207 22.141,24.277C22.258,24.473 22.367,24.652 22.473,24.82C22.496,24.859 22.52,24.895 22.543,24.93C22.734,25.23 22.902,25.473 23.043,25.664C23.078,25.711 23.109,25.758 23.141,25.797C23.16,25.82 23.184,25.855 23.199,25.875L23.199,28.523C23.199,29.297 22.777,30.008 22.098,30.379L19.98,31.535L19.613,31.5L19.461,31.816L14.961,34.273C12.641,35.539 11.199,37.965 11.199,40.609ZM46.398,42.398L12.801,42.398L12.801,40.609C12.801,38.555 13.922,36.664 15.727,35.68L22.863,31.785C24.059,31.133 24.801,29.883 24.801,28.523L24.801,25.309L24.645,25.125L24.613,25.086C24.613,25.086 24.562,25.023 24.48,24.918C24.477,24.914 24.473,24.906 24.469,24.898C24.426,24.844 24.375,24.777 24.32,24.699C24.316,24.699 24.316,24.695 24.316,24.695C24.195,24.531 24.047,24.312 23.879,24.055C23.875,24.051 23.875,24.043 23.871,24.039C23.793,23.914 23.707,23.781 23.625,23.641C23.617,23.629 23.609,23.621 23.605,23.609C23.422,23.305 23.23,22.961 23.039,22.582L23.039,22.578C22.938,22.375 22.836,22.16 22.738,21.938C22.723,21.906 22.707,21.875 22.695,21.844C22.652,21.746 22.605,21.641 22.562,21.531C22.547,21.492 22.531,21.453 22.516,21.414C22.473,21.309 22.43,21.203 22.387,21.082C22.305,20.863 22.227,20.637 22.152,20.402L22.109,20.262C22.105,20.242 22.098,20.227 22.094,20.211C22.02,19.957 21.945,19.699 21.887,19.434L21.812,19.117L21.539,18.941C21.078,18.641 20.801,18.141 20.801,17.602L20.801,14.398C20.801,13.953 20.992,13.531 21.336,13.219L21.602,12.98L21.602,7.719L21.578,7.699C21.551,7.121 21.586,5.352 22.875,3.879C24.203,2.367 26.465,1.602 29.602,1.602C32.723,1.602 34.98,2.359 36.309,3.863C37.867,5.625 37.609,7.875 37.605,7.895L37.602,12.98L37.863,13.223C38.211,13.531 38.398,13.953 38.398,14.398L38.398,17.602C38.398,18.297 37.941,18.91 37.262,19.121L36.863,19.242L36.734,19.637C36.199,21.301 35.438,22.84 34.469,24.207C34.23,24.543 34,24.844 33.801,25.07L33.602,25.297L33.602,28.598C33.602,30.016 34.387,31.289 35.652,31.922L43.297,35.742C45.211,36.699 46.398,38.625 46.398,40.766L46.398,42.398Z" style="fill:rgb(57,139,247);fill-rule:nonzero;stroke:rgb(57,139,247);stroke-width:0.79px;"/>
    </g>
</svg>
